M48
;DRILL file {KiCad 5.0.0} date Mon Jul 16 21:18:09 2018
;FORMAT={3:3/ absolute / metric / suppress leading zeros}
FMAT,2
METRIC,TZ
T1C0.400
T2C1.000
T3C2.390
T4C3.450
%
G90
G05
M71
T1
X100838Y-154432
X100884Y-131222
X122632Y-79697
X122995Y-92550
X124460Y-120240
X125590Y-99946
X125590Y-141346
X126746Y-155956
X127579Y-131223
X133439Y-142182
X137923Y-99892
X138955Y-97372
X141732Y-141478
X142859Y-156836
X144128Y-155448
X145164Y-144814
X145802Y-141268
T2
X121920Y-149860
X124460Y-149860
X127000Y-149860
X129540Y-149860
X132080Y-149860
X134620Y-149860
X137160Y-149860
X139700Y-149860
X120060Y-79600
X120060Y-82140
X120060Y-84680
X120060Y-87220
X120060Y-89760
X120060Y-92300
X120060Y-94840
X120060Y-97380
X120060Y-99920
X120060Y-102460
X120060Y-105000
X120060Y-107540
X120060Y-110080
X120060Y-112620
X120060Y-115160
X120060Y-117700
X120060Y-120240
X120060Y-122780
X138000Y-158460
X138000Y-161000
X140540Y-158460
X140540Y-161000
X121920Y-144780
X124460Y-144780
X127000Y-144780
X129540Y-144780
X132080Y-144780
X134620Y-144780
X137160Y-144780
X139700Y-144780
X121920Y-147320
X124460Y-147320
X127000Y-147320
X129540Y-147320
X132080Y-147320
X134620Y-147320
X137160Y-147320
X139700Y-147320
X142920Y-79600
X142920Y-82140
X142920Y-84680
X142920Y-87220
X142920Y-89760
X142920Y-92300
X142920Y-94840
X142920Y-97380
X142920Y-99920
X142920Y-102460
X142920Y-105000
X142920Y-107540
X142920Y-110080
X142920Y-112620
X142920Y-115160
X142920Y-117700
X142920Y-120240
X142920Y-122780
X121460Y-161000
X124000Y-161000
X126540Y-161000
X129080Y-161000
X130810Y-90170
X133350Y-90170
T3
X93000Y-156260
T4
X93000Y-92730
X109000Y-147930
T0
M30
