G04 #@! TF.GenerationSoftware,KiCad,Pcbnew,5.0.0*
G04 #@! TF.CreationDate,2018-07-16T21:17:55+02:00*
G04 #@! TF.ProjectId,Heltec_Node,48656C7465635F4E6F64652E6B696361,rev?*
G04 #@! TF.SameCoordinates,Original*
G04 #@! TF.FileFunction,Legend,Top*
G04 #@! TF.FilePolarity,Positive*
%FSLAX46Y46*%
G04 Gerber Fmt 4.6, Leading zero omitted, Abs format (unit mm)*
G04 Created by KiCad (PCBNEW 5.0.0) date Mon Jul 16 21:17:55 2018*
%MOMM*%
%LPD*%
G01*
G04 APERTURE LIST*
%ADD10C,0.200000*%
%ADD11C,1.500000*%
%ADD12C,0.250000*%
%ADD13C,0.010000*%
%ADD14C,0.120000*%
%ADD15C,0.150000*%
G04 APERTURE END LIST*
D10*
X147804761Y-154281142D02*
X147852380Y-154328761D01*
X147804761Y-154376380D01*
X147757142Y-154328761D01*
X147804761Y-154281142D01*
X147804761Y-154376380D01*
X148280952Y-154281142D02*
X148328571Y-154328761D01*
X148280952Y-154376380D01*
X148233333Y-154328761D01*
X148280952Y-154281142D01*
X148280952Y-154376380D01*
X148757142Y-154281142D02*
X148804761Y-154328761D01*
X148757142Y-154376380D01*
X148709523Y-154328761D01*
X148757142Y-154281142D01*
X148757142Y-154376380D01*
X150423809Y-153709714D02*
X150423809Y-154519238D01*
X150376190Y-154614476D01*
X150328571Y-154662095D01*
X150233333Y-154709714D01*
X150090476Y-154709714D01*
X149995238Y-154662095D01*
X150423809Y-154328761D02*
X150328571Y-154376380D01*
X150138095Y-154376380D01*
X150042857Y-154328761D01*
X149995238Y-154281142D01*
X149947619Y-154185904D01*
X149947619Y-153900190D01*
X149995238Y-153804952D01*
X150042857Y-153757333D01*
X150138095Y-153709714D01*
X150328571Y-153709714D01*
X150423809Y-153757333D01*
X151042857Y-154376380D02*
X150947619Y-154328761D01*
X150900000Y-154281142D01*
X150852380Y-154185904D01*
X150852380Y-153900190D01*
X150900000Y-153804952D01*
X150947619Y-153757333D01*
X151042857Y-153709714D01*
X151185714Y-153709714D01*
X151280952Y-153757333D01*
X151328571Y-153804952D01*
X151376190Y-153900190D01*
X151376190Y-154185904D01*
X151328571Y-154281142D01*
X151280952Y-154328761D01*
X151185714Y-154376380D01*
X151042857Y-154376380D01*
X152185714Y-154328761D02*
X152090476Y-154376380D01*
X151900000Y-154376380D01*
X151804761Y-154328761D01*
X151757142Y-154233523D01*
X151757142Y-153852571D01*
X151804761Y-153757333D01*
X151900000Y-153709714D01*
X152090476Y-153709714D01*
X152185714Y-153757333D01*
X152233333Y-153852571D01*
X152233333Y-153947809D01*
X151757142Y-154043047D01*
X152614285Y-154328761D02*
X152709523Y-154376380D01*
X152900000Y-154376380D01*
X152995238Y-154328761D01*
X153042857Y-154233523D01*
X153042857Y-154185904D01*
X152995238Y-154090666D01*
X152900000Y-154043047D01*
X152757142Y-154043047D01*
X152661904Y-153995428D01*
X152614285Y-153900190D01*
X152614285Y-153852571D01*
X152661904Y-153757333D01*
X152757142Y-153709714D01*
X152900000Y-153709714D01*
X152995238Y-153757333D01*
X154233333Y-154376380D02*
X154233333Y-153376380D01*
X154661904Y-154376380D02*
X154661904Y-153852571D01*
X154614285Y-153757333D01*
X154519047Y-153709714D01*
X154376190Y-153709714D01*
X154280952Y-153757333D01*
X154233333Y-153804952D01*
X155519047Y-154328761D02*
X155423809Y-154376380D01*
X155233333Y-154376380D01*
X155138095Y-154328761D01*
X155090476Y-154233523D01*
X155090476Y-153852571D01*
X155138095Y-153757333D01*
X155233333Y-153709714D01*
X155423809Y-153709714D01*
X155519047Y-153757333D01*
X155566666Y-153852571D01*
X155566666Y-153947809D01*
X155090476Y-154043047D01*
X155995238Y-154376380D02*
X155995238Y-153709714D01*
X155995238Y-153900190D02*
X156042857Y-153804952D01*
X156090476Y-153757333D01*
X156185714Y-153709714D01*
X156280952Y-153709714D01*
X156995238Y-154328761D02*
X156900000Y-154376380D01*
X156709523Y-154376380D01*
X156614285Y-154328761D01*
X156566666Y-154233523D01*
X156566666Y-153852571D01*
X156614285Y-153757333D01*
X156709523Y-153709714D01*
X156900000Y-153709714D01*
X156995238Y-153757333D01*
X157042857Y-153852571D01*
X157042857Y-153947809D01*
X156566666Y-154043047D01*
X104354380Y-112331238D02*
X104354380Y-111759809D01*
X105354380Y-112045523D02*
X104354380Y-112045523D01*
X105354380Y-111426476D02*
X104354380Y-111426476D01*
X105354380Y-110997904D02*
X104830571Y-110997904D01*
X104735333Y-111045523D01*
X104687714Y-111140761D01*
X104687714Y-111283619D01*
X104735333Y-111378857D01*
X104782952Y-111426476D01*
X105354380Y-110521714D02*
X104687714Y-110521714D01*
X104354380Y-110521714D02*
X104402000Y-110569333D01*
X104449619Y-110521714D01*
X104402000Y-110474095D01*
X104354380Y-110521714D01*
X104449619Y-110521714D01*
X105306761Y-110093142D02*
X105354380Y-109997904D01*
X105354380Y-109807428D01*
X105306761Y-109712190D01*
X105211523Y-109664571D01*
X105163904Y-109664571D01*
X105068666Y-109712190D01*
X105021047Y-109807428D01*
X105021047Y-109950285D01*
X104973428Y-110045523D01*
X104878190Y-110093142D01*
X104830571Y-110093142D01*
X104735333Y-110045523D01*
X104687714Y-109950285D01*
X104687714Y-109807428D01*
X104735333Y-109712190D01*
X105259142Y-109236000D02*
X105306761Y-109188380D01*
X105354380Y-109236000D01*
X105306761Y-109283619D01*
X105259142Y-109236000D01*
X105354380Y-109236000D01*
X105259142Y-108759809D02*
X105306761Y-108712190D01*
X105354380Y-108759809D01*
X105306761Y-108807428D01*
X105259142Y-108759809D01*
X105354380Y-108759809D01*
X105259142Y-108283619D02*
X105306761Y-108236000D01*
X105354380Y-108283619D01*
X105306761Y-108331238D01*
X105259142Y-108283619D01*
X105354380Y-108283619D01*
X118816380Y-162202666D02*
X117816380Y-162202666D01*
X117816380Y-161964571D01*
X117864000Y-161821714D01*
X117959238Y-161726476D01*
X118054476Y-161678857D01*
X118244952Y-161631238D01*
X118387809Y-161631238D01*
X118578285Y-161678857D01*
X118673523Y-161726476D01*
X118768761Y-161821714D01*
X118816380Y-161964571D01*
X118816380Y-162202666D01*
X118816380Y-161202666D02*
X117816380Y-161202666D01*
X118292571Y-161202666D02*
X118292571Y-160631238D01*
X118816380Y-160631238D02*
X117816380Y-160631238D01*
X117816380Y-160297904D02*
X117816380Y-159726476D01*
X118816380Y-160012190D02*
X117816380Y-160012190D01*
X144080761Y-164059619D02*
X144128380Y-163916761D01*
X144128380Y-163678666D01*
X144080761Y-163583428D01*
X144033142Y-163535809D01*
X143937904Y-163488190D01*
X143842666Y-163488190D01*
X143747428Y-163535809D01*
X143699809Y-163583428D01*
X143652190Y-163678666D01*
X143604571Y-163869142D01*
X143556952Y-163964380D01*
X143509333Y-164012000D01*
X143414095Y-164059619D01*
X143318857Y-164059619D01*
X143223619Y-164012000D01*
X143176000Y-163964380D01*
X143128380Y-163869142D01*
X143128380Y-163631047D01*
X143176000Y-163488190D01*
X144128380Y-163059619D02*
X143128380Y-163059619D01*
X144128380Y-162631047D02*
X143604571Y-162631047D01*
X143509333Y-162678666D01*
X143461714Y-162773904D01*
X143461714Y-162916761D01*
X143509333Y-163012000D01*
X143556952Y-163059619D01*
X144128380Y-162154857D02*
X143461714Y-162154857D01*
X143128380Y-162154857D02*
X143176000Y-162202476D01*
X143223619Y-162154857D01*
X143176000Y-162107238D01*
X143128380Y-162154857D01*
X143223619Y-162154857D01*
X143461714Y-161821523D02*
X143461714Y-161440571D01*
X143128380Y-161678666D02*
X143985523Y-161678666D01*
X144080761Y-161631047D01*
X144128380Y-161535809D01*
X144128380Y-161440571D01*
X143461714Y-161250095D02*
X143461714Y-160869142D01*
X143128380Y-161107238D02*
X143985523Y-161107238D01*
X144080761Y-161059619D01*
X144128380Y-160964380D01*
X144128380Y-160869142D01*
X143461714Y-160631047D02*
X144128380Y-160392952D01*
X143461714Y-160154857D02*
X144128380Y-160392952D01*
X144366476Y-160488190D01*
X144414095Y-160535809D01*
X144461714Y-160631047D01*
X143842666Y-159059619D02*
X143842666Y-158583428D01*
X144128380Y-159154857D02*
X143128380Y-158821523D01*
X144128380Y-158488190D01*
X144128380Y-157726285D02*
X143128380Y-157726285D01*
X144080761Y-157726285D02*
X144128380Y-157821523D01*
X144128380Y-158012000D01*
X144080761Y-158107238D01*
X144033142Y-158154857D01*
X143937904Y-158202476D01*
X143652190Y-158202476D01*
X143556952Y-158154857D01*
X143509333Y-158107238D01*
X143461714Y-158012000D01*
X143461714Y-157821523D01*
X143509333Y-157726285D01*
X144128380Y-156821523D02*
X143128380Y-156821523D01*
X144080761Y-156821523D02*
X144128380Y-156916761D01*
X144128380Y-157107238D01*
X144080761Y-157202476D01*
X144033142Y-157250095D01*
X143937904Y-157297714D01*
X143652190Y-157297714D01*
X143556952Y-157250095D01*
X143509333Y-157202476D01*
X143461714Y-157107238D01*
X143461714Y-156916761D01*
X143509333Y-156821523D01*
X144128380Y-156202476D02*
X144080761Y-156297714D01*
X144033142Y-156345333D01*
X143937904Y-156392952D01*
X143652190Y-156392952D01*
X143556952Y-156345333D01*
X143509333Y-156297714D01*
X143461714Y-156202476D01*
X143461714Y-156059619D01*
X143509333Y-155964380D01*
X143556952Y-155916761D01*
X143652190Y-155869142D01*
X143937904Y-155869142D01*
X144033142Y-155916761D01*
X144080761Y-155964380D01*
X144128380Y-156059619D01*
X144128380Y-156202476D01*
X143461714Y-155440571D02*
X144128380Y-155440571D01*
X143556952Y-155440571D02*
X143509333Y-155392952D01*
X143461714Y-155297714D01*
X143461714Y-155154857D01*
X143509333Y-155059619D01*
X143604571Y-155012000D01*
X144128380Y-155012000D01*
X145733142Y-162464380D02*
X145780761Y-162512000D01*
X145828380Y-162654857D01*
X145828380Y-162750095D01*
X145780761Y-162892952D01*
X145685523Y-162988190D01*
X145590285Y-163035809D01*
X145399809Y-163083428D01*
X145256952Y-163083428D01*
X145066476Y-163035809D01*
X144971238Y-162988190D01*
X144876000Y-162892952D01*
X144828380Y-162750095D01*
X144828380Y-162654857D01*
X144876000Y-162512000D01*
X144923619Y-162464380D01*
X145828380Y-161892952D02*
X145780761Y-161988190D01*
X145733142Y-162035809D01*
X145637904Y-162083428D01*
X145352190Y-162083428D01*
X145256952Y-162035809D01*
X145209333Y-161988190D01*
X145161714Y-161892952D01*
X145161714Y-161750095D01*
X145209333Y-161654857D01*
X145256952Y-161607238D01*
X145352190Y-161559619D01*
X145637904Y-161559619D01*
X145733142Y-161607238D01*
X145780761Y-161654857D01*
X145828380Y-161750095D01*
X145828380Y-161892952D01*
X145161714Y-161131047D02*
X145828380Y-161131047D01*
X145256952Y-161131047D02*
X145209333Y-161083428D01*
X145161714Y-160988190D01*
X145161714Y-160845333D01*
X145209333Y-160750095D01*
X145304571Y-160702476D01*
X145828380Y-160702476D01*
X145161714Y-160226285D02*
X145828380Y-160226285D01*
X145256952Y-160226285D02*
X145209333Y-160178666D01*
X145161714Y-160083428D01*
X145161714Y-159940571D01*
X145209333Y-159845333D01*
X145304571Y-159797714D01*
X145828380Y-159797714D01*
X145780761Y-158940571D02*
X145828380Y-159035809D01*
X145828380Y-159226285D01*
X145780761Y-159321523D01*
X145685523Y-159369142D01*
X145304571Y-159369142D01*
X145209333Y-159321523D01*
X145161714Y-159226285D01*
X145161714Y-159035809D01*
X145209333Y-158940571D01*
X145304571Y-158892952D01*
X145399809Y-158892952D01*
X145495047Y-159369142D01*
X145780761Y-158035809D02*
X145828380Y-158131047D01*
X145828380Y-158321523D01*
X145780761Y-158416761D01*
X145733142Y-158464380D01*
X145637904Y-158512000D01*
X145352190Y-158512000D01*
X145256952Y-158464380D01*
X145209333Y-158416761D01*
X145161714Y-158321523D01*
X145161714Y-158131047D01*
X145209333Y-158035809D01*
X145161714Y-157750095D02*
X145161714Y-157369142D01*
X144828380Y-157607238D02*
X145685523Y-157607238D01*
X145780761Y-157559619D01*
X145828380Y-157464380D01*
X145828380Y-157369142D01*
X145828380Y-156892952D02*
X145780761Y-156988190D01*
X145733142Y-157035809D01*
X145637904Y-157083428D01*
X145352190Y-157083428D01*
X145256952Y-157035809D01*
X145209333Y-156988190D01*
X145161714Y-156892952D01*
X145161714Y-156750095D01*
X145209333Y-156654857D01*
X145256952Y-156607238D01*
X145352190Y-156559619D01*
X145637904Y-156559619D01*
X145733142Y-156607238D01*
X145780761Y-156654857D01*
X145828380Y-156750095D01*
X145828380Y-156892952D01*
X145828380Y-156131047D02*
X145161714Y-156131047D01*
X145352190Y-156131047D02*
X145256952Y-156083428D01*
X145209333Y-156035809D01*
X145161714Y-155940571D01*
X145161714Y-155845333D01*
D11*
X135931219Y-163068000D02*
G75*
G03X135931219Y-163068000I-803219J0D01*
G01*
D12*
X121622752Y-141952719D02*
X121670371Y-141905100D01*
X121765609Y-141857480D01*
X122003704Y-141857480D01*
X122098942Y-141905100D01*
X122146561Y-141952719D01*
X122194180Y-142047957D01*
X122194180Y-142143195D01*
X122146561Y-142286052D01*
X121575133Y-142857480D01*
X122194180Y-142857480D01*
X123908466Y-142857480D02*
X123337038Y-142857480D01*
X123622752Y-142857480D02*
X123622752Y-141857480D01*
X123527514Y-142000338D01*
X123432276Y-142095576D01*
X123337038Y-142143195D01*
X124241800Y-141857480D02*
X124908466Y-141857480D01*
X124479895Y-142857480D01*
X125956085Y-141857480D02*
X126575133Y-141857480D01*
X126241800Y-142238433D01*
X126384657Y-142238433D01*
X126479895Y-142286052D01*
X126527514Y-142333671D01*
X126575133Y-142428909D01*
X126575133Y-142667004D01*
X126527514Y-142762242D01*
X126479895Y-142809861D01*
X126384657Y-142857480D01*
X126098942Y-142857480D01*
X126003704Y-142809861D01*
X125956085Y-142762242D01*
X127432276Y-142190814D02*
X127432276Y-142857480D01*
X127194180Y-141809861D02*
X126956085Y-142524147D01*
X127575133Y-142524147D01*
X128622752Y-141857480D02*
X129241800Y-141857480D01*
X128908466Y-142238433D01*
X129051323Y-142238433D01*
X129146561Y-142286052D01*
X129194180Y-142333671D01*
X129241800Y-142428909D01*
X129241800Y-142667004D01*
X129194180Y-142762242D01*
X129146561Y-142809861D01*
X129051323Y-142857480D01*
X128765609Y-142857480D01*
X128670371Y-142809861D01*
X128622752Y-142762242D01*
X130146561Y-141857480D02*
X129670371Y-141857480D01*
X129622752Y-142333671D01*
X129670371Y-142286052D01*
X129765609Y-142238433D01*
X130003704Y-142238433D01*
X130098942Y-142286052D01*
X130146561Y-142333671D01*
X130194180Y-142428909D01*
X130194180Y-142667004D01*
X130146561Y-142762242D01*
X130098942Y-142809861D01*
X130003704Y-142857480D01*
X129765609Y-142857480D01*
X129670371Y-142809861D01*
X129622752Y-142762242D01*
X131289419Y-141857480D02*
X131908466Y-141857480D01*
X131575133Y-142238433D01*
X131717990Y-142238433D01*
X131813228Y-142286052D01*
X131860847Y-142333671D01*
X131908466Y-142428909D01*
X131908466Y-142667004D01*
X131860847Y-142762242D01*
X131813228Y-142809861D01*
X131717990Y-142857480D01*
X131432276Y-142857480D01*
X131337038Y-142809861D01*
X131289419Y-142762242D01*
X132765609Y-141857480D02*
X132575133Y-141857480D01*
X132479895Y-141905100D01*
X132432276Y-141952719D01*
X132337038Y-142095576D01*
X132289419Y-142286052D01*
X132289419Y-142667004D01*
X132337038Y-142762242D01*
X132384657Y-142809861D01*
X132479895Y-142857480D01*
X132670371Y-142857480D01*
X132765609Y-142809861D01*
X132813228Y-142762242D01*
X132860847Y-142667004D01*
X132860847Y-142428909D01*
X132813228Y-142333671D01*
X132765609Y-142286052D01*
X132670371Y-142238433D01*
X132479895Y-142238433D01*
X132384657Y-142286052D01*
X132337038Y-142333671D01*
X132289419Y-142428909D01*
X133956085Y-141857480D02*
X134575133Y-141857480D01*
X134241800Y-142238433D01*
X134384657Y-142238433D01*
X134479895Y-142286052D01*
X134527514Y-142333671D01*
X134575133Y-142428909D01*
X134575133Y-142667004D01*
X134527514Y-142762242D01*
X134479895Y-142809861D01*
X134384657Y-142857480D01*
X134098942Y-142857480D01*
X134003704Y-142809861D01*
X133956085Y-142762242D01*
X134908466Y-141857480D02*
X135575133Y-141857480D01*
X135146561Y-142857480D01*
X136622752Y-141857480D02*
X137241800Y-141857480D01*
X136908466Y-142238433D01*
X137051323Y-142238433D01*
X137146561Y-142286052D01*
X137194180Y-142333671D01*
X137241800Y-142428909D01*
X137241800Y-142667004D01*
X137194180Y-142762242D01*
X137146561Y-142809861D01*
X137051323Y-142857480D01*
X136765609Y-142857480D01*
X136670371Y-142809861D01*
X136622752Y-142762242D01*
X137813228Y-142286052D02*
X137717990Y-142238433D01*
X137670371Y-142190814D01*
X137622752Y-142095576D01*
X137622752Y-142047957D01*
X137670371Y-141952719D01*
X137717990Y-141905100D01*
X137813228Y-141857480D01*
X138003704Y-141857480D01*
X138098942Y-141905100D01*
X138146561Y-141952719D01*
X138194180Y-142047957D01*
X138194180Y-142095576D01*
X138146561Y-142190814D01*
X138098942Y-142238433D01*
X138003704Y-142286052D01*
X137813228Y-142286052D01*
X137717990Y-142333671D01*
X137670371Y-142381290D01*
X137622752Y-142476528D01*
X137622752Y-142667004D01*
X137670371Y-142762242D01*
X137717990Y-142809861D01*
X137813228Y-142857480D01*
X138003704Y-142857480D01*
X138098942Y-142809861D01*
X138146561Y-142762242D01*
X138194180Y-142667004D01*
X138194180Y-142476528D01*
X138146561Y-142381290D01*
X138098942Y-142333671D01*
X138003704Y-142286052D01*
X139289419Y-141857480D02*
X139908466Y-141857480D01*
X139575133Y-142238433D01*
X139717990Y-142238433D01*
X139813228Y-142286052D01*
X139860847Y-142333671D01*
X139908466Y-142428909D01*
X139908466Y-142667004D01*
X139860847Y-142762242D01*
X139813228Y-142809861D01*
X139717990Y-142857480D01*
X139432276Y-142857480D01*
X139337038Y-142809861D01*
X139289419Y-142762242D01*
X140384657Y-142857480D02*
X140575133Y-142857480D01*
X140670371Y-142809861D01*
X140717990Y-142762242D01*
X140813228Y-142619385D01*
X140860847Y-142428909D01*
X140860847Y-142047957D01*
X140813228Y-141952719D01*
X140765609Y-141905100D01*
X140670371Y-141857480D01*
X140479895Y-141857480D01*
X140384657Y-141905100D01*
X140337038Y-141952719D01*
X140289419Y-142047957D01*
X140289419Y-142286052D01*
X140337038Y-142381290D01*
X140384657Y-142428909D01*
X140479895Y-142476528D01*
X140670371Y-142476528D01*
X140765609Y-142428909D01*
X140813228Y-142381290D01*
X140860847Y-142286052D01*
D13*
G04 #@! TO.C,G\002A\002A\002A*
G36*
X140593042Y-85720799D02*
X140612074Y-85369049D01*
X140644750Y-85002010D01*
X140688225Y-84649908D01*
X140739654Y-84342969D01*
X140796191Y-84111419D01*
X140854990Y-83985485D01*
X140873085Y-83972666D01*
X140927565Y-83890426D01*
X140944571Y-83768406D01*
X140975154Y-83586344D01*
X141052953Y-83341943D01*
X141157045Y-83086837D01*
X141266506Y-82872661D01*
X141355174Y-82755142D01*
X141438370Y-82618367D01*
X141452571Y-82533493D01*
X141491365Y-82398076D01*
X141591431Y-82196862D01*
X141688429Y-82038933D01*
X141832501Y-81820594D01*
X141953074Y-81633674D01*
X142004957Y-81550188D01*
X142170445Y-81312800D01*
X142402163Y-81034192D01*
X142678864Y-80734458D01*
X142979301Y-80433697D01*
X143282227Y-80152006D01*
X143566396Y-79909482D01*
X143810560Y-79726221D01*
X143993473Y-79622322D01*
X144060076Y-79606286D01*
X144134655Y-79559625D01*
X144137714Y-79541706D01*
X144198317Y-79475520D01*
X144348621Y-79383899D01*
X144541368Y-79289458D01*
X144729299Y-79214813D01*
X144865156Y-79182577D01*
X144885587Y-79183824D01*
X145011661Y-79164793D01*
X145131156Y-79113321D01*
X145276113Y-79055396D01*
X145495552Y-78991491D01*
X145747145Y-78930889D01*
X145988567Y-78882871D01*
X146177488Y-78856717D01*
X146271582Y-78861709D01*
X146273034Y-78862938D01*
X146255250Y-78936978D01*
X146171689Y-79090593D01*
X146078309Y-79234516D01*
X145956685Y-79416204D01*
X145881605Y-79538033D01*
X145868561Y-79570000D01*
X145861548Y-79628330D01*
X145817489Y-79759751D01*
X145750693Y-80016372D01*
X145699682Y-80366316D01*
X145668565Y-80758235D01*
X145661450Y-81140779D01*
X145681695Y-81456857D01*
X145733423Y-81788133D01*
X145809564Y-82191194D01*
X145900180Y-82620554D01*
X145995331Y-83030722D01*
X146085082Y-83376211D01*
X146141475Y-83561428D01*
X146235581Y-83930824D01*
X146307605Y-84396638D01*
X146353723Y-84911299D01*
X146370111Y-85427237D01*
X146352945Y-85896879D01*
X146339831Y-86028857D01*
X146277032Y-86456140D01*
X146196166Y-86857876D01*
X146106907Y-87190837D01*
X146039347Y-87371428D01*
X145698657Y-87944919D01*
X145256021Y-88432150D01*
X144730662Y-88816251D01*
X144319143Y-89000816D01*
X144319143Y-80404571D01*
X144355429Y-80368286D01*
X144319143Y-80332000D01*
X144282857Y-80368286D01*
X144319143Y-80404571D01*
X144319143Y-89000816D01*
X144141805Y-89080352D01*
X144065143Y-89103954D01*
X143774389Y-89153071D01*
X143518691Y-89156534D01*
X143518691Y-86557636D01*
X143639337Y-86531448D01*
X143758202Y-86452206D01*
X143923749Y-86298940D01*
X144038879Y-86142183D01*
X144080782Y-85967367D01*
X144097655Y-85675936D01*
X144090084Y-85294139D01*
X144058653Y-84848226D01*
X144003946Y-84364447D01*
X143998380Y-84323428D01*
X143932120Y-83760650D01*
X143877715Y-83141840D01*
X143852253Y-82745000D01*
X143821600Y-82655040D01*
X143755122Y-82678201D01*
X143666424Y-82791136D01*
X143569110Y-82970497D01*
X143476785Y-83192938D01*
X143403052Y-83435112D01*
X143376517Y-83561428D01*
X143331960Y-83763755D01*
X143283599Y-83905090D01*
X143272353Y-83924285D01*
X143216782Y-84055714D01*
X143154329Y-84289739D01*
X143093339Y-84584618D01*
X143042156Y-84898604D01*
X143009124Y-85189953D01*
X143003993Y-85266857D01*
X143014444Y-85654697D01*
X143080318Y-86007991D01*
X143191474Y-86293053D01*
X143337770Y-86476197D01*
X143375381Y-86500393D01*
X143518691Y-86557636D01*
X143518691Y-89156534D01*
X143429493Y-89157743D01*
X143085429Y-89125098D01*
X143085429Y-87661714D01*
X143121714Y-87625428D01*
X143085429Y-87589143D01*
X143049143Y-87625428D01*
X143085429Y-87661714D01*
X143085429Y-89125098D01*
X143070702Y-89123700D01*
X142738264Y-89056678D01*
X142472426Y-88962407D01*
X142320348Y-88855430D01*
X142185944Y-88764795D01*
X142113445Y-88750286D01*
X141994190Y-88697143D01*
X141824063Y-88561175D01*
X141636684Y-88377574D01*
X141465669Y-88181532D01*
X141344638Y-88008239D01*
X141306175Y-87905238D01*
X141257375Y-87816597D01*
X141141160Y-87687989D01*
X141136017Y-87683088D01*
X141045385Y-87556561D01*
X140940504Y-87351824D01*
X140836413Y-87107993D01*
X140748147Y-86864183D01*
X140690743Y-86659508D01*
X140679238Y-86533083D01*
X140687329Y-86515909D01*
X140681539Y-86436610D01*
X140646268Y-86382053D01*
X140607294Y-86257527D01*
X140590500Y-86027033D01*
X140593042Y-85720799D01*
X140593042Y-85720799D01*
G37*
X140593042Y-85720799D02*
X140612074Y-85369049D01*
X140644750Y-85002010D01*
X140688225Y-84649908D01*
X140739654Y-84342969D01*
X140796191Y-84111419D01*
X140854990Y-83985485D01*
X140873085Y-83972666D01*
X140927565Y-83890426D01*
X140944571Y-83768406D01*
X140975154Y-83586344D01*
X141052953Y-83341943D01*
X141157045Y-83086837D01*
X141266506Y-82872661D01*
X141355174Y-82755142D01*
X141438370Y-82618367D01*
X141452571Y-82533493D01*
X141491365Y-82398076D01*
X141591431Y-82196862D01*
X141688429Y-82038933D01*
X141832501Y-81820594D01*
X141953074Y-81633674D01*
X142004957Y-81550188D01*
X142170445Y-81312800D01*
X142402163Y-81034192D01*
X142678864Y-80734458D01*
X142979301Y-80433697D01*
X143282227Y-80152006D01*
X143566396Y-79909482D01*
X143810560Y-79726221D01*
X143993473Y-79622322D01*
X144060076Y-79606286D01*
X144134655Y-79559625D01*
X144137714Y-79541706D01*
X144198317Y-79475520D01*
X144348621Y-79383899D01*
X144541368Y-79289458D01*
X144729299Y-79214813D01*
X144865156Y-79182577D01*
X144885587Y-79183824D01*
X145011661Y-79164793D01*
X145131156Y-79113321D01*
X145276113Y-79055396D01*
X145495552Y-78991491D01*
X145747145Y-78930889D01*
X145988567Y-78882871D01*
X146177488Y-78856717D01*
X146271582Y-78861709D01*
X146273034Y-78862938D01*
X146255250Y-78936978D01*
X146171689Y-79090593D01*
X146078309Y-79234516D01*
X145956685Y-79416204D01*
X145881605Y-79538033D01*
X145868561Y-79570000D01*
X145861548Y-79628330D01*
X145817489Y-79759751D01*
X145750693Y-80016372D01*
X145699682Y-80366316D01*
X145668565Y-80758235D01*
X145661450Y-81140779D01*
X145681695Y-81456857D01*
X145733423Y-81788133D01*
X145809564Y-82191194D01*
X145900180Y-82620554D01*
X145995331Y-83030722D01*
X146085082Y-83376211D01*
X146141475Y-83561428D01*
X146235581Y-83930824D01*
X146307605Y-84396638D01*
X146353723Y-84911299D01*
X146370111Y-85427237D01*
X146352945Y-85896879D01*
X146339831Y-86028857D01*
X146277032Y-86456140D01*
X146196166Y-86857876D01*
X146106907Y-87190837D01*
X146039347Y-87371428D01*
X145698657Y-87944919D01*
X145256021Y-88432150D01*
X144730662Y-88816251D01*
X144319143Y-89000816D01*
X144319143Y-80404571D01*
X144355429Y-80368286D01*
X144319143Y-80332000D01*
X144282857Y-80368286D01*
X144319143Y-80404571D01*
X144319143Y-89000816D01*
X144141805Y-89080352D01*
X144065143Y-89103954D01*
X143774389Y-89153071D01*
X143518691Y-89156534D01*
X143518691Y-86557636D01*
X143639337Y-86531448D01*
X143758202Y-86452206D01*
X143923749Y-86298940D01*
X144038879Y-86142183D01*
X144080782Y-85967367D01*
X144097655Y-85675936D01*
X144090084Y-85294139D01*
X144058653Y-84848226D01*
X144003946Y-84364447D01*
X143998380Y-84323428D01*
X143932120Y-83760650D01*
X143877715Y-83141840D01*
X143852253Y-82745000D01*
X143821600Y-82655040D01*
X143755122Y-82678201D01*
X143666424Y-82791136D01*
X143569110Y-82970497D01*
X143476785Y-83192938D01*
X143403052Y-83435112D01*
X143376517Y-83561428D01*
X143331960Y-83763755D01*
X143283599Y-83905090D01*
X143272353Y-83924285D01*
X143216782Y-84055714D01*
X143154329Y-84289739D01*
X143093339Y-84584618D01*
X143042156Y-84898604D01*
X143009124Y-85189953D01*
X143003993Y-85266857D01*
X143014444Y-85654697D01*
X143080318Y-86007991D01*
X143191474Y-86293053D01*
X143337770Y-86476197D01*
X143375381Y-86500393D01*
X143518691Y-86557636D01*
X143518691Y-89156534D01*
X143429493Y-89157743D01*
X143085429Y-89125098D01*
X143085429Y-87661714D01*
X143121714Y-87625428D01*
X143085429Y-87589143D01*
X143049143Y-87625428D01*
X143085429Y-87661714D01*
X143085429Y-89125098D01*
X143070702Y-89123700D01*
X142738264Y-89056678D01*
X142472426Y-88962407D01*
X142320348Y-88855430D01*
X142185944Y-88764795D01*
X142113445Y-88750286D01*
X141994190Y-88697143D01*
X141824063Y-88561175D01*
X141636684Y-88377574D01*
X141465669Y-88181532D01*
X141344638Y-88008239D01*
X141306175Y-87905238D01*
X141257375Y-87816597D01*
X141141160Y-87687989D01*
X141136017Y-87683088D01*
X141045385Y-87556561D01*
X140940504Y-87351824D01*
X140836413Y-87107993D01*
X140748147Y-86864183D01*
X140690743Y-86659508D01*
X140679238Y-86533083D01*
X140687329Y-86515909D01*
X140681539Y-86436610D01*
X140646268Y-86382053D01*
X140607294Y-86257527D01*
X140590500Y-86027033D01*
X140593042Y-85720799D01*
G36*
X126382006Y-96057384D02*
X126382830Y-96007428D01*
X126395301Y-95566683D01*
X126416557Y-95241791D01*
X126450082Y-95003560D01*
X126499360Y-94822795D01*
X126534376Y-94737428D01*
X126636808Y-94509596D01*
X126724602Y-94305367D01*
X126740805Y-94265714D01*
X126961032Y-93791063D01*
X127209102Y-93411004D01*
X127264857Y-93341559D01*
X127556307Y-93014038D01*
X127845027Y-92731974D01*
X128100383Y-92523936D01*
X128223962Y-92446984D01*
X128376876Y-92362969D01*
X128462083Y-92306603D01*
X128462286Y-92306401D01*
X128675828Y-92174297D01*
X128995996Y-92078476D01*
X129388056Y-92022294D01*
X129817273Y-92009109D01*
X130248915Y-92042279D01*
X130566857Y-92102975D01*
X130751962Y-92185444D01*
X130991535Y-92339728D01*
X131238347Y-92534087D01*
X131324491Y-92612116D01*
X131470302Y-92739583D01*
X131572394Y-92809637D01*
X131587981Y-92814286D01*
X131642681Y-92875653D01*
X131737105Y-93037871D01*
X131854440Y-93268110D01*
X131977871Y-93533542D01*
X132080456Y-93775836D01*
X132144042Y-94029330D01*
X132183395Y-94389869D01*
X132196898Y-94821131D01*
X132182940Y-95286792D01*
X132160272Y-95572000D01*
X132116832Y-95920719D01*
X132059020Y-96272256D01*
X131998376Y-96557590D01*
X131990405Y-96588000D01*
X131912210Y-96879001D01*
X131835135Y-97169901D01*
X131803172Y-97292305D01*
X131733958Y-97504358D01*
X131657204Y-97662728D01*
X131635368Y-97691448D01*
X131567790Y-97808074D01*
X131482442Y-98015502D01*
X131413065Y-98220857D01*
X131325109Y-98493844D01*
X131237545Y-98743595D01*
X131186688Y-98874000D01*
X131085745Y-99167293D01*
X130985849Y-99554730D01*
X130897922Y-99985647D01*
X130832884Y-100409381D01*
X130811262Y-100615714D01*
X130789561Y-100872349D01*
X130772361Y-101066716D01*
X130763215Y-101158714D01*
X130763018Y-101160000D01*
X130776780Y-101289673D01*
X130832006Y-101503609D01*
X130913793Y-101752319D01*
X131007241Y-101986314D01*
X131020604Y-102015505D01*
X131096886Y-102207553D01*
X131125885Y-102342759D01*
X131118287Y-102374474D01*
X131032401Y-102374938D01*
X130843835Y-102335346D01*
X130675714Y-102288350D01*
X130675714Y-99055428D01*
X130712000Y-99019143D01*
X130675714Y-98982857D01*
X130675714Y-96370286D01*
X130712000Y-96334000D01*
X130675714Y-96297714D01*
X130639428Y-96334000D01*
X130675714Y-96370286D01*
X130675714Y-98982857D01*
X130639428Y-99019143D01*
X130675714Y-99055428D01*
X130675714Y-102288350D01*
X130586926Y-102263530D01*
X130469662Y-102226540D01*
X130176590Y-102136888D01*
X129920307Y-102068844D01*
X129743773Y-102033474D01*
X129709821Y-102030857D01*
X129659714Y-102019653D01*
X129659714Y-100506857D01*
X129696000Y-100470571D01*
X129659714Y-100434286D01*
X129623429Y-100470571D01*
X129659714Y-100506857D01*
X129659714Y-102019653D01*
X129584585Y-102002852D01*
X129550857Y-101958286D01*
X129492077Y-101893902D01*
X129442000Y-101885714D01*
X129317121Y-101837362D01*
X129212190Y-101754306D01*
X129212190Y-99031238D01*
X129255334Y-99021276D01*
X129260571Y-98982857D01*
X129234019Y-98923122D01*
X129224286Y-98928184D01*
X129224286Y-98692571D01*
X129260571Y-98656285D01*
X129224286Y-98620000D01*
X129188000Y-98656285D01*
X129224286Y-98692571D01*
X129224286Y-98928184D01*
X129212190Y-98934476D01*
X129203505Y-99020601D01*
X129212190Y-99031238D01*
X129212190Y-101754306D01*
X129175616Y-101725356D01*
X129175616Y-98491783D01*
X129229384Y-98473724D01*
X129258069Y-98334861D01*
X129260571Y-98249330D01*
X129280779Y-98088777D01*
X129322911Y-98009466D01*
X129365657Y-97921156D01*
X129408419Y-97735820D01*
X129430703Y-97584212D01*
X129483167Y-97291004D01*
X129568557Y-96957250D01*
X129629908Y-96765743D01*
X129710555Y-96490185D01*
X129790893Y-96133883D01*
X129857070Y-95760598D01*
X129873439Y-95644571D01*
X129963216Y-94955143D01*
X129762845Y-94757321D01*
X129615203Y-94630954D01*
X129492529Y-94598575D01*
X129344807Y-94635379D01*
X129146955Y-94778288D01*
X128988730Y-95044509D01*
X128872737Y-95417013D01*
X128801582Y-95878770D01*
X128777870Y-96412751D01*
X128804208Y-97001926D01*
X128883201Y-97629266D01*
X128885035Y-97640286D01*
X128951476Y-97963289D01*
X129027897Y-98222350D01*
X129105532Y-98403253D01*
X129175616Y-98491783D01*
X129175616Y-101725356D01*
X129171917Y-101722428D01*
X129002591Y-101579032D01*
X128853213Y-101486571D01*
X128708936Y-101398225D01*
X128530545Y-101260984D01*
X128356164Y-101108229D01*
X128223923Y-100973344D01*
X128171943Y-100890074D01*
X128127872Y-100806794D01*
X128015688Y-100657949D01*
X127936086Y-100563482D01*
X127691054Y-100276556D01*
X127535942Y-100078214D01*
X127459356Y-99953113D01*
X127446286Y-99903907D01*
X127408500Y-99811194D01*
X127311541Y-99643788D01*
X127228571Y-99515886D01*
X127106856Y-99327621D01*
X127027838Y-99190206D01*
X127010857Y-99147274D01*
X126982373Y-99059152D01*
X126910536Y-98890649D01*
X126871530Y-98806198D01*
X126757629Y-98517454D01*
X126634393Y-98123750D01*
X126513110Y-97663798D01*
X126425761Y-97277428D01*
X126404175Y-97095173D01*
X126388832Y-96805792D01*
X126381015Y-96447218D01*
X126382006Y-96057384D01*
X126382006Y-96057384D01*
G37*
X126382006Y-96057384D02*
X126382830Y-96007428D01*
X126395301Y-95566683D01*
X126416557Y-95241791D01*
X126450082Y-95003560D01*
X126499360Y-94822795D01*
X126534376Y-94737428D01*
X126636808Y-94509596D01*
X126724602Y-94305367D01*
X126740805Y-94265714D01*
X126961032Y-93791063D01*
X127209102Y-93411004D01*
X127264857Y-93341559D01*
X127556307Y-93014038D01*
X127845027Y-92731974D01*
X128100383Y-92523936D01*
X128223962Y-92446984D01*
X128376876Y-92362969D01*
X128462083Y-92306603D01*
X128462286Y-92306401D01*
X128675828Y-92174297D01*
X128995996Y-92078476D01*
X129388056Y-92022294D01*
X129817273Y-92009109D01*
X130248915Y-92042279D01*
X130566857Y-92102975D01*
X130751962Y-92185444D01*
X130991535Y-92339728D01*
X131238347Y-92534087D01*
X131324491Y-92612116D01*
X131470302Y-92739583D01*
X131572394Y-92809637D01*
X131587981Y-92814286D01*
X131642681Y-92875653D01*
X131737105Y-93037871D01*
X131854440Y-93268110D01*
X131977871Y-93533542D01*
X132080456Y-93775836D01*
X132144042Y-94029330D01*
X132183395Y-94389869D01*
X132196898Y-94821131D01*
X132182940Y-95286792D01*
X132160272Y-95572000D01*
X132116832Y-95920719D01*
X132059020Y-96272256D01*
X131998376Y-96557590D01*
X131990405Y-96588000D01*
X131912210Y-96879001D01*
X131835135Y-97169901D01*
X131803172Y-97292305D01*
X131733958Y-97504358D01*
X131657204Y-97662728D01*
X131635368Y-97691448D01*
X131567790Y-97808074D01*
X131482442Y-98015502D01*
X131413065Y-98220857D01*
X131325109Y-98493844D01*
X131237545Y-98743595D01*
X131186688Y-98874000D01*
X131085745Y-99167293D01*
X130985849Y-99554730D01*
X130897922Y-99985647D01*
X130832884Y-100409381D01*
X130811262Y-100615714D01*
X130789561Y-100872349D01*
X130772361Y-101066716D01*
X130763215Y-101158714D01*
X130763018Y-101160000D01*
X130776780Y-101289673D01*
X130832006Y-101503609D01*
X130913793Y-101752319D01*
X131007241Y-101986314D01*
X131020604Y-102015505D01*
X131096886Y-102207553D01*
X131125885Y-102342759D01*
X131118287Y-102374474D01*
X131032401Y-102374938D01*
X130843835Y-102335346D01*
X130675714Y-102288350D01*
X130675714Y-99055428D01*
X130712000Y-99019143D01*
X130675714Y-98982857D01*
X130675714Y-96370286D01*
X130712000Y-96334000D01*
X130675714Y-96297714D01*
X130639428Y-96334000D01*
X130675714Y-96370286D01*
X130675714Y-98982857D01*
X130639428Y-99019143D01*
X130675714Y-99055428D01*
X130675714Y-102288350D01*
X130586926Y-102263530D01*
X130469662Y-102226540D01*
X130176590Y-102136888D01*
X129920307Y-102068844D01*
X129743773Y-102033474D01*
X129709821Y-102030857D01*
X129659714Y-102019653D01*
X129659714Y-100506857D01*
X129696000Y-100470571D01*
X129659714Y-100434286D01*
X129623429Y-100470571D01*
X129659714Y-100506857D01*
X129659714Y-102019653D01*
X129584585Y-102002852D01*
X129550857Y-101958286D01*
X129492077Y-101893902D01*
X129442000Y-101885714D01*
X129317121Y-101837362D01*
X129212190Y-101754306D01*
X129212190Y-99031238D01*
X129255334Y-99021276D01*
X129260571Y-98982857D01*
X129234019Y-98923122D01*
X129224286Y-98928184D01*
X129224286Y-98692571D01*
X129260571Y-98656285D01*
X129224286Y-98620000D01*
X129188000Y-98656285D01*
X129224286Y-98692571D01*
X129224286Y-98928184D01*
X129212190Y-98934476D01*
X129203505Y-99020601D01*
X129212190Y-99031238D01*
X129212190Y-101754306D01*
X129175616Y-101725356D01*
X129175616Y-98491783D01*
X129229384Y-98473724D01*
X129258069Y-98334861D01*
X129260571Y-98249330D01*
X129280779Y-98088777D01*
X129322911Y-98009466D01*
X129365657Y-97921156D01*
X129408419Y-97735820D01*
X129430703Y-97584212D01*
X129483167Y-97291004D01*
X129568557Y-96957250D01*
X129629908Y-96765743D01*
X129710555Y-96490185D01*
X129790893Y-96133883D01*
X129857070Y-95760598D01*
X129873439Y-95644571D01*
X129963216Y-94955143D01*
X129762845Y-94757321D01*
X129615203Y-94630954D01*
X129492529Y-94598575D01*
X129344807Y-94635379D01*
X129146955Y-94778288D01*
X128988730Y-95044509D01*
X128872737Y-95417013D01*
X128801582Y-95878770D01*
X128777870Y-96412751D01*
X128804208Y-97001926D01*
X128883201Y-97629266D01*
X128885035Y-97640286D01*
X128951476Y-97963289D01*
X129027897Y-98222350D01*
X129105532Y-98403253D01*
X129175616Y-98491783D01*
X129175616Y-101725356D01*
X129171917Y-101722428D01*
X129002591Y-101579032D01*
X128853213Y-101486571D01*
X128708936Y-101398225D01*
X128530545Y-101260984D01*
X128356164Y-101108229D01*
X128223923Y-100973344D01*
X128171943Y-100890074D01*
X128127872Y-100806794D01*
X128015688Y-100657949D01*
X127936086Y-100563482D01*
X127691054Y-100276556D01*
X127535942Y-100078214D01*
X127459356Y-99953113D01*
X127446286Y-99903907D01*
X127408500Y-99811194D01*
X127311541Y-99643788D01*
X127228571Y-99515886D01*
X127106856Y-99327621D01*
X127027838Y-99190206D01*
X127010857Y-99147274D01*
X126982373Y-99059152D01*
X126910536Y-98890649D01*
X126871530Y-98806198D01*
X126757629Y-98517454D01*
X126634393Y-98123750D01*
X126513110Y-97663798D01*
X126425761Y-97277428D01*
X126404175Y-97095173D01*
X126388832Y-96805792D01*
X126381015Y-96447218D01*
X126382006Y-96057384D01*
G36*
X130675714Y-91798286D02*
X130712000Y-91834571D01*
X130675714Y-91870857D01*
X130639428Y-91834571D01*
X130675714Y-91798286D01*
X130675714Y-91798286D01*
G37*
X130675714Y-91798286D02*
X130712000Y-91834571D01*
X130675714Y-91870857D01*
X130639428Y-91834571D01*
X130675714Y-91798286D01*
G36*
X140593042Y-105720799D02*
X140612074Y-105369049D01*
X140644750Y-105002010D01*
X140688225Y-104649908D01*
X140739654Y-104342969D01*
X140796191Y-104111419D01*
X140854990Y-103985485D01*
X140873085Y-103972666D01*
X140927565Y-103890426D01*
X140944571Y-103768406D01*
X140975154Y-103586344D01*
X141052953Y-103341943D01*
X141157045Y-103086837D01*
X141266506Y-102872661D01*
X141355174Y-102755142D01*
X141438370Y-102618367D01*
X141452571Y-102533493D01*
X141491365Y-102398076D01*
X141591431Y-102196862D01*
X141688429Y-102038933D01*
X141832501Y-101820594D01*
X141953074Y-101633674D01*
X142004957Y-101550188D01*
X142170445Y-101312800D01*
X142402163Y-101034192D01*
X142678864Y-100734458D01*
X142979301Y-100433697D01*
X143282227Y-100152006D01*
X143566396Y-99909482D01*
X143810560Y-99726221D01*
X143993473Y-99622322D01*
X144060076Y-99606286D01*
X144134655Y-99559625D01*
X144137714Y-99541706D01*
X144198317Y-99475520D01*
X144348621Y-99383899D01*
X144541368Y-99289458D01*
X144729299Y-99214813D01*
X144865156Y-99182577D01*
X144885587Y-99183824D01*
X145011661Y-99164793D01*
X145131156Y-99113321D01*
X145276113Y-99055396D01*
X145495552Y-98991491D01*
X145747145Y-98930889D01*
X145988567Y-98882871D01*
X146177488Y-98856717D01*
X146271582Y-98861709D01*
X146273034Y-98862938D01*
X146255250Y-98936978D01*
X146171689Y-99090593D01*
X146078309Y-99234516D01*
X145956685Y-99416204D01*
X145881605Y-99538033D01*
X145868561Y-99570000D01*
X145861548Y-99628330D01*
X145817489Y-99759751D01*
X145750693Y-100016372D01*
X145699682Y-100366316D01*
X145668565Y-100758235D01*
X145661450Y-101140779D01*
X145681695Y-101456857D01*
X145733423Y-101788133D01*
X145809564Y-102191194D01*
X145900180Y-102620554D01*
X145995331Y-103030722D01*
X146085082Y-103376211D01*
X146141475Y-103561428D01*
X146235581Y-103930824D01*
X146307605Y-104396638D01*
X146353723Y-104911299D01*
X146370111Y-105427237D01*
X146352945Y-105896879D01*
X146339831Y-106028857D01*
X146277032Y-106456140D01*
X146196166Y-106857876D01*
X146106907Y-107190837D01*
X146039347Y-107371428D01*
X145698657Y-107944919D01*
X145256021Y-108432150D01*
X144730662Y-108816251D01*
X144319143Y-109000816D01*
X144319143Y-100404571D01*
X144355429Y-100368286D01*
X144319143Y-100332000D01*
X144282857Y-100368286D01*
X144319143Y-100404571D01*
X144319143Y-109000816D01*
X144141805Y-109080352D01*
X144065143Y-109103954D01*
X143774389Y-109153071D01*
X143518691Y-109156534D01*
X143518691Y-106557636D01*
X143639337Y-106531448D01*
X143758202Y-106452206D01*
X143923749Y-106298940D01*
X144038879Y-106142183D01*
X144080782Y-105967367D01*
X144097655Y-105675936D01*
X144090084Y-105294139D01*
X144058653Y-104848226D01*
X144003946Y-104364447D01*
X143998380Y-104323428D01*
X143932120Y-103760650D01*
X143877715Y-103141840D01*
X143852253Y-102745000D01*
X143821600Y-102655040D01*
X143755122Y-102678201D01*
X143666424Y-102791136D01*
X143569110Y-102970497D01*
X143476785Y-103192938D01*
X143403052Y-103435112D01*
X143376517Y-103561428D01*
X143331960Y-103763755D01*
X143283599Y-103905090D01*
X143272353Y-103924285D01*
X143216782Y-104055714D01*
X143154329Y-104289739D01*
X143093339Y-104584618D01*
X143042156Y-104898604D01*
X143009124Y-105189953D01*
X143003993Y-105266857D01*
X143014444Y-105654697D01*
X143080318Y-106007991D01*
X143191474Y-106293053D01*
X143337770Y-106476197D01*
X143375381Y-106500393D01*
X143518691Y-106557636D01*
X143518691Y-109156534D01*
X143429493Y-109157743D01*
X143085429Y-109125098D01*
X143085429Y-107661714D01*
X143121714Y-107625428D01*
X143085429Y-107589143D01*
X143049143Y-107625428D01*
X143085429Y-107661714D01*
X143085429Y-109125098D01*
X143070702Y-109123700D01*
X142738264Y-109056678D01*
X142472426Y-108962407D01*
X142320348Y-108855430D01*
X142185944Y-108764795D01*
X142113445Y-108750286D01*
X141994190Y-108697143D01*
X141824063Y-108561175D01*
X141636684Y-108377574D01*
X141465669Y-108181532D01*
X141344638Y-108008239D01*
X141306175Y-107905238D01*
X141257375Y-107816597D01*
X141141160Y-107687989D01*
X141136017Y-107683088D01*
X141045385Y-107556561D01*
X140940504Y-107351824D01*
X140836413Y-107107993D01*
X140748147Y-106864183D01*
X140690743Y-106659508D01*
X140679238Y-106533083D01*
X140687329Y-106515909D01*
X140681539Y-106436610D01*
X140646268Y-106382053D01*
X140607294Y-106257527D01*
X140590500Y-106027033D01*
X140593042Y-105720799D01*
X140593042Y-105720799D01*
G37*
X140593042Y-105720799D02*
X140612074Y-105369049D01*
X140644750Y-105002010D01*
X140688225Y-104649908D01*
X140739654Y-104342969D01*
X140796191Y-104111419D01*
X140854990Y-103985485D01*
X140873085Y-103972666D01*
X140927565Y-103890426D01*
X140944571Y-103768406D01*
X140975154Y-103586344D01*
X141052953Y-103341943D01*
X141157045Y-103086837D01*
X141266506Y-102872661D01*
X141355174Y-102755142D01*
X141438370Y-102618367D01*
X141452571Y-102533493D01*
X141491365Y-102398076D01*
X141591431Y-102196862D01*
X141688429Y-102038933D01*
X141832501Y-101820594D01*
X141953074Y-101633674D01*
X142004957Y-101550188D01*
X142170445Y-101312800D01*
X142402163Y-101034192D01*
X142678864Y-100734458D01*
X142979301Y-100433697D01*
X143282227Y-100152006D01*
X143566396Y-99909482D01*
X143810560Y-99726221D01*
X143993473Y-99622322D01*
X144060076Y-99606286D01*
X144134655Y-99559625D01*
X144137714Y-99541706D01*
X144198317Y-99475520D01*
X144348621Y-99383899D01*
X144541368Y-99289458D01*
X144729299Y-99214813D01*
X144865156Y-99182577D01*
X144885587Y-99183824D01*
X145011661Y-99164793D01*
X145131156Y-99113321D01*
X145276113Y-99055396D01*
X145495552Y-98991491D01*
X145747145Y-98930889D01*
X145988567Y-98882871D01*
X146177488Y-98856717D01*
X146271582Y-98861709D01*
X146273034Y-98862938D01*
X146255250Y-98936978D01*
X146171689Y-99090593D01*
X146078309Y-99234516D01*
X145956685Y-99416204D01*
X145881605Y-99538033D01*
X145868561Y-99570000D01*
X145861548Y-99628330D01*
X145817489Y-99759751D01*
X145750693Y-100016372D01*
X145699682Y-100366316D01*
X145668565Y-100758235D01*
X145661450Y-101140779D01*
X145681695Y-101456857D01*
X145733423Y-101788133D01*
X145809564Y-102191194D01*
X145900180Y-102620554D01*
X145995331Y-103030722D01*
X146085082Y-103376211D01*
X146141475Y-103561428D01*
X146235581Y-103930824D01*
X146307605Y-104396638D01*
X146353723Y-104911299D01*
X146370111Y-105427237D01*
X146352945Y-105896879D01*
X146339831Y-106028857D01*
X146277032Y-106456140D01*
X146196166Y-106857876D01*
X146106907Y-107190837D01*
X146039347Y-107371428D01*
X145698657Y-107944919D01*
X145256021Y-108432150D01*
X144730662Y-108816251D01*
X144319143Y-109000816D01*
X144319143Y-100404571D01*
X144355429Y-100368286D01*
X144319143Y-100332000D01*
X144282857Y-100368286D01*
X144319143Y-100404571D01*
X144319143Y-109000816D01*
X144141805Y-109080352D01*
X144065143Y-109103954D01*
X143774389Y-109153071D01*
X143518691Y-109156534D01*
X143518691Y-106557636D01*
X143639337Y-106531448D01*
X143758202Y-106452206D01*
X143923749Y-106298940D01*
X144038879Y-106142183D01*
X144080782Y-105967367D01*
X144097655Y-105675936D01*
X144090084Y-105294139D01*
X144058653Y-104848226D01*
X144003946Y-104364447D01*
X143998380Y-104323428D01*
X143932120Y-103760650D01*
X143877715Y-103141840D01*
X143852253Y-102745000D01*
X143821600Y-102655040D01*
X143755122Y-102678201D01*
X143666424Y-102791136D01*
X143569110Y-102970497D01*
X143476785Y-103192938D01*
X143403052Y-103435112D01*
X143376517Y-103561428D01*
X143331960Y-103763755D01*
X143283599Y-103905090D01*
X143272353Y-103924285D01*
X143216782Y-104055714D01*
X143154329Y-104289739D01*
X143093339Y-104584618D01*
X143042156Y-104898604D01*
X143009124Y-105189953D01*
X143003993Y-105266857D01*
X143014444Y-105654697D01*
X143080318Y-106007991D01*
X143191474Y-106293053D01*
X143337770Y-106476197D01*
X143375381Y-106500393D01*
X143518691Y-106557636D01*
X143518691Y-109156534D01*
X143429493Y-109157743D01*
X143085429Y-109125098D01*
X143085429Y-107661714D01*
X143121714Y-107625428D01*
X143085429Y-107589143D01*
X143049143Y-107625428D01*
X143085429Y-107661714D01*
X143085429Y-109125098D01*
X143070702Y-109123700D01*
X142738264Y-109056678D01*
X142472426Y-108962407D01*
X142320348Y-108855430D01*
X142185944Y-108764795D01*
X142113445Y-108750286D01*
X141994190Y-108697143D01*
X141824063Y-108561175D01*
X141636684Y-108377574D01*
X141465669Y-108181532D01*
X141344638Y-108008239D01*
X141306175Y-107905238D01*
X141257375Y-107816597D01*
X141141160Y-107687989D01*
X141136017Y-107683088D01*
X141045385Y-107556561D01*
X140940504Y-107351824D01*
X140836413Y-107107993D01*
X140748147Y-106864183D01*
X140690743Y-106659508D01*
X140679238Y-106533083D01*
X140687329Y-106515909D01*
X140681539Y-106436610D01*
X140646268Y-106382053D01*
X140607294Y-106257527D01*
X140590500Y-106027033D01*
X140593042Y-105720799D01*
G36*
X126382006Y-116057384D02*
X126382830Y-116007428D01*
X126395301Y-115566683D01*
X126416557Y-115241791D01*
X126450082Y-115003560D01*
X126499360Y-114822795D01*
X126534376Y-114737428D01*
X126636808Y-114509596D01*
X126724602Y-114305367D01*
X126740805Y-114265714D01*
X126961032Y-113791063D01*
X127209102Y-113411004D01*
X127264857Y-113341559D01*
X127556307Y-113014038D01*
X127845027Y-112731974D01*
X128100383Y-112523936D01*
X128223962Y-112446984D01*
X128376876Y-112362969D01*
X128462083Y-112306603D01*
X128462286Y-112306401D01*
X128675828Y-112174297D01*
X128995996Y-112078476D01*
X129388056Y-112022294D01*
X129817273Y-112009109D01*
X130248915Y-112042279D01*
X130566857Y-112102975D01*
X130751962Y-112185444D01*
X130991535Y-112339728D01*
X131238347Y-112534087D01*
X131324491Y-112612116D01*
X131470302Y-112739583D01*
X131572394Y-112809637D01*
X131587981Y-112814286D01*
X131642681Y-112875653D01*
X131737105Y-113037871D01*
X131854440Y-113268110D01*
X131977871Y-113533542D01*
X132080456Y-113775836D01*
X132144042Y-114029330D01*
X132183395Y-114389869D01*
X132196898Y-114821131D01*
X132182940Y-115286792D01*
X132160272Y-115572000D01*
X132116832Y-115920719D01*
X132059020Y-116272256D01*
X131998376Y-116557590D01*
X131990405Y-116588000D01*
X131912210Y-116879001D01*
X131835135Y-117169901D01*
X131803172Y-117292305D01*
X131733958Y-117504358D01*
X131657204Y-117662728D01*
X131635368Y-117691448D01*
X131567790Y-117808074D01*
X131482442Y-118015502D01*
X131413065Y-118220857D01*
X131325109Y-118493844D01*
X131237545Y-118743595D01*
X131186688Y-118874000D01*
X131085745Y-119167293D01*
X130985849Y-119554730D01*
X130897922Y-119985647D01*
X130832884Y-120409381D01*
X130811262Y-120615714D01*
X130789561Y-120872349D01*
X130772361Y-121066716D01*
X130763215Y-121158714D01*
X130763018Y-121160000D01*
X130776780Y-121289673D01*
X130832006Y-121503609D01*
X130913793Y-121752319D01*
X131007241Y-121986314D01*
X131020604Y-122015505D01*
X131096886Y-122207553D01*
X131125885Y-122342759D01*
X131118287Y-122374474D01*
X131032401Y-122374938D01*
X130843835Y-122335346D01*
X130675714Y-122288350D01*
X130675714Y-119055428D01*
X130712000Y-119019143D01*
X130675714Y-118982857D01*
X130675714Y-116370286D01*
X130712000Y-116334000D01*
X130675714Y-116297714D01*
X130639428Y-116334000D01*
X130675714Y-116370286D01*
X130675714Y-118982857D01*
X130639428Y-119019143D01*
X130675714Y-119055428D01*
X130675714Y-122288350D01*
X130586926Y-122263530D01*
X130469662Y-122226540D01*
X130176590Y-122136888D01*
X129920307Y-122068844D01*
X129743773Y-122033474D01*
X129709821Y-122030857D01*
X129659714Y-122019653D01*
X129659714Y-120506857D01*
X129696000Y-120470571D01*
X129659714Y-120434286D01*
X129623429Y-120470571D01*
X129659714Y-120506857D01*
X129659714Y-122019653D01*
X129584585Y-122002852D01*
X129550857Y-121958286D01*
X129492077Y-121893902D01*
X129442000Y-121885714D01*
X129317121Y-121837362D01*
X129212190Y-121754306D01*
X129212190Y-119031238D01*
X129255334Y-119021276D01*
X129260571Y-118982857D01*
X129234019Y-118923122D01*
X129224286Y-118928184D01*
X129224286Y-118692571D01*
X129260571Y-118656285D01*
X129224286Y-118620000D01*
X129188000Y-118656285D01*
X129224286Y-118692571D01*
X129224286Y-118928184D01*
X129212190Y-118934476D01*
X129203505Y-119020601D01*
X129212190Y-119031238D01*
X129212190Y-121754306D01*
X129175616Y-121725356D01*
X129175616Y-118491783D01*
X129229384Y-118473724D01*
X129258069Y-118334861D01*
X129260571Y-118249330D01*
X129280779Y-118088777D01*
X129322911Y-118009466D01*
X129365657Y-117921156D01*
X129408419Y-117735820D01*
X129430703Y-117584212D01*
X129483167Y-117291004D01*
X129568557Y-116957250D01*
X129629908Y-116765743D01*
X129710555Y-116490185D01*
X129790893Y-116133883D01*
X129857070Y-115760598D01*
X129873439Y-115644571D01*
X129963216Y-114955143D01*
X129762845Y-114757321D01*
X129615203Y-114630954D01*
X129492529Y-114598575D01*
X129344807Y-114635379D01*
X129146955Y-114778288D01*
X128988730Y-115044509D01*
X128872737Y-115417013D01*
X128801582Y-115878770D01*
X128777870Y-116412751D01*
X128804208Y-117001926D01*
X128883201Y-117629266D01*
X128885035Y-117640286D01*
X128951476Y-117963289D01*
X129027897Y-118222350D01*
X129105532Y-118403253D01*
X129175616Y-118491783D01*
X129175616Y-121725356D01*
X129171917Y-121722428D01*
X129002591Y-121579032D01*
X128853213Y-121486571D01*
X128708936Y-121398225D01*
X128530545Y-121260984D01*
X128356164Y-121108229D01*
X128223923Y-120973344D01*
X128171943Y-120890074D01*
X128127872Y-120806794D01*
X128015688Y-120657949D01*
X127936086Y-120563482D01*
X127691054Y-120276556D01*
X127535942Y-120078214D01*
X127459356Y-119953113D01*
X127446286Y-119903907D01*
X127408500Y-119811194D01*
X127311541Y-119643788D01*
X127228571Y-119515886D01*
X127106856Y-119327621D01*
X127027838Y-119190206D01*
X127010857Y-119147274D01*
X126982373Y-119059152D01*
X126910536Y-118890649D01*
X126871530Y-118806198D01*
X126757629Y-118517454D01*
X126634393Y-118123750D01*
X126513110Y-117663798D01*
X126425761Y-117277428D01*
X126404175Y-117095173D01*
X126388832Y-116805792D01*
X126381015Y-116447218D01*
X126382006Y-116057384D01*
X126382006Y-116057384D01*
G37*
X126382006Y-116057384D02*
X126382830Y-116007428D01*
X126395301Y-115566683D01*
X126416557Y-115241791D01*
X126450082Y-115003560D01*
X126499360Y-114822795D01*
X126534376Y-114737428D01*
X126636808Y-114509596D01*
X126724602Y-114305367D01*
X126740805Y-114265714D01*
X126961032Y-113791063D01*
X127209102Y-113411004D01*
X127264857Y-113341559D01*
X127556307Y-113014038D01*
X127845027Y-112731974D01*
X128100383Y-112523936D01*
X128223962Y-112446984D01*
X128376876Y-112362969D01*
X128462083Y-112306603D01*
X128462286Y-112306401D01*
X128675828Y-112174297D01*
X128995996Y-112078476D01*
X129388056Y-112022294D01*
X129817273Y-112009109D01*
X130248915Y-112042279D01*
X130566857Y-112102975D01*
X130751962Y-112185444D01*
X130991535Y-112339728D01*
X131238347Y-112534087D01*
X131324491Y-112612116D01*
X131470302Y-112739583D01*
X131572394Y-112809637D01*
X131587981Y-112814286D01*
X131642681Y-112875653D01*
X131737105Y-113037871D01*
X131854440Y-113268110D01*
X131977871Y-113533542D01*
X132080456Y-113775836D01*
X132144042Y-114029330D01*
X132183395Y-114389869D01*
X132196898Y-114821131D01*
X132182940Y-115286792D01*
X132160272Y-115572000D01*
X132116832Y-115920719D01*
X132059020Y-116272256D01*
X131998376Y-116557590D01*
X131990405Y-116588000D01*
X131912210Y-116879001D01*
X131835135Y-117169901D01*
X131803172Y-117292305D01*
X131733958Y-117504358D01*
X131657204Y-117662728D01*
X131635368Y-117691448D01*
X131567790Y-117808074D01*
X131482442Y-118015502D01*
X131413065Y-118220857D01*
X131325109Y-118493844D01*
X131237545Y-118743595D01*
X131186688Y-118874000D01*
X131085745Y-119167293D01*
X130985849Y-119554730D01*
X130897922Y-119985647D01*
X130832884Y-120409381D01*
X130811262Y-120615714D01*
X130789561Y-120872349D01*
X130772361Y-121066716D01*
X130763215Y-121158714D01*
X130763018Y-121160000D01*
X130776780Y-121289673D01*
X130832006Y-121503609D01*
X130913793Y-121752319D01*
X131007241Y-121986314D01*
X131020604Y-122015505D01*
X131096886Y-122207553D01*
X131125885Y-122342759D01*
X131118287Y-122374474D01*
X131032401Y-122374938D01*
X130843835Y-122335346D01*
X130675714Y-122288350D01*
X130675714Y-119055428D01*
X130712000Y-119019143D01*
X130675714Y-118982857D01*
X130675714Y-116370286D01*
X130712000Y-116334000D01*
X130675714Y-116297714D01*
X130639428Y-116334000D01*
X130675714Y-116370286D01*
X130675714Y-118982857D01*
X130639428Y-119019143D01*
X130675714Y-119055428D01*
X130675714Y-122288350D01*
X130586926Y-122263530D01*
X130469662Y-122226540D01*
X130176590Y-122136888D01*
X129920307Y-122068844D01*
X129743773Y-122033474D01*
X129709821Y-122030857D01*
X129659714Y-122019653D01*
X129659714Y-120506857D01*
X129696000Y-120470571D01*
X129659714Y-120434286D01*
X129623429Y-120470571D01*
X129659714Y-120506857D01*
X129659714Y-122019653D01*
X129584585Y-122002852D01*
X129550857Y-121958286D01*
X129492077Y-121893902D01*
X129442000Y-121885714D01*
X129317121Y-121837362D01*
X129212190Y-121754306D01*
X129212190Y-119031238D01*
X129255334Y-119021276D01*
X129260571Y-118982857D01*
X129234019Y-118923122D01*
X129224286Y-118928184D01*
X129224286Y-118692571D01*
X129260571Y-118656285D01*
X129224286Y-118620000D01*
X129188000Y-118656285D01*
X129224286Y-118692571D01*
X129224286Y-118928184D01*
X129212190Y-118934476D01*
X129203505Y-119020601D01*
X129212190Y-119031238D01*
X129212190Y-121754306D01*
X129175616Y-121725356D01*
X129175616Y-118491783D01*
X129229384Y-118473724D01*
X129258069Y-118334861D01*
X129260571Y-118249330D01*
X129280779Y-118088777D01*
X129322911Y-118009466D01*
X129365657Y-117921156D01*
X129408419Y-117735820D01*
X129430703Y-117584212D01*
X129483167Y-117291004D01*
X129568557Y-116957250D01*
X129629908Y-116765743D01*
X129710555Y-116490185D01*
X129790893Y-116133883D01*
X129857070Y-115760598D01*
X129873439Y-115644571D01*
X129963216Y-114955143D01*
X129762845Y-114757321D01*
X129615203Y-114630954D01*
X129492529Y-114598575D01*
X129344807Y-114635379D01*
X129146955Y-114778288D01*
X128988730Y-115044509D01*
X128872737Y-115417013D01*
X128801582Y-115878770D01*
X128777870Y-116412751D01*
X128804208Y-117001926D01*
X128883201Y-117629266D01*
X128885035Y-117640286D01*
X128951476Y-117963289D01*
X129027897Y-118222350D01*
X129105532Y-118403253D01*
X129175616Y-118491783D01*
X129175616Y-121725356D01*
X129171917Y-121722428D01*
X129002591Y-121579032D01*
X128853213Y-121486571D01*
X128708936Y-121398225D01*
X128530545Y-121260984D01*
X128356164Y-121108229D01*
X128223923Y-120973344D01*
X128171943Y-120890074D01*
X128127872Y-120806794D01*
X128015688Y-120657949D01*
X127936086Y-120563482D01*
X127691054Y-120276556D01*
X127535942Y-120078214D01*
X127459356Y-119953113D01*
X127446286Y-119903907D01*
X127408500Y-119811194D01*
X127311541Y-119643788D01*
X127228571Y-119515886D01*
X127106856Y-119327621D01*
X127027838Y-119190206D01*
X127010857Y-119147274D01*
X126982373Y-119059152D01*
X126910536Y-118890649D01*
X126871530Y-118806198D01*
X126757629Y-118517454D01*
X126634393Y-118123750D01*
X126513110Y-117663798D01*
X126425761Y-117277428D01*
X126404175Y-117095173D01*
X126388832Y-116805792D01*
X126381015Y-116447218D01*
X126382006Y-116057384D01*
G36*
X130675714Y-111798286D02*
X130712000Y-111834571D01*
X130675714Y-111870857D01*
X130639428Y-111834571D01*
X130675714Y-111798286D01*
X130675714Y-111798286D01*
G37*
X130675714Y-111798286D02*
X130712000Y-111834571D01*
X130675714Y-111870857D01*
X130639428Y-111834571D01*
X130675714Y-111798286D01*
G36*
X110593042Y-85720799D02*
X110612074Y-85369049D01*
X110644750Y-85002010D01*
X110688225Y-84649908D01*
X110739654Y-84342969D01*
X110796191Y-84111419D01*
X110854990Y-83985485D01*
X110873085Y-83972666D01*
X110927565Y-83890426D01*
X110944571Y-83768406D01*
X110975154Y-83586344D01*
X111052953Y-83341943D01*
X111157045Y-83086837D01*
X111266506Y-82872661D01*
X111355174Y-82755142D01*
X111438370Y-82618367D01*
X111452571Y-82533493D01*
X111491365Y-82398076D01*
X111591431Y-82196862D01*
X111688429Y-82038933D01*
X111832501Y-81820594D01*
X111953074Y-81633674D01*
X112004957Y-81550188D01*
X112170445Y-81312800D01*
X112402163Y-81034192D01*
X112678864Y-80734458D01*
X112979301Y-80433697D01*
X113282227Y-80152006D01*
X113566396Y-79909482D01*
X113810560Y-79726221D01*
X113993473Y-79622322D01*
X114060076Y-79606286D01*
X114134655Y-79559625D01*
X114137714Y-79541706D01*
X114198317Y-79475520D01*
X114348621Y-79383899D01*
X114541368Y-79289458D01*
X114729299Y-79214813D01*
X114865156Y-79182577D01*
X114885587Y-79183824D01*
X115011661Y-79164793D01*
X115131156Y-79113321D01*
X115276113Y-79055396D01*
X115495552Y-78991491D01*
X115747145Y-78930889D01*
X115988567Y-78882871D01*
X116177488Y-78856717D01*
X116271582Y-78861709D01*
X116273034Y-78862938D01*
X116255250Y-78936978D01*
X116171689Y-79090593D01*
X116078309Y-79234516D01*
X115956685Y-79416204D01*
X115881605Y-79538033D01*
X115868561Y-79570000D01*
X115861548Y-79628330D01*
X115817489Y-79759751D01*
X115750693Y-80016372D01*
X115699682Y-80366316D01*
X115668565Y-80758235D01*
X115661450Y-81140779D01*
X115681695Y-81456857D01*
X115733423Y-81788133D01*
X115809564Y-82191194D01*
X115900180Y-82620554D01*
X115995331Y-83030722D01*
X116085082Y-83376211D01*
X116141475Y-83561428D01*
X116235581Y-83930824D01*
X116307605Y-84396638D01*
X116353723Y-84911299D01*
X116370111Y-85427237D01*
X116352945Y-85896879D01*
X116339831Y-86028857D01*
X116277032Y-86456140D01*
X116196166Y-86857876D01*
X116106907Y-87190837D01*
X116039347Y-87371428D01*
X115698657Y-87944919D01*
X115256021Y-88432150D01*
X114730662Y-88816251D01*
X114319143Y-89000816D01*
X114319143Y-80404571D01*
X114355429Y-80368286D01*
X114319143Y-80332000D01*
X114282857Y-80368286D01*
X114319143Y-80404571D01*
X114319143Y-89000816D01*
X114141805Y-89080352D01*
X114065143Y-89103954D01*
X113774389Y-89153071D01*
X113518691Y-89156534D01*
X113518691Y-86557636D01*
X113639337Y-86531448D01*
X113758202Y-86452206D01*
X113923749Y-86298940D01*
X114038879Y-86142183D01*
X114080782Y-85967367D01*
X114097655Y-85675936D01*
X114090084Y-85294139D01*
X114058653Y-84848226D01*
X114003946Y-84364447D01*
X113998380Y-84323428D01*
X113932120Y-83760650D01*
X113877715Y-83141840D01*
X113852253Y-82745000D01*
X113821600Y-82655040D01*
X113755122Y-82678201D01*
X113666424Y-82791136D01*
X113569110Y-82970497D01*
X113476785Y-83192938D01*
X113403052Y-83435112D01*
X113376517Y-83561428D01*
X113331960Y-83763755D01*
X113283599Y-83905090D01*
X113272353Y-83924285D01*
X113216782Y-84055714D01*
X113154329Y-84289739D01*
X113093339Y-84584618D01*
X113042156Y-84898604D01*
X113009124Y-85189953D01*
X113003993Y-85266857D01*
X113014444Y-85654697D01*
X113080318Y-86007991D01*
X113191474Y-86293053D01*
X113337770Y-86476197D01*
X113375381Y-86500393D01*
X113518691Y-86557636D01*
X113518691Y-89156534D01*
X113429493Y-89157743D01*
X113085429Y-89125098D01*
X113085429Y-87661714D01*
X113121714Y-87625428D01*
X113085429Y-87589143D01*
X113049143Y-87625428D01*
X113085429Y-87661714D01*
X113085429Y-89125098D01*
X113070702Y-89123700D01*
X112738264Y-89056678D01*
X112472426Y-88962407D01*
X112320348Y-88855430D01*
X112185944Y-88764795D01*
X112113445Y-88750286D01*
X111994190Y-88697143D01*
X111824063Y-88561175D01*
X111636684Y-88377574D01*
X111465669Y-88181532D01*
X111344638Y-88008239D01*
X111306175Y-87905238D01*
X111257375Y-87816597D01*
X111141160Y-87687989D01*
X111136017Y-87683088D01*
X111045385Y-87556561D01*
X110940504Y-87351824D01*
X110836413Y-87107993D01*
X110748147Y-86864183D01*
X110690743Y-86659508D01*
X110679238Y-86533083D01*
X110687329Y-86515909D01*
X110681539Y-86436610D01*
X110646268Y-86382053D01*
X110607294Y-86257527D01*
X110590500Y-86027033D01*
X110593042Y-85720799D01*
X110593042Y-85720799D01*
G37*
X110593042Y-85720799D02*
X110612074Y-85369049D01*
X110644750Y-85002010D01*
X110688225Y-84649908D01*
X110739654Y-84342969D01*
X110796191Y-84111419D01*
X110854990Y-83985485D01*
X110873085Y-83972666D01*
X110927565Y-83890426D01*
X110944571Y-83768406D01*
X110975154Y-83586344D01*
X111052953Y-83341943D01*
X111157045Y-83086837D01*
X111266506Y-82872661D01*
X111355174Y-82755142D01*
X111438370Y-82618367D01*
X111452571Y-82533493D01*
X111491365Y-82398076D01*
X111591431Y-82196862D01*
X111688429Y-82038933D01*
X111832501Y-81820594D01*
X111953074Y-81633674D01*
X112004957Y-81550188D01*
X112170445Y-81312800D01*
X112402163Y-81034192D01*
X112678864Y-80734458D01*
X112979301Y-80433697D01*
X113282227Y-80152006D01*
X113566396Y-79909482D01*
X113810560Y-79726221D01*
X113993473Y-79622322D01*
X114060076Y-79606286D01*
X114134655Y-79559625D01*
X114137714Y-79541706D01*
X114198317Y-79475520D01*
X114348621Y-79383899D01*
X114541368Y-79289458D01*
X114729299Y-79214813D01*
X114865156Y-79182577D01*
X114885587Y-79183824D01*
X115011661Y-79164793D01*
X115131156Y-79113321D01*
X115276113Y-79055396D01*
X115495552Y-78991491D01*
X115747145Y-78930889D01*
X115988567Y-78882871D01*
X116177488Y-78856717D01*
X116271582Y-78861709D01*
X116273034Y-78862938D01*
X116255250Y-78936978D01*
X116171689Y-79090593D01*
X116078309Y-79234516D01*
X115956685Y-79416204D01*
X115881605Y-79538033D01*
X115868561Y-79570000D01*
X115861548Y-79628330D01*
X115817489Y-79759751D01*
X115750693Y-80016372D01*
X115699682Y-80366316D01*
X115668565Y-80758235D01*
X115661450Y-81140779D01*
X115681695Y-81456857D01*
X115733423Y-81788133D01*
X115809564Y-82191194D01*
X115900180Y-82620554D01*
X115995331Y-83030722D01*
X116085082Y-83376211D01*
X116141475Y-83561428D01*
X116235581Y-83930824D01*
X116307605Y-84396638D01*
X116353723Y-84911299D01*
X116370111Y-85427237D01*
X116352945Y-85896879D01*
X116339831Y-86028857D01*
X116277032Y-86456140D01*
X116196166Y-86857876D01*
X116106907Y-87190837D01*
X116039347Y-87371428D01*
X115698657Y-87944919D01*
X115256021Y-88432150D01*
X114730662Y-88816251D01*
X114319143Y-89000816D01*
X114319143Y-80404571D01*
X114355429Y-80368286D01*
X114319143Y-80332000D01*
X114282857Y-80368286D01*
X114319143Y-80404571D01*
X114319143Y-89000816D01*
X114141805Y-89080352D01*
X114065143Y-89103954D01*
X113774389Y-89153071D01*
X113518691Y-89156534D01*
X113518691Y-86557636D01*
X113639337Y-86531448D01*
X113758202Y-86452206D01*
X113923749Y-86298940D01*
X114038879Y-86142183D01*
X114080782Y-85967367D01*
X114097655Y-85675936D01*
X114090084Y-85294139D01*
X114058653Y-84848226D01*
X114003946Y-84364447D01*
X113998380Y-84323428D01*
X113932120Y-83760650D01*
X113877715Y-83141840D01*
X113852253Y-82745000D01*
X113821600Y-82655040D01*
X113755122Y-82678201D01*
X113666424Y-82791136D01*
X113569110Y-82970497D01*
X113476785Y-83192938D01*
X113403052Y-83435112D01*
X113376517Y-83561428D01*
X113331960Y-83763755D01*
X113283599Y-83905090D01*
X113272353Y-83924285D01*
X113216782Y-84055714D01*
X113154329Y-84289739D01*
X113093339Y-84584618D01*
X113042156Y-84898604D01*
X113009124Y-85189953D01*
X113003993Y-85266857D01*
X113014444Y-85654697D01*
X113080318Y-86007991D01*
X113191474Y-86293053D01*
X113337770Y-86476197D01*
X113375381Y-86500393D01*
X113518691Y-86557636D01*
X113518691Y-89156534D01*
X113429493Y-89157743D01*
X113085429Y-89125098D01*
X113085429Y-87661714D01*
X113121714Y-87625428D01*
X113085429Y-87589143D01*
X113049143Y-87625428D01*
X113085429Y-87661714D01*
X113085429Y-89125098D01*
X113070702Y-89123700D01*
X112738264Y-89056678D01*
X112472426Y-88962407D01*
X112320348Y-88855430D01*
X112185944Y-88764795D01*
X112113445Y-88750286D01*
X111994190Y-88697143D01*
X111824063Y-88561175D01*
X111636684Y-88377574D01*
X111465669Y-88181532D01*
X111344638Y-88008239D01*
X111306175Y-87905238D01*
X111257375Y-87816597D01*
X111141160Y-87687989D01*
X111136017Y-87683088D01*
X111045385Y-87556561D01*
X110940504Y-87351824D01*
X110836413Y-87107993D01*
X110748147Y-86864183D01*
X110690743Y-86659508D01*
X110679238Y-86533083D01*
X110687329Y-86515909D01*
X110681539Y-86436610D01*
X110646268Y-86382053D01*
X110607294Y-86257527D01*
X110590500Y-86027033D01*
X110593042Y-85720799D01*
G36*
X96382006Y-96057384D02*
X96382830Y-96007428D01*
X96395301Y-95566683D01*
X96416557Y-95241791D01*
X96450082Y-95003560D01*
X96499360Y-94822795D01*
X96534376Y-94737428D01*
X96636808Y-94509596D01*
X96724602Y-94305367D01*
X96740805Y-94265714D01*
X96961032Y-93791063D01*
X97209102Y-93411004D01*
X97264857Y-93341559D01*
X97556307Y-93014038D01*
X97845027Y-92731974D01*
X98100383Y-92523936D01*
X98223962Y-92446984D01*
X98376876Y-92362969D01*
X98462083Y-92306603D01*
X98462286Y-92306401D01*
X98675828Y-92174297D01*
X98995996Y-92078476D01*
X99388056Y-92022294D01*
X99817273Y-92009109D01*
X100248915Y-92042279D01*
X100566857Y-92102975D01*
X100751962Y-92185444D01*
X100991535Y-92339728D01*
X101238347Y-92534087D01*
X101324491Y-92612116D01*
X101470302Y-92739583D01*
X101572394Y-92809637D01*
X101587981Y-92814286D01*
X101642681Y-92875653D01*
X101737105Y-93037871D01*
X101854440Y-93268110D01*
X101977871Y-93533542D01*
X102080456Y-93775836D01*
X102144042Y-94029330D01*
X102183395Y-94389869D01*
X102196898Y-94821131D01*
X102182940Y-95286792D01*
X102160272Y-95572000D01*
X102116832Y-95920719D01*
X102059020Y-96272256D01*
X101998376Y-96557590D01*
X101990405Y-96588000D01*
X101912210Y-96879001D01*
X101835135Y-97169901D01*
X101803172Y-97292305D01*
X101733958Y-97504358D01*
X101657204Y-97662728D01*
X101635368Y-97691448D01*
X101567790Y-97808074D01*
X101482442Y-98015502D01*
X101413065Y-98220857D01*
X101325109Y-98493844D01*
X101237545Y-98743595D01*
X101186688Y-98874000D01*
X101085745Y-99167293D01*
X100985849Y-99554730D01*
X100897922Y-99985647D01*
X100832884Y-100409381D01*
X100811262Y-100615714D01*
X100789561Y-100872349D01*
X100772361Y-101066716D01*
X100763215Y-101158714D01*
X100763018Y-101160000D01*
X100776780Y-101289673D01*
X100832006Y-101503609D01*
X100913793Y-101752319D01*
X101007241Y-101986314D01*
X101020604Y-102015505D01*
X101096886Y-102207553D01*
X101125885Y-102342759D01*
X101118287Y-102374474D01*
X101032401Y-102374938D01*
X100843835Y-102335346D01*
X100675714Y-102288350D01*
X100675714Y-99055428D01*
X100712000Y-99019143D01*
X100675714Y-98982857D01*
X100675714Y-96370286D01*
X100712000Y-96334000D01*
X100675714Y-96297714D01*
X100639428Y-96334000D01*
X100675714Y-96370286D01*
X100675714Y-98982857D01*
X100639428Y-99019143D01*
X100675714Y-99055428D01*
X100675714Y-102288350D01*
X100586926Y-102263530D01*
X100469662Y-102226540D01*
X100176590Y-102136888D01*
X99920307Y-102068844D01*
X99743773Y-102033474D01*
X99709821Y-102030857D01*
X99659714Y-102019653D01*
X99659714Y-100506857D01*
X99696000Y-100470571D01*
X99659714Y-100434286D01*
X99623429Y-100470571D01*
X99659714Y-100506857D01*
X99659714Y-102019653D01*
X99584585Y-102002852D01*
X99550857Y-101958286D01*
X99492077Y-101893902D01*
X99442000Y-101885714D01*
X99317121Y-101837362D01*
X99212190Y-101754306D01*
X99212190Y-99031238D01*
X99255334Y-99021276D01*
X99260571Y-98982857D01*
X99234019Y-98923122D01*
X99224286Y-98928184D01*
X99224286Y-98692571D01*
X99260571Y-98656285D01*
X99224286Y-98620000D01*
X99188000Y-98656285D01*
X99224286Y-98692571D01*
X99224286Y-98928184D01*
X99212190Y-98934476D01*
X99203505Y-99020601D01*
X99212190Y-99031238D01*
X99212190Y-101754306D01*
X99175616Y-101725356D01*
X99175616Y-98491783D01*
X99229384Y-98473724D01*
X99258069Y-98334861D01*
X99260571Y-98249330D01*
X99280779Y-98088777D01*
X99322911Y-98009466D01*
X99365657Y-97921156D01*
X99408419Y-97735820D01*
X99430703Y-97584212D01*
X99483167Y-97291004D01*
X99568557Y-96957250D01*
X99629908Y-96765743D01*
X99710555Y-96490185D01*
X99790893Y-96133883D01*
X99857070Y-95760598D01*
X99873439Y-95644571D01*
X99963216Y-94955143D01*
X99762845Y-94757321D01*
X99615203Y-94630954D01*
X99492529Y-94598575D01*
X99344807Y-94635379D01*
X99146955Y-94778288D01*
X98988730Y-95044509D01*
X98872737Y-95417013D01*
X98801582Y-95878770D01*
X98777870Y-96412751D01*
X98804208Y-97001926D01*
X98883201Y-97629266D01*
X98885035Y-97640286D01*
X98951476Y-97963289D01*
X99027897Y-98222350D01*
X99105532Y-98403253D01*
X99175616Y-98491783D01*
X99175616Y-101725356D01*
X99171917Y-101722428D01*
X99002591Y-101579032D01*
X98853213Y-101486571D01*
X98708936Y-101398225D01*
X98530545Y-101260984D01*
X98356164Y-101108229D01*
X98223923Y-100973344D01*
X98171943Y-100890074D01*
X98127872Y-100806794D01*
X98015688Y-100657949D01*
X97936086Y-100563482D01*
X97691054Y-100276556D01*
X97535942Y-100078214D01*
X97459356Y-99953113D01*
X97446286Y-99903907D01*
X97408500Y-99811194D01*
X97311541Y-99643788D01*
X97228571Y-99515886D01*
X97106856Y-99327621D01*
X97027838Y-99190206D01*
X97010857Y-99147274D01*
X96982373Y-99059152D01*
X96910536Y-98890649D01*
X96871530Y-98806198D01*
X96757629Y-98517454D01*
X96634393Y-98123750D01*
X96513110Y-97663798D01*
X96425761Y-97277428D01*
X96404175Y-97095173D01*
X96388832Y-96805792D01*
X96381015Y-96447218D01*
X96382006Y-96057384D01*
X96382006Y-96057384D01*
G37*
X96382006Y-96057384D02*
X96382830Y-96007428D01*
X96395301Y-95566683D01*
X96416557Y-95241791D01*
X96450082Y-95003560D01*
X96499360Y-94822795D01*
X96534376Y-94737428D01*
X96636808Y-94509596D01*
X96724602Y-94305367D01*
X96740805Y-94265714D01*
X96961032Y-93791063D01*
X97209102Y-93411004D01*
X97264857Y-93341559D01*
X97556307Y-93014038D01*
X97845027Y-92731974D01*
X98100383Y-92523936D01*
X98223962Y-92446984D01*
X98376876Y-92362969D01*
X98462083Y-92306603D01*
X98462286Y-92306401D01*
X98675828Y-92174297D01*
X98995996Y-92078476D01*
X99388056Y-92022294D01*
X99817273Y-92009109D01*
X100248915Y-92042279D01*
X100566857Y-92102975D01*
X100751962Y-92185444D01*
X100991535Y-92339728D01*
X101238347Y-92534087D01*
X101324491Y-92612116D01*
X101470302Y-92739583D01*
X101572394Y-92809637D01*
X101587981Y-92814286D01*
X101642681Y-92875653D01*
X101737105Y-93037871D01*
X101854440Y-93268110D01*
X101977871Y-93533542D01*
X102080456Y-93775836D01*
X102144042Y-94029330D01*
X102183395Y-94389869D01*
X102196898Y-94821131D01*
X102182940Y-95286792D01*
X102160272Y-95572000D01*
X102116832Y-95920719D01*
X102059020Y-96272256D01*
X101998376Y-96557590D01*
X101990405Y-96588000D01*
X101912210Y-96879001D01*
X101835135Y-97169901D01*
X101803172Y-97292305D01*
X101733958Y-97504358D01*
X101657204Y-97662728D01*
X101635368Y-97691448D01*
X101567790Y-97808074D01*
X101482442Y-98015502D01*
X101413065Y-98220857D01*
X101325109Y-98493844D01*
X101237545Y-98743595D01*
X101186688Y-98874000D01*
X101085745Y-99167293D01*
X100985849Y-99554730D01*
X100897922Y-99985647D01*
X100832884Y-100409381D01*
X100811262Y-100615714D01*
X100789561Y-100872349D01*
X100772361Y-101066716D01*
X100763215Y-101158714D01*
X100763018Y-101160000D01*
X100776780Y-101289673D01*
X100832006Y-101503609D01*
X100913793Y-101752319D01*
X101007241Y-101986314D01*
X101020604Y-102015505D01*
X101096886Y-102207553D01*
X101125885Y-102342759D01*
X101118287Y-102374474D01*
X101032401Y-102374938D01*
X100843835Y-102335346D01*
X100675714Y-102288350D01*
X100675714Y-99055428D01*
X100712000Y-99019143D01*
X100675714Y-98982857D01*
X100675714Y-96370286D01*
X100712000Y-96334000D01*
X100675714Y-96297714D01*
X100639428Y-96334000D01*
X100675714Y-96370286D01*
X100675714Y-98982857D01*
X100639428Y-99019143D01*
X100675714Y-99055428D01*
X100675714Y-102288350D01*
X100586926Y-102263530D01*
X100469662Y-102226540D01*
X100176590Y-102136888D01*
X99920307Y-102068844D01*
X99743773Y-102033474D01*
X99709821Y-102030857D01*
X99659714Y-102019653D01*
X99659714Y-100506857D01*
X99696000Y-100470571D01*
X99659714Y-100434286D01*
X99623429Y-100470571D01*
X99659714Y-100506857D01*
X99659714Y-102019653D01*
X99584585Y-102002852D01*
X99550857Y-101958286D01*
X99492077Y-101893902D01*
X99442000Y-101885714D01*
X99317121Y-101837362D01*
X99212190Y-101754306D01*
X99212190Y-99031238D01*
X99255334Y-99021276D01*
X99260571Y-98982857D01*
X99234019Y-98923122D01*
X99224286Y-98928184D01*
X99224286Y-98692571D01*
X99260571Y-98656285D01*
X99224286Y-98620000D01*
X99188000Y-98656285D01*
X99224286Y-98692571D01*
X99224286Y-98928184D01*
X99212190Y-98934476D01*
X99203505Y-99020601D01*
X99212190Y-99031238D01*
X99212190Y-101754306D01*
X99175616Y-101725356D01*
X99175616Y-98491783D01*
X99229384Y-98473724D01*
X99258069Y-98334861D01*
X99260571Y-98249330D01*
X99280779Y-98088777D01*
X99322911Y-98009466D01*
X99365657Y-97921156D01*
X99408419Y-97735820D01*
X99430703Y-97584212D01*
X99483167Y-97291004D01*
X99568557Y-96957250D01*
X99629908Y-96765743D01*
X99710555Y-96490185D01*
X99790893Y-96133883D01*
X99857070Y-95760598D01*
X99873439Y-95644571D01*
X99963216Y-94955143D01*
X99762845Y-94757321D01*
X99615203Y-94630954D01*
X99492529Y-94598575D01*
X99344807Y-94635379D01*
X99146955Y-94778288D01*
X98988730Y-95044509D01*
X98872737Y-95417013D01*
X98801582Y-95878770D01*
X98777870Y-96412751D01*
X98804208Y-97001926D01*
X98883201Y-97629266D01*
X98885035Y-97640286D01*
X98951476Y-97963289D01*
X99027897Y-98222350D01*
X99105532Y-98403253D01*
X99175616Y-98491783D01*
X99175616Y-101725356D01*
X99171917Y-101722428D01*
X99002591Y-101579032D01*
X98853213Y-101486571D01*
X98708936Y-101398225D01*
X98530545Y-101260984D01*
X98356164Y-101108229D01*
X98223923Y-100973344D01*
X98171943Y-100890074D01*
X98127872Y-100806794D01*
X98015688Y-100657949D01*
X97936086Y-100563482D01*
X97691054Y-100276556D01*
X97535942Y-100078214D01*
X97459356Y-99953113D01*
X97446286Y-99903907D01*
X97408500Y-99811194D01*
X97311541Y-99643788D01*
X97228571Y-99515886D01*
X97106856Y-99327621D01*
X97027838Y-99190206D01*
X97010857Y-99147274D01*
X96982373Y-99059152D01*
X96910536Y-98890649D01*
X96871530Y-98806198D01*
X96757629Y-98517454D01*
X96634393Y-98123750D01*
X96513110Y-97663798D01*
X96425761Y-97277428D01*
X96404175Y-97095173D01*
X96388832Y-96805792D01*
X96381015Y-96447218D01*
X96382006Y-96057384D01*
G36*
X100675714Y-91798286D02*
X100712000Y-91834571D01*
X100675714Y-91870857D01*
X100639428Y-91834571D01*
X100675714Y-91798286D01*
X100675714Y-91798286D01*
G37*
X100675714Y-91798286D02*
X100712000Y-91834571D01*
X100675714Y-91870857D01*
X100639428Y-91834571D01*
X100675714Y-91798286D01*
G36*
X110593042Y-105720799D02*
X110612074Y-105369049D01*
X110644750Y-105002010D01*
X110688225Y-104649908D01*
X110739654Y-104342969D01*
X110796191Y-104111419D01*
X110854990Y-103985485D01*
X110873085Y-103972666D01*
X110927565Y-103890426D01*
X110944571Y-103768406D01*
X110975154Y-103586344D01*
X111052953Y-103341943D01*
X111157045Y-103086837D01*
X111266506Y-102872661D01*
X111355174Y-102755142D01*
X111438370Y-102618367D01*
X111452571Y-102533493D01*
X111491365Y-102398076D01*
X111591431Y-102196862D01*
X111688429Y-102038933D01*
X111832501Y-101820594D01*
X111953074Y-101633674D01*
X112004957Y-101550188D01*
X112170445Y-101312800D01*
X112402163Y-101034192D01*
X112678864Y-100734458D01*
X112979301Y-100433697D01*
X113282227Y-100152006D01*
X113566396Y-99909482D01*
X113810560Y-99726221D01*
X113993473Y-99622322D01*
X114060076Y-99606286D01*
X114134655Y-99559625D01*
X114137714Y-99541706D01*
X114198317Y-99475520D01*
X114348621Y-99383899D01*
X114541368Y-99289458D01*
X114729299Y-99214813D01*
X114865156Y-99182577D01*
X114885587Y-99183824D01*
X115011661Y-99164793D01*
X115131156Y-99113321D01*
X115276113Y-99055396D01*
X115495552Y-98991491D01*
X115747145Y-98930889D01*
X115988567Y-98882871D01*
X116177488Y-98856717D01*
X116271582Y-98861709D01*
X116273034Y-98862938D01*
X116255250Y-98936978D01*
X116171689Y-99090593D01*
X116078309Y-99234516D01*
X115956685Y-99416204D01*
X115881605Y-99538033D01*
X115868561Y-99570000D01*
X115861548Y-99628330D01*
X115817489Y-99759751D01*
X115750693Y-100016372D01*
X115699682Y-100366316D01*
X115668565Y-100758235D01*
X115661450Y-101140779D01*
X115681695Y-101456857D01*
X115733423Y-101788133D01*
X115809564Y-102191194D01*
X115900180Y-102620554D01*
X115995331Y-103030722D01*
X116085082Y-103376211D01*
X116141475Y-103561428D01*
X116235581Y-103930824D01*
X116307605Y-104396638D01*
X116353723Y-104911299D01*
X116370111Y-105427237D01*
X116352945Y-105896879D01*
X116339831Y-106028857D01*
X116277032Y-106456140D01*
X116196166Y-106857876D01*
X116106907Y-107190837D01*
X116039347Y-107371428D01*
X115698657Y-107944919D01*
X115256021Y-108432150D01*
X114730662Y-108816251D01*
X114319143Y-109000816D01*
X114319143Y-100404571D01*
X114355429Y-100368286D01*
X114319143Y-100332000D01*
X114282857Y-100368286D01*
X114319143Y-100404571D01*
X114319143Y-109000816D01*
X114141805Y-109080352D01*
X114065143Y-109103954D01*
X113774389Y-109153071D01*
X113518691Y-109156534D01*
X113518691Y-106557636D01*
X113639337Y-106531448D01*
X113758202Y-106452206D01*
X113923749Y-106298940D01*
X114038879Y-106142183D01*
X114080782Y-105967367D01*
X114097655Y-105675936D01*
X114090084Y-105294139D01*
X114058653Y-104848226D01*
X114003946Y-104364447D01*
X113998380Y-104323428D01*
X113932120Y-103760650D01*
X113877715Y-103141840D01*
X113852253Y-102745000D01*
X113821600Y-102655040D01*
X113755122Y-102678201D01*
X113666424Y-102791136D01*
X113569110Y-102970497D01*
X113476785Y-103192938D01*
X113403052Y-103435112D01*
X113376517Y-103561428D01*
X113331960Y-103763755D01*
X113283599Y-103905090D01*
X113272353Y-103924285D01*
X113216782Y-104055714D01*
X113154329Y-104289739D01*
X113093339Y-104584618D01*
X113042156Y-104898604D01*
X113009124Y-105189953D01*
X113003993Y-105266857D01*
X113014444Y-105654697D01*
X113080318Y-106007991D01*
X113191474Y-106293053D01*
X113337770Y-106476197D01*
X113375381Y-106500393D01*
X113518691Y-106557636D01*
X113518691Y-109156534D01*
X113429493Y-109157743D01*
X113085429Y-109125098D01*
X113085429Y-107661714D01*
X113121714Y-107625428D01*
X113085429Y-107589143D01*
X113049143Y-107625428D01*
X113085429Y-107661714D01*
X113085429Y-109125098D01*
X113070702Y-109123700D01*
X112738264Y-109056678D01*
X112472426Y-108962407D01*
X112320348Y-108855430D01*
X112185944Y-108764795D01*
X112113445Y-108750286D01*
X111994190Y-108697143D01*
X111824063Y-108561175D01*
X111636684Y-108377574D01*
X111465669Y-108181532D01*
X111344638Y-108008239D01*
X111306175Y-107905238D01*
X111257375Y-107816597D01*
X111141160Y-107687989D01*
X111136017Y-107683088D01*
X111045385Y-107556561D01*
X110940504Y-107351824D01*
X110836413Y-107107993D01*
X110748147Y-106864183D01*
X110690743Y-106659508D01*
X110679238Y-106533083D01*
X110687329Y-106515909D01*
X110681539Y-106436610D01*
X110646268Y-106382053D01*
X110607294Y-106257527D01*
X110590500Y-106027033D01*
X110593042Y-105720799D01*
X110593042Y-105720799D01*
G37*
X110593042Y-105720799D02*
X110612074Y-105369049D01*
X110644750Y-105002010D01*
X110688225Y-104649908D01*
X110739654Y-104342969D01*
X110796191Y-104111419D01*
X110854990Y-103985485D01*
X110873085Y-103972666D01*
X110927565Y-103890426D01*
X110944571Y-103768406D01*
X110975154Y-103586344D01*
X111052953Y-103341943D01*
X111157045Y-103086837D01*
X111266506Y-102872661D01*
X111355174Y-102755142D01*
X111438370Y-102618367D01*
X111452571Y-102533493D01*
X111491365Y-102398076D01*
X111591431Y-102196862D01*
X111688429Y-102038933D01*
X111832501Y-101820594D01*
X111953074Y-101633674D01*
X112004957Y-101550188D01*
X112170445Y-101312800D01*
X112402163Y-101034192D01*
X112678864Y-100734458D01*
X112979301Y-100433697D01*
X113282227Y-100152006D01*
X113566396Y-99909482D01*
X113810560Y-99726221D01*
X113993473Y-99622322D01*
X114060076Y-99606286D01*
X114134655Y-99559625D01*
X114137714Y-99541706D01*
X114198317Y-99475520D01*
X114348621Y-99383899D01*
X114541368Y-99289458D01*
X114729299Y-99214813D01*
X114865156Y-99182577D01*
X114885587Y-99183824D01*
X115011661Y-99164793D01*
X115131156Y-99113321D01*
X115276113Y-99055396D01*
X115495552Y-98991491D01*
X115747145Y-98930889D01*
X115988567Y-98882871D01*
X116177488Y-98856717D01*
X116271582Y-98861709D01*
X116273034Y-98862938D01*
X116255250Y-98936978D01*
X116171689Y-99090593D01*
X116078309Y-99234516D01*
X115956685Y-99416204D01*
X115881605Y-99538033D01*
X115868561Y-99570000D01*
X115861548Y-99628330D01*
X115817489Y-99759751D01*
X115750693Y-100016372D01*
X115699682Y-100366316D01*
X115668565Y-100758235D01*
X115661450Y-101140779D01*
X115681695Y-101456857D01*
X115733423Y-101788133D01*
X115809564Y-102191194D01*
X115900180Y-102620554D01*
X115995331Y-103030722D01*
X116085082Y-103376211D01*
X116141475Y-103561428D01*
X116235581Y-103930824D01*
X116307605Y-104396638D01*
X116353723Y-104911299D01*
X116370111Y-105427237D01*
X116352945Y-105896879D01*
X116339831Y-106028857D01*
X116277032Y-106456140D01*
X116196166Y-106857876D01*
X116106907Y-107190837D01*
X116039347Y-107371428D01*
X115698657Y-107944919D01*
X115256021Y-108432150D01*
X114730662Y-108816251D01*
X114319143Y-109000816D01*
X114319143Y-100404571D01*
X114355429Y-100368286D01*
X114319143Y-100332000D01*
X114282857Y-100368286D01*
X114319143Y-100404571D01*
X114319143Y-109000816D01*
X114141805Y-109080352D01*
X114065143Y-109103954D01*
X113774389Y-109153071D01*
X113518691Y-109156534D01*
X113518691Y-106557636D01*
X113639337Y-106531448D01*
X113758202Y-106452206D01*
X113923749Y-106298940D01*
X114038879Y-106142183D01*
X114080782Y-105967367D01*
X114097655Y-105675936D01*
X114090084Y-105294139D01*
X114058653Y-104848226D01*
X114003946Y-104364447D01*
X113998380Y-104323428D01*
X113932120Y-103760650D01*
X113877715Y-103141840D01*
X113852253Y-102745000D01*
X113821600Y-102655040D01*
X113755122Y-102678201D01*
X113666424Y-102791136D01*
X113569110Y-102970497D01*
X113476785Y-103192938D01*
X113403052Y-103435112D01*
X113376517Y-103561428D01*
X113331960Y-103763755D01*
X113283599Y-103905090D01*
X113272353Y-103924285D01*
X113216782Y-104055714D01*
X113154329Y-104289739D01*
X113093339Y-104584618D01*
X113042156Y-104898604D01*
X113009124Y-105189953D01*
X113003993Y-105266857D01*
X113014444Y-105654697D01*
X113080318Y-106007991D01*
X113191474Y-106293053D01*
X113337770Y-106476197D01*
X113375381Y-106500393D01*
X113518691Y-106557636D01*
X113518691Y-109156534D01*
X113429493Y-109157743D01*
X113085429Y-109125098D01*
X113085429Y-107661714D01*
X113121714Y-107625428D01*
X113085429Y-107589143D01*
X113049143Y-107625428D01*
X113085429Y-107661714D01*
X113085429Y-109125098D01*
X113070702Y-109123700D01*
X112738264Y-109056678D01*
X112472426Y-108962407D01*
X112320348Y-108855430D01*
X112185944Y-108764795D01*
X112113445Y-108750286D01*
X111994190Y-108697143D01*
X111824063Y-108561175D01*
X111636684Y-108377574D01*
X111465669Y-108181532D01*
X111344638Y-108008239D01*
X111306175Y-107905238D01*
X111257375Y-107816597D01*
X111141160Y-107687989D01*
X111136017Y-107683088D01*
X111045385Y-107556561D01*
X110940504Y-107351824D01*
X110836413Y-107107993D01*
X110748147Y-106864183D01*
X110690743Y-106659508D01*
X110679238Y-106533083D01*
X110687329Y-106515909D01*
X110681539Y-106436610D01*
X110646268Y-106382053D01*
X110607294Y-106257527D01*
X110590500Y-106027033D01*
X110593042Y-105720799D01*
G36*
X96382006Y-116057384D02*
X96382830Y-116007428D01*
X96395301Y-115566683D01*
X96416557Y-115241791D01*
X96450082Y-115003560D01*
X96499360Y-114822795D01*
X96534376Y-114737428D01*
X96636808Y-114509596D01*
X96724602Y-114305367D01*
X96740805Y-114265714D01*
X96961032Y-113791063D01*
X97209102Y-113411004D01*
X97264857Y-113341559D01*
X97556307Y-113014038D01*
X97845027Y-112731974D01*
X98100383Y-112523936D01*
X98223962Y-112446984D01*
X98376876Y-112362969D01*
X98462083Y-112306603D01*
X98462286Y-112306401D01*
X98675828Y-112174297D01*
X98995996Y-112078476D01*
X99388056Y-112022294D01*
X99817273Y-112009109D01*
X100248915Y-112042279D01*
X100566857Y-112102975D01*
X100751962Y-112185444D01*
X100991535Y-112339728D01*
X101238347Y-112534087D01*
X101324491Y-112612116D01*
X101470302Y-112739583D01*
X101572394Y-112809637D01*
X101587981Y-112814286D01*
X101642681Y-112875653D01*
X101737105Y-113037871D01*
X101854440Y-113268110D01*
X101977871Y-113533542D01*
X102080456Y-113775836D01*
X102144042Y-114029330D01*
X102183395Y-114389869D01*
X102196898Y-114821131D01*
X102182940Y-115286792D01*
X102160272Y-115572000D01*
X102116832Y-115920719D01*
X102059020Y-116272256D01*
X101998376Y-116557590D01*
X101990405Y-116588000D01*
X101912210Y-116879001D01*
X101835135Y-117169901D01*
X101803172Y-117292305D01*
X101733958Y-117504358D01*
X101657204Y-117662728D01*
X101635368Y-117691448D01*
X101567790Y-117808074D01*
X101482442Y-118015502D01*
X101413065Y-118220857D01*
X101325109Y-118493844D01*
X101237545Y-118743595D01*
X101186688Y-118874000D01*
X101085745Y-119167293D01*
X100985849Y-119554730D01*
X100897922Y-119985647D01*
X100832884Y-120409381D01*
X100811262Y-120615714D01*
X100789561Y-120872349D01*
X100772361Y-121066716D01*
X100763215Y-121158714D01*
X100763018Y-121160000D01*
X100776780Y-121289673D01*
X100832006Y-121503609D01*
X100913793Y-121752319D01*
X101007241Y-121986314D01*
X101020604Y-122015505D01*
X101096886Y-122207553D01*
X101125885Y-122342759D01*
X101118287Y-122374474D01*
X101032401Y-122374938D01*
X100843835Y-122335346D01*
X100675714Y-122288350D01*
X100675714Y-119055428D01*
X100712000Y-119019143D01*
X100675714Y-118982857D01*
X100675714Y-116370286D01*
X100712000Y-116334000D01*
X100675714Y-116297714D01*
X100639428Y-116334000D01*
X100675714Y-116370286D01*
X100675714Y-118982857D01*
X100639428Y-119019143D01*
X100675714Y-119055428D01*
X100675714Y-122288350D01*
X100586926Y-122263530D01*
X100469662Y-122226540D01*
X100176590Y-122136888D01*
X99920307Y-122068844D01*
X99743773Y-122033474D01*
X99709821Y-122030857D01*
X99659714Y-122019653D01*
X99659714Y-120506857D01*
X99696000Y-120470571D01*
X99659714Y-120434286D01*
X99623429Y-120470571D01*
X99659714Y-120506857D01*
X99659714Y-122019653D01*
X99584585Y-122002852D01*
X99550857Y-121958286D01*
X99492077Y-121893902D01*
X99442000Y-121885714D01*
X99317121Y-121837362D01*
X99212190Y-121754306D01*
X99212190Y-119031238D01*
X99255334Y-119021276D01*
X99260571Y-118982857D01*
X99234019Y-118923122D01*
X99224286Y-118928184D01*
X99224286Y-118692571D01*
X99260571Y-118656285D01*
X99224286Y-118620000D01*
X99188000Y-118656285D01*
X99224286Y-118692571D01*
X99224286Y-118928184D01*
X99212190Y-118934476D01*
X99203505Y-119020601D01*
X99212190Y-119031238D01*
X99212190Y-121754306D01*
X99175616Y-121725356D01*
X99175616Y-118491783D01*
X99229384Y-118473724D01*
X99258069Y-118334861D01*
X99260571Y-118249330D01*
X99280779Y-118088777D01*
X99322911Y-118009466D01*
X99365657Y-117921156D01*
X99408419Y-117735820D01*
X99430703Y-117584212D01*
X99483167Y-117291004D01*
X99568557Y-116957250D01*
X99629908Y-116765743D01*
X99710555Y-116490185D01*
X99790893Y-116133883D01*
X99857070Y-115760598D01*
X99873439Y-115644571D01*
X99963216Y-114955143D01*
X99762845Y-114757321D01*
X99615203Y-114630954D01*
X99492529Y-114598575D01*
X99344807Y-114635379D01*
X99146955Y-114778288D01*
X98988730Y-115044509D01*
X98872737Y-115417013D01*
X98801582Y-115878770D01*
X98777870Y-116412751D01*
X98804208Y-117001926D01*
X98883201Y-117629266D01*
X98885035Y-117640286D01*
X98951476Y-117963289D01*
X99027897Y-118222350D01*
X99105532Y-118403253D01*
X99175616Y-118491783D01*
X99175616Y-121725356D01*
X99171917Y-121722428D01*
X99002591Y-121579032D01*
X98853213Y-121486571D01*
X98708936Y-121398225D01*
X98530545Y-121260984D01*
X98356164Y-121108229D01*
X98223923Y-120973344D01*
X98171943Y-120890074D01*
X98127872Y-120806794D01*
X98015688Y-120657949D01*
X97936086Y-120563482D01*
X97691054Y-120276556D01*
X97535942Y-120078214D01*
X97459356Y-119953113D01*
X97446286Y-119903907D01*
X97408500Y-119811194D01*
X97311541Y-119643788D01*
X97228571Y-119515886D01*
X97106856Y-119327621D01*
X97027838Y-119190206D01*
X97010857Y-119147274D01*
X96982373Y-119059152D01*
X96910536Y-118890649D01*
X96871530Y-118806198D01*
X96757629Y-118517454D01*
X96634393Y-118123750D01*
X96513110Y-117663798D01*
X96425761Y-117277428D01*
X96404175Y-117095173D01*
X96388832Y-116805792D01*
X96381015Y-116447218D01*
X96382006Y-116057384D01*
X96382006Y-116057384D01*
G37*
X96382006Y-116057384D02*
X96382830Y-116007428D01*
X96395301Y-115566683D01*
X96416557Y-115241791D01*
X96450082Y-115003560D01*
X96499360Y-114822795D01*
X96534376Y-114737428D01*
X96636808Y-114509596D01*
X96724602Y-114305367D01*
X96740805Y-114265714D01*
X96961032Y-113791063D01*
X97209102Y-113411004D01*
X97264857Y-113341559D01*
X97556307Y-113014038D01*
X97845027Y-112731974D01*
X98100383Y-112523936D01*
X98223962Y-112446984D01*
X98376876Y-112362969D01*
X98462083Y-112306603D01*
X98462286Y-112306401D01*
X98675828Y-112174297D01*
X98995996Y-112078476D01*
X99388056Y-112022294D01*
X99817273Y-112009109D01*
X100248915Y-112042279D01*
X100566857Y-112102975D01*
X100751962Y-112185444D01*
X100991535Y-112339728D01*
X101238347Y-112534087D01*
X101324491Y-112612116D01*
X101470302Y-112739583D01*
X101572394Y-112809637D01*
X101587981Y-112814286D01*
X101642681Y-112875653D01*
X101737105Y-113037871D01*
X101854440Y-113268110D01*
X101977871Y-113533542D01*
X102080456Y-113775836D01*
X102144042Y-114029330D01*
X102183395Y-114389869D01*
X102196898Y-114821131D01*
X102182940Y-115286792D01*
X102160272Y-115572000D01*
X102116832Y-115920719D01*
X102059020Y-116272256D01*
X101998376Y-116557590D01*
X101990405Y-116588000D01*
X101912210Y-116879001D01*
X101835135Y-117169901D01*
X101803172Y-117292305D01*
X101733958Y-117504358D01*
X101657204Y-117662728D01*
X101635368Y-117691448D01*
X101567790Y-117808074D01*
X101482442Y-118015502D01*
X101413065Y-118220857D01*
X101325109Y-118493844D01*
X101237545Y-118743595D01*
X101186688Y-118874000D01*
X101085745Y-119167293D01*
X100985849Y-119554730D01*
X100897922Y-119985647D01*
X100832884Y-120409381D01*
X100811262Y-120615714D01*
X100789561Y-120872349D01*
X100772361Y-121066716D01*
X100763215Y-121158714D01*
X100763018Y-121160000D01*
X100776780Y-121289673D01*
X100832006Y-121503609D01*
X100913793Y-121752319D01*
X101007241Y-121986314D01*
X101020604Y-122015505D01*
X101096886Y-122207553D01*
X101125885Y-122342759D01*
X101118287Y-122374474D01*
X101032401Y-122374938D01*
X100843835Y-122335346D01*
X100675714Y-122288350D01*
X100675714Y-119055428D01*
X100712000Y-119019143D01*
X100675714Y-118982857D01*
X100675714Y-116370286D01*
X100712000Y-116334000D01*
X100675714Y-116297714D01*
X100639428Y-116334000D01*
X100675714Y-116370286D01*
X100675714Y-118982857D01*
X100639428Y-119019143D01*
X100675714Y-119055428D01*
X100675714Y-122288350D01*
X100586926Y-122263530D01*
X100469662Y-122226540D01*
X100176590Y-122136888D01*
X99920307Y-122068844D01*
X99743773Y-122033474D01*
X99709821Y-122030857D01*
X99659714Y-122019653D01*
X99659714Y-120506857D01*
X99696000Y-120470571D01*
X99659714Y-120434286D01*
X99623429Y-120470571D01*
X99659714Y-120506857D01*
X99659714Y-122019653D01*
X99584585Y-122002852D01*
X99550857Y-121958286D01*
X99492077Y-121893902D01*
X99442000Y-121885714D01*
X99317121Y-121837362D01*
X99212190Y-121754306D01*
X99212190Y-119031238D01*
X99255334Y-119021276D01*
X99260571Y-118982857D01*
X99234019Y-118923122D01*
X99224286Y-118928184D01*
X99224286Y-118692571D01*
X99260571Y-118656285D01*
X99224286Y-118620000D01*
X99188000Y-118656285D01*
X99224286Y-118692571D01*
X99224286Y-118928184D01*
X99212190Y-118934476D01*
X99203505Y-119020601D01*
X99212190Y-119031238D01*
X99212190Y-121754306D01*
X99175616Y-121725356D01*
X99175616Y-118491783D01*
X99229384Y-118473724D01*
X99258069Y-118334861D01*
X99260571Y-118249330D01*
X99280779Y-118088777D01*
X99322911Y-118009466D01*
X99365657Y-117921156D01*
X99408419Y-117735820D01*
X99430703Y-117584212D01*
X99483167Y-117291004D01*
X99568557Y-116957250D01*
X99629908Y-116765743D01*
X99710555Y-116490185D01*
X99790893Y-116133883D01*
X99857070Y-115760598D01*
X99873439Y-115644571D01*
X99963216Y-114955143D01*
X99762845Y-114757321D01*
X99615203Y-114630954D01*
X99492529Y-114598575D01*
X99344807Y-114635379D01*
X99146955Y-114778288D01*
X98988730Y-115044509D01*
X98872737Y-115417013D01*
X98801582Y-115878770D01*
X98777870Y-116412751D01*
X98804208Y-117001926D01*
X98883201Y-117629266D01*
X98885035Y-117640286D01*
X98951476Y-117963289D01*
X99027897Y-118222350D01*
X99105532Y-118403253D01*
X99175616Y-118491783D01*
X99175616Y-121725356D01*
X99171917Y-121722428D01*
X99002591Y-121579032D01*
X98853213Y-121486571D01*
X98708936Y-121398225D01*
X98530545Y-121260984D01*
X98356164Y-121108229D01*
X98223923Y-120973344D01*
X98171943Y-120890074D01*
X98127872Y-120806794D01*
X98015688Y-120657949D01*
X97936086Y-120563482D01*
X97691054Y-120276556D01*
X97535942Y-120078214D01*
X97459356Y-119953113D01*
X97446286Y-119903907D01*
X97408500Y-119811194D01*
X97311541Y-119643788D01*
X97228571Y-119515886D01*
X97106856Y-119327621D01*
X97027838Y-119190206D01*
X97010857Y-119147274D01*
X96982373Y-119059152D01*
X96910536Y-118890649D01*
X96871530Y-118806198D01*
X96757629Y-118517454D01*
X96634393Y-118123750D01*
X96513110Y-117663798D01*
X96425761Y-117277428D01*
X96404175Y-117095173D01*
X96388832Y-116805792D01*
X96381015Y-116447218D01*
X96382006Y-116057384D01*
G36*
X100675714Y-111798286D02*
X100712000Y-111834571D01*
X100675714Y-111870857D01*
X100639428Y-111834571D01*
X100675714Y-111798286D01*
X100675714Y-111798286D01*
G37*
X100675714Y-111798286D02*
X100712000Y-111834571D01*
X100675714Y-111870857D01*
X100639428Y-111834571D01*
X100675714Y-111798286D01*
G36*
X140593042Y-125720799D02*
X140612074Y-125369049D01*
X140644750Y-125002010D01*
X140688225Y-124649908D01*
X140739654Y-124342969D01*
X140796191Y-124111419D01*
X140854990Y-123985485D01*
X140873085Y-123972666D01*
X140927565Y-123890426D01*
X140944571Y-123768406D01*
X140975154Y-123586344D01*
X141052953Y-123341943D01*
X141157045Y-123086837D01*
X141266506Y-122872661D01*
X141355174Y-122755142D01*
X141438370Y-122618367D01*
X141452571Y-122533493D01*
X141491365Y-122398076D01*
X141591431Y-122196862D01*
X141688429Y-122038933D01*
X141832501Y-121820594D01*
X141953074Y-121633674D01*
X142004957Y-121550188D01*
X142170445Y-121312800D01*
X142402163Y-121034192D01*
X142678864Y-120734458D01*
X142979301Y-120433697D01*
X143282227Y-120152006D01*
X143566396Y-119909482D01*
X143810560Y-119726221D01*
X143993473Y-119622322D01*
X144060076Y-119606286D01*
X144134655Y-119559625D01*
X144137714Y-119541706D01*
X144198317Y-119475520D01*
X144348621Y-119383899D01*
X144541368Y-119289458D01*
X144729299Y-119214813D01*
X144865156Y-119182577D01*
X144885587Y-119183824D01*
X145011661Y-119164793D01*
X145131156Y-119113321D01*
X145276113Y-119055396D01*
X145495552Y-118991491D01*
X145747145Y-118930889D01*
X145988567Y-118882871D01*
X146177488Y-118856717D01*
X146271582Y-118861709D01*
X146273034Y-118862938D01*
X146255250Y-118936978D01*
X146171689Y-119090593D01*
X146078309Y-119234516D01*
X145956685Y-119416204D01*
X145881605Y-119538033D01*
X145868561Y-119570000D01*
X145861548Y-119628330D01*
X145817489Y-119759751D01*
X145750693Y-120016372D01*
X145699682Y-120366316D01*
X145668565Y-120758235D01*
X145661450Y-121140779D01*
X145681695Y-121456857D01*
X145733423Y-121788133D01*
X145809564Y-122191194D01*
X145900180Y-122620554D01*
X145995331Y-123030722D01*
X146085082Y-123376211D01*
X146141475Y-123561428D01*
X146235581Y-123930824D01*
X146307605Y-124396638D01*
X146353723Y-124911299D01*
X146370111Y-125427237D01*
X146352945Y-125896879D01*
X146339831Y-126028857D01*
X146277032Y-126456140D01*
X146196166Y-126857876D01*
X146106907Y-127190837D01*
X146039347Y-127371428D01*
X145698657Y-127944919D01*
X145256021Y-128432150D01*
X144730662Y-128816251D01*
X144319143Y-129000816D01*
X144319143Y-120404571D01*
X144355429Y-120368286D01*
X144319143Y-120332000D01*
X144282857Y-120368286D01*
X144319143Y-120404571D01*
X144319143Y-129000816D01*
X144141805Y-129080352D01*
X144065143Y-129103954D01*
X143774389Y-129153071D01*
X143518691Y-129156534D01*
X143518691Y-126557636D01*
X143639337Y-126531448D01*
X143758202Y-126452206D01*
X143923749Y-126298940D01*
X144038879Y-126142183D01*
X144080782Y-125967367D01*
X144097655Y-125675936D01*
X144090084Y-125294139D01*
X144058653Y-124848226D01*
X144003946Y-124364447D01*
X143998380Y-124323428D01*
X143932120Y-123760650D01*
X143877715Y-123141840D01*
X143852253Y-122745000D01*
X143821600Y-122655040D01*
X143755122Y-122678201D01*
X143666424Y-122791136D01*
X143569110Y-122970497D01*
X143476785Y-123192938D01*
X143403052Y-123435112D01*
X143376517Y-123561428D01*
X143331960Y-123763755D01*
X143283599Y-123905090D01*
X143272353Y-123924285D01*
X143216782Y-124055714D01*
X143154329Y-124289739D01*
X143093339Y-124584618D01*
X143042156Y-124898604D01*
X143009124Y-125189953D01*
X143003993Y-125266857D01*
X143014444Y-125654697D01*
X143080318Y-126007991D01*
X143191474Y-126293053D01*
X143337770Y-126476197D01*
X143375381Y-126500393D01*
X143518691Y-126557636D01*
X143518691Y-129156534D01*
X143429493Y-129157743D01*
X143085429Y-129125098D01*
X143085429Y-127661714D01*
X143121714Y-127625428D01*
X143085429Y-127589143D01*
X143049143Y-127625428D01*
X143085429Y-127661714D01*
X143085429Y-129125098D01*
X143070702Y-129123700D01*
X142738264Y-129056678D01*
X142472426Y-128962407D01*
X142320348Y-128855430D01*
X142185944Y-128764795D01*
X142113445Y-128750286D01*
X141994190Y-128697143D01*
X141824063Y-128561175D01*
X141636684Y-128377574D01*
X141465669Y-128181532D01*
X141344638Y-128008239D01*
X141306175Y-127905238D01*
X141257375Y-127816597D01*
X141141160Y-127687989D01*
X141136017Y-127683088D01*
X141045385Y-127556561D01*
X140940504Y-127351824D01*
X140836413Y-127107993D01*
X140748147Y-126864183D01*
X140690743Y-126659508D01*
X140679238Y-126533083D01*
X140687329Y-126515909D01*
X140681539Y-126436610D01*
X140646268Y-126382053D01*
X140607294Y-126257527D01*
X140590500Y-126027033D01*
X140593042Y-125720799D01*
X140593042Y-125720799D01*
G37*
X140593042Y-125720799D02*
X140612074Y-125369049D01*
X140644750Y-125002010D01*
X140688225Y-124649908D01*
X140739654Y-124342969D01*
X140796191Y-124111419D01*
X140854990Y-123985485D01*
X140873085Y-123972666D01*
X140927565Y-123890426D01*
X140944571Y-123768406D01*
X140975154Y-123586344D01*
X141052953Y-123341943D01*
X141157045Y-123086837D01*
X141266506Y-122872661D01*
X141355174Y-122755142D01*
X141438370Y-122618367D01*
X141452571Y-122533493D01*
X141491365Y-122398076D01*
X141591431Y-122196862D01*
X141688429Y-122038933D01*
X141832501Y-121820594D01*
X141953074Y-121633674D01*
X142004957Y-121550188D01*
X142170445Y-121312800D01*
X142402163Y-121034192D01*
X142678864Y-120734458D01*
X142979301Y-120433697D01*
X143282227Y-120152006D01*
X143566396Y-119909482D01*
X143810560Y-119726221D01*
X143993473Y-119622322D01*
X144060076Y-119606286D01*
X144134655Y-119559625D01*
X144137714Y-119541706D01*
X144198317Y-119475520D01*
X144348621Y-119383899D01*
X144541368Y-119289458D01*
X144729299Y-119214813D01*
X144865156Y-119182577D01*
X144885587Y-119183824D01*
X145011661Y-119164793D01*
X145131156Y-119113321D01*
X145276113Y-119055396D01*
X145495552Y-118991491D01*
X145747145Y-118930889D01*
X145988567Y-118882871D01*
X146177488Y-118856717D01*
X146271582Y-118861709D01*
X146273034Y-118862938D01*
X146255250Y-118936978D01*
X146171689Y-119090593D01*
X146078309Y-119234516D01*
X145956685Y-119416204D01*
X145881605Y-119538033D01*
X145868561Y-119570000D01*
X145861548Y-119628330D01*
X145817489Y-119759751D01*
X145750693Y-120016372D01*
X145699682Y-120366316D01*
X145668565Y-120758235D01*
X145661450Y-121140779D01*
X145681695Y-121456857D01*
X145733423Y-121788133D01*
X145809564Y-122191194D01*
X145900180Y-122620554D01*
X145995331Y-123030722D01*
X146085082Y-123376211D01*
X146141475Y-123561428D01*
X146235581Y-123930824D01*
X146307605Y-124396638D01*
X146353723Y-124911299D01*
X146370111Y-125427237D01*
X146352945Y-125896879D01*
X146339831Y-126028857D01*
X146277032Y-126456140D01*
X146196166Y-126857876D01*
X146106907Y-127190837D01*
X146039347Y-127371428D01*
X145698657Y-127944919D01*
X145256021Y-128432150D01*
X144730662Y-128816251D01*
X144319143Y-129000816D01*
X144319143Y-120404571D01*
X144355429Y-120368286D01*
X144319143Y-120332000D01*
X144282857Y-120368286D01*
X144319143Y-120404571D01*
X144319143Y-129000816D01*
X144141805Y-129080352D01*
X144065143Y-129103954D01*
X143774389Y-129153071D01*
X143518691Y-129156534D01*
X143518691Y-126557636D01*
X143639337Y-126531448D01*
X143758202Y-126452206D01*
X143923749Y-126298940D01*
X144038879Y-126142183D01*
X144080782Y-125967367D01*
X144097655Y-125675936D01*
X144090084Y-125294139D01*
X144058653Y-124848226D01*
X144003946Y-124364447D01*
X143998380Y-124323428D01*
X143932120Y-123760650D01*
X143877715Y-123141840D01*
X143852253Y-122745000D01*
X143821600Y-122655040D01*
X143755122Y-122678201D01*
X143666424Y-122791136D01*
X143569110Y-122970497D01*
X143476785Y-123192938D01*
X143403052Y-123435112D01*
X143376517Y-123561428D01*
X143331960Y-123763755D01*
X143283599Y-123905090D01*
X143272353Y-123924285D01*
X143216782Y-124055714D01*
X143154329Y-124289739D01*
X143093339Y-124584618D01*
X143042156Y-124898604D01*
X143009124Y-125189953D01*
X143003993Y-125266857D01*
X143014444Y-125654697D01*
X143080318Y-126007991D01*
X143191474Y-126293053D01*
X143337770Y-126476197D01*
X143375381Y-126500393D01*
X143518691Y-126557636D01*
X143518691Y-129156534D01*
X143429493Y-129157743D01*
X143085429Y-129125098D01*
X143085429Y-127661714D01*
X143121714Y-127625428D01*
X143085429Y-127589143D01*
X143049143Y-127625428D01*
X143085429Y-127661714D01*
X143085429Y-129125098D01*
X143070702Y-129123700D01*
X142738264Y-129056678D01*
X142472426Y-128962407D01*
X142320348Y-128855430D01*
X142185944Y-128764795D01*
X142113445Y-128750286D01*
X141994190Y-128697143D01*
X141824063Y-128561175D01*
X141636684Y-128377574D01*
X141465669Y-128181532D01*
X141344638Y-128008239D01*
X141306175Y-127905238D01*
X141257375Y-127816597D01*
X141141160Y-127687989D01*
X141136017Y-127683088D01*
X141045385Y-127556561D01*
X140940504Y-127351824D01*
X140836413Y-127107993D01*
X140748147Y-126864183D01*
X140690743Y-126659508D01*
X140679238Y-126533083D01*
X140687329Y-126515909D01*
X140681539Y-126436610D01*
X140646268Y-126382053D01*
X140607294Y-126257527D01*
X140590500Y-126027033D01*
X140593042Y-125720799D01*
G36*
X126382006Y-136057384D02*
X126382830Y-136007428D01*
X126395301Y-135566683D01*
X126416557Y-135241791D01*
X126450082Y-135003560D01*
X126499360Y-134822795D01*
X126534376Y-134737428D01*
X126636808Y-134509596D01*
X126724602Y-134305367D01*
X126740805Y-134265714D01*
X126961032Y-133791063D01*
X127209102Y-133411004D01*
X127264857Y-133341559D01*
X127556307Y-133014038D01*
X127845027Y-132731974D01*
X128100383Y-132523936D01*
X128223962Y-132446984D01*
X128376876Y-132362969D01*
X128462083Y-132306603D01*
X128462286Y-132306401D01*
X128675828Y-132174297D01*
X128995996Y-132078476D01*
X129388056Y-132022294D01*
X129817273Y-132009109D01*
X130248915Y-132042279D01*
X130566857Y-132102975D01*
X130751962Y-132185444D01*
X130991535Y-132339728D01*
X131238347Y-132534087D01*
X131324491Y-132612116D01*
X131470302Y-132739583D01*
X131572394Y-132809637D01*
X131587981Y-132814286D01*
X131642681Y-132875653D01*
X131737105Y-133037871D01*
X131854440Y-133268110D01*
X131977871Y-133533542D01*
X132080456Y-133775836D01*
X132144042Y-134029330D01*
X132183395Y-134389869D01*
X132196898Y-134821131D01*
X132182940Y-135286792D01*
X132160272Y-135572000D01*
X132116832Y-135920719D01*
X132059020Y-136272256D01*
X131998376Y-136557590D01*
X131990405Y-136588000D01*
X131912210Y-136879001D01*
X131835135Y-137169901D01*
X131803172Y-137292305D01*
X131733958Y-137504358D01*
X131657204Y-137662728D01*
X131635368Y-137691448D01*
X131567790Y-137808074D01*
X131482442Y-138015502D01*
X131413065Y-138220857D01*
X131325109Y-138493844D01*
X131237545Y-138743595D01*
X131186688Y-138874000D01*
X131085745Y-139167293D01*
X130985849Y-139554730D01*
X130897922Y-139985647D01*
X130832884Y-140409381D01*
X130811262Y-140615714D01*
X130789561Y-140872349D01*
X130772361Y-141066716D01*
X130763215Y-141158714D01*
X130763018Y-141160000D01*
X130776780Y-141289673D01*
X130832006Y-141503609D01*
X130913793Y-141752319D01*
X131007241Y-141986314D01*
X131020604Y-142015505D01*
X131096886Y-142207553D01*
X131125885Y-142342759D01*
X131118287Y-142374474D01*
X131032401Y-142374938D01*
X130843835Y-142335346D01*
X130675714Y-142288350D01*
X130675714Y-139055428D01*
X130712000Y-139019143D01*
X130675714Y-138982857D01*
X130675714Y-136370286D01*
X130712000Y-136334000D01*
X130675714Y-136297714D01*
X130639428Y-136334000D01*
X130675714Y-136370286D01*
X130675714Y-138982857D01*
X130639428Y-139019143D01*
X130675714Y-139055428D01*
X130675714Y-142288350D01*
X130586926Y-142263530D01*
X130469662Y-142226540D01*
X130176590Y-142136888D01*
X129920307Y-142068844D01*
X129743773Y-142033474D01*
X129709821Y-142030857D01*
X129659714Y-142019653D01*
X129659714Y-140506857D01*
X129696000Y-140470571D01*
X129659714Y-140434286D01*
X129623429Y-140470571D01*
X129659714Y-140506857D01*
X129659714Y-142019653D01*
X129584585Y-142002852D01*
X129550857Y-141958286D01*
X129492077Y-141893902D01*
X129442000Y-141885714D01*
X129317121Y-141837362D01*
X129212190Y-141754306D01*
X129212190Y-139031238D01*
X129255334Y-139021276D01*
X129260571Y-138982857D01*
X129234019Y-138923122D01*
X129224286Y-138928184D01*
X129224286Y-138692571D01*
X129260571Y-138656285D01*
X129224286Y-138620000D01*
X129188000Y-138656285D01*
X129224286Y-138692571D01*
X129224286Y-138928184D01*
X129212190Y-138934476D01*
X129203505Y-139020601D01*
X129212190Y-139031238D01*
X129212190Y-141754306D01*
X129175616Y-141725356D01*
X129175616Y-138491783D01*
X129229384Y-138473724D01*
X129258069Y-138334861D01*
X129260571Y-138249330D01*
X129280779Y-138088777D01*
X129322911Y-138009466D01*
X129365657Y-137921156D01*
X129408419Y-137735820D01*
X129430703Y-137584212D01*
X129483167Y-137291004D01*
X129568557Y-136957250D01*
X129629908Y-136765743D01*
X129710555Y-136490185D01*
X129790893Y-136133883D01*
X129857070Y-135760598D01*
X129873439Y-135644571D01*
X129963216Y-134955143D01*
X129762845Y-134757321D01*
X129615203Y-134630954D01*
X129492529Y-134598575D01*
X129344807Y-134635379D01*
X129146955Y-134778288D01*
X128988730Y-135044509D01*
X128872737Y-135417013D01*
X128801582Y-135878770D01*
X128777870Y-136412751D01*
X128804208Y-137001926D01*
X128883201Y-137629266D01*
X128885035Y-137640286D01*
X128951476Y-137963289D01*
X129027897Y-138222350D01*
X129105532Y-138403253D01*
X129175616Y-138491783D01*
X129175616Y-141725356D01*
X129171917Y-141722428D01*
X129002591Y-141579032D01*
X128853213Y-141486571D01*
X128708936Y-141398225D01*
X128530545Y-141260984D01*
X128356164Y-141108229D01*
X128223923Y-140973344D01*
X128171943Y-140890074D01*
X128127872Y-140806794D01*
X128015688Y-140657949D01*
X127936086Y-140563482D01*
X127691054Y-140276556D01*
X127535942Y-140078214D01*
X127459356Y-139953113D01*
X127446286Y-139903907D01*
X127408500Y-139811194D01*
X127311541Y-139643788D01*
X127228571Y-139515886D01*
X127106856Y-139327621D01*
X127027838Y-139190206D01*
X127010857Y-139147274D01*
X126982373Y-139059152D01*
X126910536Y-138890649D01*
X126871530Y-138806198D01*
X126757629Y-138517454D01*
X126634393Y-138123750D01*
X126513110Y-137663798D01*
X126425761Y-137277428D01*
X126404175Y-137095173D01*
X126388832Y-136805792D01*
X126381015Y-136447218D01*
X126382006Y-136057384D01*
X126382006Y-136057384D01*
G37*
X126382006Y-136057384D02*
X126382830Y-136007428D01*
X126395301Y-135566683D01*
X126416557Y-135241791D01*
X126450082Y-135003560D01*
X126499360Y-134822795D01*
X126534376Y-134737428D01*
X126636808Y-134509596D01*
X126724602Y-134305367D01*
X126740805Y-134265714D01*
X126961032Y-133791063D01*
X127209102Y-133411004D01*
X127264857Y-133341559D01*
X127556307Y-133014038D01*
X127845027Y-132731974D01*
X128100383Y-132523936D01*
X128223962Y-132446984D01*
X128376876Y-132362969D01*
X128462083Y-132306603D01*
X128462286Y-132306401D01*
X128675828Y-132174297D01*
X128995996Y-132078476D01*
X129388056Y-132022294D01*
X129817273Y-132009109D01*
X130248915Y-132042279D01*
X130566857Y-132102975D01*
X130751962Y-132185444D01*
X130991535Y-132339728D01*
X131238347Y-132534087D01*
X131324491Y-132612116D01*
X131470302Y-132739583D01*
X131572394Y-132809637D01*
X131587981Y-132814286D01*
X131642681Y-132875653D01*
X131737105Y-133037871D01*
X131854440Y-133268110D01*
X131977871Y-133533542D01*
X132080456Y-133775836D01*
X132144042Y-134029330D01*
X132183395Y-134389869D01*
X132196898Y-134821131D01*
X132182940Y-135286792D01*
X132160272Y-135572000D01*
X132116832Y-135920719D01*
X132059020Y-136272256D01*
X131998376Y-136557590D01*
X131990405Y-136588000D01*
X131912210Y-136879001D01*
X131835135Y-137169901D01*
X131803172Y-137292305D01*
X131733958Y-137504358D01*
X131657204Y-137662728D01*
X131635368Y-137691448D01*
X131567790Y-137808074D01*
X131482442Y-138015502D01*
X131413065Y-138220857D01*
X131325109Y-138493844D01*
X131237545Y-138743595D01*
X131186688Y-138874000D01*
X131085745Y-139167293D01*
X130985849Y-139554730D01*
X130897922Y-139985647D01*
X130832884Y-140409381D01*
X130811262Y-140615714D01*
X130789561Y-140872349D01*
X130772361Y-141066716D01*
X130763215Y-141158714D01*
X130763018Y-141160000D01*
X130776780Y-141289673D01*
X130832006Y-141503609D01*
X130913793Y-141752319D01*
X131007241Y-141986314D01*
X131020604Y-142015505D01*
X131096886Y-142207553D01*
X131125885Y-142342759D01*
X131118287Y-142374474D01*
X131032401Y-142374938D01*
X130843835Y-142335346D01*
X130675714Y-142288350D01*
X130675714Y-139055428D01*
X130712000Y-139019143D01*
X130675714Y-138982857D01*
X130675714Y-136370286D01*
X130712000Y-136334000D01*
X130675714Y-136297714D01*
X130639428Y-136334000D01*
X130675714Y-136370286D01*
X130675714Y-138982857D01*
X130639428Y-139019143D01*
X130675714Y-139055428D01*
X130675714Y-142288350D01*
X130586926Y-142263530D01*
X130469662Y-142226540D01*
X130176590Y-142136888D01*
X129920307Y-142068844D01*
X129743773Y-142033474D01*
X129709821Y-142030857D01*
X129659714Y-142019653D01*
X129659714Y-140506857D01*
X129696000Y-140470571D01*
X129659714Y-140434286D01*
X129623429Y-140470571D01*
X129659714Y-140506857D01*
X129659714Y-142019653D01*
X129584585Y-142002852D01*
X129550857Y-141958286D01*
X129492077Y-141893902D01*
X129442000Y-141885714D01*
X129317121Y-141837362D01*
X129212190Y-141754306D01*
X129212190Y-139031238D01*
X129255334Y-139021276D01*
X129260571Y-138982857D01*
X129234019Y-138923122D01*
X129224286Y-138928184D01*
X129224286Y-138692571D01*
X129260571Y-138656285D01*
X129224286Y-138620000D01*
X129188000Y-138656285D01*
X129224286Y-138692571D01*
X129224286Y-138928184D01*
X129212190Y-138934476D01*
X129203505Y-139020601D01*
X129212190Y-139031238D01*
X129212190Y-141754306D01*
X129175616Y-141725356D01*
X129175616Y-138491783D01*
X129229384Y-138473724D01*
X129258069Y-138334861D01*
X129260571Y-138249330D01*
X129280779Y-138088777D01*
X129322911Y-138009466D01*
X129365657Y-137921156D01*
X129408419Y-137735820D01*
X129430703Y-137584212D01*
X129483167Y-137291004D01*
X129568557Y-136957250D01*
X129629908Y-136765743D01*
X129710555Y-136490185D01*
X129790893Y-136133883D01*
X129857070Y-135760598D01*
X129873439Y-135644571D01*
X129963216Y-134955143D01*
X129762845Y-134757321D01*
X129615203Y-134630954D01*
X129492529Y-134598575D01*
X129344807Y-134635379D01*
X129146955Y-134778288D01*
X128988730Y-135044509D01*
X128872737Y-135417013D01*
X128801582Y-135878770D01*
X128777870Y-136412751D01*
X128804208Y-137001926D01*
X128883201Y-137629266D01*
X128885035Y-137640286D01*
X128951476Y-137963289D01*
X129027897Y-138222350D01*
X129105532Y-138403253D01*
X129175616Y-138491783D01*
X129175616Y-141725356D01*
X129171917Y-141722428D01*
X129002591Y-141579032D01*
X128853213Y-141486571D01*
X128708936Y-141398225D01*
X128530545Y-141260984D01*
X128356164Y-141108229D01*
X128223923Y-140973344D01*
X128171943Y-140890074D01*
X128127872Y-140806794D01*
X128015688Y-140657949D01*
X127936086Y-140563482D01*
X127691054Y-140276556D01*
X127535942Y-140078214D01*
X127459356Y-139953113D01*
X127446286Y-139903907D01*
X127408500Y-139811194D01*
X127311541Y-139643788D01*
X127228571Y-139515886D01*
X127106856Y-139327621D01*
X127027838Y-139190206D01*
X127010857Y-139147274D01*
X126982373Y-139059152D01*
X126910536Y-138890649D01*
X126871530Y-138806198D01*
X126757629Y-138517454D01*
X126634393Y-138123750D01*
X126513110Y-137663798D01*
X126425761Y-137277428D01*
X126404175Y-137095173D01*
X126388832Y-136805792D01*
X126381015Y-136447218D01*
X126382006Y-136057384D01*
G36*
X130675714Y-131798286D02*
X130712000Y-131834571D01*
X130675714Y-131870857D01*
X130639428Y-131834571D01*
X130675714Y-131798286D01*
X130675714Y-131798286D01*
G37*
X130675714Y-131798286D02*
X130712000Y-131834571D01*
X130675714Y-131870857D01*
X130639428Y-131834571D01*
X130675714Y-131798286D01*
G36*
X140593042Y-145720799D02*
X140612074Y-145369049D01*
X140644750Y-145002010D01*
X140688225Y-144649908D01*
X140739654Y-144342969D01*
X140796191Y-144111419D01*
X140854990Y-143985485D01*
X140873085Y-143972666D01*
X140927565Y-143890426D01*
X140944571Y-143768406D01*
X140975154Y-143586344D01*
X141052953Y-143341943D01*
X141157045Y-143086837D01*
X141266506Y-142872661D01*
X141355174Y-142755142D01*
X141438370Y-142618367D01*
X141452571Y-142533493D01*
X141491365Y-142398076D01*
X141591431Y-142196862D01*
X141688429Y-142038933D01*
X141832501Y-141820594D01*
X141953074Y-141633674D01*
X142004957Y-141550188D01*
X142170445Y-141312800D01*
X142402163Y-141034192D01*
X142678864Y-140734458D01*
X142979301Y-140433697D01*
X143282227Y-140152006D01*
X143566396Y-139909482D01*
X143810560Y-139726221D01*
X143993473Y-139622322D01*
X144060076Y-139606286D01*
X144134655Y-139559625D01*
X144137714Y-139541706D01*
X144198317Y-139475520D01*
X144348621Y-139383899D01*
X144541368Y-139289458D01*
X144729299Y-139214813D01*
X144865156Y-139182577D01*
X144885587Y-139183824D01*
X145011661Y-139164793D01*
X145131156Y-139113321D01*
X145276113Y-139055396D01*
X145495552Y-138991491D01*
X145747145Y-138930889D01*
X145988567Y-138882871D01*
X146177488Y-138856717D01*
X146271582Y-138861709D01*
X146273034Y-138862938D01*
X146255250Y-138936978D01*
X146171689Y-139090593D01*
X146078309Y-139234516D01*
X145956685Y-139416204D01*
X145881605Y-139538033D01*
X145868561Y-139570000D01*
X145861548Y-139628330D01*
X145817489Y-139759751D01*
X145750693Y-140016372D01*
X145699682Y-140366316D01*
X145668565Y-140758235D01*
X145661450Y-141140779D01*
X145681695Y-141456857D01*
X145733423Y-141788133D01*
X145809564Y-142191194D01*
X145900180Y-142620554D01*
X145995331Y-143030722D01*
X146085082Y-143376211D01*
X146141475Y-143561428D01*
X146235581Y-143930824D01*
X146307605Y-144396638D01*
X146353723Y-144911299D01*
X146370111Y-145427237D01*
X146352945Y-145896879D01*
X146339831Y-146028857D01*
X146277032Y-146456140D01*
X146196166Y-146857876D01*
X146106907Y-147190837D01*
X146039347Y-147371428D01*
X145698657Y-147944919D01*
X145256021Y-148432150D01*
X144730662Y-148816251D01*
X144319143Y-149000816D01*
X144319143Y-140404571D01*
X144355429Y-140368286D01*
X144319143Y-140332000D01*
X144282857Y-140368286D01*
X144319143Y-140404571D01*
X144319143Y-149000816D01*
X144141805Y-149080352D01*
X144065143Y-149103954D01*
X143774389Y-149153071D01*
X143518691Y-149156534D01*
X143518691Y-146557636D01*
X143639337Y-146531448D01*
X143758202Y-146452206D01*
X143923749Y-146298940D01*
X144038879Y-146142183D01*
X144080782Y-145967367D01*
X144097655Y-145675936D01*
X144090084Y-145294139D01*
X144058653Y-144848226D01*
X144003946Y-144364447D01*
X143998380Y-144323428D01*
X143932120Y-143760650D01*
X143877715Y-143141840D01*
X143852253Y-142745000D01*
X143821600Y-142655040D01*
X143755122Y-142678201D01*
X143666424Y-142791136D01*
X143569110Y-142970497D01*
X143476785Y-143192938D01*
X143403052Y-143435112D01*
X143376517Y-143561428D01*
X143331960Y-143763755D01*
X143283599Y-143905090D01*
X143272353Y-143924285D01*
X143216782Y-144055714D01*
X143154329Y-144289739D01*
X143093339Y-144584618D01*
X143042156Y-144898604D01*
X143009124Y-145189953D01*
X143003993Y-145266857D01*
X143014444Y-145654697D01*
X143080318Y-146007991D01*
X143191474Y-146293053D01*
X143337770Y-146476197D01*
X143375381Y-146500393D01*
X143518691Y-146557636D01*
X143518691Y-149156534D01*
X143429493Y-149157743D01*
X143085429Y-149125098D01*
X143085429Y-147661714D01*
X143121714Y-147625428D01*
X143085429Y-147589143D01*
X143049143Y-147625428D01*
X143085429Y-147661714D01*
X143085429Y-149125098D01*
X143070702Y-149123700D01*
X142738264Y-149056678D01*
X142472426Y-148962407D01*
X142320348Y-148855430D01*
X142185944Y-148764795D01*
X142113445Y-148750286D01*
X141994190Y-148697143D01*
X141824063Y-148561175D01*
X141636684Y-148377574D01*
X141465669Y-148181532D01*
X141344638Y-148008239D01*
X141306175Y-147905238D01*
X141257375Y-147816597D01*
X141141160Y-147687989D01*
X141136017Y-147683088D01*
X141045385Y-147556561D01*
X140940504Y-147351824D01*
X140836413Y-147107993D01*
X140748147Y-146864183D01*
X140690743Y-146659508D01*
X140679238Y-146533083D01*
X140687329Y-146515909D01*
X140681539Y-146436610D01*
X140646268Y-146382053D01*
X140607294Y-146257527D01*
X140590500Y-146027033D01*
X140593042Y-145720799D01*
X140593042Y-145720799D01*
G37*
X140593042Y-145720799D02*
X140612074Y-145369049D01*
X140644750Y-145002010D01*
X140688225Y-144649908D01*
X140739654Y-144342969D01*
X140796191Y-144111419D01*
X140854990Y-143985485D01*
X140873085Y-143972666D01*
X140927565Y-143890426D01*
X140944571Y-143768406D01*
X140975154Y-143586344D01*
X141052953Y-143341943D01*
X141157045Y-143086837D01*
X141266506Y-142872661D01*
X141355174Y-142755142D01*
X141438370Y-142618367D01*
X141452571Y-142533493D01*
X141491365Y-142398076D01*
X141591431Y-142196862D01*
X141688429Y-142038933D01*
X141832501Y-141820594D01*
X141953074Y-141633674D01*
X142004957Y-141550188D01*
X142170445Y-141312800D01*
X142402163Y-141034192D01*
X142678864Y-140734458D01*
X142979301Y-140433697D01*
X143282227Y-140152006D01*
X143566396Y-139909482D01*
X143810560Y-139726221D01*
X143993473Y-139622322D01*
X144060076Y-139606286D01*
X144134655Y-139559625D01*
X144137714Y-139541706D01*
X144198317Y-139475520D01*
X144348621Y-139383899D01*
X144541368Y-139289458D01*
X144729299Y-139214813D01*
X144865156Y-139182577D01*
X144885587Y-139183824D01*
X145011661Y-139164793D01*
X145131156Y-139113321D01*
X145276113Y-139055396D01*
X145495552Y-138991491D01*
X145747145Y-138930889D01*
X145988567Y-138882871D01*
X146177488Y-138856717D01*
X146271582Y-138861709D01*
X146273034Y-138862938D01*
X146255250Y-138936978D01*
X146171689Y-139090593D01*
X146078309Y-139234516D01*
X145956685Y-139416204D01*
X145881605Y-139538033D01*
X145868561Y-139570000D01*
X145861548Y-139628330D01*
X145817489Y-139759751D01*
X145750693Y-140016372D01*
X145699682Y-140366316D01*
X145668565Y-140758235D01*
X145661450Y-141140779D01*
X145681695Y-141456857D01*
X145733423Y-141788133D01*
X145809564Y-142191194D01*
X145900180Y-142620554D01*
X145995331Y-143030722D01*
X146085082Y-143376211D01*
X146141475Y-143561428D01*
X146235581Y-143930824D01*
X146307605Y-144396638D01*
X146353723Y-144911299D01*
X146370111Y-145427237D01*
X146352945Y-145896879D01*
X146339831Y-146028857D01*
X146277032Y-146456140D01*
X146196166Y-146857876D01*
X146106907Y-147190837D01*
X146039347Y-147371428D01*
X145698657Y-147944919D01*
X145256021Y-148432150D01*
X144730662Y-148816251D01*
X144319143Y-149000816D01*
X144319143Y-140404571D01*
X144355429Y-140368286D01*
X144319143Y-140332000D01*
X144282857Y-140368286D01*
X144319143Y-140404571D01*
X144319143Y-149000816D01*
X144141805Y-149080352D01*
X144065143Y-149103954D01*
X143774389Y-149153071D01*
X143518691Y-149156534D01*
X143518691Y-146557636D01*
X143639337Y-146531448D01*
X143758202Y-146452206D01*
X143923749Y-146298940D01*
X144038879Y-146142183D01*
X144080782Y-145967367D01*
X144097655Y-145675936D01*
X144090084Y-145294139D01*
X144058653Y-144848226D01*
X144003946Y-144364447D01*
X143998380Y-144323428D01*
X143932120Y-143760650D01*
X143877715Y-143141840D01*
X143852253Y-142745000D01*
X143821600Y-142655040D01*
X143755122Y-142678201D01*
X143666424Y-142791136D01*
X143569110Y-142970497D01*
X143476785Y-143192938D01*
X143403052Y-143435112D01*
X143376517Y-143561428D01*
X143331960Y-143763755D01*
X143283599Y-143905090D01*
X143272353Y-143924285D01*
X143216782Y-144055714D01*
X143154329Y-144289739D01*
X143093339Y-144584618D01*
X143042156Y-144898604D01*
X143009124Y-145189953D01*
X143003993Y-145266857D01*
X143014444Y-145654697D01*
X143080318Y-146007991D01*
X143191474Y-146293053D01*
X143337770Y-146476197D01*
X143375381Y-146500393D01*
X143518691Y-146557636D01*
X143518691Y-149156534D01*
X143429493Y-149157743D01*
X143085429Y-149125098D01*
X143085429Y-147661714D01*
X143121714Y-147625428D01*
X143085429Y-147589143D01*
X143049143Y-147625428D01*
X143085429Y-147661714D01*
X143085429Y-149125098D01*
X143070702Y-149123700D01*
X142738264Y-149056678D01*
X142472426Y-148962407D01*
X142320348Y-148855430D01*
X142185944Y-148764795D01*
X142113445Y-148750286D01*
X141994190Y-148697143D01*
X141824063Y-148561175D01*
X141636684Y-148377574D01*
X141465669Y-148181532D01*
X141344638Y-148008239D01*
X141306175Y-147905238D01*
X141257375Y-147816597D01*
X141141160Y-147687989D01*
X141136017Y-147683088D01*
X141045385Y-147556561D01*
X140940504Y-147351824D01*
X140836413Y-147107993D01*
X140748147Y-146864183D01*
X140690743Y-146659508D01*
X140679238Y-146533083D01*
X140687329Y-146515909D01*
X140681539Y-146436610D01*
X140646268Y-146382053D01*
X140607294Y-146257527D01*
X140590500Y-146027033D01*
X140593042Y-145720799D01*
G36*
X126382006Y-156057384D02*
X126382830Y-156007428D01*
X126395301Y-155566683D01*
X126416557Y-155241791D01*
X126450082Y-155003560D01*
X126499360Y-154822795D01*
X126534376Y-154737428D01*
X126636808Y-154509596D01*
X126724602Y-154305367D01*
X126740805Y-154265714D01*
X126961032Y-153791063D01*
X127209102Y-153411004D01*
X127264857Y-153341559D01*
X127556307Y-153014038D01*
X127845027Y-152731974D01*
X128100383Y-152523936D01*
X128223962Y-152446984D01*
X128376876Y-152362969D01*
X128462083Y-152306603D01*
X128462286Y-152306401D01*
X128675828Y-152174297D01*
X128995996Y-152078476D01*
X129388056Y-152022294D01*
X129817273Y-152009109D01*
X130248915Y-152042279D01*
X130566857Y-152102975D01*
X130751962Y-152185444D01*
X130991535Y-152339728D01*
X131238347Y-152534087D01*
X131324491Y-152612116D01*
X131470302Y-152739583D01*
X131572394Y-152809637D01*
X131587981Y-152814286D01*
X131642681Y-152875653D01*
X131737105Y-153037871D01*
X131854440Y-153268110D01*
X131977871Y-153533542D01*
X132080456Y-153775836D01*
X132144042Y-154029330D01*
X132183395Y-154389869D01*
X132196898Y-154821131D01*
X132182940Y-155286792D01*
X132160272Y-155572000D01*
X132116832Y-155920719D01*
X132059020Y-156272256D01*
X131998376Y-156557590D01*
X131990405Y-156588000D01*
X131912210Y-156879001D01*
X131835135Y-157169901D01*
X131803172Y-157292305D01*
X131733958Y-157504358D01*
X131657204Y-157662728D01*
X131635368Y-157691448D01*
X131567790Y-157808074D01*
X131482442Y-158015502D01*
X131413065Y-158220857D01*
X131325109Y-158493844D01*
X131237545Y-158743595D01*
X131186688Y-158874000D01*
X131085745Y-159167293D01*
X130985849Y-159554730D01*
X130897922Y-159985647D01*
X130832884Y-160409381D01*
X130811262Y-160615714D01*
X130789561Y-160872349D01*
X130772361Y-161066716D01*
X130763215Y-161158714D01*
X130763018Y-161160000D01*
X130776780Y-161289673D01*
X130832006Y-161503609D01*
X130913793Y-161752319D01*
X131007241Y-161986314D01*
X131020604Y-162015505D01*
X131096886Y-162207553D01*
X131125885Y-162342759D01*
X131118287Y-162374474D01*
X131032401Y-162374938D01*
X130843835Y-162335346D01*
X130675714Y-162288350D01*
X130675714Y-159055428D01*
X130712000Y-159019143D01*
X130675714Y-158982857D01*
X130675714Y-156370286D01*
X130712000Y-156334000D01*
X130675714Y-156297714D01*
X130639428Y-156334000D01*
X130675714Y-156370286D01*
X130675714Y-158982857D01*
X130639428Y-159019143D01*
X130675714Y-159055428D01*
X130675714Y-162288350D01*
X130586926Y-162263530D01*
X130469662Y-162226540D01*
X130176590Y-162136888D01*
X129920307Y-162068844D01*
X129743773Y-162033474D01*
X129709821Y-162030857D01*
X129659714Y-162019653D01*
X129659714Y-160506857D01*
X129696000Y-160470571D01*
X129659714Y-160434286D01*
X129623429Y-160470571D01*
X129659714Y-160506857D01*
X129659714Y-162019653D01*
X129584585Y-162002852D01*
X129550857Y-161958286D01*
X129492077Y-161893902D01*
X129442000Y-161885714D01*
X129317121Y-161837362D01*
X129212190Y-161754306D01*
X129212190Y-159031238D01*
X129255334Y-159021276D01*
X129260571Y-158982857D01*
X129234019Y-158923122D01*
X129224286Y-158928184D01*
X129224286Y-158692571D01*
X129260571Y-158656285D01*
X129224286Y-158620000D01*
X129188000Y-158656285D01*
X129224286Y-158692571D01*
X129224286Y-158928184D01*
X129212190Y-158934476D01*
X129203505Y-159020601D01*
X129212190Y-159031238D01*
X129212190Y-161754306D01*
X129175616Y-161725356D01*
X129175616Y-158491783D01*
X129229384Y-158473724D01*
X129258069Y-158334861D01*
X129260571Y-158249330D01*
X129280779Y-158088777D01*
X129322911Y-158009466D01*
X129365657Y-157921156D01*
X129408419Y-157735820D01*
X129430703Y-157584212D01*
X129483167Y-157291004D01*
X129568557Y-156957250D01*
X129629908Y-156765743D01*
X129710555Y-156490185D01*
X129790893Y-156133883D01*
X129857070Y-155760598D01*
X129873439Y-155644571D01*
X129963216Y-154955143D01*
X129762845Y-154757321D01*
X129615203Y-154630954D01*
X129492529Y-154598575D01*
X129344807Y-154635379D01*
X129146955Y-154778288D01*
X128988730Y-155044509D01*
X128872737Y-155417013D01*
X128801582Y-155878770D01*
X128777870Y-156412751D01*
X128804208Y-157001926D01*
X128883201Y-157629266D01*
X128885035Y-157640286D01*
X128951476Y-157963289D01*
X129027897Y-158222350D01*
X129105532Y-158403253D01*
X129175616Y-158491783D01*
X129175616Y-161725356D01*
X129171917Y-161722428D01*
X129002591Y-161579032D01*
X128853213Y-161486571D01*
X128708936Y-161398225D01*
X128530545Y-161260984D01*
X128356164Y-161108229D01*
X128223923Y-160973344D01*
X128171943Y-160890074D01*
X128127872Y-160806794D01*
X128015688Y-160657949D01*
X127936086Y-160563482D01*
X127691054Y-160276556D01*
X127535942Y-160078214D01*
X127459356Y-159953113D01*
X127446286Y-159903907D01*
X127408500Y-159811194D01*
X127311541Y-159643788D01*
X127228571Y-159515886D01*
X127106856Y-159327621D01*
X127027838Y-159190206D01*
X127010857Y-159147274D01*
X126982373Y-159059152D01*
X126910536Y-158890649D01*
X126871530Y-158806198D01*
X126757629Y-158517454D01*
X126634393Y-158123750D01*
X126513110Y-157663798D01*
X126425761Y-157277428D01*
X126404175Y-157095173D01*
X126388832Y-156805792D01*
X126381015Y-156447218D01*
X126382006Y-156057384D01*
X126382006Y-156057384D01*
G37*
X126382006Y-156057384D02*
X126382830Y-156007428D01*
X126395301Y-155566683D01*
X126416557Y-155241791D01*
X126450082Y-155003560D01*
X126499360Y-154822795D01*
X126534376Y-154737428D01*
X126636808Y-154509596D01*
X126724602Y-154305367D01*
X126740805Y-154265714D01*
X126961032Y-153791063D01*
X127209102Y-153411004D01*
X127264857Y-153341559D01*
X127556307Y-153014038D01*
X127845027Y-152731974D01*
X128100383Y-152523936D01*
X128223962Y-152446984D01*
X128376876Y-152362969D01*
X128462083Y-152306603D01*
X128462286Y-152306401D01*
X128675828Y-152174297D01*
X128995996Y-152078476D01*
X129388056Y-152022294D01*
X129817273Y-152009109D01*
X130248915Y-152042279D01*
X130566857Y-152102975D01*
X130751962Y-152185444D01*
X130991535Y-152339728D01*
X131238347Y-152534087D01*
X131324491Y-152612116D01*
X131470302Y-152739583D01*
X131572394Y-152809637D01*
X131587981Y-152814286D01*
X131642681Y-152875653D01*
X131737105Y-153037871D01*
X131854440Y-153268110D01*
X131977871Y-153533542D01*
X132080456Y-153775836D01*
X132144042Y-154029330D01*
X132183395Y-154389869D01*
X132196898Y-154821131D01*
X132182940Y-155286792D01*
X132160272Y-155572000D01*
X132116832Y-155920719D01*
X132059020Y-156272256D01*
X131998376Y-156557590D01*
X131990405Y-156588000D01*
X131912210Y-156879001D01*
X131835135Y-157169901D01*
X131803172Y-157292305D01*
X131733958Y-157504358D01*
X131657204Y-157662728D01*
X131635368Y-157691448D01*
X131567790Y-157808074D01*
X131482442Y-158015502D01*
X131413065Y-158220857D01*
X131325109Y-158493844D01*
X131237545Y-158743595D01*
X131186688Y-158874000D01*
X131085745Y-159167293D01*
X130985849Y-159554730D01*
X130897922Y-159985647D01*
X130832884Y-160409381D01*
X130811262Y-160615714D01*
X130789561Y-160872349D01*
X130772361Y-161066716D01*
X130763215Y-161158714D01*
X130763018Y-161160000D01*
X130776780Y-161289673D01*
X130832006Y-161503609D01*
X130913793Y-161752319D01*
X131007241Y-161986314D01*
X131020604Y-162015505D01*
X131096886Y-162207553D01*
X131125885Y-162342759D01*
X131118287Y-162374474D01*
X131032401Y-162374938D01*
X130843835Y-162335346D01*
X130675714Y-162288350D01*
X130675714Y-159055428D01*
X130712000Y-159019143D01*
X130675714Y-158982857D01*
X130675714Y-156370286D01*
X130712000Y-156334000D01*
X130675714Y-156297714D01*
X130639428Y-156334000D01*
X130675714Y-156370286D01*
X130675714Y-158982857D01*
X130639428Y-159019143D01*
X130675714Y-159055428D01*
X130675714Y-162288350D01*
X130586926Y-162263530D01*
X130469662Y-162226540D01*
X130176590Y-162136888D01*
X129920307Y-162068844D01*
X129743773Y-162033474D01*
X129709821Y-162030857D01*
X129659714Y-162019653D01*
X129659714Y-160506857D01*
X129696000Y-160470571D01*
X129659714Y-160434286D01*
X129623429Y-160470571D01*
X129659714Y-160506857D01*
X129659714Y-162019653D01*
X129584585Y-162002852D01*
X129550857Y-161958286D01*
X129492077Y-161893902D01*
X129442000Y-161885714D01*
X129317121Y-161837362D01*
X129212190Y-161754306D01*
X129212190Y-159031238D01*
X129255334Y-159021276D01*
X129260571Y-158982857D01*
X129234019Y-158923122D01*
X129224286Y-158928184D01*
X129224286Y-158692571D01*
X129260571Y-158656285D01*
X129224286Y-158620000D01*
X129188000Y-158656285D01*
X129224286Y-158692571D01*
X129224286Y-158928184D01*
X129212190Y-158934476D01*
X129203505Y-159020601D01*
X129212190Y-159031238D01*
X129212190Y-161754306D01*
X129175616Y-161725356D01*
X129175616Y-158491783D01*
X129229384Y-158473724D01*
X129258069Y-158334861D01*
X129260571Y-158249330D01*
X129280779Y-158088777D01*
X129322911Y-158009466D01*
X129365657Y-157921156D01*
X129408419Y-157735820D01*
X129430703Y-157584212D01*
X129483167Y-157291004D01*
X129568557Y-156957250D01*
X129629908Y-156765743D01*
X129710555Y-156490185D01*
X129790893Y-156133883D01*
X129857070Y-155760598D01*
X129873439Y-155644571D01*
X129963216Y-154955143D01*
X129762845Y-154757321D01*
X129615203Y-154630954D01*
X129492529Y-154598575D01*
X129344807Y-154635379D01*
X129146955Y-154778288D01*
X128988730Y-155044509D01*
X128872737Y-155417013D01*
X128801582Y-155878770D01*
X128777870Y-156412751D01*
X128804208Y-157001926D01*
X128883201Y-157629266D01*
X128885035Y-157640286D01*
X128951476Y-157963289D01*
X129027897Y-158222350D01*
X129105532Y-158403253D01*
X129175616Y-158491783D01*
X129175616Y-161725356D01*
X129171917Y-161722428D01*
X129002591Y-161579032D01*
X128853213Y-161486571D01*
X128708936Y-161398225D01*
X128530545Y-161260984D01*
X128356164Y-161108229D01*
X128223923Y-160973344D01*
X128171943Y-160890074D01*
X128127872Y-160806794D01*
X128015688Y-160657949D01*
X127936086Y-160563482D01*
X127691054Y-160276556D01*
X127535942Y-160078214D01*
X127459356Y-159953113D01*
X127446286Y-159903907D01*
X127408500Y-159811194D01*
X127311541Y-159643788D01*
X127228571Y-159515886D01*
X127106856Y-159327621D01*
X127027838Y-159190206D01*
X127010857Y-159147274D01*
X126982373Y-159059152D01*
X126910536Y-158890649D01*
X126871530Y-158806198D01*
X126757629Y-158517454D01*
X126634393Y-158123750D01*
X126513110Y-157663798D01*
X126425761Y-157277428D01*
X126404175Y-157095173D01*
X126388832Y-156805792D01*
X126381015Y-156447218D01*
X126382006Y-156057384D01*
G36*
X130675714Y-151798286D02*
X130712000Y-151834571D01*
X130675714Y-151870857D01*
X130639428Y-151834571D01*
X130675714Y-151798286D01*
X130675714Y-151798286D01*
G37*
X130675714Y-151798286D02*
X130712000Y-151834571D01*
X130675714Y-151870857D01*
X130639428Y-151834571D01*
X130675714Y-151798286D01*
G36*
X110593042Y-125720799D02*
X110612074Y-125369049D01*
X110644750Y-125002010D01*
X110688225Y-124649908D01*
X110739654Y-124342969D01*
X110796191Y-124111419D01*
X110854990Y-123985485D01*
X110873085Y-123972666D01*
X110927565Y-123890426D01*
X110944571Y-123768406D01*
X110975154Y-123586344D01*
X111052953Y-123341943D01*
X111157045Y-123086837D01*
X111266506Y-122872661D01*
X111355174Y-122755142D01*
X111438370Y-122618367D01*
X111452571Y-122533493D01*
X111491365Y-122398076D01*
X111591431Y-122196862D01*
X111688429Y-122038933D01*
X111832501Y-121820594D01*
X111953074Y-121633674D01*
X112004957Y-121550188D01*
X112170445Y-121312800D01*
X112402163Y-121034192D01*
X112678864Y-120734458D01*
X112979301Y-120433697D01*
X113282227Y-120152006D01*
X113566396Y-119909482D01*
X113810560Y-119726221D01*
X113993473Y-119622322D01*
X114060076Y-119606286D01*
X114134655Y-119559625D01*
X114137714Y-119541706D01*
X114198317Y-119475520D01*
X114348621Y-119383899D01*
X114541368Y-119289458D01*
X114729299Y-119214813D01*
X114865156Y-119182577D01*
X114885587Y-119183824D01*
X115011661Y-119164793D01*
X115131156Y-119113321D01*
X115276113Y-119055396D01*
X115495552Y-118991491D01*
X115747145Y-118930889D01*
X115988567Y-118882871D01*
X116177488Y-118856717D01*
X116271582Y-118861709D01*
X116273034Y-118862938D01*
X116255250Y-118936978D01*
X116171689Y-119090593D01*
X116078309Y-119234516D01*
X115956685Y-119416204D01*
X115881605Y-119538033D01*
X115868561Y-119570000D01*
X115861548Y-119628330D01*
X115817489Y-119759751D01*
X115750693Y-120016372D01*
X115699682Y-120366316D01*
X115668565Y-120758235D01*
X115661450Y-121140779D01*
X115681695Y-121456857D01*
X115733423Y-121788133D01*
X115809564Y-122191194D01*
X115900180Y-122620554D01*
X115995331Y-123030722D01*
X116085082Y-123376211D01*
X116141475Y-123561428D01*
X116235581Y-123930824D01*
X116307605Y-124396638D01*
X116353723Y-124911299D01*
X116370111Y-125427237D01*
X116352945Y-125896879D01*
X116339831Y-126028857D01*
X116277032Y-126456140D01*
X116196166Y-126857876D01*
X116106907Y-127190837D01*
X116039347Y-127371428D01*
X115698657Y-127944919D01*
X115256021Y-128432150D01*
X114730662Y-128816251D01*
X114319143Y-129000816D01*
X114319143Y-120404571D01*
X114355429Y-120368286D01*
X114319143Y-120332000D01*
X114282857Y-120368286D01*
X114319143Y-120404571D01*
X114319143Y-129000816D01*
X114141805Y-129080352D01*
X114065143Y-129103954D01*
X113774389Y-129153071D01*
X113518691Y-129156534D01*
X113518691Y-126557636D01*
X113639337Y-126531448D01*
X113758202Y-126452206D01*
X113923749Y-126298940D01*
X114038879Y-126142183D01*
X114080782Y-125967367D01*
X114097655Y-125675936D01*
X114090084Y-125294139D01*
X114058653Y-124848226D01*
X114003946Y-124364447D01*
X113998380Y-124323428D01*
X113932120Y-123760650D01*
X113877715Y-123141840D01*
X113852253Y-122745000D01*
X113821600Y-122655040D01*
X113755122Y-122678201D01*
X113666424Y-122791136D01*
X113569110Y-122970497D01*
X113476785Y-123192938D01*
X113403052Y-123435112D01*
X113376517Y-123561428D01*
X113331960Y-123763755D01*
X113283599Y-123905090D01*
X113272353Y-123924285D01*
X113216782Y-124055714D01*
X113154329Y-124289739D01*
X113093339Y-124584618D01*
X113042156Y-124898604D01*
X113009124Y-125189953D01*
X113003993Y-125266857D01*
X113014444Y-125654697D01*
X113080318Y-126007991D01*
X113191474Y-126293053D01*
X113337770Y-126476197D01*
X113375381Y-126500393D01*
X113518691Y-126557636D01*
X113518691Y-129156534D01*
X113429493Y-129157743D01*
X113085429Y-129125098D01*
X113085429Y-127661714D01*
X113121714Y-127625428D01*
X113085429Y-127589143D01*
X113049143Y-127625428D01*
X113085429Y-127661714D01*
X113085429Y-129125098D01*
X113070702Y-129123700D01*
X112738264Y-129056678D01*
X112472426Y-128962407D01*
X112320348Y-128855430D01*
X112185944Y-128764795D01*
X112113445Y-128750286D01*
X111994190Y-128697143D01*
X111824063Y-128561175D01*
X111636684Y-128377574D01*
X111465669Y-128181532D01*
X111344638Y-128008239D01*
X111306175Y-127905238D01*
X111257375Y-127816597D01*
X111141160Y-127687989D01*
X111136017Y-127683088D01*
X111045385Y-127556561D01*
X110940504Y-127351824D01*
X110836413Y-127107993D01*
X110748147Y-126864183D01*
X110690743Y-126659508D01*
X110679238Y-126533083D01*
X110687329Y-126515909D01*
X110681539Y-126436610D01*
X110646268Y-126382053D01*
X110607294Y-126257527D01*
X110590500Y-126027033D01*
X110593042Y-125720799D01*
X110593042Y-125720799D01*
G37*
X110593042Y-125720799D02*
X110612074Y-125369049D01*
X110644750Y-125002010D01*
X110688225Y-124649908D01*
X110739654Y-124342969D01*
X110796191Y-124111419D01*
X110854990Y-123985485D01*
X110873085Y-123972666D01*
X110927565Y-123890426D01*
X110944571Y-123768406D01*
X110975154Y-123586344D01*
X111052953Y-123341943D01*
X111157045Y-123086837D01*
X111266506Y-122872661D01*
X111355174Y-122755142D01*
X111438370Y-122618367D01*
X111452571Y-122533493D01*
X111491365Y-122398076D01*
X111591431Y-122196862D01*
X111688429Y-122038933D01*
X111832501Y-121820594D01*
X111953074Y-121633674D01*
X112004957Y-121550188D01*
X112170445Y-121312800D01*
X112402163Y-121034192D01*
X112678864Y-120734458D01*
X112979301Y-120433697D01*
X113282227Y-120152006D01*
X113566396Y-119909482D01*
X113810560Y-119726221D01*
X113993473Y-119622322D01*
X114060076Y-119606286D01*
X114134655Y-119559625D01*
X114137714Y-119541706D01*
X114198317Y-119475520D01*
X114348621Y-119383899D01*
X114541368Y-119289458D01*
X114729299Y-119214813D01*
X114865156Y-119182577D01*
X114885587Y-119183824D01*
X115011661Y-119164793D01*
X115131156Y-119113321D01*
X115276113Y-119055396D01*
X115495552Y-118991491D01*
X115747145Y-118930889D01*
X115988567Y-118882871D01*
X116177488Y-118856717D01*
X116271582Y-118861709D01*
X116273034Y-118862938D01*
X116255250Y-118936978D01*
X116171689Y-119090593D01*
X116078309Y-119234516D01*
X115956685Y-119416204D01*
X115881605Y-119538033D01*
X115868561Y-119570000D01*
X115861548Y-119628330D01*
X115817489Y-119759751D01*
X115750693Y-120016372D01*
X115699682Y-120366316D01*
X115668565Y-120758235D01*
X115661450Y-121140779D01*
X115681695Y-121456857D01*
X115733423Y-121788133D01*
X115809564Y-122191194D01*
X115900180Y-122620554D01*
X115995331Y-123030722D01*
X116085082Y-123376211D01*
X116141475Y-123561428D01*
X116235581Y-123930824D01*
X116307605Y-124396638D01*
X116353723Y-124911299D01*
X116370111Y-125427237D01*
X116352945Y-125896879D01*
X116339831Y-126028857D01*
X116277032Y-126456140D01*
X116196166Y-126857876D01*
X116106907Y-127190837D01*
X116039347Y-127371428D01*
X115698657Y-127944919D01*
X115256021Y-128432150D01*
X114730662Y-128816251D01*
X114319143Y-129000816D01*
X114319143Y-120404571D01*
X114355429Y-120368286D01*
X114319143Y-120332000D01*
X114282857Y-120368286D01*
X114319143Y-120404571D01*
X114319143Y-129000816D01*
X114141805Y-129080352D01*
X114065143Y-129103954D01*
X113774389Y-129153071D01*
X113518691Y-129156534D01*
X113518691Y-126557636D01*
X113639337Y-126531448D01*
X113758202Y-126452206D01*
X113923749Y-126298940D01*
X114038879Y-126142183D01*
X114080782Y-125967367D01*
X114097655Y-125675936D01*
X114090084Y-125294139D01*
X114058653Y-124848226D01*
X114003946Y-124364447D01*
X113998380Y-124323428D01*
X113932120Y-123760650D01*
X113877715Y-123141840D01*
X113852253Y-122745000D01*
X113821600Y-122655040D01*
X113755122Y-122678201D01*
X113666424Y-122791136D01*
X113569110Y-122970497D01*
X113476785Y-123192938D01*
X113403052Y-123435112D01*
X113376517Y-123561428D01*
X113331960Y-123763755D01*
X113283599Y-123905090D01*
X113272353Y-123924285D01*
X113216782Y-124055714D01*
X113154329Y-124289739D01*
X113093339Y-124584618D01*
X113042156Y-124898604D01*
X113009124Y-125189953D01*
X113003993Y-125266857D01*
X113014444Y-125654697D01*
X113080318Y-126007991D01*
X113191474Y-126293053D01*
X113337770Y-126476197D01*
X113375381Y-126500393D01*
X113518691Y-126557636D01*
X113518691Y-129156534D01*
X113429493Y-129157743D01*
X113085429Y-129125098D01*
X113085429Y-127661714D01*
X113121714Y-127625428D01*
X113085429Y-127589143D01*
X113049143Y-127625428D01*
X113085429Y-127661714D01*
X113085429Y-129125098D01*
X113070702Y-129123700D01*
X112738264Y-129056678D01*
X112472426Y-128962407D01*
X112320348Y-128855430D01*
X112185944Y-128764795D01*
X112113445Y-128750286D01*
X111994190Y-128697143D01*
X111824063Y-128561175D01*
X111636684Y-128377574D01*
X111465669Y-128181532D01*
X111344638Y-128008239D01*
X111306175Y-127905238D01*
X111257375Y-127816597D01*
X111141160Y-127687989D01*
X111136017Y-127683088D01*
X111045385Y-127556561D01*
X110940504Y-127351824D01*
X110836413Y-127107993D01*
X110748147Y-126864183D01*
X110690743Y-126659508D01*
X110679238Y-126533083D01*
X110687329Y-126515909D01*
X110681539Y-126436610D01*
X110646268Y-126382053D01*
X110607294Y-126257527D01*
X110590500Y-126027033D01*
X110593042Y-125720799D01*
G36*
X96382006Y-136057384D02*
X96382830Y-136007428D01*
X96395301Y-135566683D01*
X96416557Y-135241791D01*
X96450082Y-135003560D01*
X96499360Y-134822795D01*
X96534376Y-134737428D01*
X96636808Y-134509596D01*
X96724602Y-134305367D01*
X96740805Y-134265714D01*
X96961032Y-133791063D01*
X97209102Y-133411004D01*
X97264857Y-133341559D01*
X97556307Y-133014038D01*
X97845027Y-132731974D01*
X98100383Y-132523936D01*
X98223962Y-132446984D01*
X98376876Y-132362969D01*
X98462083Y-132306603D01*
X98462286Y-132306401D01*
X98675828Y-132174297D01*
X98995996Y-132078476D01*
X99388056Y-132022294D01*
X99817273Y-132009109D01*
X100248915Y-132042279D01*
X100566857Y-132102975D01*
X100751962Y-132185444D01*
X100991535Y-132339728D01*
X101238347Y-132534087D01*
X101324491Y-132612116D01*
X101470302Y-132739583D01*
X101572394Y-132809637D01*
X101587981Y-132814286D01*
X101642681Y-132875653D01*
X101737105Y-133037871D01*
X101854440Y-133268110D01*
X101977871Y-133533542D01*
X102080456Y-133775836D01*
X102144042Y-134029330D01*
X102183395Y-134389869D01*
X102196898Y-134821131D01*
X102182940Y-135286792D01*
X102160272Y-135572000D01*
X102116832Y-135920719D01*
X102059020Y-136272256D01*
X101998376Y-136557590D01*
X101990405Y-136588000D01*
X101912210Y-136879001D01*
X101835135Y-137169901D01*
X101803172Y-137292305D01*
X101733958Y-137504358D01*
X101657204Y-137662728D01*
X101635368Y-137691448D01*
X101567790Y-137808074D01*
X101482442Y-138015502D01*
X101413065Y-138220857D01*
X101325109Y-138493844D01*
X101237545Y-138743595D01*
X101186688Y-138874000D01*
X101085745Y-139167293D01*
X100985849Y-139554730D01*
X100897922Y-139985647D01*
X100832884Y-140409381D01*
X100811262Y-140615714D01*
X100789561Y-140872349D01*
X100772361Y-141066716D01*
X100763215Y-141158714D01*
X100763018Y-141160000D01*
X100776780Y-141289673D01*
X100832006Y-141503609D01*
X100913793Y-141752319D01*
X101007241Y-141986314D01*
X101020604Y-142015505D01*
X101096886Y-142207553D01*
X101125885Y-142342759D01*
X101118287Y-142374474D01*
X101032401Y-142374938D01*
X100843835Y-142335346D01*
X100675714Y-142288350D01*
X100675714Y-139055428D01*
X100712000Y-139019143D01*
X100675714Y-138982857D01*
X100675714Y-136370286D01*
X100712000Y-136334000D01*
X100675714Y-136297714D01*
X100639428Y-136334000D01*
X100675714Y-136370286D01*
X100675714Y-138982857D01*
X100639428Y-139019143D01*
X100675714Y-139055428D01*
X100675714Y-142288350D01*
X100586926Y-142263530D01*
X100469662Y-142226540D01*
X100176590Y-142136888D01*
X99920307Y-142068844D01*
X99743773Y-142033474D01*
X99709821Y-142030857D01*
X99659714Y-142019653D01*
X99659714Y-140506857D01*
X99696000Y-140470571D01*
X99659714Y-140434286D01*
X99623429Y-140470571D01*
X99659714Y-140506857D01*
X99659714Y-142019653D01*
X99584585Y-142002852D01*
X99550857Y-141958286D01*
X99492077Y-141893902D01*
X99442000Y-141885714D01*
X99317121Y-141837362D01*
X99212190Y-141754306D01*
X99212190Y-139031238D01*
X99255334Y-139021276D01*
X99260571Y-138982857D01*
X99234019Y-138923122D01*
X99224286Y-138928184D01*
X99224286Y-138692571D01*
X99260571Y-138656285D01*
X99224286Y-138620000D01*
X99188000Y-138656285D01*
X99224286Y-138692571D01*
X99224286Y-138928184D01*
X99212190Y-138934476D01*
X99203505Y-139020601D01*
X99212190Y-139031238D01*
X99212190Y-141754306D01*
X99175616Y-141725356D01*
X99175616Y-138491783D01*
X99229384Y-138473724D01*
X99258069Y-138334861D01*
X99260571Y-138249330D01*
X99280779Y-138088777D01*
X99322911Y-138009466D01*
X99365657Y-137921156D01*
X99408419Y-137735820D01*
X99430703Y-137584212D01*
X99483167Y-137291004D01*
X99568557Y-136957250D01*
X99629908Y-136765743D01*
X99710555Y-136490185D01*
X99790893Y-136133883D01*
X99857070Y-135760598D01*
X99873439Y-135644571D01*
X99963216Y-134955143D01*
X99762845Y-134757321D01*
X99615203Y-134630954D01*
X99492529Y-134598575D01*
X99344807Y-134635379D01*
X99146955Y-134778288D01*
X98988730Y-135044509D01*
X98872737Y-135417013D01*
X98801582Y-135878770D01*
X98777870Y-136412751D01*
X98804208Y-137001926D01*
X98883201Y-137629266D01*
X98885035Y-137640286D01*
X98951476Y-137963289D01*
X99027897Y-138222350D01*
X99105532Y-138403253D01*
X99175616Y-138491783D01*
X99175616Y-141725356D01*
X99171917Y-141722428D01*
X99002591Y-141579032D01*
X98853213Y-141486571D01*
X98708936Y-141398225D01*
X98530545Y-141260984D01*
X98356164Y-141108229D01*
X98223923Y-140973344D01*
X98171943Y-140890074D01*
X98127872Y-140806794D01*
X98015688Y-140657949D01*
X97936086Y-140563482D01*
X97691054Y-140276556D01*
X97535942Y-140078214D01*
X97459356Y-139953113D01*
X97446286Y-139903907D01*
X97408500Y-139811194D01*
X97311541Y-139643788D01*
X97228571Y-139515886D01*
X97106856Y-139327621D01*
X97027838Y-139190206D01*
X97010857Y-139147274D01*
X96982373Y-139059152D01*
X96910536Y-138890649D01*
X96871530Y-138806198D01*
X96757629Y-138517454D01*
X96634393Y-138123750D01*
X96513110Y-137663798D01*
X96425761Y-137277428D01*
X96404175Y-137095173D01*
X96388832Y-136805792D01*
X96381015Y-136447218D01*
X96382006Y-136057384D01*
X96382006Y-136057384D01*
G37*
X96382006Y-136057384D02*
X96382830Y-136007428D01*
X96395301Y-135566683D01*
X96416557Y-135241791D01*
X96450082Y-135003560D01*
X96499360Y-134822795D01*
X96534376Y-134737428D01*
X96636808Y-134509596D01*
X96724602Y-134305367D01*
X96740805Y-134265714D01*
X96961032Y-133791063D01*
X97209102Y-133411004D01*
X97264857Y-133341559D01*
X97556307Y-133014038D01*
X97845027Y-132731974D01*
X98100383Y-132523936D01*
X98223962Y-132446984D01*
X98376876Y-132362969D01*
X98462083Y-132306603D01*
X98462286Y-132306401D01*
X98675828Y-132174297D01*
X98995996Y-132078476D01*
X99388056Y-132022294D01*
X99817273Y-132009109D01*
X100248915Y-132042279D01*
X100566857Y-132102975D01*
X100751962Y-132185444D01*
X100991535Y-132339728D01*
X101238347Y-132534087D01*
X101324491Y-132612116D01*
X101470302Y-132739583D01*
X101572394Y-132809637D01*
X101587981Y-132814286D01*
X101642681Y-132875653D01*
X101737105Y-133037871D01*
X101854440Y-133268110D01*
X101977871Y-133533542D01*
X102080456Y-133775836D01*
X102144042Y-134029330D01*
X102183395Y-134389869D01*
X102196898Y-134821131D01*
X102182940Y-135286792D01*
X102160272Y-135572000D01*
X102116832Y-135920719D01*
X102059020Y-136272256D01*
X101998376Y-136557590D01*
X101990405Y-136588000D01*
X101912210Y-136879001D01*
X101835135Y-137169901D01*
X101803172Y-137292305D01*
X101733958Y-137504358D01*
X101657204Y-137662728D01*
X101635368Y-137691448D01*
X101567790Y-137808074D01*
X101482442Y-138015502D01*
X101413065Y-138220857D01*
X101325109Y-138493844D01*
X101237545Y-138743595D01*
X101186688Y-138874000D01*
X101085745Y-139167293D01*
X100985849Y-139554730D01*
X100897922Y-139985647D01*
X100832884Y-140409381D01*
X100811262Y-140615714D01*
X100789561Y-140872349D01*
X100772361Y-141066716D01*
X100763215Y-141158714D01*
X100763018Y-141160000D01*
X100776780Y-141289673D01*
X100832006Y-141503609D01*
X100913793Y-141752319D01*
X101007241Y-141986314D01*
X101020604Y-142015505D01*
X101096886Y-142207553D01*
X101125885Y-142342759D01*
X101118287Y-142374474D01*
X101032401Y-142374938D01*
X100843835Y-142335346D01*
X100675714Y-142288350D01*
X100675714Y-139055428D01*
X100712000Y-139019143D01*
X100675714Y-138982857D01*
X100675714Y-136370286D01*
X100712000Y-136334000D01*
X100675714Y-136297714D01*
X100639428Y-136334000D01*
X100675714Y-136370286D01*
X100675714Y-138982857D01*
X100639428Y-139019143D01*
X100675714Y-139055428D01*
X100675714Y-142288350D01*
X100586926Y-142263530D01*
X100469662Y-142226540D01*
X100176590Y-142136888D01*
X99920307Y-142068844D01*
X99743773Y-142033474D01*
X99709821Y-142030857D01*
X99659714Y-142019653D01*
X99659714Y-140506857D01*
X99696000Y-140470571D01*
X99659714Y-140434286D01*
X99623429Y-140470571D01*
X99659714Y-140506857D01*
X99659714Y-142019653D01*
X99584585Y-142002852D01*
X99550857Y-141958286D01*
X99492077Y-141893902D01*
X99442000Y-141885714D01*
X99317121Y-141837362D01*
X99212190Y-141754306D01*
X99212190Y-139031238D01*
X99255334Y-139021276D01*
X99260571Y-138982857D01*
X99234019Y-138923122D01*
X99224286Y-138928184D01*
X99224286Y-138692571D01*
X99260571Y-138656285D01*
X99224286Y-138620000D01*
X99188000Y-138656285D01*
X99224286Y-138692571D01*
X99224286Y-138928184D01*
X99212190Y-138934476D01*
X99203505Y-139020601D01*
X99212190Y-139031238D01*
X99212190Y-141754306D01*
X99175616Y-141725356D01*
X99175616Y-138491783D01*
X99229384Y-138473724D01*
X99258069Y-138334861D01*
X99260571Y-138249330D01*
X99280779Y-138088777D01*
X99322911Y-138009466D01*
X99365657Y-137921156D01*
X99408419Y-137735820D01*
X99430703Y-137584212D01*
X99483167Y-137291004D01*
X99568557Y-136957250D01*
X99629908Y-136765743D01*
X99710555Y-136490185D01*
X99790893Y-136133883D01*
X99857070Y-135760598D01*
X99873439Y-135644571D01*
X99963216Y-134955143D01*
X99762845Y-134757321D01*
X99615203Y-134630954D01*
X99492529Y-134598575D01*
X99344807Y-134635379D01*
X99146955Y-134778288D01*
X98988730Y-135044509D01*
X98872737Y-135417013D01*
X98801582Y-135878770D01*
X98777870Y-136412751D01*
X98804208Y-137001926D01*
X98883201Y-137629266D01*
X98885035Y-137640286D01*
X98951476Y-137963289D01*
X99027897Y-138222350D01*
X99105532Y-138403253D01*
X99175616Y-138491783D01*
X99175616Y-141725356D01*
X99171917Y-141722428D01*
X99002591Y-141579032D01*
X98853213Y-141486571D01*
X98708936Y-141398225D01*
X98530545Y-141260984D01*
X98356164Y-141108229D01*
X98223923Y-140973344D01*
X98171943Y-140890074D01*
X98127872Y-140806794D01*
X98015688Y-140657949D01*
X97936086Y-140563482D01*
X97691054Y-140276556D01*
X97535942Y-140078214D01*
X97459356Y-139953113D01*
X97446286Y-139903907D01*
X97408500Y-139811194D01*
X97311541Y-139643788D01*
X97228571Y-139515886D01*
X97106856Y-139327621D01*
X97027838Y-139190206D01*
X97010857Y-139147274D01*
X96982373Y-139059152D01*
X96910536Y-138890649D01*
X96871530Y-138806198D01*
X96757629Y-138517454D01*
X96634393Y-138123750D01*
X96513110Y-137663798D01*
X96425761Y-137277428D01*
X96404175Y-137095173D01*
X96388832Y-136805792D01*
X96381015Y-136447218D01*
X96382006Y-136057384D01*
G36*
X100675714Y-131798286D02*
X100712000Y-131834571D01*
X100675714Y-131870857D01*
X100639428Y-131834571D01*
X100675714Y-131798286D01*
X100675714Y-131798286D01*
G37*
X100675714Y-131798286D02*
X100712000Y-131834571D01*
X100675714Y-131870857D01*
X100639428Y-131834571D01*
X100675714Y-131798286D01*
D14*
G04 #@! TO.C,J1*
X118730000Y-80870000D02*
X118730000Y-124110000D01*
X118730000Y-124110000D02*
X121390000Y-124110000D01*
X121390000Y-124110000D02*
X121390000Y-80870000D01*
X121390000Y-80870000D02*
X118730000Y-80870000D01*
X118730000Y-79600000D02*
X118730000Y-78270000D01*
X118730000Y-78270000D02*
X120060000Y-78270000D01*
G04 #@! TO.C,J2*
X141590000Y-80870000D02*
X141590000Y-124110000D01*
X141590000Y-124110000D02*
X144250000Y-124110000D01*
X144250000Y-124110000D02*
X144250000Y-80870000D01*
X144250000Y-80870000D02*
X141590000Y-80870000D01*
X141590000Y-79600000D02*
X141590000Y-78270000D01*
X141590000Y-78270000D02*
X142920000Y-78270000D01*
G04 #@! TO.C,J3*
X141030000Y-146110000D02*
X141030000Y-143450000D01*
X123190000Y-146110000D02*
X141030000Y-146110000D01*
X123190000Y-143450000D02*
X141030000Y-143450000D01*
X123190000Y-146110000D02*
X123190000Y-143450000D01*
X121920000Y-146110000D02*
X120590000Y-146110000D01*
X120590000Y-146110000D02*
X120590000Y-144780000D01*
G04 #@! TO.C,J4*
X141030000Y-148650000D02*
X141030000Y-145990000D01*
X123190000Y-148650000D02*
X141030000Y-148650000D01*
X123190000Y-145990000D02*
X141030000Y-145990000D01*
X123190000Y-148650000D02*
X123190000Y-145990000D01*
X121920000Y-148650000D02*
X120590000Y-148650000D01*
X120590000Y-148650000D02*
X120590000Y-147320000D01*
G04 #@! TO.C,J5*
X141030000Y-151190000D02*
X141030000Y-148530000D01*
X123190000Y-151190000D02*
X141030000Y-151190000D01*
X123190000Y-148530000D02*
X141030000Y-148530000D01*
X123190000Y-151190000D02*
X123190000Y-148530000D01*
X121920000Y-151190000D02*
X120590000Y-151190000D01*
X120590000Y-151190000D02*
X120590000Y-149860000D01*
G04 #@! TO.C,J6*
X141870000Y-162330000D02*
X141870000Y-157130000D01*
X139270000Y-162330000D02*
X141870000Y-162330000D01*
X136670000Y-157130000D02*
X141870000Y-157130000D01*
X139270000Y-162330000D02*
X139270000Y-159730000D01*
X139270000Y-159730000D02*
X136670000Y-159730000D01*
X136670000Y-159730000D02*
X136670000Y-157130000D01*
X138000000Y-162330000D02*
X136670000Y-162330000D01*
X136670000Y-162330000D02*
X136670000Y-161000000D01*
G04 #@! TO.C,J7*
X120130000Y-159670000D02*
X120130000Y-162330000D01*
X127810000Y-159670000D02*
X120130000Y-159670000D01*
X127810000Y-162330000D02*
X120130000Y-162330000D01*
X127810000Y-159670000D02*
X127810000Y-162330000D01*
X129080000Y-159670000D02*
X130410000Y-159670000D01*
X130410000Y-159670000D02*
X130410000Y-161000000D01*
G04 #@! TO.C,BT1*
X97560000Y-158970000D02*
X97560000Y-163330000D01*
X111440000Y-158970000D02*
X104440000Y-158970000D01*
X111440000Y-81690000D02*
X111440000Y-158970000D01*
X104440000Y-81690000D02*
X111440000Y-81690000D01*
X90560000Y-158970000D02*
X97560000Y-158970000D01*
X90560000Y-81690000D02*
X90560000Y-158970000D01*
X97560000Y-81690000D02*
X90580000Y-81690000D01*
X95000000Y-76580000D02*
X95000000Y-79080000D01*
X95000000Y-164080000D02*
X95000000Y-161580000D01*
X96250000Y-162830000D02*
X93750000Y-162830000D01*
G04 #@! TO.C,J8*
X129480000Y-88730000D02*
X134680000Y-88730000D01*
X134680000Y-88730000D02*
X134680000Y-86070000D01*
X134680000Y-86070000D02*
X129480000Y-86070000D01*
X129480000Y-86070000D02*
X129480000Y-88730000D01*
X130430000Y-86070000D02*
X130430000Y-80070000D01*
X130430000Y-80070000D02*
X131190000Y-80070000D01*
X131190000Y-80070000D02*
X131190000Y-86070000D01*
X130490000Y-86070000D02*
X130490000Y-80070000D01*
X130610000Y-86070000D02*
X130610000Y-80070000D01*
X130730000Y-86070000D02*
X130730000Y-80070000D01*
X130850000Y-86070000D02*
X130850000Y-80070000D01*
X130970000Y-86070000D02*
X130970000Y-80070000D01*
X131090000Y-86070000D02*
X131090000Y-80070000D01*
X130430000Y-89060000D02*
X130430000Y-88730000D01*
X131190000Y-89060000D02*
X131190000Y-88730000D01*
X132080000Y-88730000D02*
X132080000Y-86070000D01*
X132970000Y-86070000D02*
X132970000Y-80070000D01*
X132970000Y-80070000D02*
X133730000Y-80070000D01*
X133730000Y-80070000D02*
X133730000Y-86070000D01*
X132970000Y-89127071D02*
X132970000Y-88730000D01*
X133730000Y-89127071D02*
X133730000Y-88730000D01*
X130810000Y-91440000D02*
X129540000Y-91440000D01*
X129540000Y-91440000D02*
X129540000Y-90170000D01*
D13*
G04 #@! TO.C,G\002A\002A\002A*
G36*
X110593042Y-145720799D02*
X110612074Y-145369049D01*
X110644750Y-145002010D01*
X110688225Y-144649908D01*
X110739654Y-144342969D01*
X110796191Y-144111419D01*
X110854990Y-143985485D01*
X110873085Y-143972666D01*
X110927565Y-143890426D01*
X110944571Y-143768406D01*
X110975154Y-143586344D01*
X111052953Y-143341943D01*
X111157045Y-143086837D01*
X111266506Y-142872661D01*
X111355174Y-142755142D01*
X111438370Y-142618367D01*
X111452571Y-142533493D01*
X111491365Y-142398076D01*
X111591431Y-142196862D01*
X111688429Y-142038933D01*
X111832501Y-141820594D01*
X111953074Y-141633674D01*
X112004957Y-141550188D01*
X112170445Y-141312800D01*
X112402163Y-141034192D01*
X112678864Y-140734458D01*
X112979301Y-140433697D01*
X113282227Y-140152006D01*
X113566396Y-139909482D01*
X113810560Y-139726221D01*
X113993473Y-139622322D01*
X114060076Y-139606286D01*
X114134655Y-139559625D01*
X114137714Y-139541706D01*
X114198317Y-139475520D01*
X114348621Y-139383899D01*
X114541368Y-139289458D01*
X114729299Y-139214813D01*
X114865156Y-139182577D01*
X114885587Y-139183824D01*
X115011661Y-139164793D01*
X115131156Y-139113321D01*
X115276113Y-139055396D01*
X115495552Y-138991491D01*
X115747145Y-138930889D01*
X115988567Y-138882871D01*
X116177488Y-138856717D01*
X116271582Y-138861709D01*
X116273034Y-138862938D01*
X116255250Y-138936978D01*
X116171689Y-139090593D01*
X116078309Y-139234516D01*
X115956685Y-139416204D01*
X115881605Y-139538033D01*
X115868561Y-139570000D01*
X115861548Y-139628330D01*
X115817489Y-139759751D01*
X115750693Y-140016372D01*
X115699682Y-140366316D01*
X115668565Y-140758235D01*
X115661450Y-141140779D01*
X115681695Y-141456857D01*
X115733423Y-141788133D01*
X115809564Y-142191194D01*
X115900180Y-142620554D01*
X115995331Y-143030722D01*
X116085082Y-143376211D01*
X116141475Y-143561428D01*
X116235581Y-143930824D01*
X116307605Y-144396638D01*
X116353723Y-144911299D01*
X116370111Y-145427237D01*
X116352945Y-145896879D01*
X116339831Y-146028857D01*
X116277032Y-146456140D01*
X116196166Y-146857876D01*
X116106907Y-147190837D01*
X116039347Y-147371428D01*
X115698657Y-147944919D01*
X115256021Y-148432150D01*
X114730662Y-148816251D01*
X114319143Y-149000816D01*
X114319143Y-140404571D01*
X114355429Y-140368286D01*
X114319143Y-140332000D01*
X114282857Y-140368286D01*
X114319143Y-140404571D01*
X114319143Y-149000816D01*
X114141805Y-149080352D01*
X114065143Y-149103954D01*
X113774389Y-149153071D01*
X113518691Y-149156534D01*
X113518691Y-146557636D01*
X113639337Y-146531448D01*
X113758202Y-146452206D01*
X113923749Y-146298940D01*
X114038879Y-146142183D01*
X114080782Y-145967367D01*
X114097655Y-145675936D01*
X114090084Y-145294139D01*
X114058653Y-144848226D01*
X114003946Y-144364447D01*
X113998380Y-144323428D01*
X113932120Y-143760650D01*
X113877715Y-143141840D01*
X113852253Y-142745000D01*
X113821600Y-142655040D01*
X113755122Y-142678201D01*
X113666424Y-142791136D01*
X113569110Y-142970497D01*
X113476785Y-143192938D01*
X113403052Y-143435112D01*
X113376517Y-143561428D01*
X113331960Y-143763755D01*
X113283599Y-143905090D01*
X113272353Y-143924285D01*
X113216782Y-144055714D01*
X113154329Y-144289739D01*
X113093339Y-144584618D01*
X113042156Y-144898604D01*
X113009124Y-145189953D01*
X113003993Y-145266857D01*
X113014444Y-145654697D01*
X113080318Y-146007991D01*
X113191474Y-146293053D01*
X113337770Y-146476197D01*
X113375381Y-146500393D01*
X113518691Y-146557636D01*
X113518691Y-149156534D01*
X113429493Y-149157743D01*
X113085429Y-149125098D01*
X113085429Y-147661714D01*
X113121714Y-147625428D01*
X113085429Y-147589143D01*
X113049143Y-147625428D01*
X113085429Y-147661714D01*
X113085429Y-149125098D01*
X113070702Y-149123700D01*
X112738264Y-149056678D01*
X112472426Y-148962407D01*
X112320348Y-148855430D01*
X112185944Y-148764795D01*
X112113445Y-148750286D01*
X111994190Y-148697143D01*
X111824063Y-148561175D01*
X111636684Y-148377574D01*
X111465669Y-148181532D01*
X111344638Y-148008239D01*
X111306175Y-147905238D01*
X111257375Y-147816597D01*
X111141160Y-147687989D01*
X111136017Y-147683088D01*
X111045385Y-147556561D01*
X110940504Y-147351824D01*
X110836413Y-147107993D01*
X110748147Y-146864183D01*
X110690743Y-146659508D01*
X110679238Y-146533083D01*
X110687329Y-146515909D01*
X110681539Y-146436610D01*
X110646268Y-146382053D01*
X110607294Y-146257527D01*
X110590500Y-146027033D01*
X110593042Y-145720799D01*
X110593042Y-145720799D01*
G37*
X110593042Y-145720799D02*
X110612074Y-145369049D01*
X110644750Y-145002010D01*
X110688225Y-144649908D01*
X110739654Y-144342969D01*
X110796191Y-144111419D01*
X110854990Y-143985485D01*
X110873085Y-143972666D01*
X110927565Y-143890426D01*
X110944571Y-143768406D01*
X110975154Y-143586344D01*
X111052953Y-143341943D01*
X111157045Y-143086837D01*
X111266506Y-142872661D01*
X111355174Y-142755142D01*
X111438370Y-142618367D01*
X111452571Y-142533493D01*
X111491365Y-142398076D01*
X111591431Y-142196862D01*
X111688429Y-142038933D01*
X111832501Y-141820594D01*
X111953074Y-141633674D01*
X112004957Y-141550188D01*
X112170445Y-141312800D01*
X112402163Y-141034192D01*
X112678864Y-140734458D01*
X112979301Y-140433697D01*
X113282227Y-140152006D01*
X113566396Y-139909482D01*
X113810560Y-139726221D01*
X113993473Y-139622322D01*
X114060076Y-139606286D01*
X114134655Y-139559625D01*
X114137714Y-139541706D01*
X114198317Y-139475520D01*
X114348621Y-139383899D01*
X114541368Y-139289458D01*
X114729299Y-139214813D01*
X114865156Y-139182577D01*
X114885587Y-139183824D01*
X115011661Y-139164793D01*
X115131156Y-139113321D01*
X115276113Y-139055396D01*
X115495552Y-138991491D01*
X115747145Y-138930889D01*
X115988567Y-138882871D01*
X116177488Y-138856717D01*
X116271582Y-138861709D01*
X116273034Y-138862938D01*
X116255250Y-138936978D01*
X116171689Y-139090593D01*
X116078309Y-139234516D01*
X115956685Y-139416204D01*
X115881605Y-139538033D01*
X115868561Y-139570000D01*
X115861548Y-139628330D01*
X115817489Y-139759751D01*
X115750693Y-140016372D01*
X115699682Y-140366316D01*
X115668565Y-140758235D01*
X115661450Y-141140779D01*
X115681695Y-141456857D01*
X115733423Y-141788133D01*
X115809564Y-142191194D01*
X115900180Y-142620554D01*
X115995331Y-143030722D01*
X116085082Y-143376211D01*
X116141475Y-143561428D01*
X116235581Y-143930824D01*
X116307605Y-144396638D01*
X116353723Y-144911299D01*
X116370111Y-145427237D01*
X116352945Y-145896879D01*
X116339831Y-146028857D01*
X116277032Y-146456140D01*
X116196166Y-146857876D01*
X116106907Y-147190837D01*
X116039347Y-147371428D01*
X115698657Y-147944919D01*
X115256021Y-148432150D01*
X114730662Y-148816251D01*
X114319143Y-149000816D01*
X114319143Y-140404571D01*
X114355429Y-140368286D01*
X114319143Y-140332000D01*
X114282857Y-140368286D01*
X114319143Y-140404571D01*
X114319143Y-149000816D01*
X114141805Y-149080352D01*
X114065143Y-149103954D01*
X113774389Y-149153071D01*
X113518691Y-149156534D01*
X113518691Y-146557636D01*
X113639337Y-146531448D01*
X113758202Y-146452206D01*
X113923749Y-146298940D01*
X114038879Y-146142183D01*
X114080782Y-145967367D01*
X114097655Y-145675936D01*
X114090084Y-145294139D01*
X114058653Y-144848226D01*
X114003946Y-144364447D01*
X113998380Y-144323428D01*
X113932120Y-143760650D01*
X113877715Y-143141840D01*
X113852253Y-142745000D01*
X113821600Y-142655040D01*
X113755122Y-142678201D01*
X113666424Y-142791136D01*
X113569110Y-142970497D01*
X113476785Y-143192938D01*
X113403052Y-143435112D01*
X113376517Y-143561428D01*
X113331960Y-143763755D01*
X113283599Y-143905090D01*
X113272353Y-143924285D01*
X113216782Y-144055714D01*
X113154329Y-144289739D01*
X113093339Y-144584618D01*
X113042156Y-144898604D01*
X113009124Y-145189953D01*
X113003993Y-145266857D01*
X113014444Y-145654697D01*
X113080318Y-146007991D01*
X113191474Y-146293053D01*
X113337770Y-146476197D01*
X113375381Y-146500393D01*
X113518691Y-146557636D01*
X113518691Y-149156534D01*
X113429493Y-149157743D01*
X113085429Y-149125098D01*
X113085429Y-147661714D01*
X113121714Y-147625428D01*
X113085429Y-147589143D01*
X113049143Y-147625428D01*
X113085429Y-147661714D01*
X113085429Y-149125098D01*
X113070702Y-149123700D01*
X112738264Y-149056678D01*
X112472426Y-148962407D01*
X112320348Y-148855430D01*
X112185944Y-148764795D01*
X112113445Y-148750286D01*
X111994190Y-148697143D01*
X111824063Y-148561175D01*
X111636684Y-148377574D01*
X111465669Y-148181532D01*
X111344638Y-148008239D01*
X111306175Y-147905238D01*
X111257375Y-147816597D01*
X111141160Y-147687989D01*
X111136017Y-147683088D01*
X111045385Y-147556561D01*
X110940504Y-147351824D01*
X110836413Y-147107993D01*
X110748147Y-146864183D01*
X110690743Y-146659508D01*
X110679238Y-146533083D01*
X110687329Y-146515909D01*
X110681539Y-146436610D01*
X110646268Y-146382053D01*
X110607294Y-146257527D01*
X110590500Y-146027033D01*
X110593042Y-145720799D01*
G36*
X96382006Y-156057384D02*
X96382830Y-156007428D01*
X96395301Y-155566683D01*
X96416557Y-155241791D01*
X96450082Y-155003560D01*
X96499360Y-154822795D01*
X96534376Y-154737428D01*
X96636808Y-154509596D01*
X96724602Y-154305367D01*
X96740805Y-154265714D01*
X96961032Y-153791063D01*
X97209102Y-153411004D01*
X97264857Y-153341559D01*
X97556307Y-153014038D01*
X97845027Y-152731974D01*
X98100383Y-152523936D01*
X98223962Y-152446984D01*
X98376876Y-152362969D01*
X98462083Y-152306603D01*
X98462286Y-152306401D01*
X98675828Y-152174297D01*
X98995996Y-152078476D01*
X99388056Y-152022294D01*
X99817273Y-152009109D01*
X100248915Y-152042279D01*
X100566857Y-152102975D01*
X100751962Y-152185444D01*
X100991535Y-152339728D01*
X101238347Y-152534087D01*
X101324491Y-152612116D01*
X101470302Y-152739583D01*
X101572394Y-152809637D01*
X101587981Y-152814286D01*
X101642681Y-152875653D01*
X101737105Y-153037871D01*
X101854440Y-153268110D01*
X101977871Y-153533542D01*
X102080456Y-153775836D01*
X102144042Y-154029330D01*
X102183395Y-154389869D01*
X102196898Y-154821131D01*
X102182940Y-155286792D01*
X102160272Y-155572000D01*
X102116832Y-155920719D01*
X102059020Y-156272256D01*
X101998376Y-156557590D01*
X101990405Y-156588000D01*
X101912210Y-156879001D01*
X101835135Y-157169901D01*
X101803172Y-157292305D01*
X101733958Y-157504358D01*
X101657204Y-157662728D01*
X101635368Y-157691448D01*
X101567790Y-157808074D01*
X101482442Y-158015502D01*
X101413065Y-158220857D01*
X101325109Y-158493844D01*
X101237545Y-158743595D01*
X101186688Y-158874000D01*
X101085745Y-159167293D01*
X100985849Y-159554730D01*
X100897922Y-159985647D01*
X100832884Y-160409381D01*
X100811262Y-160615714D01*
X100789561Y-160872349D01*
X100772361Y-161066716D01*
X100763215Y-161158714D01*
X100763018Y-161160000D01*
X100776780Y-161289673D01*
X100832006Y-161503609D01*
X100913793Y-161752319D01*
X101007241Y-161986314D01*
X101020604Y-162015505D01*
X101096886Y-162207553D01*
X101125885Y-162342759D01*
X101118287Y-162374474D01*
X101032401Y-162374938D01*
X100843835Y-162335346D01*
X100675714Y-162288350D01*
X100675714Y-159055428D01*
X100712000Y-159019143D01*
X100675714Y-158982857D01*
X100675714Y-156370286D01*
X100712000Y-156334000D01*
X100675714Y-156297714D01*
X100639428Y-156334000D01*
X100675714Y-156370286D01*
X100675714Y-158982857D01*
X100639428Y-159019143D01*
X100675714Y-159055428D01*
X100675714Y-162288350D01*
X100586926Y-162263530D01*
X100469662Y-162226540D01*
X100176590Y-162136888D01*
X99920307Y-162068844D01*
X99743773Y-162033474D01*
X99709821Y-162030857D01*
X99659714Y-162019653D01*
X99659714Y-160506857D01*
X99696000Y-160470571D01*
X99659714Y-160434286D01*
X99623429Y-160470571D01*
X99659714Y-160506857D01*
X99659714Y-162019653D01*
X99584585Y-162002852D01*
X99550857Y-161958286D01*
X99492077Y-161893902D01*
X99442000Y-161885714D01*
X99317121Y-161837362D01*
X99212190Y-161754306D01*
X99212190Y-159031238D01*
X99255334Y-159021276D01*
X99260571Y-158982857D01*
X99234019Y-158923122D01*
X99224286Y-158928184D01*
X99224286Y-158692571D01*
X99260571Y-158656285D01*
X99224286Y-158620000D01*
X99188000Y-158656285D01*
X99224286Y-158692571D01*
X99224286Y-158928184D01*
X99212190Y-158934476D01*
X99203505Y-159020601D01*
X99212190Y-159031238D01*
X99212190Y-161754306D01*
X99175616Y-161725356D01*
X99175616Y-158491783D01*
X99229384Y-158473724D01*
X99258069Y-158334861D01*
X99260571Y-158249330D01*
X99280779Y-158088777D01*
X99322911Y-158009466D01*
X99365657Y-157921156D01*
X99408419Y-157735820D01*
X99430703Y-157584212D01*
X99483167Y-157291004D01*
X99568557Y-156957250D01*
X99629908Y-156765743D01*
X99710555Y-156490185D01*
X99790893Y-156133883D01*
X99857070Y-155760598D01*
X99873439Y-155644571D01*
X99963216Y-154955143D01*
X99762845Y-154757321D01*
X99615203Y-154630954D01*
X99492529Y-154598575D01*
X99344807Y-154635379D01*
X99146955Y-154778288D01*
X98988730Y-155044509D01*
X98872737Y-155417013D01*
X98801582Y-155878770D01*
X98777870Y-156412751D01*
X98804208Y-157001926D01*
X98883201Y-157629266D01*
X98885035Y-157640286D01*
X98951476Y-157963289D01*
X99027897Y-158222350D01*
X99105532Y-158403253D01*
X99175616Y-158491783D01*
X99175616Y-161725356D01*
X99171917Y-161722428D01*
X99002591Y-161579032D01*
X98853213Y-161486571D01*
X98708936Y-161398225D01*
X98530545Y-161260984D01*
X98356164Y-161108229D01*
X98223923Y-160973344D01*
X98171943Y-160890074D01*
X98127872Y-160806794D01*
X98015688Y-160657949D01*
X97936086Y-160563482D01*
X97691054Y-160276556D01*
X97535942Y-160078214D01*
X97459356Y-159953113D01*
X97446286Y-159903907D01*
X97408500Y-159811194D01*
X97311541Y-159643788D01*
X97228571Y-159515886D01*
X97106856Y-159327621D01*
X97027838Y-159190206D01*
X97010857Y-159147274D01*
X96982373Y-159059152D01*
X96910536Y-158890649D01*
X96871530Y-158806198D01*
X96757629Y-158517454D01*
X96634393Y-158123750D01*
X96513110Y-157663798D01*
X96425761Y-157277428D01*
X96404175Y-157095173D01*
X96388832Y-156805792D01*
X96381015Y-156447218D01*
X96382006Y-156057384D01*
X96382006Y-156057384D01*
G37*
X96382006Y-156057384D02*
X96382830Y-156007428D01*
X96395301Y-155566683D01*
X96416557Y-155241791D01*
X96450082Y-155003560D01*
X96499360Y-154822795D01*
X96534376Y-154737428D01*
X96636808Y-154509596D01*
X96724602Y-154305367D01*
X96740805Y-154265714D01*
X96961032Y-153791063D01*
X97209102Y-153411004D01*
X97264857Y-153341559D01*
X97556307Y-153014038D01*
X97845027Y-152731974D01*
X98100383Y-152523936D01*
X98223962Y-152446984D01*
X98376876Y-152362969D01*
X98462083Y-152306603D01*
X98462286Y-152306401D01*
X98675828Y-152174297D01*
X98995996Y-152078476D01*
X99388056Y-152022294D01*
X99817273Y-152009109D01*
X100248915Y-152042279D01*
X100566857Y-152102975D01*
X100751962Y-152185444D01*
X100991535Y-152339728D01*
X101238347Y-152534087D01*
X101324491Y-152612116D01*
X101470302Y-152739583D01*
X101572394Y-152809637D01*
X101587981Y-152814286D01*
X101642681Y-152875653D01*
X101737105Y-153037871D01*
X101854440Y-153268110D01*
X101977871Y-153533542D01*
X102080456Y-153775836D01*
X102144042Y-154029330D01*
X102183395Y-154389869D01*
X102196898Y-154821131D01*
X102182940Y-155286792D01*
X102160272Y-155572000D01*
X102116832Y-155920719D01*
X102059020Y-156272256D01*
X101998376Y-156557590D01*
X101990405Y-156588000D01*
X101912210Y-156879001D01*
X101835135Y-157169901D01*
X101803172Y-157292305D01*
X101733958Y-157504358D01*
X101657204Y-157662728D01*
X101635368Y-157691448D01*
X101567790Y-157808074D01*
X101482442Y-158015502D01*
X101413065Y-158220857D01*
X101325109Y-158493844D01*
X101237545Y-158743595D01*
X101186688Y-158874000D01*
X101085745Y-159167293D01*
X100985849Y-159554730D01*
X100897922Y-159985647D01*
X100832884Y-160409381D01*
X100811262Y-160615714D01*
X100789561Y-160872349D01*
X100772361Y-161066716D01*
X100763215Y-161158714D01*
X100763018Y-161160000D01*
X100776780Y-161289673D01*
X100832006Y-161503609D01*
X100913793Y-161752319D01*
X101007241Y-161986314D01*
X101020604Y-162015505D01*
X101096886Y-162207553D01*
X101125885Y-162342759D01*
X101118287Y-162374474D01*
X101032401Y-162374938D01*
X100843835Y-162335346D01*
X100675714Y-162288350D01*
X100675714Y-159055428D01*
X100712000Y-159019143D01*
X100675714Y-158982857D01*
X100675714Y-156370286D01*
X100712000Y-156334000D01*
X100675714Y-156297714D01*
X100639428Y-156334000D01*
X100675714Y-156370286D01*
X100675714Y-158982857D01*
X100639428Y-159019143D01*
X100675714Y-159055428D01*
X100675714Y-162288350D01*
X100586926Y-162263530D01*
X100469662Y-162226540D01*
X100176590Y-162136888D01*
X99920307Y-162068844D01*
X99743773Y-162033474D01*
X99709821Y-162030857D01*
X99659714Y-162019653D01*
X99659714Y-160506857D01*
X99696000Y-160470571D01*
X99659714Y-160434286D01*
X99623429Y-160470571D01*
X99659714Y-160506857D01*
X99659714Y-162019653D01*
X99584585Y-162002852D01*
X99550857Y-161958286D01*
X99492077Y-161893902D01*
X99442000Y-161885714D01*
X99317121Y-161837362D01*
X99212190Y-161754306D01*
X99212190Y-159031238D01*
X99255334Y-159021276D01*
X99260571Y-158982857D01*
X99234019Y-158923122D01*
X99224286Y-158928184D01*
X99224286Y-158692571D01*
X99260571Y-158656285D01*
X99224286Y-158620000D01*
X99188000Y-158656285D01*
X99224286Y-158692571D01*
X99224286Y-158928184D01*
X99212190Y-158934476D01*
X99203505Y-159020601D01*
X99212190Y-159031238D01*
X99212190Y-161754306D01*
X99175616Y-161725356D01*
X99175616Y-158491783D01*
X99229384Y-158473724D01*
X99258069Y-158334861D01*
X99260571Y-158249330D01*
X99280779Y-158088777D01*
X99322911Y-158009466D01*
X99365657Y-157921156D01*
X99408419Y-157735820D01*
X99430703Y-157584212D01*
X99483167Y-157291004D01*
X99568557Y-156957250D01*
X99629908Y-156765743D01*
X99710555Y-156490185D01*
X99790893Y-156133883D01*
X99857070Y-155760598D01*
X99873439Y-155644571D01*
X99963216Y-154955143D01*
X99762845Y-154757321D01*
X99615203Y-154630954D01*
X99492529Y-154598575D01*
X99344807Y-154635379D01*
X99146955Y-154778288D01*
X98988730Y-155044509D01*
X98872737Y-155417013D01*
X98801582Y-155878770D01*
X98777870Y-156412751D01*
X98804208Y-157001926D01*
X98883201Y-157629266D01*
X98885035Y-157640286D01*
X98951476Y-157963289D01*
X99027897Y-158222350D01*
X99105532Y-158403253D01*
X99175616Y-158491783D01*
X99175616Y-161725356D01*
X99171917Y-161722428D01*
X99002591Y-161579032D01*
X98853213Y-161486571D01*
X98708936Y-161398225D01*
X98530545Y-161260984D01*
X98356164Y-161108229D01*
X98223923Y-160973344D01*
X98171943Y-160890074D01*
X98127872Y-160806794D01*
X98015688Y-160657949D01*
X97936086Y-160563482D01*
X97691054Y-160276556D01*
X97535942Y-160078214D01*
X97459356Y-159953113D01*
X97446286Y-159903907D01*
X97408500Y-159811194D01*
X97311541Y-159643788D01*
X97228571Y-159515886D01*
X97106856Y-159327621D01*
X97027838Y-159190206D01*
X97010857Y-159147274D01*
X96982373Y-159059152D01*
X96910536Y-158890649D01*
X96871530Y-158806198D01*
X96757629Y-158517454D01*
X96634393Y-158123750D01*
X96513110Y-157663798D01*
X96425761Y-157277428D01*
X96404175Y-157095173D01*
X96388832Y-156805792D01*
X96381015Y-156447218D01*
X96382006Y-156057384D01*
G36*
X100675714Y-151798286D02*
X100712000Y-151834571D01*
X100675714Y-151870857D01*
X100639428Y-151834571D01*
X100675714Y-151798286D01*
X100675714Y-151798286D01*
G37*
X100675714Y-151798286D02*
X100712000Y-151834571D01*
X100675714Y-151870857D01*
X100639428Y-151834571D01*
X100675714Y-151798286D01*
G04 #@! TO.C,J1*
D15*
X119726666Y-76722380D02*
X119726666Y-77436666D01*
X119679047Y-77579523D01*
X119583809Y-77674761D01*
X119440952Y-77722380D01*
X119345714Y-77722380D01*
X120726666Y-77722380D02*
X120155238Y-77722380D01*
X120440952Y-77722380D02*
X120440952Y-76722380D01*
X120345714Y-76865238D01*
X120250476Y-76960476D01*
X120155238Y-77008095D01*
G04 #@! TO.C,J2*
X142586666Y-76722380D02*
X142586666Y-77436666D01*
X142539047Y-77579523D01*
X142443809Y-77674761D01*
X142300952Y-77722380D01*
X142205714Y-77722380D01*
X143015238Y-76817619D02*
X143062857Y-76770000D01*
X143158095Y-76722380D01*
X143396190Y-76722380D01*
X143491428Y-76770000D01*
X143539047Y-76817619D01*
X143586666Y-76912857D01*
X143586666Y-77008095D01*
X143539047Y-77150952D01*
X142967619Y-77722380D01*
X143586666Y-77722380D01*
G04 #@! TO.C,J3*
X119042380Y-145113333D02*
X119756666Y-145113333D01*
X119899523Y-145160952D01*
X119994761Y-145256190D01*
X120042380Y-145399047D01*
X120042380Y-145494285D01*
X119042380Y-144732380D02*
X119042380Y-144113333D01*
X119423333Y-144446666D01*
X119423333Y-144303809D01*
X119470952Y-144208571D01*
X119518571Y-144160952D01*
X119613809Y-144113333D01*
X119851904Y-144113333D01*
X119947142Y-144160952D01*
X119994761Y-144208571D01*
X120042380Y-144303809D01*
X120042380Y-144589523D01*
X119994761Y-144684761D01*
X119947142Y-144732380D01*
G04 #@! TO.C,J4*
X119042380Y-147653333D02*
X119756666Y-147653333D01*
X119899523Y-147700952D01*
X119994761Y-147796190D01*
X120042380Y-147939047D01*
X120042380Y-148034285D01*
X119375714Y-146748571D02*
X120042380Y-146748571D01*
X118994761Y-146986666D02*
X119709047Y-147224761D01*
X119709047Y-146605714D01*
G04 #@! TO.C,J5*
X119042380Y-150193333D02*
X119756666Y-150193333D01*
X119899523Y-150240952D01*
X119994761Y-150336190D01*
X120042380Y-150479047D01*
X120042380Y-150574285D01*
X119042380Y-149240952D02*
X119042380Y-149717142D01*
X119518571Y-149764761D01*
X119470952Y-149717142D01*
X119423333Y-149621904D01*
X119423333Y-149383809D01*
X119470952Y-149288571D01*
X119518571Y-149240952D01*
X119613809Y-149193333D01*
X119851904Y-149193333D01*
X119947142Y-149240952D01*
X119994761Y-149288571D01*
X120042380Y-149383809D01*
X120042380Y-149621904D01*
X119994761Y-149717142D01*
X119947142Y-149764761D01*
G04 #@! TO.C,J6*
X135122380Y-160063333D02*
X135836666Y-160063333D01*
X135979523Y-160110952D01*
X136074761Y-160206190D01*
X136122380Y-160349047D01*
X136122380Y-160444285D01*
X135122380Y-159158571D02*
X135122380Y-159349047D01*
X135170000Y-159444285D01*
X135217619Y-159491904D01*
X135360476Y-159587142D01*
X135550952Y-159634761D01*
X135931904Y-159634761D01*
X136027142Y-159587142D01*
X136074761Y-159539523D01*
X136122380Y-159444285D01*
X136122380Y-159253809D01*
X136074761Y-159158571D01*
X136027142Y-159110952D01*
X135931904Y-159063333D01*
X135693809Y-159063333D01*
X135598571Y-159110952D01*
X135550952Y-159158571D01*
X135503333Y-159253809D01*
X135503333Y-159444285D01*
X135550952Y-159539523D01*
X135598571Y-159587142D01*
X135693809Y-159634761D01*
G04 #@! TO.C,J7*
X130862380Y-161333333D02*
X131576666Y-161333333D01*
X131719523Y-161380952D01*
X131814761Y-161476190D01*
X131862380Y-161619047D01*
X131862380Y-161714285D01*
X130862380Y-160952380D02*
X130862380Y-160285714D01*
X131862380Y-160714285D01*
G04 #@! TO.C,BT1*
X89428571Y-121115714D02*
X89476190Y-120972857D01*
X89523809Y-120925238D01*
X89619047Y-120877619D01*
X89761904Y-120877619D01*
X89857142Y-120925238D01*
X89904761Y-120972857D01*
X89952380Y-121068095D01*
X89952380Y-121449047D01*
X88952380Y-121449047D01*
X88952380Y-121115714D01*
X89000000Y-121020476D01*
X89047619Y-120972857D01*
X89142857Y-120925238D01*
X89238095Y-120925238D01*
X89333333Y-120972857D01*
X89380952Y-121020476D01*
X89428571Y-121115714D01*
X89428571Y-121449047D01*
X88952380Y-120591904D02*
X88952380Y-120020476D01*
X89952380Y-120306190D02*
X88952380Y-120306190D01*
X89952380Y-119163333D02*
X89952380Y-119734761D01*
X89952380Y-119449047D02*
X88952380Y-119449047D01*
X89095238Y-119544285D01*
X89190476Y-119639523D01*
X89238095Y-119734761D01*
G04 #@! TO.C,J8*
X127992380Y-86118333D02*
X128706666Y-86118333D01*
X128849523Y-86165952D01*
X128944761Y-86261190D01*
X128992380Y-86404047D01*
X128992380Y-86499285D01*
X128420952Y-85499285D02*
X128373333Y-85594523D01*
X128325714Y-85642142D01*
X128230476Y-85689761D01*
X128182857Y-85689761D01*
X128087619Y-85642142D01*
X128040000Y-85594523D01*
X127992380Y-85499285D01*
X127992380Y-85308809D01*
X128040000Y-85213571D01*
X128087619Y-85165952D01*
X128182857Y-85118333D01*
X128230476Y-85118333D01*
X128325714Y-85165952D01*
X128373333Y-85213571D01*
X128420952Y-85308809D01*
X128420952Y-85499285D01*
X128468571Y-85594523D01*
X128516190Y-85642142D01*
X128611428Y-85689761D01*
X128801904Y-85689761D01*
X128897142Y-85642142D01*
X128944761Y-85594523D01*
X128992380Y-85499285D01*
X128992380Y-85308809D01*
X128944761Y-85213571D01*
X128897142Y-85165952D01*
X128801904Y-85118333D01*
X128611428Y-85118333D01*
X128516190Y-85165952D01*
X128468571Y-85213571D01*
X128420952Y-85308809D01*
G04 #@! TD*
M02*
