G04 #@! TF.GenerationSoftware,KiCad,Pcbnew,5.0.0*
G04 #@! TF.CreationDate,2018-07-16T21:17:55+02:00*
G04 #@! TF.ProjectId,Heltec_Node,48656C7465635F4E6F64652E6B696361,rev?*
G04 #@! TF.SameCoordinates,Original*
G04 #@! TF.FileFunction,Copper,L2,Bot,Signal*
G04 #@! TF.FilePolarity,Positive*
%FSLAX46Y46*%
G04 Gerber Fmt 4.6, Leading zero omitted, Abs format (unit mm)*
G04 Created by KiCad (PCBNEW 5.0.0) date Mon Jul 16 21:17:55 2018*
%MOMM*%
%LPD*%
G01*
G04 APERTURE LIST*
G04 #@! TA.AperFunction,ComponentPad*
%ADD10R,1.700000X1.700000*%
G04 #@! TD*
G04 #@! TA.AperFunction,ComponentPad*
%ADD11O,1.700000X1.700000*%
G04 #@! TD*
G04 #@! TA.AperFunction,ViaPad*
%ADD12C,0.600000*%
G04 #@! TD*
G04 #@! TA.AperFunction,Conductor*
%ADD13C,0.400000*%
G04 #@! TD*
G04 #@! TA.AperFunction,Conductor*
%ADD14C,1.000000*%
G04 #@! TD*
G04 #@! TA.AperFunction,NonConductor*
%ADD15C,0.050000*%
G04 #@! TD*
G04 #@! TA.AperFunction,Conductor*
%ADD16C,0.254000*%
G04 #@! TD*
G04 APERTURE END LIST*
D10*
G04 #@! TO.P,J1,1*
G04 #@! TO.N,GND*
X120060000Y-79600000D03*
D11*
G04 #@! TO.P,J1,2*
G04 #@! TO.N,+5V*
X120060000Y-82140000D03*
G04 #@! TO.P,J1,3*
G04 #@! TO.N,+3V3*
X120060000Y-84680000D03*
G04 #@! TO.P,J1,4*
G04 #@! TO.N,GND*
X120060000Y-87220000D03*
G04 #@! TO.P,J1,5*
G04 #@! TO.N,Net-(J1-Pad5)*
X120060000Y-89760000D03*
G04 #@! TO.P,J1,6*
G04 #@! TO.N,Net-(J1-Pad6)*
X120060000Y-92300000D03*
G04 #@! TO.P,J1,7*
G04 #@! TO.N,Net-(J1-Pad7)*
X120060000Y-94840000D03*
G04 #@! TO.P,J1,8*
G04 #@! TO.N,Net-(J1-Pad8)*
X120060000Y-97380000D03*
G04 #@! TO.P,J1,9*
G04 #@! TO.N,SCL*
X120060000Y-99920000D03*
G04 #@! TO.P,J1,10*
G04 #@! TO.N,Net-(J1-Pad10)*
X120060000Y-102460000D03*
G04 #@! TO.P,J1,11*
G04 #@! TO.N,23*
X120060000Y-105000000D03*
G04 #@! TO.P,J1,12*
G04 #@! TO.N,Net-(J1-Pad12)*
X120060000Y-107540000D03*
G04 #@! TO.P,J1,13*
G04 #@! TO.N,Net-(J1-Pad13)*
X120060000Y-110080000D03*
G04 #@! TO.P,J1,14*
G04 #@! TO.N,Net-(J1-Pad14)*
X120060000Y-112620000D03*
G04 #@! TO.P,J1,15*
G04 #@! TO.N,2*
X120060000Y-115160000D03*
G04 #@! TO.P,J1,16*
G04 #@! TO.N,Net-(J1-Pad16)*
X120060000Y-117700000D03*
G04 #@! TO.P,J1,17*
G04 #@! TO.N,17*
X120060000Y-120240000D03*
G04 #@! TO.P,J1,18*
G04 #@! TO.N,Net-(J1-Pad18)*
X120060000Y-122780000D03*
G04 #@! TD*
D10*
G04 #@! TO.P,J2,1*
G04 #@! TO.N,GND*
X142920000Y-79600000D03*
D11*
G04 #@! TO.P,J2,2*
G04 #@! TO.N,+5V*
X142920000Y-82140000D03*
G04 #@! TO.P,J2,3*
G04 #@! TO.N,+3V3*
X142920000Y-84680000D03*
G04 #@! TO.P,J2,4*
G04 #@! TO.N,36*
X142920000Y-87220000D03*
G04 #@! TO.P,J2,5*
G04 #@! TO.N,37*
X142920000Y-89760000D03*
G04 #@! TO.P,J2,6*
G04 #@! TO.N,38*
X142920000Y-92300000D03*
G04 #@! TO.P,J2,7*
G04 #@! TO.N,39*
X142920000Y-94840000D03*
G04 #@! TO.P,J2,8*
G04 #@! TO.N,34*
X142920000Y-97380000D03*
G04 #@! TO.P,J2,9*
G04 #@! TO.N,35*
X142920000Y-99920000D03*
G04 #@! TO.P,J2,10*
G04 #@! TO.N,Net-(J2-Pad10)*
X142920000Y-102460000D03*
G04 #@! TO.P,J2,11*
G04 #@! TO.N,Net-(J2-Pad11)*
X142920000Y-105000000D03*
G04 #@! TO.P,J2,12*
G04 #@! TO.N,DAC2*
X142920000Y-107540000D03*
G04 #@! TO.P,J2,13*
G04 #@! TO.N,Net-(J2-Pad13)*
X142920000Y-110080000D03*
G04 #@! TO.P,J2,14*
G04 #@! TO.N,Net-(J2-Pad14)*
X142920000Y-112620000D03*
G04 #@! TO.P,J2,15*
G04 #@! TO.N,Net-(J2-Pad15)*
X142920000Y-115160000D03*
G04 #@! TO.P,J2,16*
G04 #@! TO.N,12*
X142920000Y-117700000D03*
G04 #@! TO.P,J2,17*
G04 #@! TO.N,DHT_D*
X142920000Y-120240000D03*
G04 #@! TO.P,J2,18*
G04 #@! TO.N,SDA*
X142920000Y-122780000D03*
G04 #@! TD*
D10*
G04 #@! TO.P,J3,1*
G04 #@! TO.N,2*
X121920000Y-144780000D03*
D11*
G04 #@! TO.P,J3,2*
G04 #@! TO.N,17*
X124460000Y-144780000D03*
G04 #@! TO.P,J3,3*
G04 #@! TO.N,34*
X127000000Y-144780000D03*
G04 #@! TO.P,J3,4*
G04 #@! TO.N,35*
X129540000Y-144780000D03*
G04 #@! TO.P,J3,5*
G04 #@! TO.N,36*
X132080000Y-144780000D03*
G04 #@! TO.P,J3,6*
G04 #@! TO.N,37*
X134620000Y-144780000D03*
G04 #@! TO.P,J3,7*
G04 #@! TO.N,38*
X137160000Y-144780000D03*
G04 #@! TO.P,J3,8*
G04 #@! TO.N,39*
X139700000Y-144780000D03*
G04 #@! TD*
D10*
G04 #@! TO.P,J4,1*
G04 #@! TO.N,+3V3*
X121920000Y-147320000D03*
D11*
G04 #@! TO.P,J4,2*
X124460000Y-147320000D03*
G04 #@! TO.P,J4,3*
X127000000Y-147320000D03*
G04 #@! TO.P,J4,4*
X129540000Y-147320000D03*
G04 #@! TO.P,J4,5*
X132080000Y-147320000D03*
G04 #@! TO.P,J4,6*
X134620000Y-147320000D03*
G04 #@! TO.P,J4,7*
X137160000Y-147320000D03*
G04 #@! TO.P,J4,8*
X139700000Y-147320000D03*
G04 #@! TD*
D10*
G04 #@! TO.P,J5,1*
G04 #@! TO.N,GND*
X121920000Y-149860000D03*
D11*
G04 #@! TO.P,J5,2*
X124460000Y-149860000D03*
G04 #@! TO.P,J5,3*
X127000000Y-149860000D03*
G04 #@! TO.P,J5,4*
X129540000Y-149860000D03*
G04 #@! TO.P,J5,5*
X132080000Y-149860000D03*
G04 #@! TO.P,J5,6*
X134620000Y-149860000D03*
G04 #@! TO.P,J5,7*
X137160000Y-149860000D03*
G04 #@! TO.P,J5,8*
X139700000Y-149860000D03*
G04 #@! TD*
D10*
G04 #@! TO.P,J6,1*
G04 #@! TO.N,+3V3*
X138000000Y-161000000D03*
D11*
G04 #@! TO.P,J6,2*
G04 #@! TO.N,SDA*
X138000000Y-158460000D03*
G04 #@! TO.P,J6,3*
G04 #@! TO.N,GND*
X140540000Y-161000000D03*
G04 #@! TO.P,J6,4*
G04 #@! TO.N,SCL*
X140540000Y-158460000D03*
G04 #@! TD*
D10*
G04 #@! TO.P,J7,1*
G04 #@! TO.N,+3V3*
X129080000Y-161000000D03*
D11*
G04 #@! TO.P,J7,2*
G04 #@! TO.N,DHT_D*
X126540000Y-161000000D03*
G04 #@! TO.P,J7,3*
G04 #@! TO.N,Net-(J7-Pad3)*
X124000000Y-161000000D03*
G04 #@! TO.P,J7,4*
G04 #@! TO.N,GND*
X121460000Y-161000000D03*
G04 #@! TD*
D10*
G04 #@! TO.P,J8,1*
G04 #@! TO.N,Net-(BT1-Pad1)*
X130810000Y-90170000D03*
D11*
G04 #@! TO.P,J8,2*
G04 #@! TO.N,Net-(BT1-Pad2)*
X133350000Y-90170000D03*
G04 #@! TD*
D12*
G04 #@! TO.N,SCL*
X125589533Y-99945845D03*
X125589533Y-141346392D03*
X141732000Y-141478000D03*
G04 #@! TO.N,17*
X124460000Y-120240000D03*
G04 #@! TO.N,38*
X145802158Y-141267883D03*
G04 #@! TO.N,39*
X145163802Y-144813799D03*
G04 #@! TO.N,34*
X133438560Y-142182130D03*
X138954588Y-97372364D03*
G04 #@! TO.N,35*
X137922890Y-99892054D03*
G04 #@! TO.N,DHT_D*
X144127827Y-155448000D03*
X126746000Y-155956000D03*
G04 #@! TO.N,SDA*
X142858527Y-156836173D03*
G04 #@! TO.N,Net-(BT1-Pad1)*
X100883814Y-131221968D03*
X127579147Y-131223061D03*
X100838000Y-154432000D03*
G04 #@! TO.N,Net-(BT1-Pad2)*
X122631530Y-79696649D03*
X122995450Y-92550160D03*
G04 #@! TD*
D13*
G04 #@! TO.N,SCL*
X140540000Y-158460000D02*
X140540000Y-157257919D01*
X142427806Y-155370113D02*
X142427806Y-142173806D01*
X142427806Y-142173806D02*
X141732000Y-141478000D01*
X140540000Y-157257919D02*
X142427806Y-155370113D01*
X125563688Y-99920000D02*
X125589533Y-99945845D01*
X125589533Y-99945845D02*
X125589533Y-140922128D01*
X125589533Y-140922128D02*
X125589533Y-141346392D01*
G04 #@! TO.N,2*
X123190000Y-142260000D02*
X123190000Y-118290000D01*
X123190000Y-118290000D02*
X120060000Y-115160000D01*
X121920000Y-144780000D02*
X121920000Y-143530000D01*
X121920000Y-143530000D02*
X123190000Y-142260000D01*
G04 #@! TO.N,17*
X124460000Y-144780000D02*
X124460000Y-120240000D01*
G04 #@! TO.N,36*
X132080000Y-144780000D02*
X132929999Y-143930001D01*
X139854598Y-90285402D02*
X142070001Y-88069999D01*
X132963497Y-143930001D02*
X139854598Y-137038900D01*
X132929999Y-143930001D02*
X132963497Y-143930001D01*
X139854598Y-137038900D02*
X139854598Y-90285402D01*
X142070001Y-88069999D02*
X142920000Y-87220000D01*
G04 #@! TO.N,37*
X140654609Y-92025391D02*
X140654609Y-138745391D01*
X142920000Y-89760000D02*
X140654609Y-92025391D01*
X135469999Y-143930001D02*
X134620000Y-144780000D01*
X140654609Y-138745391D02*
X135469999Y-143930001D01*
G04 #@! TO.N,38*
X146102157Y-140967884D02*
X145802158Y-141267883D01*
X146102157Y-95482157D02*
X146102157Y-140967884D01*
X142920000Y-92300000D02*
X146102157Y-95482157D01*
G04 #@! TO.N,39*
X145163802Y-141990838D02*
X145163802Y-144389535D01*
X145170012Y-97090012D02*
X145170012Y-140597336D01*
X142920000Y-94840000D02*
X145170012Y-97090012D01*
X144902157Y-140865191D02*
X144902157Y-141729193D01*
X144902157Y-141729193D02*
X145163802Y-141990838D01*
X145163802Y-144389535D02*
X145163802Y-144813799D01*
X145170012Y-140597336D02*
X144902157Y-140865191D01*
G04 #@! TO.N,34*
X133738559Y-141882131D02*
X133438560Y-142182130D01*
X138954588Y-136666102D02*
X133738559Y-141882131D01*
X138954588Y-97372364D02*
X138954588Y-136666102D01*
G04 #@! TO.N,35*
X129540000Y-144592448D02*
X137927560Y-136204888D01*
X137927560Y-136204888D02*
X137927560Y-100320988D01*
X137922890Y-100316318D02*
X137922890Y-99892054D01*
X137927560Y-100320988D02*
X137922890Y-100316318D01*
X129540000Y-144780000D02*
X129540000Y-144592448D01*
G04 #@! TO.N,DHT_D*
X142920000Y-120240000D02*
X144370001Y-121690001D01*
X144127827Y-155023736D02*
X144127827Y-155448000D01*
X144370001Y-121690001D02*
X144370001Y-140265961D01*
X144370001Y-140265961D02*
X144102146Y-140533816D01*
X144102146Y-140533816D02*
X144102146Y-142104532D01*
X144102146Y-142104532D02*
X144127827Y-142130213D01*
X144127827Y-142130213D02*
X144127827Y-155023736D01*
X126540000Y-161000000D02*
X126540000Y-156162000D01*
X126540000Y-156162000D02*
X126746000Y-155956000D01*
G04 #@! TO.N,SDA*
X142920000Y-122780000D02*
X142657303Y-123042697D01*
X143227817Y-141842431D02*
X143227817Y-156466883D01*
X142657303Y-123042697D02*
X142657303Y-141271917D01*
X142657303Y-141271917D02*
X143227817Y-141842431D01*
X143227817Y-156466883D02*
X143158526Y-156536174D01*
X143158526Y-156536174D02*
X142858527Y-156836173D01*
D14*
G04 #@! TO.N,Net-(BT1-Pad1)*
X100838000Y-131267782D02*
X100883814Y-131221968D01*
X100838000Y-154432000D02*
X100838000Y-131267782D01*
X127579147Y-130798797D02*
X127579147Y-131223061D01*
X127579147Y-93420853D02*
X127579147Y-130798797D01*
X131000000Y-90000000D02*
X127579147Y-93420853D01*
G04 #@! TO.N,Net-(BT1-Pad2)*
X122631530Y-92186240D02*
X122631530Y-80120913D01*
X122995450Y-92550160D02*
X122631530Y-92186240D01*
X122631530Y-80120913D02*
X122631530Y-79696649D01*
G04 #@! TD*
D15*
G36*
X110289431Y-104207530D02*
X110308095Y-104252589D01*
X110308096Y-104252590D01*
X110376241Y-104354576D01*
X110376241Y-105866801D01*
X108361662Y-105866801D01*
X108349586Y-105869203D01*
X108349583Y-105869203D01*
X107966900Y-105945323D01*
X107966899Y-105945323D01*
X107921839Y-105963987D01*
X107597416Y-106180760D01*
X107562928Y-106215248D01*
X107346156Y-106539671D01*
X107346155Y-106539672D01*
X107327491Y-106584732D01*
X107251371Y-106967415D01*
X107251371Y-106967423D01*
X107248970Y-106979494D01*
X107248970Y-107466801D01*
X105426241Y-107466801D01*
X105426241Y-104118889D01*
X110271393Y-104116844D01*
X110289431Y-104207530D01*
X110289431Y-104207530D01*
G37*
X110289431Y-104207530D02*
X110308095Y-104252589D01*
X110308096Y-104252590D01*
X110376241Y-104354576D01*
X110376241Y-105866801D01*
X108361662Y-105866801D01*
X108349586Y-105869203D01*
X108349583Y-105869203D01*
X107966900Y-105945323D01*
X107966899Y-105945323D01*
X107921839Y-105963987D01*
X107597416Y-106180760D01*
X107562928Y-106215248D01*
X107346156Y-106539671D01*
X107346155Y-106539672D01*
X107327491Y-106584732D01*
X107251371Y-106967415D01*
X107251371Y-106967423D01*
X107248970Y-106979494D01*
X107248970Y-107466801D01*
X105426241Y-107466801D01*
X105426241Y-104118889D01*
X110271393Y-104116844D01*
X110289431Y-104207530D01*
G36*
X110376241Y-106119702D02*
X110376241Y-107466801D01*
X107498969Y-107466801D01*
X107498969Y-107004111D01*
X107567836Y-106657891D01*
X107756983Y-106374813D01*
X108040059Y-106185668D01*
X108386279Y-106116801D01*
X110361659Y-106116801D01*
X110376241Y-106119702D01*
X110376241Y-106119702D01*
G37*
X110376241Y-106119702D02*
X110376241Y-107466801D01*
X107498969Y-107466801D01*
X107498969Y-107004111D01*
X107567836Y-106657891D01*
X107756983Y-106374813D01*
X108040059Y-106185668D01*
X108386279Y-106116801D01*
X110361659Y-106116801D01*
X110376241Y-106119702D01*
G36*
X107248969Y-114004107D02*
X107251371Y-114016183D01*
X107251371Y-114016187D01*
X107327491Y-114398870D01*
X107327491Y-114398871D01*
X107346155Y-114443930D01*
X107562928Y-114768354D01*
X107597416Y-114802842D01*
X107921839Y-115019615D01*
X107966899Y-115038279D01*
X107966900Y-115038279D01*
X108349583Y-115114399D01*
X108349586Y-115114399D01*
X108361662Y-115116801D01*
X110348969Y-115116801D01*
X110348969Y-116677842D01*
X110308096Y-116739012D01*
X110308095Y-116739013D01*
X110289431Y-116784072D01*
X110272967Y-116866845D01*
X105398969Y-116868957D01*
X105398969Y-113516801D01*
X107248969Y-113516801D01*
X107248969Y-114004107D01*
X107248969Y-114004107D01*
G37*
X107248969Y-114004107D02*
X107251371Y-114016183D01*
X107251371Y-114016187D01*
X107327491Y-114398870D01*
X107327491Y-114398871D01*
X107346155Y-114443930D01*
X107562928Y-114768354D01*
X107597416Y-114802842D01*
X107921839Y-115019615D01*
X107966899Y-115038279D01*
X107966900Y-115038279D01*
X108349583Y-115114399D01*
X108349586Y-115114399D01*
X108361662Y-115116801D01*
X110348969Y-115116801D01*
X110348969Y-116677842D01*
X110308096Y-116739012D01*
X110308095Y-116739013D01*
X110289431Y-116784072D01*
X110272967Y-116866845D01*
X105398969Y-116868957D01*
X105398969Y-113516801D01*
X107248969Y-113516801D01*
X107248969Y-114004107D01*
G36*
X110348969Y-114866801D02*
X108386279Y-114866801D01*
X108040059Y-114797934D01*
X107756983Y-114608789D01*
X107567836Y-114325711D01*
X107498969Y-113979491D01*
X107498969Y-113516801D01*
X110348969Y-113516801D01*
X110348969Y-114866801D01*
X110348969Y-114866801D01*
G37*
X110348969Y-114866801D02*
X108386279Y-114866801D01*
X108040059Y-114797934D01*
X107756983Y-114608789D01*
X107567836Y-114325711D01*
X107498969Y-113979491D01*
X107498969Y-113516801D01*
X110348969Y-113516801D01*
X110348969Y-114866801D01*
D16*
G04 #@! TO.N,+3V3*
G36*
X123776976Y-76254852D02*
X123777515Y-76261075D01*
X123777515Y-76267318D01*
X123778130Y-76274423D01*
X123893307Y-77398570D01*
X123895454Y-77410870D01*
X123897210Y-77423210D01*
X123898820Y-77430157D01*
X124171243Y-78526860D01*
X124175100Y-78538730D01*
X124178579Y-78550705D01*
X124181152Y-78557355D01*
X124605382Y-79604732D01*
X124610870Y-79615935D01*
X124616005Y-79627306D01*
X124619489Y-79633527D01*
X125187065Y-80610681D01*
X125194067Y-80620983D01*
X125200762Y-80631533D01*
X125205088Y-80637201D01*
X125904684Y-81524635D01*
X125913079Y-81533860D01*
X125921182Y-81543348D01*
X125926264Y-81548350D01*
X126743921Y-82328356D01*
X126753513Y-82336291D01*
X126762891Y-82344559D01*
X126768627Y-82348795D01*
X127688030Y-83005810D01*
X127698665Y-83012327D01*
X127709094Y-83019178D01*
X127715370Y-83022564D01*
X128718175Y-83543480D01*
X128729629Y-83548436D01*
X128740913Y-83553746D01*
X128747603Y-83556214D01*
X129813802Y-83930636D01*
X129825834Y-83933928D01*
X129837759Y-83937596D01*
X129844730Y-83939097D01*
X130953048Y-84159556D01*
X130965421Y-84161119D01*
X130977747Y-84163071D01*
X130984860Y-84163575D01*
X132113185Y-84225670D01*
X132125647Y-84225474D01*
X132138133Y-84225670D01*
X132145246Y-84225166D01*
X133271063Y-84127660D01*
X133283379Y-84125709D01*
X133295762Y-84124145D01*
X133302730Y-84122645D01*
X133302734Y-84122644D01*
X133302737Y-84122643D01*
X134403580Y-83867481D01*
X134415502Y-83863814D01*
X134427537Y-83860521D01*
X134434227Y-83858053D01*
X135488138Y-83450325D01*
X135499408Y-83445021D01*
X135510875Y-83440059D01*
X135517151Y-83436673D01*
X136503100Y-82884516D01*
X136513529Y-82877665D01*
X136524164Y-82871148D01*
X136529900Y-82866911D01*
X137428212Y-82181342D01*
X137437577Y-82173085D01*
X137447182Y-82165139D01*
X137452264Y-82160137D01*
X138245017Y-81354831D01*
X138253115Y-81345349D01*
X138261515Y-81336118D01*
X138265841Y-81330449D01*
X138937216Y-80421480D01*
X138943896Y-80410953D01*
X138950913Y-80400628D01*
X138954397Y-80394406D01*
X139491000Y-79399908D01*
X139496128Y-79388551D01*
X139501623Y-79377334D01*
X139504195Y-79370684D01*
X139895319Y-78310497D01*
X139898797Y-78298525D01*
X139902654Y-78286653D01*
X139904264Y-78279706D01*
X140142104Y-77174987D01*
X140143860Y-77162647D01*
X140146007Y-77150347D01*
X140146622Y-77143242D01*
X140211496Y-76227000D01*
X147773001Y-76227000D01*
X147773000Y-132977644D01*
X147768553Y-133000000D01*
X147773000Y-133022355D01*
X147777154Y-133043240D01*
X146829157Y-133991237D01*
X146829157Y-95553752D01*
X146843398Y-95482157D01*
X146829157Y-95410562D01*
X146829157Y-95410558D01*
X146786975Y-95198496D01*
X146666852Y-95018718D01*
X146666847Y-95018713D01*
X146626293Y-94958020D01*
X146565600Y-94917467D01*
X144261621Y-92613488D01*
X144323977Y-92300000D01*
X144217106Y-91762721D01*
X143912762Y-91307238D01*
X143497846Y-91030000D01*
X143912762Y-90752762D01*
X144217106Y-90297279D01*
X144323977Y-89760000D01*
X144217106Y-89222721D01*
X143912762Y-88767238D01*
X143497846Y-88490000D01*
X143912762Y-88212762D01*
X144217106Y-87757279D01*
X144323977Y-87220000D01*
X144217106Y-86682721D01*
X143912762Y-86227238D01*
X143557364Y-85989769D01*
X143801358Y-85875183D01*
X144191645Y-85446924D01*
X144361476Y-85036890D01*
X144240155Y-84807000D01*
X143047000Y-84807000D01*
X143047000Y-84827000D01*
X142793000Y-84827000D01*
X142793000Y-84807000D01*
X141599845Y-84807000D01*
X141478524Y-85036890D01*
X141648355Y-85446924D01*
X142038642Y-85875183D01*
X142282636Y-85989769D01*
X141927238Y-86227238D01*
X141622894Y-86682721D01*
X141516023Y-87220000D01*
X141578379Y-87533488D01*
X139391160Y-89720708D01*
X139330462Y-89761265D01*
X139289905Y-89821963D01*
X139289904Y-89821964D01*
X139169780Y-90001742D01*
X139113357Y-90285402D01*
X139127599Y-90357002D01*
X139127599Y-96548889D01*
X139119089Y-96545364D01*
X138790087Y-96545364D01*
X138486130Y-96671267D01*
X138253491Y-96903906D01*
X138127588Y-97207863D01*
X138127588Y-97536865D01*
X138227588Y-97778287D01*
X138227588Y-99123125D01*
X138087391Y-99065054D01*
X137758389Y-99065054D01*
X137454432Y-99190957D01*
X137221793Y-99423596D01*
X137095890Y-99727553D01*
X137095890Y-100056555D01*
X137188734Y-100280700D01*
X137181649Y-100316318D01*
X137195890Y-100387913D01*
X137195890Y-100387916D01*
X137200561Y-100411399D01*
X137200560Y-135903755D01*
X129697053Y-143407263D01*
X129675623Y-143403000D01*
X129404377Y-143403000D01*
X129002721Y-143482894D01*
X128547238Y-143787238D01*
X128270000Y-144202154D01*
X127992762Y-143787238D01*
X127537279Y-143482894D01*
X127135623Y-143403000D01*
X126864377Y-143403000D01*
X126462721Y-143482894D01*
X126007238Y-143787238D01*
X125730000Y-144202154D01*
X125452762Y-143787238D01*
X125187000Y-143609662D01*
X125187000Y-142074796D01*
X125425032Y-142173392D01*
X125754034Y-142173392D01*
X126057991Y-142047489D01*
X126290630Y-141814850D01*
X126416533Y-141510893D01*
X126416533Y-141181891D01*
X126316533Y-140940469D01*
X126316533Y-100351768D01*
X126416533Y-100110346D01*
X126416533Y-99781344D01*
X126290630Y-99477387D01*
X126057991Y-99244748D01*
X125754034Y-99118845D01*
X125425032Y-99118845D01*
X125121075Y-99244748D01*
X124888436Y-99477387D01*
X124762533Y-99781344D01*
X124762533Y-100110346D01*
X124862533Y-100351768D01*
X124862533Y-119511596D01*
X124624501Y-119413000D01*
X124295499Y-119413000D01*
X123991542Y-119538903D01*
X123917000Y-119613445D01*
X123917000Y-118361593D01*
X123931241Y-118289999D01*
X123917000Y-118218405D01*
X123917000Y-118218401D01*
X123874818Y-118006339D01*
X123714137Y-117765863D01*
X123653439Y-117725306D01*
X121401621Y-115473488D01*
X121463977Y-115160000D01*
X121357106Y-114622721D01*
X121052762Y-114167238D01*
X120637846Y-113890000D01*
X121052762Y-113612762D01*
X121357106Y-113157279D01*
X121463977Y-112620000D01*
X121357106Y-112082721D01*
X121052762Y-111627238D01*
X120637846Y-111350000D01*
X121052762Y-111072762D01*
X121357106Y-110617279D01*
X121463977Y-110080000D01*
X121357106Y-109542721D01*
X121052762Y-109087238D01*
X120637846Y-108810000D01*
X121052762Y-108532762D01*
X121357106Y-108077279D01*
X121463977Y-107540000D01*
X121357106Y-107002721D01*
X121052762Y-106547238D01*
X120637846Y-106270000D01*
X121052762Y-105992762D01*
X121357106Y-105537279D01*
X121463977Y-105000000D01*
X121357106Y-104462721D01*
X121052762Y-104007238D01*
X120637846Y-103730000D01*
X121052762Y-103452762D01*
X121357106Y-102997279D01*
X121463977Y-102460000D01*
X121357106Y-101922721D01*
X121052762Y-101467238D01*
X120637846Y-101190000D01*
X121052762Y-100912762D01*
X121357106Y-100457279D01*
X121463977Y-99920000D01*
X121357106Y-99382721D01*
X121052762Y-98927238D01*
X120637846Y-98650000D01*
X121052762Y-98372762D01*
X121357106Y-97917279D01*
X121463977Y-97380000D01*
X121357106Y-96842721D01*
X121052762Y-96387238D01*
X120637846Y-96110000D01*
X121052762Y-95832762D01*
X121357106Y-95377279D01*
X121463977Y-94840000D01*
X121357106Y-94302721D01*
X121052762Y-93847238D01*
X120637846Y-93570000D01*
X121052762Y-93292762D01*
X121357106Y-92837279D01*
X121463977Y-92300000D01*
X121441349Y-92186240D01*
X121584410Y-92186240D01*
X121604530Y-92287389D01*
X121664117Y-92586954D01*
X121891104Y-92926666D01*
X121976861Y-92983967D01*
X122340776Y-93347882D01*
X122594735Y-93517572D01*
X122995450Y-93597280D01*
X123396166Y-93517572D01*
X123540915Y-93420853D01*
X126532027Y-93420853D01*
X126552147Y-93522002D01*
X126552148Y-130697643D01*
X126552147Y-130697648D01*
X126552147Y-131324211D01*
X126611734Y-131623776D01*
X126838722Y-131963487D01*
X127178433Y-132190474D01*
X127579147Y-132270181D01*
X127979862Y-132190474D01*
X128319573Y-131963487D01*
X128546560Y-131623775D01*
X128606147Y-131324210D01*
X128606147Y-93846249D01*
X130895073Y-91557324D01*
X131660000Y-91557324D01*
X131865625Y-91516423D01*
X132039945Y-91399945D01*
X132156423Y-91225625D01*
X132197324Y-91020000D01*
X132197324Y-90923434D01*
X132357238Y-91162762D01*
X132812721Y-91467106D01*
X133214377Y-91547000D01*
X133485623Y-91547000D01*
X133887279Y-91467106D01*
X134342762Y-91162762D01*
X134647106Y-90707279D01*
X134753977Y-90170000D01*
X134647106Y-89632721D01*
X134342762Y-89177238D01*
X133887279Y-88872894D01*
X133485623Y-88793000D01*
X133214377Y-88793000D01*
X132812721Y-88872894D01*
X132357238Y-89177238D01*
X132197324Y-89416566D01*
X132197324Y-89320000D01*
X132156423Y-89114375D01*
X132039945Y-88940055D01*
X131865625Y-88823577D01*
X131660000Y-88782676D01*
X129960000Y-88782676D01*
X129754375Y-88823577D01*
X129580055Y-88940055D01*
X129463577Y-89114375D01*
X129422676Y-89320000D01*
X129422676Y-90124927D01*
X126924477Y-92623127D01*
X126838721Y-92680427D01*
X126611734Y-93020139D01*
X126569322Y-93233360D01*
X126532027Y-93420853D01*
X123540915Y-93420853D01*
X123735875Y-93290585D01*
X123962862Y-92950876D01*
X124042570Y-92550160D01*
X123962862Y-92149445D01*
X123793172Y-91895486D01*
X123658530Y-91760844D01*
X123658530Y-84323110D01*
X141478524Y-84323110D01*
X141599845Y-84553000D01*
X142793000Y-84553000D01*
X142793000Y-84533000D01*
X143047000Y-84533000D01*
X143047000Y-84553000D01*
X144240155Y-84553000D01*
X144361476Y-84323110D01*
X144191645Y-83913076D01*
X143801358Y-83484817D01*
X143557364Y-83370231D01*
X143912762Y-83132762D01*
X144217106Y-82677279D01*
X144323977Y-82140000D01*
X144217106Y-81602721D01*
X143912762Y-81147238D01*
X143673434Y-80987324D01*
X143770000Y-80987324D01*
X143975625Y-80946423D01*
X144149945Y-80829945D01*
X144266423Y-80655625D01*
X144307324Y-80450000D01*
X144307324Y-78750000D01*
X144266423Y-78544375D01*
X144149945Y-78370055D01*
X143975625Y-78253577D01*
X143770000Y-78212676D01*
X142070000Y-78212676D01*
X141864375Y-78253577D01*
X141690055Y-78370055D01*
X141573577Y-78544375D01*
X141532676Y-78750000D01*
X141532676Y-80450000D01*
X141573577Y-80655625D01*
X141690055Y-80829945D01*
X141864375Y-80946423D01*
X142070000Y-80987324D01*
X142166566Y-80987324D01*
X141927238Y-81147238D01*
X141622894Y-81602721D01*
X141516023Y-82140000D01*
X141622894Y-82677279D01*
X141927238Y-83132762D01*
X142282636Y-83370231D01*
X142038642Y-83484817D01*
X141648355Y-83913076D01*
X141478524Y-84323110D01*
X123658530Y-84323110D01*
X123658530Y-79595500D01*
X123598943Y-79295935D01*
X123371956Y-78956223D01*
X123032245Y-78729236D01*
X122631530Y-78649529D01*
X122230816Y-78729236D01*
X121891105Y-78956223D01*
X121664117Y-79295934D01*
X121604530Y-79595499D01*
X121604530Y-80222062D01*
X121604531Y-80222067D01*
X121604530Y-92085091D01*
X121584410Y-92186240D01*
X121441349Y-92186240D01*
X121357106Y-91762721D01*
X121052762Y-91307238D01*
X120637846Y-91030000D01*
X121052762Y-90752762D01*
X121357106Y-90297279D01*
X121463977Y-89760000D01*
X121357106Y-89222721D01*
X121052762Y-88767238D01*
X120637846Y-88490000D01*
X121052762Y-88212762D01*
X121357106Y-87757279D01*
X121463977Y-87220000D01*
X121357106Y-86682721D01*
X121052762Y-86227238D01*
X120697364Y-85989769D01*
X120941358Y-85875183D01*
X121331645Y-85446924D01*
X121501476Y-85036890D01*
X121380155Y-84807000D01*
X120187000Y-84807000D01*
X120187000Y-84827000D01*
X119933000Y-84827000D01*
X119933000Y-84807000D01*
X118739845Y-84807000D01*
X118618524Y-85036890D01*
X118788355Y-85446924D01*
X119178642Y-85875183D01*
X119422636Y-85989769D01*
X119067238Y-86227238D01*
X118762894Y-86682721D01*
X118656023Y-87220000D01*
X118762894Y-87757279D01*
X119067238Y-88212762D01*
X119482154Y-88490000D01*
X119067238Y-88767238D01*
X118762894Y-89222721D01*
X118656023Y-89760000D01*
X118762894Y-90297279D01*
X119067238Y-90752762D01*
X119482154Y-91030000D01*
X119067238Y-91307238D01*
X118762894Y-91762721D01*
X118656023Y-92300000D01*
X118762894Y-92837279D01*
X119067238Y-93292762D01*
X119482154Y-93570000D01*
X119067238Y-93847238D01*
X118762894Y-94302721D01*
X118656023Y-94840000D01*
X118762894Y-95377279D01*
X119067238Y-95832762D01*
X119482154Y-96110000D01*
X119067238Y-96387238D01*
X118762894Y-96842721D01*
X118656023Y-97380000D01*
X118762894Y-97917279D01*
X119067238Y-98372762D01*
X119482154Y-98650000D01*
X119067238Y-98927238D01*
X118762894Y-99382721D01*
X118656023Y-99920000D01*
X118762894Y-100457279D01*
X119067238Y-100912762D01*
X119482154Y-101190000D01*
X119067238Y-101467238D01*
X118762894Y-101922721D01*
X118656023Y-102460000D01*
X118762894Y-102997279D01*
X119067238Y-103452762D01*
X119482154Y-103730000D01*
X119067238Y-104007238D01*
X118762894Y-104462721D01*
X118656023Y-105000000D01*
X118762894Y-105537279D01*
X119067238Y-105992762D01*
X119482154Y-106270000D01*
X119067238Y-106547238D01*
X118762894Y-107002721D01*
X118656023Y-107540000D01*
X118762894Y-108077279D01*
X119067238Y-108532762D01*
X119482154Y-108810000D01*
X119067238Y-109087238D01*
X118762894Y-109542721D01*
X118656023Y-110080000D01*
X118762894Y-110617279D01*
X119067238Y-111072762D01*
X119482154Y-111350000D01*
X119067238Y-111627238D01*
X118762894Y-112082721D01*
X118656023Y-112620000D01*
X118762894Y-113157279D01*
X119067238Y-113612762D01*
X119482154Y-113890000D01*
X119067238Y-114167238D01*
X118762894Y-114622721D01*
X118656023Y-115160000D01*
X118762894Y-115697279D01*
X119067238Y-116152762D01*
X119482154Y-116430000D01*
X119067238Y-116707238D01*
X118762894Y-117162721D01*
X118656023Y-117700000D01*
X118762894Y-118237279D01*
X119067238Y-118692762D01*
X119482154Y-118970000D01*
X119067238Y-119247238D01*
X118762894Y-119702721D01*
X118656023Y-120240000D01*
X118762894Y-120777279D01*
X119067238Y-121232762D01*
X119482154Y-121510000D01*
X119067238Y-121787238D01*
X118762894Y-122242721D01*
X118656023Y-122780000D01*
X118762894Y-123317279D01*
X119067238Y-123772762D01*
X119522721Y-124077106D01*
X119924377Y-124157000D01*
X120195623Y-124157000D01*
X120597279Y-124077106D01*
X121052762Y-123772762D01*
X121357106Y-123317279D01*
X121463977Y-122780000D01*
X121357106Y-122242721D01*
X121052762Y-121787238D01*
X120637846Y-121510000D01*
X121052762Y-121232762D01*
X121357106Y-120777279D01*
X121463977Y-120240000D01*
X121357106Y-119702721D01*
X121052762Y-119247238D01*
X120637846Y-118970000D01*
X121052762Y-118692762D01*
X121357106Y-118237279D01*
X121463977Y-117700000D01*
X121437188Y-117565320D01*
X122463001Y-118591134D01*
X122463000Y-141958867D01*
X121456562Y-142965306D01*
X121395864Y-143005863D01*
X121355307Y-143066561D01*
X121355306Y-143066562D01*
X121235182Y-143246340D01*
X121206074Y-143392676D01*
X121070000Y-143392676D01*
X120864375Y-143433577D01*
X120690055Y-143550055D01*
X120573577Y-143724375D01*
X120532676Y-143930000D01*
X120532676Y-145630000D01*
X120573577Y-145835625D01*
X120666813Y-145975161D01*
X120531673Y-146110302D01*
X120435000Y-146343691D01*
X120435000Y-147034250D01*
X120593750Y-147193000D01*
X121793000Y-147193000D01*
X121793000Y-147173000D01*
X122047000Y-147173000D01*
X122047000Y-147193000D01*
X124333000Y-147193000D01*
X124333000Y-147173000D01*
X124587000Y-147173000D01*
X124587000Y-147193000D01*
X126873000Y-147193000D01*
X126873000Y-147173000D01*
X127127000Y-147173000D01*
X127127000Y-147193000D01*
X129413000Y-147193000D01*
X129413000Y-147173000D01*
X129667000Y-147173000D01*
X129667000Y-147193000D01*
X131953000Y-147193000D01*
X131953000Y-147173000D01*
X132207000Y-147173000D01*
X132207000Y-147193000D01*
X134493000Y-147193000D01*
X134493000Y-147173000D01*
X134747000Y-147173000D01*
X134747000Y-147193000D01*
X137033000Y-147193000D01*
X137033000Y-147173000D01*
X137287000Y-147173000D01*
X137287000Y-147193000D01*
X139573000Y-147193000D01*
X139573000Y-147173000D01*
X139827000Y-147173000D01*
X139827000Y-147193000D01*
X141020819Y-147193000D01*
X141141486Y-146963108D01*
X140895183Y-146438642D01*
X140466924Y-146048355D01*
X140351720Y-146000639D01*
X140692762Y-145772762D01*
X140997106Y-145317279D01*
X141103977Y-144780000D01*
X140997106Y-144242721D01*
X140692762Y-143787238D01*
X140237279Y-143482894D01*
X139835623Y-143403000D01*
X139564377Y-143403000D01*
X139162721Y-143482894D01*
X138707238Y-143787238D01*
X138430000Y-144202154D01*
X138152762Y-143787238D01*
X137697279Y-143482894D01*
X137295623Y-143403000D01*
X137025132Y-143403000D01*
X141118048Y-139310085D01*
X141178746Y-139269528D01*
X141339427Y-139029052D01*
X141381609Y-138816990D01*
X141381609Y-138816986D01*
X141395850Y-138745391D01*
X141381609Y-138673796D01*
X141381609Y-92326523D01*
X141542812Y-92165320D01*
X141516023Y-92300000D01*
X141622894Y-92837279D01*
X141927238Y-93292762D01*
X142342154Y-93570000D01*
X141927238Y-93847238D01*
X141622894Y-94302721D01*
X141516023Y-94840000D01*
X141622894Y-95377279D01*
X141927238Y-95832762D01*
X142342154Y-96110000D01*
X141927238Y-96387238D01*
X141622894Y-96842721D01*
X141516023Y-97380000D01*
X141622894Y-97917279D01*
X141927238Y-98372762D01*
X142342154Y-98650000D01*
X141927238Y-98927238D01*
X141622894Y-99382721D01*
X141516023Y-99920000D01*
X141622894Y-100457279D01*
X141927238Y-100912762D01*
X142342154Y-101190000D01*
X141927238Y-101467238D01*
X141622894Y-101922721D01*
X141516023Y-102460000D01*
X141622894Y-102997279D01*
X141927238Y-103452762D01*
X142342154Y-103730000D01*
X141927238Y-104007238D01*
X141622894Y-104462721D01*
X141516023Y-105000000D01*
X141622894Y-105537279D01*
X141927238Y-105992762D01*
X142342154Y-106270000D01*
X141927238Y-106547238D01*
X141622894Y-107002721D01*
X141516023Y-107540000D01*
X141622894Y-108077279D01*
X141927238Y-108532762D01*
X142342154Y-108810000D01*
X141927238Y-109087238D01*
X141622894Y-109542721D01*
X141516023Y-110080000D01*
X141622894Y-110617279D01*
X141927238Y-111072762D01*
X142342154Y-111350000D01*
X141927238Y-111627238D01*
X141622894Y-112082721D01*
X141516023Y-112620000D01*
X141622894Y-113157279D01*
X141927238Y-113612762D01*
X142342154Y-113890000D01*
X141927238Y-114167238D01*
X141622894Y-114622721D01*
X141516023Y-115160000D01*
X141622894Y-115697279D01*
X141927238Y-116152762D01*
X142342154Y-116430000D01*
X141927238Y-116707238D01*
X141622894Y-117162721D01*
X141516023Y-117700000D01*
X141622894Y-118237279D01*
X141927238Y-118692762D01*
X142342154Y-118970000D01*
X141927238Y-119247238D01*
X141622894Y-119702721D01*
X141516023Y-120240000D01*
X141622894Y-120777279D01*
X141927238Y-121232762D01*
X142342154Y-121510000D01*
X141927238Y-121787238D01*
X141622894Y-122242721D01*
X141516023Y-122780000D01*
X141622894Y-123317279D01*
X141927238Y-123772762D01*
X141930303Y-123774810D01*
X141930304Y-140665002D01*
X141896501Y-140651000D01*
X141567499Y-140651000D01*
X141263542Y-140776903D01*
X141030903Y-141009542D01*
X140905000Y-141313499D01*
X140905000Y-141642501D01*
X141030903Y-141946458D01*
X141263542Y-142179097D01*
X141504965Y-142279098D01*
X141700807Y-142474940D01*
X141700806Y-155068980D01*
X140076562Y-156693225D01*
X140015864Y-156733782D01*
X139975307Y-156794480D01*
X139975306Y-156794481D01*
X139855182Y-156974259D01*
X139798759Y-157257919D01*
X139806003Y-157294337D01*
X139547238Y-157467238D01*
X139270000Y-157882154D01*
X138992762Y-157467238D01*
X138537279Y-157162894D01*
X138135623Y-157083000D01*
X137864377Y-157083000D01*
X137462721Y-157162894D01*
X137007238Y-157467238D01*
X136702894Y-157922721D01*
X136596023Y-158460000D01*
X136702894Y-158997279D01*
X137007238Y-159452762D01*
X137100384Y-159515000D01*
X137023690Y-159515000D01*
X136790301Y-159611673D01*
X136611673Y-159790302D01*
X136515000Y-160023691D01*
X136515000Y-160714250D01*
X136673750Y-160873000D01*
X137873000Y-160873000D01*
X137873000Y-160853000D01*
X138127000Y-160853000D01*
X138127000Y-160873000D01*
X138147000Y-160873000D01*
X138147000Y-161127000D01*
X138127000Y-161127000D01*
X138127000Y-162326250D01*
X138285750Y-162485000D01*
X138976310Y-162485000D01*
X139209699Y-162388327D01*
X139388327Y-162209698D01*
X139485000Y-161976309D01*
X139485000Y-161899616D01*
X139547238Y-161992762D01*
X140002721Y-162297106D01*
X140404377Y-162377000D01*
X140675623Y-162377000D01*
X141077279Y-162297106D01*
X141532762Y-161992762D01*
X141837106Y-161537279D01*
X141943977Y-161000000D01*
X141837106Y-160462721D01*
X141532762Y-160007238D01*
X141117846Y-159730000D01*
X141532762Y-159452762D01*
X141837106Y-158997279D01*
X141943977Y-158460000D01*
X141837106Y-157922721D01*
X141532762Y-157467238D01*
X141428487Y-157397564D01*
X142031527Y-156794525D01*
X142031527Y-157000674D01*
X142157430Y-157304631D01*
X142390069Y-157537270D01*
X142694026Y-157663173D01*
X142873000Y-157663173D01*
X142873000Y-164773000D01*
X115127000Y-164773000D01*
X115127000Y-161000000D01*
X120056023Y-161000000D01*
X120162894Y-161537279D01*
X120467238Y-161992762D01*
X120922721Y-162297106D01*
X121324377Y-162377000D01*
X121595623Y-162377000D01*
X121997279Y-162297106D01*
X122452762Y-161992762D01*
X122730000Y-161577846D01*
X123007238Y-161992762D01*
X123462721Y-162297106D01*
X123864377Y-162377000D01*
X124135623Y-162377000D01*
X124537279Y-162297106D01*
X124992762Y-161992762D01*
X125270000Y-161577846D01*
X125547238Y-161992762D01*
X126002721Y-162297106D01*
X126404377Y-162377000D01*
X126675623Y-162377000D01*
X127077279Y-162297106D01*
X127532762Y-161992762D01*
X127595000Y-161899616D01*
X127595000Y-161976309D01*
X127691673Y-162209698D01*
X127870301Y-162388327D01*
X128103690Y-162485000D01*
X128794250Y-162485000D01*
X128953000Y-162326250D01*
X128953000Y-161127000D01*
X129207000Y-161127000D01*
X129207000Y-162326250D01*
X129365750Y-162485000D01*
X130056310Y-162485000D01*
X130289699Y-162388327D01*
X130468327Y-162209698D01*
X130565000Y-161976309D01*
X130565000Y-161285750D01*
X136515000Y-161285750D01*
X136515000Y-161976309D01*
X136611673Y-162209698D01*
X136790301Y-162388327D01*
X137023690Y-162485000D01*
X137714250Y-162485000D01*
X137873000Y-162326250D01*
X137873000Y-161127000D01*
X136673750Y-161127000D01*
X136515000Y-161285750D01*
X130565000Y-161285750D01*
X130406250Y-161127000D01*
X129207000Y-161127000D01*
X128953000Y-161127000D01*
X128933000Y-161127000D01*
X128933000Y-160873000D01*
X128953000Y-160873000D01*
X128953000Y-159673750D01*
X129207000Y-159673750D01*
X129207000Y-160873000D01*
X130406250Y-160873000D01*
X130565000Y-160714250D01*
X130565000Y-160023691D01*
X130468327Y-159790302D01*
X130289699Y-159611673D01*
X130056310Y-159515000D01*
X129365750Y-159515000D01*
X129207000Y-159673750D01*
X128953000Y-159673750D01*
X128794250Y-159515000D01*
X128103690Y-159515000D01*
X127870301Y-159611673D01*
X127691673Y-159790302D01*
X127595000Y-160023691D01*
X127595000Y-160100384D01*
X127532762Y-160007238D01*
X127267000Y-159829662D01*
X127267000Y-156604555D01*
X127447097Y-156424458D01*
X127573000Y-156120501D01*
X127573000Y-155791499D01*
X127447097Y-155487542D01*
X127214458Y-155254903D01*
X126910501Y-155129000D01*
X126581499Y-155129000D01*
X126277542Y-155254903D01*
X126044903Y-155487542D01*
X125928448Y-155768690D01*
X125855182Y-155878340D01*
X125798759Y-156162000D01*
X125813001Y-156233600D01*
X125813000Y-159829661D01*
X125547238Y-160007238D01*
X125270000Y-160422154D01*
X124992762Y-160007238D01*
X124537279Y-159702894D01*
X124135623Y-159623000D01*
X123864377Y-159623000D01*
X123462721Y-159702894D01*
X123007238Y-160007238D01*
X122730000Y-160422154D01*
X122452762Y-160007238D01*
X121997279Y-159702894D01*
X121595623Y-159623000D01*
X121324377Y-159623000D01*
X120922721Y-159702894D01*
X120467238Y-160007238D01*
X120162894Y-160462721D01*
X120056023Y-161000000D01*
X115127000Y-161000000D01*
X115127000Y-147605750D01*
X120435000Y-147605750D01*
X120435000Y-148296309D01*
X120531673Y-148529698D01*
X120666813Y-148664839D01*
X120573577Y-148804375D01*
X120532676Y-149010000D01*
X120532676Y-150710000D01*
X120573577Y-150915625D01*
X120690055Y-151089945D01*
X120864375Y-151206423D01*
X121070000Y-151247324D01*
X122770000Y-151247324D01*
X122975625Y-151206423D01*
X123149945Y-151089945D01*
X123266423Y-150915625D01*
X123307324Y-150710000D01*
X123307324Y-150613434D01*
X123467238Y-150852762D01*
X123922721Y-151157106D01*
X124324377Y-151237000D01*
X124595623Y-151237000D01*
X124997279Y-151157106D01*
X125452762Y-150852762D01*
X125730000Y-150437846D01*
X126007238Y-150852762D01*
X126462721Y-151157106D01*
X126864377Y-151237000D01*
X127135623Y-151237000D01*
X127537279Y-151157106D01*
X127992762Y-150852762D01*
X128270000Y-150437846D01*
X128547238Y-150852762D01*
X129002721Y-151157106D01*
X129404377Y-151237000D01*
X129675623Y-151237000D01*
X130077279Y-151157106D01*
X130532762Y-150852762D01*
X130810000Y-150437846D01*
X131087238Y-150852762D01*
X131542721Y-151157106D01*
X131944377Y-151237000D01*
X132215623Y-151237000D01*
X132617279Y-151157106D01*
X133072762Y-150852762D01*
X133350000Y-150437846D01*
X133627238Y-150852762D01*
X134082721Y-151157106D01*
X134484377Y-151237000D01*
X134755623Y-151237000D01*
X135157279Y-151157106D01*
X135612762Y-150852762D01*
X135890000Y-150437846D01*
X136167238Y-150852762D01*
X136622721Y-151157106D01*
X137024377Y-151237000D01*
X137295623Y-151237000D01*
X137697279Y-151157106D01*
X138152762Y-150852762D01*
X138430000Y-150437846D01*
X138707238Y-150852762D01*
X139162721Y-151157106D01*
X139564377Y-151237000D01*
X139835623Y-151237000D01*
X140237279Y-151157106D01*
X140692762Y-150852762D01*
X140997106Y-150397279D01*
X141103977Y-149860000D01*
X140997106Y-149322721D01*
X140692762Y-148867238D01*
X140351720Y-148639361D01*
X140466924Y-148591645D01*
X140895183Y-148201358D01*
X141141486Y-147676892D01*
X141020819Y-147447000D01*
X139827000Y-147447000D01*
X139827000Y-147467000D01*
X139573000Y-147467000D01*
X139573000Y-147447000D01*
X137287000Y-147447000D01*
X137287000Y-147467000D01*
X137033000Y-147467000D01*
X137033000Y-147447000D01*
X134747000Y-147447000D01*
X134747000Y-147467000D01*
X134493000Y-147467000D01*
X134493000Y-147447000D01*
X132207000Y-147447000D01*
X132207000Y-147467000D01*
X131953000Y-147467000D01*
X131953000Y-147447000D01*
X129667000Y-147447000D01*
X129667000Y-147467000D01*
X129413000Y-147467000D01*
X129413000Y-147447000D01*
X127127000Y-147447000D01*
X127127000Y-147467000D01*
X126873000Y-147467000D01*
X126873000Y-147447000D01*
X124587000Y-147447000D01*
X124587000Y-147467000D01*
X124333000Y-147467000D01*
X124333000Y-147447000D01*
X122047000Y-147447000D01*
X122047000Y-147467000D01*
X121793000Y-147467000D01*
X121793000Y-147447000D01*
X120593750Y-147447000D01*
X120435000Y-147605750D01*
X115127000Y-147605750D01*
X115127000Y-84323110D01*
X118618524Y-84323110D01*
X118739845Y-84553000D01*
X119933000Y-84553000D01*
X119933000Y-84533000D01*
X120187000Y-84533000D01*
X120187000Y-84553000D01*
X121380155Y-84553000D01*
X121501476Y-84323110D01*
X121331645Y-83913076D01*
X120941358Y-83484817D01*
X120697364Y-83370231D01*
X121052762Y-83132762D01*
X121357106Y-82677279D01*
X121463977Y-82140000D01*
X121357106Y-81602721D01*
X121052762Y-81147238D01*
X120813434Y-80987324D01*
X120910000Y-80987324D01*
X121115625Y-80946423D01*
X121289945Y-80829945D01*
X121406423Y-80655625D01*
X121447324Y-80450000D01*
X121447324Y-78750000D01*
X121406423Y-78544375D01*
X121289945Y-78370055D01*
X121115625Y-78253577D01*
X120910000Y-78212676D01*
X119210000Y-78212676D01*
X119004375Y-78253577D01*
X118830055Y-78370055D01*
X118713577Y-78544375D01*
X118672676Y-78750000D01*
X118672676Y-80450000D01*
X118713577Y-80655625D01*
X118830055Y-80829945D01*
X119004375Y-80946423D01*
X119210000Y-80987324D01*
X119306566Y-80987324D01*
X119067238Y-81147238D01*
X118762894Y-81602721D01*
X118656023Y-82140000D01*
X118762894Y-82677279D01*
X119067238Y-83132762D01*
X119422636Y-83370231D01*
X119178642Y-83484817D01*
X118788355Y-83913076D01*
X118618524Y-84323110D01*
X115127000Y-84323110D01*
X115127000Y-76227000D01*
X123776538Y-76227000D01*
X123776976Y-76254852D01*
X123776976Y-76254852D01*
G37*
X123776976Y-76254852D02*
X123777515Y-76261075D01*
X123777515Y-76267318D01*
X123778130Y-76274423D01*
X123893307Y-77398570D01*
X123895454Y-77410870D01*
X123897210Y-77423210D01*
X123898820Y-77430157D01*
X124171243Y-78526860D01*
X124175100Y-78538730D01*
X124178579Y-78550705D01*
X124181152Y-78557355D01*
X124605382Y-79604732D01*
X124610870Y-79615935D01*
X124616005Y-79627306D01*
X124619489Y-79633527D01*
X125187065Y-80610681D01*
X125194067Y-80620983D01*
X125200762Y-80631533D01*
X125205088Y-80637201D01*
X125904684Y-81524635D01*
X125913079Y-81533860D01*
X125921182Y-81543348D01*
X125926264Y-81548350D01*
X126743921Y-82328356D01*
X126753513Y-82336291D01*
X126762891Y-82344559D01*
X126768627Y-82348795D01*
X127688030Y-83005810D01*
X127698665Y-83012327D01*
X127709094Y-83019178D01*
X127715370Y-83022564D01*
X128718175Y-83543480D01*
X128729629Y-83548436D01*
X128740913Y-83553746D01*
X128747603Y-83556214D01*
X129813802Y-83930636D01*
X129825834Y-83933928D01*
X129837759Y-83937596D01*
X129844730Y-83939097D01*
X130953048Y-84159556D01*
X130965421Y-84161119D01*
X130977747Y-84163071D01*
X130984860Y-84163575D01*
X132113185Y-84225670D01*
X132125647Y-84225474D01*
X132138133Y-84225670D01*
X132145246Y-84225166D01*
X133271063Y-84127660D01*
X133283379Y-84125709D01*
X133295762Y-84124145D01*
X133302730Y-84122645D01*
X133302734Y-84122644D01*
X133302737Y-84122643D01*
X134403580Y-83867481D01*
X134415502Y-83863814D01*
X134427537Y-83860521D01*
X134434227Y-83858053D01*
X135488138Y-83450325D01*
X135499408Y-83445021D01*
X135510875Y-83440059D01*
X135517151Y-83436673D01*
X136503100Y-82884516D01*
X136513529Y-82877665D01*
X136524164Y-82871148D01*
X136529900Y-82866911D01*
X137428212Y-82181342D01*
X137437577Y-82173085D01*
X137447182Y-82165139D01*
X137452264Y-82160137D01*
X138245017Y-81354831D01*
X138253115Y-81345349D01*
X138261515Y-81336118D01*
X138265841Y-81330449D01*
X138937216Y-80421480D01*
X138943896Y-80410953D01*
X138950913Y-80400628D01*
X138954397Y-80394406D01*
X139491000Y-79399908D01*
X139496128Y-79388551D01*
X139501623Y-79377334D01*
X139504195Y-79370684D01*
X139895319Y-78310497D01*
X139898797Y-78298525D01*
X139902654Y-78286653D01*
X139904264Y-78279706D01*
X140142104Y-77174987D01*
X140143860Y-77162647D01*
X140146007Y-77150347D01*
X140146622Y-77143242D01*
X140211496Y-76227000D01*
X147773001Y-76227000D01*
X147773000Y-132977644D01*
X147768553Y-133000000D01*
X147773000Y-133022355D01*
X147777154Y-133043240D01*
X146829157Y-133991237D01*
X146829157Y-95553752D01*
X146843398Y-95482157D01*
X146829157Y-95410562D01*
X146829157Y-95410558D01*
X146786975Y-95198496D01*
X146666852Y-95018718D01*
X146666847Y-95018713D01*
X146626293Y-94958020D01*
X146565600Y-94917467D01*
X144261621Y-92613488D01*
X144323977Y-92300000D01*
X144217106Y-91762721D01*
X143912762Y-91307238D01*
X143497846Y-91030000D01*
X143912762Y-90752762D01*
X144217106Y-90297279D01*
X144323977Y-89760000D01*
X144217106Y-89222721D01*
X143912762Y-88767238D01*
X143497846Y-88490000D01*
X143912762Y-88212762D01*
X144217106Y-87757279D01*
X144323977Y-87220000D01*
X144217106Y-86682721D01*
X143912762Y-86227238D01*
X143557364Y-85989769D01*
X143801358Y-85875183D01*
X144191645Y-85446924D01*
X144361476Y-85036890D01*
X144240155Y-84807000D01*
X143047000Y-84807000D01*
X143047000Y-84827000D01*
X142793000Y-84827000D01*
X142793000Y-84807000D01*
X141599845Y-84807000D01*
X141478524Y-85036890D01*
X141648355Y-85446924D01*
X142038642Y-85875183D01*
X142282636Y-85989769D01*
X141927238Y-86227238D01*
X141622894Y-86682721D01*
X141516023Y-87220000D01*
X141578379Y-87533488D01*
X139391160Y-89720708D01*
X139330462Y-89761265D01*
X139289905Y-89821963D01*
X139289904Y-89821964D01*
X139169780Y-90001742D01*
X139113357Y-90285402D01*
X139127599Y-90357002D01*
X139127599Y-96548889D01*
X139119089Y-96545364D01*
X138790087Y-96545364D01*
X138486130Y-96671267D01*
X138253491Y-96903906D01*
X138127588Y-97207863D01*
X138127588Y-97536865D01*
X138227588Y-97778287D01*
X138227588Y-99123125D01*
X138087391Y-99065054D01*
X137758389Y-99065054D01*
X137454432Y-99190957D01*
X137221793Y-99423596D01*
X137095890Y-99727553D01*
X137095890Y-100056555D01*
X137188734Y-100280700D01*
X137181649Y-100316318D01*
X137195890Y-100387913D01*
X137195890Y-100387916D01*
X137200561Y-100411399D01*
X137200560Y-135903755D01*
X129697053Y-143407263D01*
X129675623Y-143403000D01*
X129404377Y-143403000D01*
X129002721Y-143482894D01*
X128547238Y-143787238D01*
X128270000Y-144202154D01*
X127992762Y-143787238D01*
X127537279Y-143482894D01*
X127135623Y-143403000D01*
X126864377Y-143403000D01*
X126462721Y-143482894D01*
X126007238Y-143787238D01*
X125730000Y-144202154D01*
X125452762Y-143787238D01*
X125187000Y-143609662D01*
X125187000Y-142074796D01*
X125425032Y-142173392D01*
X125754034Y-142173392D01*
X126057991Y-142047489D01*
X126290630Y-141814850D01*
X126416533Y-141510893D01*
X126416533Y-141181891D01*
X126316533Y-140940469D01*
X126316533Y-100351768D01*
X126416533Y-100110346D01*
X126416533Y-99781344D01*
X126290630Y-99477387D01*
X126057991Y-99244748D01*
X125754034Y-99118845D01*
X125425032Y-99118845D01*
X125121075Y-99244748D01*
X124888436Y-99477387D01*
X124762533Y-99781344D01*
X124762533Y-100110346D01*
X124862533Y-100351768D01*
X124862533Y-119511596D01*
X124624501Y-119413000D01*
X124295499Y-119413000D01*
X123991542Y-119538903D01*
X123917000Y-119613445D01*
X123917000Y-118361593D01*
X123931241Y-118289999D01*
X123917000Y-118218405D01*
X123917000Y-118218401D01*
X123874818Y-118006339D01*
X123714137Y-117765863D01*
X123653439Y-117725306D01*
X121401621Y-115473488D01*
X121463977Y-115160000D01*
X121357106Y-114622721D01*
X121052762Y-114167238D01*
X120637846Y-113890000D01*
X121052762Y-113612762D01*
X121357106Y-113157279D01*
X121463977Y-112620000D01*
X121357106Y-112082721D01*
X121052762Y-111627238D01*
X120637846Y-111350000D01*
X121052762Y-111072762D01*
X121357106Y-110617279D01*
X121463977Y-110080000D01*
X121357106Y-109542721D01*
X121052762Y-109087238D01*
X120637846Y-108810000D01*
X121052762Y-108532762D01*
X121357106Y-108077279D01*
X121463977Y-107540000D01*
X121357106Y-107002721D01*
X121052762Y-106547238D01*
X120637846Y-106270000D01*
X121052762Y-105992762D01*
X121357106Y-105537279D01*
X121463977Y-105000000D01*
X121357106Y-104462721D01*
X121052762Y-104007238D01*
X120637846Y-103730000D01*
X121052762Y-103452762D01*
X121357106Y-102997279D01*
X121463977Y-102460000D01*
X121357106Y-101922721D01*
X121052762Y-101467238D01*
X120637846Y-101190000D01*
X121052762Y-100912762D01*
X121357106Y-100457279D01*
X121463977Y-99920000D01*
X121357106Y-99382721D01*
X121052762Y-98927238D01*
X120637846Y-98650000D01*
X121052762Y-98372762D01*
X121357106Y-97917279D01*
X121463977Y-97380000D01*
X121357106Y-96842721D01*
X121052762Y-96387238D01*
X120637846Y-96110000D01*
X121052762Y-95832762D01*
X121357106Y-95377279D01*
X121463977Y-94840000D01*
X121357106Y-94302721D01*
X121052762Y-93847238D01*
X120637846Y-93570000D01*
X121052762Y-93292762D01*
X121357106Y-92837279D01*
X121463977Y-92300000D01*
X121441349Y-92186240D01*
X121584410Y-92186240D01*
X121604530Y-92287389D01*
X121664117Y-92586954D01*
X121891104Y-92926666D01*
X121976861Y-92983967D01*
X122340776Y-93347882D01*
X122594735Y-93517572D01*
X122995450Y-93597280D01*
X123396166Y-93517572D01*
X123540915Y-93420853D01*
X126532027Y-93420853D01*
X126552147Y-93522002D01*
X126552148Y-130697643D01*
X126552147Y-130697648D01*
X126552147Y-131324211D01*
X126611734Y-131623776D01*
X126838722Y-131963487D01*
X127178433Y-132190474D01*
X127579147Y-132270181D01*
X127979862Y-132190474D01*
X128319573Y-131963487D01*
X128546560Y-131623775D01*
X128606147Y-131324210D01*
X128606147Y-93846249D01*
X130895073Y-91557324D01*
X131660000Y-91557324D01*
X131865625Y-91516423D01*
X132039945Y-91399945D01*
X132156423Y-91225625D01*
X132197324Y-91020000D01*
X132197324Y-90923434D01*
X132357238Y-91162762D01*
X132812721Y-91467106D01*
X133214377Y-91547000D01*
X133485623Y-91547000D01*
X133887279Y-91467106D01*
X134342762Y-91162762D01*
X134647106Y-90707279D01*
X134753977Y-90170000D01*
X134647106Y-89632721D01*
X134342762Y-89177238D01*
X133887279Y-88872894D01*
X133485623Y-88793000D01*
X133214377Y-88793000D01*
X132812721Y-88872894D01*
X132357238Y-89177238D01*
X132197324Y-89416566D01*
X132197324Y-89320000D01*
X132156423Y-89114375D01*
X132039945Y-88940055D01*
X131865625Y-88823577D01*
X131660000Y-88782676D01*
X129960000Y-88782676D01*
X129754375Y-88823577D01*
X129580055Y-88940055D01*
X129463577Y-89114375D01*
X129422676Y-89320000D01*
X129422676Y-90124927D01*
X126924477Y-92623127D01*
X126838721Y-92680427D01*
X126611734Y-93020139D01*
X126569322Y-93233360D01*
X126532027Y-93420853D01*
X123540915Y-93420853D01*
X123735875Y-93290585D01*
X123962862Y-92950876D01*
X124042570Y-92550160D01*
X123962862Y-92149445D01*
X123793172Y-91895486D01*
X123658530Y-91760844D01*
X123658530Y-84323110D01*
X141478524Y-84323110D01*
X141599845Y-84553000D01*
X142793000Y-84553000D01*
X142793000Y-84533000D01*
X143047000Y-84533000D01*
X143047000Y-84553000D01*
X144240155Y-84553000D01*
X144361476Y-84323110D01*
X144191645Y-83913076D01*
X143801358Y-83484817D01*
X143557364Y-83370231D01*
X143912762Y-83132762D01*
X144217106Y-82677279D01*
X144323977Y-82140000D01*
X144217106Y-81602721D01*
X143912762Y-81147238D01*
X143673434Y-80987324D01*
X143770000Y-80987324D01*
X143975625Y-80946423D01*
X144149945Y-80829945D01*
X144266423Y-80655625D01*
X144307324Y-80450000D01*
X144307324Y-78750000D01*
X144266423Y-78544375D01*
X144149945Y-78370055D01*
X143975625Y-78253577D01*
X143770000Y-78212676D01*
X142070000Y-78212676D01*
X141864375Y-78253577D01*
X141690055Y-78370055D01*
X141573577Y-78544375D01*
X141532676Y-78750000D01*
X141532676Y-80450000D01*
X141573577Y-80655625D01*
X141690055Y-80829945D01*
X141864375Y-80946423D01*
X142070000Y-80987324D01*
X142166566Y-80987324D01*
X141927238Y-81147238D01*
X141622894Y-81602721D01*
X141516023Y-82140000D01*
X141622894Y-82677279D01*
X141927238Y-83132762D01*
X142282636Y-83370231D01*
X142038642Y-83484817D01*
X141648355Y-83913076D01*
X141478524Y-84323110D01*
X123658530Y-84323110D01*
X123658530Y-79595500D01*
X123598943Y-79295935D01*
X123371956Y-78956223D01*
X123032245Y-78729236D01*
X122631530Y-78649529D01*
X122230816Y-78729236D01*
X121891105Y-78956223D01*
X121664117Y-79295934D01*
X121604530Y-79595499D01*
X121604530Y-80222062D01*
X121604531Y-80222067D01*
X121604530Y-92085091D01*
X121584410Y-92186240D01*
X121441349Y-92186240D01*
X121357106Y-91762721D01*
X121052762Y-91307238D01*
X120637846Y-91030000D01*
X121052762Y-90752762D01*
X121357106Y-90297279D01*
X121463977Y-89760000D01*
X121357106Y-89222721D01*
X121052762Y-88767238D01*
X120637846Y-88490000D01*
X121052762Y-88212762D01*
X121357106Y-87757279D01*
X121463977Y-87220000D01*
X121357106Y-86682721D01*
X121052762Y-86227238D01*
X120697364Y-85989769D01*
X120941358Y-85875183D01*
X121331645Y-85446924D01*
X121501476Y-85036890D01*
X121380155Y-84807000D01*
X120187000Y-84807000D01*
X120187000Y-84827000D01*
X119933000Y-84827000D01*
X119933000Y-84807000D01*
X118739845Y-84807000D01*
X118618524Y-85036890D01*
X118788355Y-85446924D01*
X119178642Y-85875183D01*
X119422636Y-85989769D01*
X119067238Y-86227238D01*
X118762894Y-86682721D01*
X118656023Y-87220000D01*
X118762894Y-87757279D01*
X119067238Y-88212762D01*
X119482154Y-88490000D01*
X119067238Y-88767238D01*
X118762894Y-89222721D01*
X118656023Y-89760000D01*
X118762894Y-90297279D01*
X119067238Y-90752762D01*
X119482154Y-91030000D01*
X119067238Y-91307238D01*
X118762894Y-91762721D01*
X118656023Y-92300000D01*
X118762894Y-92837279D01*
X119067238Y-93292762D01*
X119482154Y-93570000D01*
X119067238Y-93847238D01*
X118762894Y-94302721D01*
X118656023Y-94840000D01*
X118762894Y-95377279D01*
X119067238Y-95832762D01*
X119482154Y-96110000D01*
X119067238Y-96387238D01*
X118762894Y-96842721D01*
X118656023Y-97380000D01*
X118762894Y-97917279D01*
X119067238Y-98372762D01*
X119482154Y-98650000D01*
X119067238Y-98927238D01*
X118762894Y-99382721D01*
X118656023Y-99920000D01*
X118762894Y-100457279D01*
X119067238Y-100912762D01*
X119482154Y-101190000D01*
X119067238Y-101467238D01*
X118762894Y-101922721D01*
X118656023Y-102460000D01*
X118762894Y-102997279D01*
X119067238Y-103452762D01*
X119482154Y-103730000D01*
X119067238Y-104007238D01*
X118762894Y-104462721D01*
X118656023Y-105000000D01*
X118762894Y-105537279D01*
X119067238Y-105992762D01*
X119482154Y-106270000D01*
X119067238Y-106547238D01*
X118762894Y-107002721D01*
X118656023Y-107540000D01*
X118762894Y-108077279D01*
X119067238Y-108532762D01*
X119482154Y-108810000D01*
X119067238Y-109087238D01*
X118762894Y-109542721D01*
X118656023Y-110080000D01*
X118762894Y-110617279D01*
X119067238Y-111072762D01*
X119482154Y-111350000D01*
X119067238Y-111627238D01*
X118762894Y-112082721D01*
X118656023Y-112620000D01*
X118762894Y-113157279D01*
X119067238Y-113612762D01*
X119482154Y-113890000D01*
X119067238Y-114167238D01*
X118762894Y-114622721D01*
X118656023Y-115160000D01*
X118762894Y-115697279D01*
X119067238Y-116152762D01*
X119482154Y-116430000D01*
X119067238Y-116707238D01*
X118762894Y-117162721D01*
X118656023Y-117700000D01*
X118762894Y-118237279D01*
X119067238Y-118692762D01*
X119482154Y-118970000D01*
X119067238Y-119247238D01*
X118762894Y-119702721D01*
X118656023Y-120240000D01*
X118762894Y-120777279D01*
X119067238Y-121232762D01*
X119482154Y-121510000D01*
X119067238Y-121787238D01*
X118762894Y-122242721D01*
X118656023Y-122780000D01*
X118762894Y-123317279D01*
X119067238Y-123772762D01*
X119522721Y-124077106D01*
X119924377Y-124157000D01*
X120195623Y-124157000D01*
X120597279Y-124077106D01*
X121052762Y-123772762D01*
X121357106Y-123317279D01*
X121463977Y-122780000D01*
X121357106Y-122242721D01*
X121052762Y-121787238D01*
X120637846Y-121510000D01*
X121052762Y-121232762D01*
X121357106Y-120777279D01*
X121463977Y-120240000D01*
X121357106Y-119702721D01*
X121052762Y-119247238D01*
X120637846Y-118970000D01*
X121052762Y-118692762D01*
X121357106Y-118237279D01*
X121463977Y-117700000D01*
X121437188Y-117565320D01*
X122463001Y-118591134D01*
X122463000Y-141958867D01*
X121456562Y-142965306D01*
X121395864Y-143005863D01*
X121355307Y-143066561D01*
X121355306Y-143066562D01*
X121235182Y-143246340D01*
X121206074Y-143392676D01*
X121070000Y-143392676D01*
X120864375Y-143433577D01*
X120690055Y-143550055D01*
X120573577Y-143724375D01*
X120532676Y-143930000D01*
X120532676Y-145630000D01*
X120573577Y-145835625D01*
X120666813Y-145975161D01*
X120531673Y-146110302D01*
X120435000Y-146343691D01*
X120435000Y-147034250D01*
X120593750Y-147193000D01*
X121793000Y-147193000D01*
X121793000Y-147173000D01*
X122047000Y-147173000D01*
X122047000Y-147193000D01*
X124333000Y-147193000D01*
X124333000Y-147173000D01*
X124587000Y-147173000D01*
X124587000Y-147193000D01*
X126873000Y-147193000D01*
X126873000Y-147173000D01*
X127127000Y-147173000D01*
X127127000Y-147193000D01*
X129413000Y-147193000D01*
X129413000Y-147173000D01*
X129667000Y-147173000D01*
X129667000Y-147193000D01*
X131953000Y-147193000D01*
X131953000Y-147173000D01*
X132207000Y-147173000D01*
X132207000Y-147193000D01*
X134493000Y-147193000D01*
X134493000Y-147173000D01*
X134747000Y-147173000D01*
X134747000Y-147193000D01*
X137033000Y-147193000D01*
X137033000Y-147173000D01*
X137287000Y-147173000D01*
X137287000Y-147193000D01*
X139573000Y-147193000D01*
X139573000Y-147173000D01*
X139827000Y-147173000D01*
X139827000Y-147193000D01*
X141020819Y-147193000D01*
X141141486Y-146963108D01*
X140895183Y-146438642D01*
X140466924Y-146048355D01*
X140351720Y-146000639D01*
X140692762Y-145772762D01*
X140997106Y-145317279D01*
X141103977Y-144780000D01*
X140997106Y-144242721D01*
X140692762Y-143787238D01*
X140237279Y-143482894D01*
X139835623Y-143403000D01*
X139564377Y-143403000D01*
X139162721Y-143482894D01*
X138707238Y-143787238D01*
X138430000Y-144202154D01*
X138152762Y-143787238D01*
X137697279Y-143482894D01*
X137295623Y-143403000D01*
X137025132Y-143403000D01*
X141118048Y-139310085D01*
X141178746Y-139269528D01*
X141339427Y-139029052D01*
X141381609Y-138816990D01*
X141381609Y-138816986D01*
X141395850Y-138745391D01*
X141381609Y-138673796D01*
X141381609Y-92326523D01*
X141542812Y-92165320D01*
X141516023Y-92300000D01*
X141622894Y-92837279D01*
X141927238Y-93292762D01*
X142342154Y-93570000D01*
X141927238Y-93847238D01*
X141622894Y-94302721D01*
X141516023Y-94840000D01*
X141622894Y-95377279D01*
X141927238Y-95832762D01*
X142342154Y-96110000D01*
X141927238Y-96387238D01*
X141622894Y-96842721D01*
X141516023Y-97380000D01*
X141622894Y-97917279D01*
X141927238Y-98372762D01*
X142342154Y-98650000D01*
X141927238Y-98927238D01*
X141622894Y-99382721D01*
X141516023Y-99920000D01*
X141622894Y-100457279D01*
X141927238Y-100912762D01*
X142342154Y-101190000D01*
X141927238Y-101467238D01*
X141622894Y-101922721D01*
X141516023Y-102460000D01*
X141622894Y-102997279D01*
X141927238Y-103452762D01*
X142342154Y-103730000D01*
X141927238Y-104007238D01*
X141622894Y-104462721D01*
X141516023Y-105000000D01*
X141622894Y-105537279D01*
X141927238Y-105992762D01*
X142342154Y-106270000D01*
X141927238Y-106547238D01*
X141622894Y-107002721D01*
X141516023Y-107540000D01*
X141622894Y-108077279D01*
X141927238Y-108532762D01*
X142342154Y-108810000D01*
X141927238Y-109087238D01*
X141622894Y-109542721D01*
X141516023Y-110080000D01*
X141622894Y-110617279D01*
X141927238Y-111072762D01*
X142342154Y-111350000D01*
X141927238Y-111627238D01*
X141622894Y-112082721D01*
X141516023Y-112620000D01*
X141622894Y-113157279D01*
X141927238Y-113612762D01*
X142342154Y-113890000D01*
X141927238Y-114167238D01*
X141622894Y-114622721D01*
X141516023Y-115160000D01*
X141622894Y-115697279D01*
X141927238Y-116152762D01*
X142342154Y-116430000D01*
X141927238Y-116707238D01*
X141622894Y-117162721D01*
X141516023Y-117700000D01*
X141622894Y-118237279D01*
X141927238Y-118692762D01*
X142342154Y-118970000D01*
X141927238Y-119247238D01*
X141622894Y-119702721D01*
X141516023Y-120240000D01*
X141622894Y-120777279D01*
X141927238Y-121232762D01*
X142342154Y-121510000D01*
X141927238Y-121787238D01*
X141622894Y-122242721D01*
X141516023Y-122780000D01*
X141622894Y-123317279D01*
X141927238Y-123772762D01*
X141930303Y-123774810D01*
X141930304Y-140665002D01*
X141896501Y-140651000D01*
X141567499Y-140651000D01*
X141263542Y-140776903D01*
X141030903Y-141009542D01*
X140905000Y-141313499D01*
X140905000Y-141642501D01*
X141030903Y-141946458D01*
X141263542Y-142179097D01*
X141504965Y-142279098D01*
X141700807Y-142474940D01*
X141700806Y-155068980D01*
X140076562Y-156693225D01*
X140015864Y-156733782D01*
X139975307Y-156794480D01*
X139975306Y-156794481D01*
X139855182Y-156974259D01*
X139798759Y-157257919D01*
X139806003Y-157294337D01*
X139547238Y-157467238D01*
X139270000Y-157882154D01*
X138992762Y-157467238D01*
X138537279Y-157162894D01*
X138135623Y-157083000D01*
X137864377Y-157083000D01*
X137462721Y-157162894D01*
X137007238Y-157467238D01*
X136702894Y-157922721D01*
X136596023Y-158460000D01*
X136702894Y-158997279D01*
X137007238Y-159452762D01*
X137100384Y-159515000D01*
X137023690Y-159515000D01*
X136790301Y-159611673D01*
X136611673Y-159790302D01*
X136515000Y-160023691D01*
X136515000Y-160714250D01*
X136673750Y-160873000D01*
X137873000Y-160873000D01*
X137873000Y-160853000D01*
X138127000Y-160853000D01*
X138127000Y-160873000D01*
X138147000Y-160873000D01*
X138147000Y-161127000D01*
X138127000Y-161127000D01*
X138127000Y-162326250D01*
X138285750Y-162485000D01*
X138976310Y-162485000D01*
X139209699Y-162388327D01*
X139388327Y-162209698D01*
X139485000Y-161976309D01*
X139485000Y-161899616D01*
X139547238Y-161992762D01*
X140002721Y-162297106D01*
X140404377Y-162377000D01*
X140675623Y-162377000D01*
X141077279Y-162297106D01*
X141532762Y-161992762D01*
X141837106Y-161537279D01*
X141943977Y-161000000D01*
X141837106Y-160462721D01*
X141532762Y-160007238D01*
X141117846Y-159730000D01*
X141532762Y-159452762D01*
X141837106Y-158997279D01*
X141943977Y-158460000D01*
X141837106Y-157922721D01*
X141532762Y-157467238D01*
X141428487Y-157397564D01*
X142031527Y-156794525D01*
X142031527Y-157000674D01*
X142157430Y-157304631D01*
X142390069Y-157537270D01*
X142694026Y-157663173D01*
X142873000Y-157663173D01*
X142873000Y-164773000D01*
X115127000Y-164773000D01*
X115127000Y-161000000D01*
X120056023Y-161000000D01*
X120162894Y-161537279D01*
X120467238Y-161992762D01*
X120922721Y-162297106D01*
X121324377Y-162377000D01*
X121595623Y-162377000D01*
X121997279Y-162297106D01*
X122452762Y-161992762D01*
X122730000Y-161577846D01*
X123007238Y-161992762D01*
X123462721Y-162297106D01*
X123864377Y-162377000D01*
X124135623Y-162377000D01*
X124537279Y-162297106D01*
X124992762Y-161992762D01*
X125270000Y-161577846D01*
X125547238Y-161992762D01*
X126002721Y-162297106D01*
X126404377Y-162377000D01*
X126675623Y-162377000D01*
X127077279Y-162297106D01*
X127532762Y-161992762D01*
X127595000Y-161899616D01*
X127595000Y-161976309D01*
X127691673Y-162209698D01*
X127870301Y-162388327D01*
X128103690Y-162485000D01*
X128794250Y-162485000D01*
X128953000Y-162326250D01*
X128953000Y-161127000D01*
X129207000Y-161127000D01*
X129207000Y-162326250D01*
X129365750Y-162485000D01*
X130056310Y-162485000D01*
X130289699Y-162388327D01*
X130468327Y-162209698D01*
X130565000Y-161976309D01*
X130565000Y-161285750D01*
X136515000Y-161285750D01*
X136515000Y-161976309D01*
X136611673Y-162209698D01*
X136790301Y-162388327D01*
X137023690Y-162485000D01*
X137714250Y-162485000D01*
X137873000Y-162326250D01*
X137873000Y-161127000D01*
X136673750Y-161127000D01*
X136515000Y-161285750D01*
X130565000Y-161285750D01*
X130406250Y-161127000D01*
X129207000Y-161127000D01*
X128953000Y-161127000D01*
X128933000Y-161127000D01*
X128933000Y-160873000D01*
X128953000Y-160873000D01*
X128953000Y-159673750D01*
X129207000Y-159673750D01*
X129207000Y-160873000D01*
X130406250Y-160873000D01*
X130565000Y-160714250D01*
X130565000Y-160023691D01*
X130468327Y-159790302D01*
X130289699Y-159611673D01*
X130056310Y-159515000D01*
X129365750Y-159515000D01*
X129207000Y-159673750D01*
X128953000Y-159673750D01*
X128794250Y-159515000D01*
X128103690Y-159515000D01*
X127870301Y-159611673D01*
X127691673Y-159790302D01*
X127595000Y-160023691D01*
X127595000Y-160100384D01*
X127532762Y-160007238D01*
X127267000Y-159829662D01*
X127267000Y-156604555D01*
X127447097Y-156424458D01*
X127573000Y-156120501D01*
X127573000Y-155791499D01*
X127447097Y-155487542D01*
X127214458Y-155254903D01*
X126910501Y-155129000D01*
X126581499Y-155129000D01*
X126277542Y-155254903D01*
X126044903Y-155487542D01*
X125928448Y-155768690D01*
X125855182Y-155878340D01*
X125798759Y-156162000D01*
X125813001Y-156233600D01*
X125813000Y-159829661D01*
X125547238Y-160007238D01*
X125270000Y-160422154D01*
X124992762Y-160007238D01*
X124537279Y-159702894D01*
X124135623Y-159623000D01*
X123864377Y-159623000D01*
X123462721Y-159702894D01*
X123007238Y-160007238D01*
X122730000Y-160422154D01*
X122452762Y-160007238D01*
X121997279Y-159702894D01*
X121595623Y-159623000D01*
X121324377Y-159623000D01*
X120922721Y-159702894D01*
X120467238Y-160007238D01*
X120162894Y-160462721D01*
X120056023Y-161000000D01*
X115127000Y-161000000D01*
X115127000Y-147605750D01*
X120435000Y-147605750D01*
X120435000Y-148296309D01*
X120531673Y-148529698D01*
X120666813Y-148664839D01*
X120573577Y-148804375D01*
X120532676Y-149010000D01*
X120532676Y-150710000D01*
X120573577Y-150915625D01*
X120690055Y-151089945D01*
X120864375Y-151206423D01*
X121070000Y-151247324D01*
X122770000Y-151247324D01*
X122975625Y-151206423D01*
X123149945Y-151089945D01*
X123266423Y-150915625D01*
X123307324Y-150710000D01*
X123307324Y-150613434D01*
X123467238Y-150852762D01*
X123922721Y-151157106D01*
X124324377Y-151237000D01*
X124595623Y-151237000D01*
X124997279Y-151157106D01*
X125452762Y-150852762D01*
X125730000Y-150437846D01*
X126007238Y-150852762D01*
X126462721Y-151157106D01*
X126864377Y-151237000D01*
X127135623Y-151237000D01*
X127537279Y-151157106D01*
X127992762Y-150852762D01*
X128270000Y-150437846D01*
X128547238Y-150852762D01*
X129002721Y-151157106D01*
X129404377Y-151237000D01*
X129675623Y-151237000D01*
X130077279Y-151157106D01*
X130532762Y-150852762D01*
X130810000Y-150437846D01*
X131087238Y-150852762D01*
X131542721Y-151157106D01*
X131944377Y-151237000D01*
X132215623Y-151237000D01*
X132617279Y-151157106D01*
X133072762Y-150852762D01*
X133350000Y-150437846D01*
X133627238Y-150852762D01*
X134082721Y-151157106D01*
X134484377Y-151237000D01*
X134755623Y-151237000D01*
X135157279Y-151157106D01*
X135612762Y-150852762D01*
X135890000Y-150437846D01*
X136167238Y-150852762D01*
X136622721Y-151157106D01*
X137024377Y-151237000D01*
X137295623Y-151237000D01*
X137697279Y-151157106D01*
X138152762Y-150852762D01*
X138430000Y-150437846D01*
X138707238Y-150852762D01*
X139162721Y-151157106D01*
X139564377Y-151237000D01*
X139835623Y-151237000D01*
X140237279Y-151157106D01*
X140692762Y-150852762D01*
X140997106Y-150397279D01*
X141103977Y-149860000D01*
X140997106Y-149322721D01*
X140692762Y-148867238D01*
X140351720Y-148639361D01*
X140466924Y-148591645D01*
X140895183Y-148201358D01*
X141141486Y-147676892D01*
X141020819Y-147447000D01*
X139827000Y-147447000D01*
X139827000Y-147467000D01*
X139573000Y-147467000D01*
X139573000Y-147447000D01*
X137287000Y-147447000D01*
X137287000Y-147467000D01*
X137033000Y-147467000D01*
X137033000Y-147447000D01*
X134747000Y-147447000D01*
X134747000Y-147467000D01*
X134493000Y-147467000D01*
X134493000Y-147447000D01*
X132207000Y-147447000D01*
X132207000Y-147467000D01*
X131953000Y-147467000D01*
X131953000Y-147447000D01*
X129667000Y-147447000D01*
X129667000Y-147467000D01*
X129413000Y-147467000D01*
X129413000Y-147447000D01*
X127127000Y-147447000D01*
X127127000Y-147467000D01*
X126873000Y-147467000D01*
X126873000Y-147447000D01*
X124587000Y-147447000D01*
X124587000Y-147467000D01*
X124333000Y-147467000D01*
X124333000Y-147447000D01*
X122047000Y-147447000D01*
X122047000Y-147467000D01*
X121793000Y-147467000D01*
X121793000Y-147447000D01*
X120593750Y-147447000D01*
X120435000Y-147605750D01*
X115127000Y-147605750D01*
X115127000Y-84323110D01*
X118618524Y-84323110D01*
X118739845Y-84553000D01*
X119933000Y-84553000D01*
X119933000Y-84533000D01*
X120187000Y-84533000D01*
X120187000Y-84553000D01*
X121380155Y-84553000D01*
X121501476Y-84323110D01*
X121331645Y-83913076D01*
X120941358Y-83484817D01*
X120697364Y-83370231D01*
X121052762Y-83132762D01*
X121357106Y-82677279D01*
X121463977Y-82140000D01*
X121357106Y-81602721D01*
X121052762Y-81147238D01*
X120813434Y-80987324D01*
X120910000Y-80987324D01*
X121115625Y-80946423D01*
X121289945Y-80829945D01*
X121406423Y-80655625D01*
X121447324Y-80450000D01*
X121447324Y-78750000D01*
X121406423Y-78544375D01*
X121289945Y-78370055D01*
X121115625Y-78253577D01*
X120910000Y-78212676D01*
X119210000Y-78212676D01*
X119004375Y-78253577D01*
X118830055Y-78370055D01*
X118713577Y-78544375D01*
X118672676Y-78750000D01*
X118672676Y-80450000D01*
X118713577Y-80655625D01*
X118830055Y-80829945D01*
X119004375Y-80946423D01*
X119210000Y-80987324D01*
X119306566Y-80987324D01*
X119067238Y-81147238D01*
X118762894Y-81602721D01*
X118656023Y-82140000D01*
X118762894Y-82677279D01*
X119067238Y-83132762D01*
X119422636Y-83370231D01*
X119178642Y-83484817D01*
X118788355Y-83913076D01*
X118618524Y-84323110D01*
X115127000Y-84323110D01*
X115127000Y-76227000D01*
X123776538Y-76227000D01*
X123776976Y-76254852D01*
G04 #@! TD*
M02*
