G04 #@! TF.GenerationSoftware,KiCad,Pcbnew,5.0.0*
G04 #@! TF.CreationDate,2018-07-16T21:17:55+02:00*
G04 #@! TF.ProjectId,Heltec_Node,48656C7465635F4E6F64652E6B696361,rev?*
G04 #@! TF.SameCoordinates,Original*
G04 #@! TF.FileFunction,Legend,Bot*
G04 #@! TF.FilePolarity,Positive*
%FSLAX46Y46*%
G04 Gerber Fmt 4.6, Leading zero omitted, Abs format (unit mm)*
G04 Created by KiCad (PCBNEW 5.0.0) date Mon Jul 16 21:17:55 2018*
%MOMM*%
%LPD*%
G01*
G04 APERTURE LIST*
%ADD10C,0.300000*%
%ADD11C,0.010000*%
G04 APERTURE END LIST*
D10*
X138396428Y-125042857D02*
X139896428Y-125042857D01*
X139896428Y-124685714D01*
X139825000Y-124471428D01*
X139682142Y-124328571D01*
X139539285Y-124257142D01*
X139253571Y-124185714D01*
X139039285Y-124185714D01*
X138753571Y-124257142D01*
X138610714Y-124328571D01*
X138467857Y-124471428D01*
X138396428Y-124685714D01*
X138396428Y-125042857D01*
X138467857Y-122971428D02*
X138396428Y-123114285D01*
X138396428Y-123400000D01*
X138467857Y-123542857D01*
X138610714Y-123614285D01*
X139182142Y-123614285D01*
X139325000Y-123542857D01*
X139396428Y-123400000D01*
X139396428Y-123114285D01*
X139325000Y-122971428D01*
X139182142Y-122900000D01*
X139039285Y-122900000D01*
X138896428Y-123614285D01*
X138467857Y-122328571D02*
X138396428Y-122185714D01*
X138396428Y-121900000D01*
X138467857Y-121757142D01*
X138610714Y-121685714D01*
X138682142Y-121685714D01*
X138825000Y-121757142D01*
X138896428Y-121900000D01*
X138896428Y-122114285D01*
X138967857Y-122257142D01*
X139110714Y-122328571D01*
X139182142Y-122328571D01*
X139325000Y-122257142D01*
X139396428Y-122114285D01*
X139396428Y-121900000D01*
X139325000Y-121757142D01*
X138396428Y-121042857D02*
X139396428Y-121042857D01*
X139896428Y-121042857D02*
X139825000Y-121114285D01*
X139753571Y-121042857D01*
X139825000Y-120971428D01*
X139896428Y-121042857D01*
X139753571Y-121042857D01*
X139396428Y-119685714D02*
X138182142Y-119685714D01*
X138039285Y-119757142D01*
X137967857Y-119828571D01*
X137896428Y-119971428D01*
X137896428Y-120185714D01*
X137967857Y-120328571D01*
X138467857Y-119685714D02*
X138396428Y-119828571D01*
X138396428Y-120114285D01*
X138467857Y-120257142D01*
X138539285Y-120328571D01*
X138682142Y-120400000D01*
X139110714Y-120400000D01*
X139253571Y-120328571D01*
X139325000Y-120257142D01*
X139396428Y-120114285D01*
X139396428Y-119828571D01*
X139325000Y-119685714D01*
X139396428Y-118971428D02*
X138396428Y-118971428D01*
X139253571Y-118971428D02*
X139325000Y-118900000D01*
X139396428Y-118757142D01*
X139396428Y-118542857D01*
X139325000Y-118400000D01*
X139182142Y-118328571D01*
X138396428Y-118328571D01*
X138467857Y-117042857D02*
X138396428Y-117185714D01*
X138396428Y-117471428D01*
X138467857Y-117614285D01*
X138610714Y-117685714D01*
X139182142Y-117685714D01*
X139325000Y-117614285D01*
X139396428Y-117471428D01*
X139396428Y-117185714D01*
X139325000Y-117042857D01*
X139182142Y-116971428D01*
X139039285Y-116971428D01*
X138896428Y-117685714D01*
X138396428Y-115685714D02*
X139896428Y-115685714D01*
X138467857Y-115685714D02*
X138396428Y-115828571D01*
X138396428Y-116114285D01*
X138467857Y-116257142D01*
X138539285Y-116328571D01*
X138682142Y-116400000D01*
X139110714Y-116400000D01*
X139253571Y-116328571D01*
X139325000Y-116257142D01*
X139396428Y-116114285D01*
X139396428Y-115828571D01*
X139325000Y-115685714D01*
X138396428Y-113828571D02*
X139396428Y-113828571D01*
X139896428Y-113828571D02*
X139825000Y-113900000D01*
X139753571Y-113828571D01*
X139825000Y-113757142D01*
X139896428Y-113828571D01*
X139753571Y-113828571D01*
X139396428Y-113114285D02*
X138396428Y-113114285D01*
X139253571Y-113114285D02*
X139325000Y-113042857D01*
X139396428Y-112900000D01*
X139396428Y-112685714D01*
X139325000Y-112542857D01*
X139182142Y-112471428D01*
X138396428Y-112471428D01*
X139396428Y-110828571D02*
X139396428Y-110257142D01*
X139896428Y-110614285D02*
X138610714Y-110614285D01*
X138467857Y-110542857D01*
X138396428Y-110400000D01*
X138396428Y-110257142D01*
X138396428Y-109757142D02*
X139896428Y-109757142D01*
X138396428Y-109114285D02*
X139182142Y-109114285D01*
X139325000Y-109185714D01*
X139396428Y-109328571D01*
X139396428Y-109542857D01*
X139325000Y-109685714D01*
X139253571Y-109757142D01*
X138467857Y-107828571D02*
X138396428Y-107971428D01*
X138396428Y-108257142D01*
X138467857Y-108400000D01*
X138610714Y-108471428D01*
X139182142Y-108471428D01*
X139325000Y-108400000D01*
X139396428Y-108257142D01*
X139396428Y-107971428D01*
X139325000Y-107828571D01*
X139182142Y-107757142D01*
X139039285Y-107757142D01*
X138896428Y-108471428D01*
X138467857Y-106042857D02*
X138396428Y-105828571D01*
X138396428Y-105471428D01*
X138467857Y-105328571D01*
X138539285Y-105257142D01*
X138682142Y-105185714D01*
X138825000Y-105185714D01*
X138967857Y-105257142D01*
X139039285Y-105328571D01*
X139110714Y-105471428D01*
X139182142Y-105757142D01*
X139253571Y-105900000D01*
X139325000Y-105971428D01*
X139467857Y-106042857D01*
X139610714Y-106042857D01*
X139753571Y-105971428D01*
X139825000Y-105900000D01*
X139896428Y-105757142D01*
X139896428Y-105400000D01*
X139825000Y-105185714D01*
X139396428Y-104685714D02*
X138396428Y-104400000D01*
X139110714Y-104114285D01*
X138396428Y-103828571D01*
X139396428Y-103542857D01*
X138396428Y-102971428D02*
X139396428Y-102971428D01*
X139896428Y-102971428D02*
X139825000Y-103042857D01*
X139753571Y-102971428D01*
X139825000Y-102900000D01*
X139896428Y-102971428D01*
X139753571Y-102971428D01*
X138467857Y-102328571D02*
X138396428Y-102185714D01*
X138396428Y-101900000D01*
X138467857Y-101757142D01*
X138610714Y-101685714D01*
X138682142Y-101685714D01*
X138825000Y-101757142D01*
X138896428Y-101900000D01*
X138896428Y-102114285D01*
X138967857Y-102257142D01*
X139110714Y-102328571D01*
X139182142Y-102328571D01*
X139325000Y-102257142D01*
X139396428Y-102114285D01*
X139396428Y-101900000D01*
X139325000Y-101757142D01*
X138467857Y-101114285D02*
X138396428Y-100971428D01*
X138396428Y-100685714D01*
X138467857Y-100542857D01*
X138610714Y-100471428D01*
X138682142Y-100471428D01*
X138825000Y-100542857D01*
X138896428Y-100685714D01*
X138896428Y-100900000D01*
X138967857Y-101042857D01*
X139110714Y-101114285D01*
X139182142Y-101114285D01*
X139325000Y-101042857D01*
X139396428Y-100900000D01*
X139396428Y-100685714D01*
X139325000Y-100542857D01*
X138825000Y-98757142D02*
X138825000Y-98042857D01*
X138396428Y-98900000D02*
X139896428Y-98400000D01*
X138396428Y-97900000D01*
X138396428Y-97185714D02*
X138467857Y-97328571D01*
X138610714Y-97400000D01*
X139896428Y-97400000D01*
X139396428Y-96614285D02*
X137896428Y-96614285D01*
X139325000Y-96614285D02*
X139396428Y-96471428D01*
X139396428Y-96185714D01*
X139325000Y-96042857D01*
X139253571Y-95971428D01*
X139110714Y-95900000D01*
X138682142Y-95900000D01*
X138539285Y-95971428D01*
X138467857Y-96042857D01*
X138396428Y-96185714D01*
X138396428Y-96471428D01*
X138467857Y-96614285D01*
X138467857Y-95328571D02*
X138396428Y-95185714D01*
X138396428Y-94900000D01*
X138467857Y-94757142D01*
X138610714Y-94685714D01*
X138682142Y-94685714D01*
X138825000Y-94757142D01*
X138896428Y-94900000D01*
X138896428Y-95114285D01*
X138967857Y-95257142D01*
X139110714Y-95328571D01*
X139182142Y-95328571D01*
X139325000Y-95257142D01*
X139396428Y-95114285D01*
X139396428Y-94900000D01*
X139325000Y-94757142D01*
X137203571Y-120150000D02*
X137275000Y-120078571D01*
X137346428Y-119935714D01*
X137346428Y-119578571D01*
X137275000Y-119435714D01*
X137203571Y-119364285D01*
X137060714Y-119292857D01*
X136917857Y-119292857D01*
X136703571Y-119364285D01*
X135846428Y-120221428D01*
X135846428Y-119292857D01*
X137346428Y-118364285D02*
X137346428Y-118221428D01*
X137275000Y-118078571D01*
X137203571Y-118007142D01*
X137060714Y-117935714D01*
X136775000Y-117864285D01*
X136417857Y-117864285D01*
X136132142Y-117935714D01*
X135989285Y-118007142D01*
X135917857Y-118078571D01*
X135846428Y-118221428D01*
X135846428Y-118364285D01*
X135917857Y-118507142D01*
X135989285Y-118578571D01*
X136132142Y-118650000D01*
X136417857Y-118721428D01*
X136775000Y-118721428D01*
X137060714Y-118650000D01*
X137203571Y-118578571D01*
X137275000Y-118507142D01*
X137346428Y-118364285D01*
X135846428Y-116435714D02*
X135846428Y-117292857D01*
X135846428Y-116864285D02*
X137346428Y-116864285D01*
X137132142Y-117007142D01*
X136989285Y-117150000D01*
X136917857Y-117292857D01*
X136703571Y-115578571D02*
X136775000Y-115721428D01*
X136846428Y-115792857D01*
X136989285Y-115864285D01*
X137060714Y-115864285D01*
X137203571Y-115792857D01*
X137275000Y-115721428D01*
X137346428Y-115578571D01*
X137346428Y-115292857D01*
X137275000Y-115150000D01*
X137203571Y-115078571D01*
X137060714Y-115007142D01*
X136989285Y-115007142D01*
X136846428Y-115078571D01*
X136775000Y-115150000D01*
X136703571Y-115292857D01*
X136703571Y-115578571D01*
X136632142Y-115721428D01*
X136560714Y-115792857D01*
X136417857Y-115864285D01*
X136132142Y-115864285D01*
X135989285Y-115792857D01*
X135917857Y-115721428D01*
X135846428Y-115578571D01*
X135846428Y-115292857D01*
X135917857Y-115150000D01*
X135989285Y-115078571D01*
X136132142Y-115007142D01*
X136417857Y-115007142D01*
X136560714Y-115078571D01*
X136632142Y-115150000D01*
X136703571Y-115292857D01*
X136560714Y-112292857D02*
X136632142Y-112364285D01*
X136703571Y-112507142D01*
X136703571Y-112650000D01*
X136632142Y-112792857D01*
X136560714Y-112864285D01*
X136417857Y-112935714D01*
X136275000Y-112935714D01*
X136132142Y-112864285D01*
X136060714Y-112792857D01*
X135989285Y-112650000D01*
X135989285Y-112507142D01*
X136060714Y-112364285D01*
X136132142Y-112292857D01*
X136703571Y-112292857D02*
X136132142Y-112292857D01*
X136060714Y-112221428D01*
X136060714Y-112150000D01*
X136132142Y-112007142D01*
X136275000Y-111935714D01*
X136632142Y-111935714D01*
X136846428Y-112078571D01*
X136989285Y-112292857D01*
X137060714Y-112578571D01*
X136989285Y-112864285D01*
X136846428Y-113078571D01*
X136632142Y-113221428D01*
X136346428Y-113292857D01*
X136060714Y-113221428D01*
X135846428Y-113078571D01*
X135703571Y-112864285D01*
X135632142Y-112578571D01*
X135703571Y-112292857D01*
X135846428Y-112078571D01*
X135846428Y-111292857D02*
X136846428Y-111292857D01*
X136703571Y-111292857D02*
X136775000Y-111221428D01*
X136846428Y-111078571D01*
X136846428Y-110864285D01*
X136775000Y-110721428D01*
X136632142Y-110650000D01*
X135846428Y-110650000D01*
X136632142Y-110650000D02*
X136775000Y-110578571D01*
X136846428Y-110435714D01*
X136846428Y-110221428D01*
X136775000Y-110078571D01*
X136632142Y-110007142D01*
X135846428Y-110007142D01*
X135846428Y-109078571D02*
X135917857Y-109221428D01*
X135989285Y-109292857D01*
X136132142Y-109364285D01*
X136560714Y-109364285D01*
X136703571Y-109292857D01*
X136775000Y-109221428D01*
X136846428Y-109078571D01*
X136846428Y-108864285D01*
X136775000Y-108721428D01*
X136703571Y-108650000D01*
X136560714Y-108578571D01*
X136132142Y-108578571D01*
X135989285Y-108650000D01*
X135917857Y-108721428D01*
X135846428Y-108864285D01*
X135846428Y-109078571D01*
X135846428Y-107935714D02*
X136846428Y-107935714D01*
X136560714Y-107935714D02*
X136703571Y-107864285D01*
X136775000Y-107792857D01*
X136846428Y-107650000D01*
X136846428Y-107507142D01*
X136846428Y-106364285D02*
X135632142Y-106364285D01*
X135489285Y-106435714D01*
X135417857Y-106507142D01*
X135346428Y-106650000D01*
X135346428Y-106864285D01*
X135417857Y-107007142D01*
X135917857Y-106364285D02*
X135846428Y-106507142D01*
X135846428Y-106792857D01*
X135917857Y-106935714D01*
X135989285Y-107007142D01*
X136132142Y-107078571D01*
X136560714Y-107078571D01*
X136703571Y-107007142D01*
X136775000Y-106935714D01*
X136846428Y-106792857D01*
X136846428Y-106507142D01*
X136775000Y-106364285D01*
X136846428Y-105007142D02*
X135846428Y-105007142D01*
X136846428Y-105650000D02*
X136060714Y-105650000D01*
X135917857Y-105578571D01*
X135846428Y-105435714D01*
X135846428Y-105221428D01*
X135917857Y-105078571D01*
X135989285Y-105007142D01*
X135846428Y-104078571D02*
X135917857Y-104221428D01*
X136060714Y-104292857D01*
X137346428Y-104292857D01*
X135846428Y-103507142D02*
X137346428Y-103507142D01*
X136775000Y-103507142D02*
X136846428Y-103364285D01*
X136846428Y-103078571D01*
X136775000Y-102935714D01*
X136703571Y-102864285D01*
X136560714Y-102792857D01*
X136132142Y-102792857D01*
X135989285Y-102864285D01*
X135917857Y-102935714D01*
X135846428Y-103078571D01*
X135846428Y-103364285D01*
X135917857Y-103507142D01*
X135846428Y-102150000D02*
X136846428Y-102150000D01*
X136560714Y-102150000D02*
X136703571Y-102078571D01*
X136775000Y-102007142D01*
X136846428Y-101864285D01*
X136846428Y-101721428D01*
X136846428Y-100578571D02*
X135846428Y-100578571D01*
X136846428Y-101221428D02*
X136060714Y-101221428D01*
X135917857Y-101150000D01*
X135846428Y-101007142D01*
X135846428Y-100792857D01*
X135917857Y-100650000D01*
X135989285Y-100578571D01*
X136846428Y-100078571D02*
X136846428Y-99507142D01*
X137346428Y-99864285D02*
X136060714Y-99864285D01*
X135917857Y-99792857D01*
X135846428Y-99650000D01*
X135846428Y-99507142D01*
D11*
G04 #@! TO.C,G\002A\002A\002A*
G36*
X98206958Y-87220799D02*
X98187926Y-86869049D01*
X98155250Y-86502010D01*
X98111775Y-86149908D01*
X98060346Y-85842969D01*
X98003809Y-85611419D01*
X97945010Y-85485485D01*
X97926915Y-85472666D01*
X97872435Y-85390426D01*
X97855429Y-85268406D01*
X97824846Y-85086344D01*
X97747047Y-84841943D01*
X97642955Y-84586837D01*
X97533494Y-84372661D01*
X97444826Y-84255142D01*
X97361630Y-84118367D01*
X97347429Y-84033493D01*
X97308635Y-83898076D01*
X97208569Y-83696862D01*
X97111571Y-83538933D01*
X96967499Y-83320594D01*
X96846926Y-83133674D01*
X96795043Y-83050188D01*
X96629555Y-82812800D01*
X96397837Y-82534192D01*
X96121136Y-82234458D01*
X95820699Y-81933697D01*
X95517773Y-81652006D01*
X95233604Y-81409482D01*
X94989440Y-81226221D01*
X94806527Y-81122322D01*
X94739924Y-81106286D01*
X94665345Y-81059625D01*
X94662286Y-81041706D01*
X94601683Y-80975520D01*
X94451379Y-80883899D01*
X94258632Y-80789458D01*
X94070701Y-80714813D01*
X93934844Y-80682577D01*
X93914413Y-80683824D01*
X93788339Y-80664793D01*
X93668844Y-80613321D01*
X93523887Y-80555396D01*
X93304448Y-80491491D01*
X93052855Y-80430889D01*
X92811433Y-80382871D01*
X92622512Y-80356717D01*
X92528418Y-80361709D01*
X92526966Y-80362938D01*
X92544750Y-80436978D01*
X92628311Y-80590593D01*
X92721691Y-80734516D01*
X92843315Y-80916204D01*
X92918395Y-81038033D01*
X92931439Y-81070000D01*
X92938452Y-81128330D01*
X92982511Y-81259751D01*
X93049307Y-81516372D01*
X93100318Y-81866316D01*
X93131435Y-82258235D01*
X93138550Y-82640779D01*
X93118305Y-82956857D01*
X93066577Y-83288133D01*
X92990436Y-83691194D01*
X92899820Y-84120554D01*
X92804669Y-84530722D01*
X92714918Y-84876211D01*
X92658525Y-85061428D01*
X92564419Y-85430824D01*
X92492395Y-85896638D01*
X92446277Y-86411299D01*
X92429889Y-86927237D01*
X92447055Y-87396879D01*
X92460169Y-87528857D01*
X92522968Y-87956140D01*
X92603834Y-88357876D01*
X92693093Y-88690837D01*
X92760653Y-88871428D01*
X93101343Y-89444919D01*
X93543979Y-89932150D01*
X94069338Y-90316251D01*
X94480857Y-90500816D01*
X94480857Y-81904571D01*
X94444571Y-81868286D01*
X94480857Y-81832000D01*
X94517143Y-81868286D01*
X94480857Y-81904571D01*
X94480857Y-90500816D01*
X94658195Y-90580352D01*
X94734857Y-90603954D01*
X95025611Y-90653071D01*
X95281309Y-90656534D01*
X95281309Y-88057636D01*
X95160663Y-88031448D01*
X95041798Y-87952206D01*
X94876251Y-87798940D01*
X94761121Y-87642183D01*
X94719218Y-87467367D01*
X94702345Y-87175936D01*
X94709916Y-86794139D01*
X94741347Y-86348226D01*
X94796054Y-85864447D01*
X94801620Y-85823428D01*
X94867880Y-85260650D01*
X94922285Y-84641840D01*
X94947747Y-84245000D01*
X94978400Y-84155040D01*
X95044878Y-84178201D01*
X95133576Y-84291136D01*
X95230890Y-84470497D01*
X95323215Y-84692938D01*
X95396948Y-84935112D01*
X95423483Y-85061428D01*
X95468040Y-85263755D01*
X95516401Y-85405090D01*
X95527647Y-85424285D01*
X95583218Y-85555714D01*
X95645671Y-85789739D01*
X95706661Y-86084618D01*
X95757844Y-86398604D01*
X95790876Y-86689953D01*
X95796007Y-86766857D01*
X95785556Y-87154697D01*
X95719682Y-87507991D01*
X95608526Y-87793053D01*
X95462230Y-87976197D01*
X95424619Y-88000393D01*
X95281309Y-88057636D01*
X95281309Y-90656534D01*
X95370507Y-90657743D01*
X95714571Y-90625098D01*
X95714571Y-89161714D01*
X95678286Y-89125428D01*
X95714571Y-89089143D01*
X95750857Y-89125428D01*
X95714571Y-89161714D01*
X95714571Y-90625098D01*
X95729298Y-90623700D01*
X96061736Y-90556678D01*
X96327574Y-90462407D01*
X96479652Y-90355430D01*
X96614056Y-90264795D01*
X96686555Y-90250286D01*
X96805810Y-90197143D01*
X96975937Y-90061175D01*
X97163316Y-89877574D01*
X97334331Y-89681532D01*
X97455362Y-89508239D01*
X97493825Y-89405238D01*
X97542625Y-89316597D01*
X97658840Y-89187989D01*
X97663983Y-89183088D01*
X97754615Y-89056561D01*
X97859496Y-88851824D01*
X97963587Y-88607993D01*
X98051853Y-88364183D01*
X98109257Y-88159508D01*
X98120762Y-88033083D01*
X98112671Y-88015909D01*
X98118461Y-87936610D01*
X98153732Y-87882053D01*
X98192706Y-87757527D01*
X98209500Y-87527033D01*
X98206958Y-87220799D01*
X98206958Y-87220799D01*
G37*
X98206958Y-87220799D02*
X98187926Y-86869049D01*
X98155250Y-86502010D01*
X98111775Y-86149908D01*
X98060346Y-85842969D01*
X98003809Y-85611419D01*
X97945010Y-85485485D01*
X97926915Y-85472666D01*
X97872435Y-85390426D01*
X97855429Y-85268406D01*
X97824846Y-85086344D01*
X97747047Y-84841943D01*
X97642955Y-84586837D01*
X97533494Y-84372661D01*
X97444826Y-84255142D01*
X97361630Y-84118367D01*
X97347429Y-84033493D01*
X97308635Y-83898076D01*
X97208569Y-83696862D01*
X97111571Y-83538933D01*
X96967499Y-83320594D01*
X96846926Y-83133674D01*
X96795043Y-83050188D01*
X96629555Y-82812800D01*
X96397837Y-82534192D01*
X96121136Y-82234458D01*
X95820699Y-81933697D01*
X95517773Y-81652006D01*
X95233604Y-81409482D01*
X94989440Y-81226221D01*
X94806527Y-81122322D01*
X94739924Y-81106286D01*
X94665345Y-81059625D01*
X94662286Y-81041706D01*
X94601683Y-80975520D01*
X94451379Y-80883899D01*
X94258632Y-80789458D01*
X94070701Y-80714813D01*
X93934844Y-80682577D01*
X93914413Y-80683824D01*
X93788339Y-80664793D01*
X93668844Y-80613321D01*
X93523887Y-80555396D01*
X93304448Y-80491491D01*
X93052855Y-80430889D01*
X92811433Y-80382871D01*
X92622512Y-80356717D01*
X92528418Y-80361709D01*
X92526966Y-80362938D01*
X92544750Y-80436978D01*
X92628311Y-80590593D01*
X92721691Y-80734516D01*
X92843315Y-80916204D01*
X92918395Y-81038033D01*
X92931439Y-81070000D01*
X92938452Y-81128330D01*
X92982511Y-81259751D01*
X93049307Y-81516372D01*
X93100318Y-81866316D01*
X93131435Y-82258235D01*
X93138550Y-82640779D01*
X93118305Y-82956857D01*
X93066577Y-83288133D01*
X92990436Y-83691194D01*
X92899820Y-84120554D01*
X92804669Y-84530722D01*
X92714918Y-84876211D01*
X92658525Y-85061428D01*
X92564419Y-85430824D01*
X92492395Y-85896638D01*
X92446277Y-86411299D01*
X92429889Y-86927237D01*
X92447055Y-87396879D01*
X92460169Y-87528857D01*
X92522968Y-87956140D01*
X92603834Y-88357876D01*
X92693093Y-88690837D01*
X92760653Y-88871428D01*
X93101343Y-89444919D01*
X93543979Y-89932150D01*
X94069338Y-90316251D01*
X94480857Y-90500816D01*
X94480857Y-81904571D01*
X94444571Y-81868286D01*
X94480857Y-81832000D01*
X94517143Y-81868286D01*
X94480857Y-81904571D01*
X94480857Y-90500816D01*
X94658195Y-90580352D01*
X94734857Y-90603954D01*
X95025611Y-90653071D01*
X95281309Y-90656534D01*
X95281309Y-88057636D01*
X95160663Y-88031448D01*
X95041798Y-87952206D01*
X94876251Y-87798940D01*
X94761121Y-87642183D01*
X94719218Y-87467367D01*
X94702345Y-87175936D01*
X94709916Y-86794139D01*
X94741347Y-86348226D01*
X94796054Y-85864447D01*
X94801620Y-85823428D01*
X94867880Y-85260650D01*
X94922285Y-84641840D01*
X94947747Y-84245000D01*
X94978400Y-84155040D01*
X95044878Y-84178201D01*
X95133576Y-84291136D01*
X95230890Y-84470497D01*
X95323215Y-84692938D01*
X95396948Y-84935112D01*
X95423483Y-85061428D01*
X95468040Y-85263755D01*
X95516401Y-85405090D01*
X95527647Y-85424285D01*
X95583218Y-85555714D01*
X95645671Y-85789739D01*
X95706661Y-86084618D01*
X95757844Y-86398604D01*
X95790876Y-86689953D01*
X95796007Y-86766857D01*
X95785556Y-87154697D01*
X95719682Y-87507991D01*
X95608526Y-87793053D01*
X95462230Y-87976197D01*
X95424619Y-88000393D01*
X95281309Y-88057636D01*
X95281309Y-90656534D01*
X95370507Y-90657743D01*
X95714571Y-90625098D01*
X95714571Y-89161714D01*
X95678286Y-89125428D01*
X95714571Y-89089143D01*
X95750857Y-89125428D01*
X95714571Y-89161714D01*
X95714571Y-90625098D01*
X95729298Y-90623700D01*
X96061736Y-90556678D01*
X96327574Y-90462407D01*
X96479652Y-90355430D01*
X96614056Y-90264795D01*
X96686555Y-90250286D01*
X96805810Y-90197143D01*
X96975937Y-90061175D01*
X97163316Y-89877574D01*
X97334331Y-89681532D01*
X97455362Y-89508239D01*
X97493825Y-89405238D01*
X97542625Y-89316597D01*
X97658840Y-89187989D01*
X97663983Y-89183088D01*
X97754615Y-89056561D01*
X97859496Y-88851824D01*
X97963587Y-88607993D01*
X98051853Y-88364183D01*
X98109257Y-88159508D01*
X98120762Y-88033083D01*
X98112671Y-88015909D01*
X98118461Y-87936610D01*
X98153732Y-87882053D01*
X98192706Y-87757527D01*
X98209500Y-87527033D01*
X98206958Y-87220799D01*
G36*
X112417994Y-97557384D02*
X112417170Y-97507428D01*
X112404699Y-97066683D01*
X112383443Y-96741791D01*
X112349918Y-96503560D01*
X112300640Y-96322795D01*
X112265624Y-96237428D01*
X112163192Y-96009596D01*
X112075398Y-95805367D01*
X112059195Y-95765714D01*
X111838968Y-95291063D01*
X111590898Y-94911004D01*
X111535143Y-94841559D01*
X111243693Y-94514038D01*
X110954973Y-94231974D01*
X110699617Y-94023936D01*
X110576038Y-93946984D01*
X110423124Y-93862969D01*
X110337917Y-93806603D01*
X110337714Y-93806401D01*
X110124172Y-93674297D01*
X109804004Y-93578476D01*
X109411944Y-93522294D01*
X108982727Y-93509109D01*
X108551085Y-93542279D01*
X108233143Y-93602975D01*
X108048038Y-93685444D01*
X107808465Y-93839728D01*
X107561653Y-94034087D01*
X107475509Y-94112116D01*
X107329698Y-94239583D01*
X107227606Y-94309637D01*
X107212019Y-94314286D01*
X107157319Y-94375653D01*
X107062895Y-94537871D01*
X106945560Y-94768110D01*
X106822129Y-95033542D01*
X106719544Y-95275836D01*
X106655958Y-95529330D01*
X106616605Y-95889869D01*
X106603102Y-96321131D01*
X106617060Y-96786792D01*
X106639728Y-97072000D01*
X106683168Y-97420719D01*
X106740980Y-97772256D01*
X106801624Y-98057590D01*
X106809595Y-98088000D01*
X106887790Y-98379001D01*
X106964865Y-98669901D01*
X106996828Y-98792305D01*
X107066042Y-99004358D01*
X107142796Y-99162728D01*
X107164632Y-99191448D01*
X107232210Y-99308074D01*
X107317558Y-99515502D01*
X107386935Y-99720857D01*
X107474891Y-99993844D01*
X107562455Y-100243595D01*
X107613312Y-100374000D01*
X107714255Y-100667293D01*
X107814151Y-101054730D01*
X107902078Y-101485647D01*
X107967116Y-101909381D01*
X107988738Y-102115714D01*
X108010439Y-102372349D01*
X108027639Y-102566716D01*
X108036785Y-102658714D01*
X108036982Y-102660000D01*
X108023220Y-102789673D01*
X107967994Y-103003609D01*
X107886207Y-103252319D01*
X107792759Y-103486314D01*
X107779396Y-103515505D01*
X107703114Y-103707553D01*
X107674115Y-103842759D01*
X107681713Y-103874474D01*
X107767599Y-103874938D01*
X107956165Y-103835346D01*
X108124286Y-103788350D01*
X108124286Y-100555428D01*
X108088000Y-100519143D01*
X108124286Y-100482857D01*
X108124286Y-97870286D01*
X108088000Y-97834000D01*
X108124286Y-97797714D01*
X108160572Y-97834000D01*
X108124286Y-97870286D01*
X108124286Y-100482857D01*
X108160572Y-100519143D01*
X108124286Y-100555428D01*
X108124286Y-103788350D01*
X108213074Y-103763530D01*
X108330338Y-103726540D01*
X108623410Y-103636888D01*
X108879693Y-103568844D01*
X109056227Y-103533474D01*
X109090179Y-103530857D01*
X109140286Y-103519653D01*
X109140286Y-102006857D01*
X109104000Y-101970571D01*
X109140286Y-101934286D01*
X109176571Y-101970571D01*
X109140286Y-102006857D01*
X109140286Y-103519653D01*
X109215415Y-103502852D01*
X109249143Y-103458286D01*
X109307923Y-103393902D01*
X109358000Y-103385714D01*
X109482879Y-103337362D01*
X109587810Y-103254306D01*
X109587810Y-100531238D01*
X109544666Y-100521276D01*
X109539429Y-100482857D01*
X109565981Y-100423122D01*
X109575714Y-100428184D01*
X109575714Y-100192571D01*
X109539429Y-100156285D01*
X109575714Y-100120000D01*
X109612000Y-100156285D01*
X109575714Y-100192571D01*
X109575714Y-100428184D01*
X109587810Y-100434476D01*
X109596495Y-100520601D01*
X109587810Y-100531238D01*
X109587810Y-103254306D01*
X109624384Y-103225356D01*
X109624384Y-99991783D01*
X109570616Y-99973724D01*
X109541931Y-99834861D01*
X109539429Y-99749330D01*
X109519221Y-99588777D01*
X109477089Y-99509466D01*
X109434343Y-99421156D01*
X109391581Y-99235820D01*
X109369297Y-99084212D01*
X109316833Y-98791004D01*
X109231443Y-98457250D01*
X109170092Y-98265743D01*
X109089445Y-97990185D01*
X109009107Y-97633883D01*
X108942930Y-97260598D01*
X108926561Y-97144571D01*
X108836784Y-96455143D01*
X109037155Y-96257321D01*
X109184797Y-96130954D01*
X109307471Y-96098575D01*
X109455193Y-96135379D01*
X109653045Y-96278288D01*
X109811270Y-96544509D01*
X109927263Y-96917013D01*
X109998418Y-97378770D01*
X110022130Y-97912751D01*
X109995792Y-98501926D01*
X109916799Y-99129266D01*
X109914965Y-99140286D01*
X109848524Y-99463289D01*
X109772103Y-99722350D01*
X109694468Y-99903253D01*
X109624384Y-99991783D01*
X109624384Y-103225356D01*
X109628083Y-103222428D01*
X109797409Y-103079032D01*
X109946787Y-102986571D01*
X110091064Y-102898225D01*
X110269455Y-102760984D01*
X110443836Y-102608229D01*
X110576077Y-102473344D01*
X110628057Y-102390074D01*
X110672128Y-102306794D01*
X110784312Y-102157949D01*
X110863914Y-102063482D01*
X111108946Y-101776556D01*
X111264058Y-101578214D01*
X111340644Y-101453113D01*
X111353714Y-101403907D01*
X111391500Y-101311194D01*
X111488459Y-101143788D01*
X111571429Y-101015886D01*
X111693144Y-100827621D01*
X111772162Y-100690206D01*
X111789143Y-100647274D01*
X111817627Y-100559152D01*
X111889464Y-100390649D01*
X111928470Y-100306198D01*
X112042371Y-100017454D01*
X112165607Y-99623750D01*
X112286890Y-99163798D01*
X112374239Y-98777428D01*
X112395825Y-98595173D01*
X112411168Y-98305792D01*
X112418985Y-97947218D01*
X112417994Y-97557384D01*
X112417994Y-97557384D01*
G37*
X112417994Y-97557384D02*
X112417170Y-97507428D01*
X112404699Y-97066683D01*
X112383443Y-96741791D01*
X112349918Y-96503560D01*
X112300640Y-96322795D01*
X112265624Y-96237428D01*
X112163192Y-96009596D01*
X112075398Y-95805367D01*
X112059195Y-95765714D01*
X111838968Y-95291063D01*
X111590898Y-94911004D01*
X111535143Y-94841559D01*
X111243693Y-94514038D01*
X110954973Y-94231974D01*
X110699617Y-94023936D01*
X110576038Y-93946984D01*
X110423124Y-93862969D01*
X110337917Y-93806603D01*
X110337714Y-93806401D01*
X110124172Y-93674297D01*
X109804004Y-93578476D01*
X109411944Y-93522294D01*
X108982727Y-93509109D01*
X108551085Y-93542279D01*
X108233143Y-93602975D01*
X108048038Y-93685444D01*
X107808465Y-93839728D01*
X107561653Y-94034087D01*
X107475509Y-94112116D01*
X107329698Y-94239583D01*
X107227606Y-94309637D01*
X107212019Y-94314286D01*
X107157319Y-94375653D01*
X107062895Y-94537871D01*
X106945560Y-94768110D01*
X106822129Y-95033542D01*
X106719544Y-95275836D01*
X106655958Y-95529330D01*
X106616605Y-95889869D01*
X106603102Y-96321131D01*
X106617060Y-96786792D01*
X106639728Y-97072000D01*
X106683168Y-97420719D01*
X106740980Y-97772256D01*
X106801624Y-98057590D01*
X106809595Y-98088000D01*
X106887790Y-98379001D01*
X106964865Y-98669901D01*
X106996828Y-98792305D01*
X107066042Y-99004358D01*
X107142796Y-99162728D01*
X107164632Y-99191448D01*
X107232210Y-99308074D01*
X107317558Y-99515502D01*
X107386935Y-99720857D01*
X107474891Y-99993844D01*
X107562455Y-100243595D01*
X107613312Y-100374000D01*
X107714255Y-100667293D01*
X107814151Y-101054730D01*
X107902078Y-101485647D01*
X107967116Y-101909381D01*
X107988738Y-102115714D01*
X108010439Y-102372349D01*
X108027639Y-102566716D01*
X108036785Y-102658714D01*
X108036982Y-102660000D01*
X108023220Y-102789673D01*
X107967994Y-103003609D01*
X107886207Y-103252319D01*
X107792759Y-103486314D01*
X107779396Y-103515505D01*
X107703114Y-103707553D01*
X107674115Y-103842759D01*
X107681713Y-103874474D01*
X107767599Y-103874938D01*
X107956165Y-103835346D01*
X108124286Y-103788350D01*
X108124286Y-100555428D01*
X108088000Y-100519143D01*
X108124286Y-100482857D01*
X108124286Y-97870286D01*
X108088000Y-97834000D01*
X108124286Y-97797714D01*
X108160572Y-97834000D01*
X108124286Y-97870286D01*
X108124286Y-100482857D01*
X108160572Y-100519143D01*
X108124286Y-100555428D01*
X108124286Y-103788350D01*
X108213074Y-103763530D01*
X108330338Y-103726540D01*
X108623410Y-103636888D01*
X108879693Y-103568844D01*
X109056227Y-103533474D01*
X109090179Y-103530857D01*
X109140286Y-103519653D01*
X109140286Y-102006857D01*
X109104000Y-101970571D01*
X109140286Y-101934286D01*
X109176571Y-101970571D01*
X109140286Y-102006857D01*
X109140286Y-103519653D01*
X109215415Y-103502852D01*
X109249143Y-103458286D01*
X109307923Y-103393902D01*
X109358000Y-103385714D01*
X109482879Y-103337362D01*
X109587810Y-103254306D01*
X109587810Y-100531238D01*
X109544666Y-100521276D01*
X109539429Y-100482857D01*
X109565981Y-100423122D01*
X109575714Y-100428184D01*
X109575714Y-100192571D01*
X109539429Y-100156285D01*
X109575714Y-100120000D01*
X109612000Y-100156285D01*
X109575714Y-100192571D01*
X109575714Y-100428184D01*
X109587810Y-100434476D01*
X109596495Y-100520601D01*
X109587810Y-100531238D01*
X109587810Y-103254306D01*
X109624384Y-103225356D01*
X109624384Y-99991783D01*
X109570616Y-99973724D01*
X109541931Y-99834861D01*
X109539429Y-99749330D01*
X109519221Y-99588777D01*
X109477089Y-99509466D01*
X109434343Y-99421156D01*
X109391581Y-99235820D01*
X109369297Y-99084212D01*
X109316833Y-98791004D01*
X109231443Y-98457250D01*
X109170092Y-98265743D01*
X109089445Y-97990185D01*
X109009107Y-97633883D01*
X108942930Y-97260598D01*
X108926561Y-97144571D01*
X108836784Y-96455143D01*
X109037155Y-96257321D01*
X109184797Y-96130954D01*
X109307471Y-96098575D01*
X109455193Y-96135379D01*
X109653045Y-96278288D01*
X109811270Y-96544509D01*
X109927263Y-96917013D01*
X109998418Y-97378770D01*
X110022130Y-97912751D01*
X109995792Y-98501926D01*
X109916799Y-99129266D01*
X109914965Y-99140286D01*
X109848524Y-99463289D01*
X109772103Y-99722350D01*
X109694468Y-99903253D01*
X109624384Y-99991783D01*
X109624384Y-103225356D01*
X109628083Y-103222428D01*
X109797409Y-103079032D01*
X109946787Y-102986571D01*
X110091064Y-102898225D01*
X110269455Y-102760984D01*
X110443836Y-102608229D01*
X110576077Y-102473344D01*
X110628057Y-102390074D01*
X110672128Y-102306794D01*
X110784312Y-102157949D01*
X110863914Y-102063482D01*
X111108946Y-101776556D01*
X111264058Y-101578214D01*
X111340644Y-101453113D01*
X111353714Y-101403907D01*
X111391500Y-101311194D01*
X111488459Y-101143788D01*
X111571429Y-101015886D01*
X111693144Y-100827621D01*
X111772162Y-100690206D01*
X111789143Y-100647274D01*
X111817627Y-100559152D01*
X111889464Y-100390649D01*
X111928470Y-100306198D01*
X112042371Y-100017454D01*
X112165607Y-99623750D01*
X112286890Y-99163798D01*
X112374239Y-98777428D01*
X112395825Y-98595173D01*
X112411168Y-98305792D01*
X112418985Y-97947218D01*
X112417994Y-97557384D01*
G36*
X108124286Y-93298286D02*
X108088000Y-93334571D01*
X108124286Y-93370857D01*
X108160572Y-93334571D01*
X108124286Y-93298286D01*
X108124286Y-93298286D01*
G37*
X108124286Y-93298286D02*
X108088000Y-93334571D01*
X108124286Y-93370857D01*
X108160572Y-93334571D01*
X108124286Y-93298286D01*
G36*
X98206958Y-107220799D02*
X98187926Y-106869049D01*
X98155250Y-106502010D01*
X98111775Y-106149908D01*
X98060346Y-105842969D01*
X98003809Y-105611419D01*
X97945010Y-105485485D01*
X97926915Y-105472666D01*
X97872435Y-105390426D01*
X97855429Y-105268406D01*
X97824846Y-105086344D01*
X97747047Y-104841943D01*
X97642955Y-104586837D01*
X97533494Y-104372661D01*
X97444826Y-104255142D01*
X97361630Y-104118367D01*
X97347429Y-104033493D01*
X97308635Y-103898076D01*
X97208569Y-103696862D01*
X97111571Y-103538933D01*
X96967499Y-103320594D01*
X96846926Y-103133674D01*
X96795043Y-103050188D01*
X96629555Y-102812800D01*
X96397837Y-102534192D01*
X96121136Y-102234458D01*
X95820699Y-101933697D01*
X95517773Y-101652006D01*
X95233604Y-101409482D01*
X94989440Y-101226221D01*
X94806527Y-101122322D01*
X94739924Y-101106286D01*
X94665345Y-101059625D01*
X94662286Y-101041706D01*
X94601683Y-100975520D01*
X94451379Y-100883899D01*
X94258632Y-100789458D01*
X94070701Y-100714813D01*
X93934844Y-100682577D01*
X93914413Y-100683824D01*
X93788339Y-100664793D01*
X93668844Y-100613321D01*
X93523887Y-100555396D01*
X93304448Y-100491491D01*
X93052855Y-100430889D01*
X92811433Y-100382871D01*
X92622512Y-100356717D01*
X92528418Y-100361709D01*
X92526966Y-100362938D01*
X92544750Y-100436978D01*
X92628311Y-100590593D01*
X92721691Y-100734516D01*
X92843315Y-100916204D01*
X92918395Y-101038033D01*
X92931439Y-101070000D01*
X92938452Y-101128330D01*
X92982511Y-101259751D01*
X93049307Y-101516372D01*
X93100318Y-101866316D01*
X93131435Y-102258235D01*
X93138550Y-102640779D01*
X93118305Y-102956857D01*
X93066577Y-103288133D01*
X92990436Y-103691194D01*
X92899820Y-104120554D01*
X92804669Y-104530722D01*
X92714918Y-104876211D01*
X92658525Y-105061428D01*
X92564419Y-105430824D01*
X92492395Y-105896638D01*
X92446277Y-106411299D01*
X92429889Y-106927237D01*
X92447055Y-107396879D01*
X92460169Y-107528857D01*
X92522968Y-107956140D01*
X92603834Y-108357876D01*
X92693093Y-108690837D01*
X92760653Y-108871428D01*
X93101343Y-109444919D01*
X93543979Y-109932150D01*
X94069338Y-110316251D01*
X94480857Y-110500816D01*
X94480857Y-101904571D01*
X94444571Y-101868286D01*
X94480857Y-101832000D01*
X94517143Y-101868286D01*
X94480857Y-101904571D01*
X94480857Y-110500816D01*
X94658195Y-110580352D01*
X94734857Y-110603954D01*
X95025611Y-110653071D01*
X95281309Y-110656534D01*
X95281309Y-108057636D01*
X95160663Y-108031448D01*
X95041798Y-107952206D01*
X94876251Y-107798940D01*
X94761121Y-107642183D01*
X94719218Y-107467367D01*
X94702345Y-107175936D01*
X94709916Y-106794139D01*
X94741347Y-106348226D01*
X94796054Y-105864447D01*
X94801620Y-105823428D01*
X94867880Y-105260650D01*
X94922285Y-104641840D01*
X94947747Y-104245000D01*
X94978400Y-104155040D01*
X95044878Y-104178201D01*
X95133576Y-104291136D01*
X95230890Y-104470497D01*
X95323215Y-104692938D01*
X95396948Y-104935112D01*
X95423483Y-105061428D01*
X95468040Y-105263755D01*
X95516401Y-105405090D01*
X95527647Y-105424285D01*
X95583218Y-105555714D01*
X95645671Y-105789739D01*
X95706661Y-106084618D01*
X95757844Y-106398604D01*
X95790876Y-106689953D01*
X95796007Y-106766857D01*
X95785556Y-107154697D01*
X95719682Y-107507991D01*
X95608526Y-107793053D01*
X95462230Y-107976197D01*
X95424619Y-108000393D01*
X95281309Y-108057636D01*
X95281309Y-110656534D01*
X95370507Y-110657743D01*
X95714571Y-110625098D01*
X95714571Y-109161714D01*
X95678286Y-109125428D01*
X95714571Y-109089143D01*
X95750857Y-109125428D01*
X95714571Y-109161714D01*
X95714571Y-110625098D01*
X95729298Y-110623700D01*
X96061736Y-110556678D01*
X96327574Y-110462407D01*
X96479652Y-110355430D01*
X96614056Y-110264795D01*
X96686555Y-110250286D01*
X96805810Y-110197143D01*
X96975937Y-110061175D01*
X97163316Y-109877574D01*
X97334331Y-109681532D01*
X97455362Y-109508239D01*
X97493825Y-109405238D01*
X97542625Y-109316597D01*
X97658840Y-109187989D01*
X97663983Y-109183088D01*
X97754615Y-109056561D01*
X97859496Y-108851824D01*
X97963587Y-108607993D01*
X98051853Y-108364183D01*
X98109257Y-108159508D01*
X98120762Y-108033083D01*
X98112671Y-108015909D01*
X98118461Y-107936610D01*
X98153732Y-107882053D01*
X98192706Y-107757527D01*
X98209500Y-107527033D01*
X98206958Y-107220799D01*
X98206958Y-107220799D01*
G37*
X98206958Y-107220799D02*
X98187926Y-106869049D01*
X98155250Y-106502010D01*
X98111775Y-106149908D01*
X98060346Y-105842969D01*
X98003809Y-105611419D01*
X97945010Y-105485485D01*
X97926915Y-105472666D01*
X97872435Y-105390426D01*
X97855429Y-105268406D01*
X97824846Y-105086344D01*
X97747047Y-104841943D01*
X97642955Y-104586837D01*
X97533494Y-104372661D01*
X97444826Y-104255142D01*
X97361630Y-104118367D01*
X97347429Y-104033493D01*
X97308635Y-103898076D01*
X97208569Y-103696862D01*
X97111571Y-103538933D01*
X96967499Y-103320594D01*
X96846926Y-103133674D01*
X96795043Y-103050188D01*
X96629555Y-102812800D01*
X96397837Y-102534192D01*
X96121136Y-102234458D01*
X95820699Y-101933697D01*
X95517773Y-101652006D01*
X95233604Y-101409482D01*
X94989440Y-101226221D01*
X94806527Y-101122322D01*
X94739924Y-101106286D01*
X94665345Y-101059625D01*
X94662286Y-101041706D01*
X94601683Y-100975520D01*
X94451379Y-100883899D01*
X94258632Y-100789458D01*
X94070701Y-100714813D01*
X93934844Y-100682577D01*
X93914413Y-100683824D01*
X93788339Y-100664793D01*
X93668844Y-100613321D01*
X93523887Y-100555396D01*
X93304448Y-100491491D01*
X93052855Y-100430889D01*
X92811433Y-100382871D01*
X92622512Y-100356717D01*
X92528418Y-100361709D01*
X92526966Y-100362938D01*
X92544750Y-100436978D01*
X92628311Y-100590593D01*
X92721691Y-100734516D01*
X92843315Y-100916204D01*
X92918395Y-101038033D01*
X92931439Y-101070000D01*
X92938452Y-101128330D01*
X92982511Y-101259751D01*
X93049307Y-101516372D01*
X93100318Y-101866316D01*
X93131435Y-102258235D01*
X93138550Y-102640779D01*
X93118305Y-102956857D01*
X93066577Y-103288133D01*
X92990436Y-103691194D01*
X92899820Y-104120554D01*
X92804669Y-104530722D01*
X92714918Y-104876211D01*
X92658525Y-105061428D01*
X92564419Y-105430824D01*
X92492395Y-105896638D01*
X92446277Y-106411299D01*
X92429889Y-106927237D01*
X92447055Y-107396879D01*
X92460169Y-107528857D01*
X92522968Y-107956140D01*
X92603834Y-108357876D01*
X92693093Y-108690837D01*
X92760653Y-108871428D01*
X93101343Y-109444919D01*
X93543979Y-109932150D01*
X94069338Y-110316251D01*
X94480857Y-110500816D01*
X94480857Y-101904571D01*
X94444571Y-101868286D01*
X94480857Y-101832000D01*
X94517143Y-101868286D01*
X94480857Y-101904571D01*
X94480857Y-110500816D01*
X94658195Y-110580352D01*
X94734857Y-110603954D01*
X95025611Y-110653071D01*
X95281309Y-110656534D01*
X95281309Y-108057636D01*
X95160663Y-108031448D01*
X95041798Y-107952206D01*
X94876251Y-107798940D01*
X94761121Y-107642183D01*
X94719218Y-107467367D01*
X94702345Y-107175936D01*
X94709916Y-106794139D01*
X94741347Y-106348226D01*
X94796054Y-105864447D01*
X94801620Y-105823428D01*
X94867880Y-105260650D01*
X94922285Y-104641840D01*
X94947747Y-104245000D01*
X94978400Y-104155040D01*
X95044878Y-104178201D01*
X95133576Y-104291136D01*
X95230890Y-104470497D01*
X95323215Y-104692938D01*
X95396948Y-104935112D01*
X95423483Y-105061428D01*
X95468040Y-105263755D01*
X95516401Y-105405090D01*
X95527647Y-105424285D01*
X95583218Y-105555714D01*
X95645671Y-105789739D01*
X95706661Y-106084618D01*
X95757844Y-106398604D01*
X95790876Y-106689953D01*
X95796007Y-106766857D01*
X95785556Y-107154697D01*
X95719682Y-107507991D01*
X95608526Y-107793053D01*
X95462230Y-107976197D01*
X95424619Y-108000393D01*
X95281309Y-108057636D01*
X95281309Y-110656534D01*
X95370507Y-110657743D01*
X95714571Y-110625098D01*
X95714571Y-109161714D01*
X95678286Y-109125428D01*
X95714571Y-109089143D01*
X95750857Y-109125428D01*
X95714571Y-109161714D01*
X95714571Y-110625098D01*
X95729298Y-110623700D01*
X96061736Y-110556678D01*
X96327574Y-110462407D01*
X96479652Y-110355430D01*
X96614056Y-110264795D01*
X96686555Y-110250286D01*
X96805810Y-110197143D01*
X96975937Y-110061175D01*
X97163316Y-109877574D01*
X97334331Y-109681532D01*
X97455362Y-109508239D01*
X97493825Y-109405238D01*
X97542625Y-109316597D01*
X97658840Y-109187989D01*
X97663983Y-109183088D01*
X97754615Y-109056561D01*
X97859496Y-108851824D01*
X97963587Y-108607993D01*
X98051853Y-108364183D01*
X98109257Y-108159508D01*
X98120762Y-108033083D01*
X98112671Y-108015909D01*
X98118461Y-107936610D01*
X98153732Y-107882053D01*
X98192706Y-107757527D01*
X98209500Y-107527033D01*
X98206958Y-107220799D01*
G36*
X112417994Y-117557384D02*
X112417170Y-117507428D01*
X112404699Y-117066683D01*
X112383443Y-116741791D01*
X112349918Y-116503560D01*
X112300640Y-116322795D01*
X112265624Y-116237428D01*
X112163192Y-116009596D01*
X112075398Y-115805367D01*
X112059195Y-115765714D01*
X111838968Y-115291063D01*
X111590898Y-114911004D01*
X111535143Y-114841559D01*
X111243693Y-114514038D01*
X110954973Y-114231974D01*
X110699617Y-114023936D01*
X110576038Y-113946984D01*
X110423124Y-113862969D01*
X110337917Y-113806603D01*
X110337714Y-113806401D01*
X110124172Y-113674297D01*
X109804004Y-113578476D01*
X109411944Y-113522294D01*
X108982727Y-113509109D01*
X108551085Y-113542279D01*
X108233143Y-113602975D01*
X108048038Y-113685444D01*
X107808465Y-113839728D01*
X107561653Y-114034087D01*
X107475509Y-114112116D01*
X107329698Y-114239583D01*
X107227606Y-114309637D01*
X107212019Y-114314286D01*
X107157319Y-114375653D01*
X107062895Y-114537871D01*
X106945560Y-114768110D01*
X106822129Y-115033542D01*
X106719544Y-115275836D01*
X106655958Y-115529330D01*
X106616605Y-115889869D01*
X106603102Y-116321131D01*
X106617060Y-116786792D01*
X106639728Y-117072000D01*
X106683168Y-117420719D01*
X106740980Y-117772256D01*
X106801624Y-118057590D01*
X106809595Y-118088000D01*
X106887790Y-118379001D01*
X106964865Y-118669901D01*
X106996828Y-118792305D01*
X107066042Y-119004358D01*
X107142796Y-119162728D01*
X107164632Y-119191448D01*
X107232210Y-119308074D01*
X107317558Y-119515502D01*
X107386935Y-119720857D01*
X107474891Y-119993844D01*
X107562455Y-120243595D01*
X107613312Y-120374000D01*
X107714255Y-120667293D01*
X107814151Y-121054730D01*
X107902078Y-121485647D01*
X107967116Y-121909381D01*
X107988738Y-122115714D01*
X108010439Y-122372349D01*
X108027639Y-122566716D01*
X108036785Y-122658714D01*
X108036982Y-122660000D01*
X108023220Y-122789673D01*
X107967994Y-123003609D01*
X107886207Y-123252319D01*
X107792759Y-123486314D01*
X107779396Y-123515505D01*
X107703114Y-123707553D01*
X107674115Y-123842759D01*
X107681713Y-123874474D01*
X107767599Y-123874938D01*
X107956165Y-123835346D01*
X108124286Y-123788350D01*
X108124286Y-120555428D01*
X108088000Y-120519143D01*
X108124286Y-120482857D01*
X108124286Y-117870286D01*
X108088000Y-117834000D01*
X108124286Y-117797714D01*
X108160572Y-117834000D01*
X108124286Y-117870286D01*
X108124286Y-120482857D01*
X108160572Y-120519143D01*
X108124286Y-120555428D01*
X108124286Y-123788350D01*
X108213074Y-123763530D01*
X108330338Y-123726540D01*
X108623410Y-123636888D01*
X108879693Y-123568844D01*
X109056227Y-123533474D01*
X109090179Y-123530857D01*
X109140286Y-123519653D01*
X109140286Y-122006857D01*
X109104000Y-121970571D01*
X109140286Y-121934286D01*
X109176571Y-121970571D01*
X109140286Y-122006857D01*
X109140286Y-123519653D01*
X109215415Y-123502852D01*
X109249143Y-123458286D01*
X109307923Y-123393902D01*
X109358000Y-123385714D01*
X109482879Y-123337362D01*
X109587810Y-123254306D01*
X109587810Y-120531238D01*
X109544666Y-120521276D01*
X109539429Y-120482857D01*
X109565981Y-120423122D01*
X109575714Y-120428184D01*
X109575714Y-120192571D01*
X109539429Y-120156285D01*
X109575714Y-120120000D01*
X109612000Y-120156285D01*
X109575714Y-120192571D01*
X109575714Y-120428184D01*
X109587810Y-120434476D01*
X109596495Y-120520601D01*
X109587810Y-120531238D01*
X109587810Y-123254306D01*
X109624384Y-123225356D01*
X109624384Y-119991783D01*
X109570616Y-119973724D01*
X109541931Y-119834861D01*
X109539429Y-119749330D01*
X109519221Y-119588777D01*
X109477089Y-119509466D01*
X109434343Y-119421156D01*
X109391581Y-119235820D01*
X109369297Y-119084212D01*
X109316833Y-118791004D01*
X109231443Y-118457250D01*
X109170092Y-118265743D01*
X109089445Y-117990185D01*
X109009107Y-117633883D01*
X108942930Y-117260598D01*
X108926561Y-117144571D01*
X108836784Y-116455143D01*
X109037155Y-116257321D01*
X109184797Y-116130954D01*
X109307471Y-116098575D01*
X109455193Y-116135379D01*
X109653045Y-116278288D01*
X109811270Y-116544509D01*
X109927263Y-116917013D01*
X109998418Y-117378770D01*
X110022130Y-117912751D01*
X109995792Y-118501926D01*
X109916799Y-119129266D01*
X109914965Y-119140286D01*
X109848524Y-119463289D01*
X109772103Y-119722350D01*
X109694468Y-119903253D01*
X109624384Y-119991783D01*
X109624384Y-123225356D01*
X109628083Y-123222428D01*
X109797409Y-123079032D01*
X109946787Y-122986571D01*
X110091064Y-122898225D01*
X110269455Y-122760984D01*
X110443836Y-122608229D01*
X110576077Y-122473344D01*
X110628057Y-122390074D01*
X110672128Y-122306794D01*
X110784312Y-122157949D01*
X110863914Y-122063482D01*
X111108946Y-121776556D01*
X111264058Y-121578214D01*
X111340644Y-121453113D01*
X111353714Y-121403907D01*
X111391500Y-121311194D01*
X111488459Y-121143788D01*
X111571429Y-121015886D01*
X111693144Y-120827621D01*
X111772162Y-120690206D01*
X111789143Y-120647274D01*
X111817627Y-120559152D01*
X111889464Y-120390649D01*
X111928470Y-120306198D01*
X112042371Y-120017454D01*
X112165607Y-119623750D01*
X112286890Y-119163798D01*
X112374239Y-118777428D01*
X112395825Y-118595173D01*
X112411168Y-118305792D01*
X112418985Y-117947218D01*
X112417994Y-117557384D01*
X112417994Y-117557384D01*
G37*
X112417994Y-117557384D02*
X112417170Y-117507428D01*
X112404699Y-117066683D01*
X112383443Y-116741791D01*
X112349918Y-116503560D01*
X112300640Y-116322795D01*
X112265624Y-116237428D01*
X112163192Y-116009596D01*
X112075398Y-115805367D01*
X112059195Y-115765714D01*
X111838968Y-115291063D01*
X111590898Y-114911004D01*
X111535143Y-114841559D01*
X111243693Y-114514038D01*
X110954973Y-114231974D01*
X110699617Y-114023936D01*
X110576038Y-113946984D01*
X110423124Y-113862969D01*
X110337917Y-113806603D01*
X110337714Y-113806401D01*
X110124172Y-113674297D01*
X109804004Y-113578476D01*
X109411944Y-113522294D01*
X108982727Y-113509109D01*
X108551085Y-113542279D01*
X108233143Y-113602975D01*
X108048038Y-113685444D01*
X107808465Y-113839728D01*
X107561653Y-114034087D01*
X107475509Y-114112116D01*
X107329698Y-114239583D01*
X107227606Y-114309637D01*
X107212019Y-114314286D01*
X107157319Y-114375653D01*
X107062895Y-114537871D01*
X106945560Y-114768110D01*
X106822129Y-115033542D01*
X106719544Y-115275836D01*
X106655958Y-115529330D01*
X106616605Y-115889869D01*
X106603102Y-116321131D01*
X106617060Y-116786792D01*
X106639728Y-117072000D01*
X106683168Y-117420719D01*
X106740980Y-117772256D01*
X106801624Y-118057590D01*
X106809595Y-118088000D01*
X106887790Y-118379001D01*
X106964865Y-118669901D01*
X106996828Y-118792305D01*
X107066042Y-119004358D01*
X107142796Y-119162728D01*
X107164632Y-119191448D01*
X107232210Y-119308074D01*
X107317558Y-119515502D01*
X107386935Y-119720857D01*
X107474891Y-119993844D01*
X107562455Y-120243595D01*
X107613312Y-120374000D01*
X107714255Y-120667293D01*
X107814151Y-121054730D01*
X107902078Y-121485647D01*
X107967116Y-121909381D01*
X107988738Y-122115714D01*
X108010439Y-122372349D01*
X108027639Y-122566716D01*
X108036785Y-122658714D01*
X108036982Y-122660000D01*
X108023220Y-122789673D01*
X107967994Y-123003609D01*
X107886207Y-123252319D01*
X107792759Y-123486314D01*
X107779396Y-123515505D01*
X107703114Y-123707553D01*
X107674115Y-123842759D01*
X107681713Y-123874474D01*
X107767599Y-123874938D01*
X107956165Y-123835346D01*
X108124286Y-123788350D01*
X108124286Y-120555428D01*
X108088000Y-120519143D01*
X108124286Y-120482857D01*
X108124286Y-117870286D01*
X108088000Y-117834000D01*
X108124286Y-117797714D01*
X108160572Y-117834000D01*
X108124286Y-117870286D01*
X108124286Y-120482857D01*
X108160572Y-120519143D01*
X108124286Y-120555428D01*
X108124286Y-123788350D01*
X108213074Y-123763530D01*
X108330338Y-123726540D01*
X108623410Y-123636888D01*
X108879693Y-123568844D01*
X109056227Y-123533474D01*
X109090179Y-123530857D01*
X109140286Y-123519653D01*
X109140286Y-122006857D01*
X109104000Y-121970571D01*
X109140286Y-121934286D01*
X109176571Y-121970571D01*
X109140286Y-122006857D01*
X109140286Y-123519653D01*
X109215415Y-123502852D01*
X109249143Y-123458286D01*
X109307923Y-123393902D01*
X109358000Y-123385714D01*
X109482879Y-123337362D01*
X109587810Y-123254306D01*
X109587810Y-120531238D01*
X109544666Y-120521276D01*
X109539429Y-120482857D01*
X109565981Y-120423122D01*
X109575714Y-120428184D01*
X109575714Y-120192571D01*
X109539429Y-120156285D01*
X109575714Y-120120000D01*
X109612000Y-120156285D01*
X109575714Y-120192571D01*
X109575714Y-120428184D01*
X109587810Y-120434476D01*
X109596495Y-120520601D01*
X109587810Y-120531238D01*
X109587810Y-123254306D01*
X109624384Y-123225356D01*
X109624384Y-119991783D01*
X109570616Y-119973724D01*
X109541931Y-119834861D01*
X109539429Y-119749330D01*
X109519221Y-119588777D01*
X109477089Y-119509466D01*
X109434343Y-119421156D01*
X109391581Y-119235820D01*
X109369297Y-119084212D01*
X109316833Y-118791004D01*
X109231443Y-118457250D01*
X109170092Y-118265743D01*
X109089445Y-117990185D01*
X109009107Y-117633883D01*
X108942930Y-117260598D01*
X108926561Y-117144571D01*
X108836784Y-116455143D01*
X109037155Y-116257321D01*
X109184797Y-116130954D01*
X109307471Y-116098575D01*
X109455193Y-116135379D01*
X109653045Y-116278288D01*
X109811270Y-116544509D01*
X109927263Y-116917013D01*
X109998418Y-117378770D01*
X110022130Y-117912751D01*
X109995792Y-118501926D01*
X109916799Y-119129266D01*
X109914965Y-119140286D01*
X109848524Y-119463289D01*
X109772103Y-119722350D01*
X109694468Y-119903253D01*
X109624384Y-119991783D01*
X109624384Y-123225356D01*
X109628083Y-123222428D01*
X109797409Y-123079032D01*
X109946787Y-122986571D01*
X110091064Y-122898225D01*
X110269455Y-122760984D01*
X110443836Y-122608229D01*
X110576077Y-122473344D01*
X110628057Y-122390074D01*
X110672128Y-122306794D01*
X110784312Y-122157949D01*
X110863914Y-122063482D01*
X111108946Y-121776556D01*
X111264058Y-121578214D01*
X111340644Y-121453113D01*
X111353714Y-121403907D01*
X111391500Y-121311194D01*
X111488459Y-121143788D01*
X111571429Y-121015886D01*
X111693144Y-120827621D01*
X111772162Y-120690206D01*
X111789143Y-120647274D01*
X111817627Y-120559152D01*
X111889464Y-120390649D01*
X111928470Y-120306198D01*
X112042371Y-120017454D01*
X112165607Y-119623750D01*
X112286890Y-119163798D01*
X112374239Y-118777428D01*
X112395825Y-118595173D01*
X112411168Y-118305792D01*
X112418985Y-117947218D01*
X112417994Y-117557384D01*
G36*
X108124286Y-113298286D02*
X108088000Y-113334571D01*
X108124286Y-113370857D01*
X108160572Y-113334571D01*
X108124286Y-113298286D01*
X108124286Y-113298286D01*
G37*
X108124286Y-113298286D02*
X108088000Y-113334571D01*
X108124286Y-113370857D01*
X108160572Y-113334571D01*
X108124286Y-113298286D01*
G36*
X98206958Y-127220799D02*
X98187926Y-126869049D01*
X98155250Y-126502010D01*
X98111775Y-126149908D01*
X98060346Y-125842969D01*
X98003809Y-125611419D01*
X97945010Y-125485485D01*
X97926915Y-125472666D01*
X97872435Y-125390426D01*
X97855429Y-125268406D01*
X97824846Y-125086344D01*
X97747047Y-124841943D01*
X97642955Y-124586837D01*
X97533494Y-124372661D01*
X97444826Y-124255142D01*
X97361630Y-124118367D01*
X97347429Y-124033493D01*
X97308635Y-123898076D01*
X97208569Y-123696862D01*
X97111571Y-123538933D01*
X96967499Y-123320594D01*
X96846926Y-123133674D01*
X96795043Y-123050188D01*
X96629555Y-122812800D01*
X96397837Y-122534192D01*
X96121136Y-122234458D01*
X95820699Y-121933697D01*
X95517773Y-121652006D01*
X95233604Y-121409482D01*
X94989440Y-121226221D01*
X94806527Y-121122322D01*
X94739924Y-121106286D01*
X94665345Y-121059625D01*
X94662286Y-121041706D01*
X94601683Y-120975520D01*
X94451379Y-120883899D01*
X94258632Y-120789458D01*
X94070701Y-120714813D01*
X93934844Y-120682577D01*
X93914413Y-120683824D01*
X93788339Y-120664793D01*
X93668844Y-120613321D01*
X93523887Y-120555396D01*
X93304448Y-120491491D01*
X93052855Y-120430889D01*
X92811433Y-120382871D01*
X92622512Y-120356717D01*
X92528418Y-120361709D01*
X92526966Y-120362938D01*
X92544750Y-120436978D01*
X92628311Y-120590593D01*
X92721691Y-120734516D01*
X92843315Y-120916204D01*
X92918395Y-121038033D01*
X92931439Y-121070000D01*
X92938452Y-121128330D01*
X92982511Y-121259751D01*
X93049307Y-121516372D01*
X93100318Y-121866316D01*
X93131435Y-122258235D01*
X93138550Y-122640779D01*
X93118305Y-122956857D01*
X93066577Y-123288133D01*
X92990436Y-123691194D01*
X92899820Y-124120554D01*
X92804669Y-124530722D01*
X92714918Y-124876211D01*
X92658525Y-125061428D01*
X92564419Y-125430824D01*
X92492395Y-125896638D01*
X92446277Y-126411299D01*
X92429889Y-126927237D01*
X92447055Y-127396879D01*
X92460169Y-127528857D01*
X92522968Y-127956140D01*
X92603834Y-128357876D01*
X92693093Y-128690837D01*
X92760653Y-128871428D01*
X93101343Y-129444919D01*
X93543979Y-129932150D01*
X94069338Y-130316251D01*
X94480857Y-130500816D01*
X94480857Y-121904571D01*
X94444571Y-121868286D01*
X94480857Y-121832000D01*
X94517143Y-121868286D01*
X94480857Y-121904571D01*
X94480857Y-130500816D01*
X94658195Y-130580352D01*
X94734857Y-130603954D01*
X95025611Y-130653071D01*
X95281309Y-130656534D01*
X95281309Y-128057636D01*
X95160663Y-128031448D01*
X95041798Y-127952206D01*
X94876251Y-127798940D01*
X94761121Y-127642183D01*
X94719218Y-127467367D01*
X94702345Y-127175936D01*
X94709916Y-126794139D01*
X94741347Y-126348226D01*
X94796054Y-125864447D01*
X94801620Y-125823428D01*
X94867880Y-125260650D01*
X94922285Y-124641840D01*
X94947747Y-124245000D01*
X94978400Y-124155040D01*
X95044878Y-124178201D01*
X95133576Y-124291136D01*
X95230890Y-124470497D01*
X95323215Y-124692938D01*
X95396948Y-124935112D01*
X95423483Y-125061428D01*
X95468040Y-125263755D01*
X95516401Y-125405090D01*
X95527647Y-125424285D01*
X95583218Y-125555714D01*
X95645671Y-125789739D01*
X95706661Y-126084618D01*
X95757844Y-126398604D01*
X95790876Y-126689953D01*
X95796007Y-126766857D01*
X95785556Y-127154697D01*
X95719682Y-127507991D01*
X95608526Y-127793053D01*
X95462230Y-127976197D01*
X95424619Y-128000393D01*
X95281309Y-128057636D01*
X95281309Y-130656534D01*
X95370507Y-130657743D01*
X95714571Y-130625098D01*
X95714571Y-129161714D01*
X95678286Y-129125428D01*
X95714571Y-129089143D01*
X95750857Y-129125428D01*
X95714571Y-129161714D01*
X95714571Y-130625098D01*
X95729298Y-130623700D01*
X96061736Y-130556678D01*
X96327574Y-130462407D01*
X96479652Y-130355430D01*
X96614056Y-130264795D01*
X96686555Y-130250286D01*
X96805810Y-130197143D01*
X96975937Y-130061175D01*
X97163316Y-129877574D01*
X97334331Y-129681532D01*
X97455362Y-129508239D01*
X97493825Y-129405238D01*
X97542625Y-129316597D01*
X97658840Y-129187989D01*
X97663983Y-129183088D01*
X97754615Y-129056561D01*
X97859496Y-128851824D01*
X97963587Y-128607993D01*
X98051853Y-128364183D01*
X98109257Y-128159508D01*
X98120762Y-128033083D01*
X98112671Y-128015909D01*
X98118461Y-127936610D01*
X98153732Y-127882053D01*
X98192706Y-127757527D01*
X98209500Y-127527033D01*
X98206958Y-127220799D01*
X98206958Y-127220799D01*
G37*
X98206958Y-127220799D02*
X98187926Y-126869049D01*
X98155250Y-126502010D01*
X98111775Y-126149908D01*
X98060346Y-125842969D01*
X98003809Y-125611419D01*
X97945010Y-125485485D01*
X97926915Y-125472666D01*
X97872435Y-125390426D01*
X97855429Y-125268406D01*
X97824846Y-125086344D01*
X97747047Y-124841943D01*
X97642955Y-124586837D01*
X97533494Y-124372661D01*
X97444826Y-124255142D01*
X97361630Y-124118367D01*
X97347429Y-124033493D01*
X97308635Y-123898076D01*
X97208569Y-123696862D01*
X97111571Y-123538933D01*
X96967499Y-123320594D01*
X96846926Y-123133674D01*
X96795043Y-123050188D01*
X96629555Y-122812800D01*
X96397837Y-122534192D01*
X96121136Y-122234458D01*
X95820699Y-121933697D01*
X95517773Y-121652006D01*
X95233604Y-121409482D01*
X94989440Y-121226221D01*
X94806527Y-121122322D01*
X94739924Y-121106286D01*
X94665345Y-121059625D01*
X94662286Y-121041706D01*
X94601683Y-120975520D01*
X94451379Y-120883899D01*
X94258632Y-120789458D01*
X94070701Y-120714813D01*
X93934844Y-120682577D01*
X93914413Y-120683824D01*
X93788339Y-120664793D01*
X93668844Y-120613321D01*
X93523887Y-120555396D01*
X93304448Y-120491491D01*
X93052855Y-120430889D01*
X92811433Y-120382871D01*
X92622512Y-120356717D01*
X92528418Y-120361709D01*
X92526966Y-120362938D01*
X92544750Y-120436978D01*
X92628311Y-120590593D01*
X92721691Y-120734516D01*
X92843315Y-120916204D01*
X92918395Y-121038033D01*
X92931439Y-121070000D01*
X92938452Y-121128330D01*
X92982511Y-121259751D01*
X93049307Y-121516372D01*
X93100318Y-121866316D01*
X93131435Y-122258235D01*
X93138550Y-122640779D01*
X93118305Y-122956857D01*
X93066577Y-123288133D01*
X92990436Y-123691194D01*
X92899820Y-124120554D01*
X92804669Y-124530722D01*
X92714918Y-124876211D01*
X92658525Y-125061428D01*
X92564419Y-125430824D01*
X92492395Y-125896638D01*
X92446277Y-126411299D01*
X92429889Y-126927237D01*
X92447055Y-127396879D01*
X92460169Y-127528857D01*
X92522968Y-127956140D01*
X92603834Y-128357876D01*
X92693093Y-128690837D01*
X92760653Y-128871428D01*
X93101343Y-129444919D01*
X93543979Y-129932150D01*
X94069338Y-130316251D01*
X94480857Y-130500816D01*
X94480857Y-121904571D01*
X94444571Y-121868286D01*
X94480857Y-121832000D01*
X94517143Y-121868286D01*
X94480857Y-121904571D01*
X94480857Y-130500816D01*
X94658195Y-130580352D01*
X94734857Y-130603954D01*
X95025611Y-130653071D01*
X95281309Y-130656534D01*
X95281309Y-128057636D01*
X95160663Y-128031448D01*
X95041798Y-127952206D01*
X94876251Y-127798940D01*
X94761121Y-127642183D01*
X94719218Y-127467367D01*
X94702345Y-127175936D01*
X94709916Y-126794139D01*
X94741347Y-126348226D01*
X94796054Y-125864447D01*
X94801620Y-125823428D01*
X94867880Y-125260650D01*
X94922285Y-124641840D01*
X94947747Y-124245000D01*
X94978400Y-124155040D01*
X95044878Y-124178201D01*
X95133576Y-124291136D01*
X95230890Y-124470497D01*
X95323215Y-124692938D01*
X95396948Y-124935112D01*
X95423483Y-125061428D01*
X95468040Y-125263755D01*
X95516401Y-125405090D01*
X95527647Y-125424285D01*
X95583218Y-125555714D01*
X95645671Y-125789739D01*
X95706661Y-126084618D01*
X95757844Y-126398604D01*
X95790876Y-126689953D01*
X95796007Y-126766857D01*
X95785556Y-127154697D01*
X95719682Y-127507991D01*
X95608526Y-127793053D01*
X95462230Y-127976197D01*
X95424619Y-128000393D01*
X95281309Y-128057636D01*
X95281309Y-130656534D01*
X95370507Y-130657743D01*
X95714571Y-130625098D01*
X95714571Y-129161714D01*
X95678286Y-129125428D01*
X95714571Y-129089143D01*
X95750857Y-129125428D01*
X95714571Y-129161714D01*
X95714571Y-130625098D01*
X95729298Y-130623700D01*
X96061736Y-130556678D01*
X96327574Y-130462407D01*
X96479652Y-130355430D01*
X96614056Y-130264795D01*
X96686555Y-130250286D01*
X96805810Y-130197143D01*
X96975937Y-130061175D01*
X97163316Y-129877574D01*
X97334331Y-129681532D01*
X97455362Y-129508239D01*
X97493825Y-129405238D01*
X97542625Y-129316597D01*
X97658840Y-129187989D01*
X97663983Y-129183088D01*
X97754615Y-129056561D01*
X97859496Y-128851824D01*
X97963587Y-128607993D01*
X98051853Y-128364183D01*
X98109257Y-128159508D01*
X98120762Y-128033083D01*
X98112671Y-128015909D01*
X98118461Y-127936610D01*
X98153732Y-127882053D01*
X98192706Y-127757527D01*
X98209500Y-127527033D01*
X98206958Y-127220799D01*
G36*
X112417994Y-137557384D02*
X112417170Y-137507428D01*
X112404699Y-137066683D01*
X112383443Y-136741791D01*
X112349918Y-136503560D01*
X112300640Y-136322795D01*
X112265624Y-136237428D01*
X112163192Y-136009596D01*
X112075398Y-135805367D01*
X112059195Y-135765714D01*
X111838968Y-135291063D01*
X111590898Y-134911004D01*
X111535143Y-134841559D01*
X111243693Y-134514038D01*
X110954973Y-134231974D01*
X110699617Y-134023936D01*
X110576038Y-133946984D01*
X110423124Y-133862969D01*
X110337917Y-133806603D01*
X110337714Y-133806401D01*
X110124172Y-133674297D01*
X109804004Y-133578476D01*
X109411944Y-133522294D01*
X108982727Y-133509109D01*
X108551085Y-133542279D01*
X108233143Y-133602975D01*
X108048038Y-133685444D01*
X107808465Y-133839728D01*
X107561653Y-134034087D01*
X107475509Y-134112116D01*
X107329698Y-134239583D01*
X107227606Y-134309637D01*
X107212019Y-134314286D01*
X107157319Y-134375653D01*
X107062895Y-134537871D01*
X106945560Y-134768110D01*
X106822129Y-135033542D01*
X106719544Y-135275836D01*
X106655958Y-135529330D01*
X106616605Y-135889869D01*
X106603102Y-136321131D01*
X106617060Y-136786792D01*
X106639728Y-137072000D01*
X106683168Y-137420719D01*
X106740980Y-137772256D01*
X106801624Y-138057590D01*
X106809595Y-138088000D01*
X106887790Y-138379001D01*
X106964865Y-138669901D01*
X106996828Y-138792305D01*
X107066042Y-139004358D01*
X107142796Y-139162728D01*
X107164632Y-139191448D01*
X107232210Y-139308074D01*
X107317558Y-139515502D01*
X107386935Y-139720857D01*
X107474891Y-139993844D01*
X107562455Y-140243595D01*
X107613312Y-140374000D01*
X107714255Y-140667293D01*
X107814151Y-141054730D01*
X107902078Y-141485647D01*
X107967116Y-141909381D01*
X107988738Y-142115714D01*
X108010439Y-142372349D01*
X108027639Y-142566716D01*
X108036785Y-142658714D01*
X108036982Y-142660000D01*
X108023220Y-142789673D01*
X107967994Y-143003609D01*
X107886207Y-143252319D01*
X107792759Y-143486314D01*
X107779396Y-143515505D01*
X107703114Y-143707553D01*
X107674115Y-143842759D01*
X107681713Y-143874474D01*
X107767599Y-143874938D01*
X107956165Y-143835346D01*
X108124286Y-143788350D01*
X108124286Y-140555428D01*
X108088000Y-140519143D01*
X108124286Y-140482857D01*
X108124286Y-137870286D01*
X108088000Y-137834000D01*
X108124286Y-137797714D01*
X108160572Y-137834000D01*
X108124286Y-137870286D01*
X108124286Y-140482857D01*
X108160572Y-140519143D01*
X108124286Y-140555428D01*
X108124286Y-143788350D01*
X108213074Y-143763530D01*
X108330338Y-143726540D01*
X108623410Y-143636888D01*
X108879693Y-143568844D01*
X109056227Y-143533474D01*
X109090179Y-143530857D01*
X109140286Y-143519653D01*
X109140286Y-142006857D01*
X109104000Y-141970571D01*
X109140286Y-141934286D01*
X109176571Y-141970571D01*
X109140286Y-142006857D01*
X109140286Y-143519653D01*
X109215415Y-143502852D01*
X109249143Y-143458286D01*
X109307923Y-143393902D01*
X109358000Y-143385714D01*
X109482879Y-143337362D01*
X109587810Y-143254306D01*
X109587810Y-140531238D01*
X109544666Y-140521276D01*
X109539429Y-140482857D01*
X109565981Y-140423122D01*
X109575714Y-140428184D01*
X109575714Y-140192571D01*
X109539429Y-140156285D01*
X109575714Y-140120000D01*
X109612000Y-140156285D01*
X109575714Y-140192571D01*
X109575714Y-140428184D01*
X109587810Y-140434476D01*
X109596495Y-140520601D01*
X109587810Y-140531238D01*
X109587810Y-143254306D01*
X109624384Y-143225356D01*
X109624384Y-139991783D01*
X109570616Y-139973724D01*
X109541931Y-139834861D01*
X109539429Y-139749330D01*
X109519221Y-139588777D01*
X109477089Y-139509466D01*
X109434343Y-139421156D01*
X109391581Y-139235820D01*
X109369297Y-139084212D01*
X109316833Y-138791004D01*
X109231443Y-138457250D01*
X109170092Y-138265743D01*
X109089445Y-137990185D01*
X109009107Y-137633883D01*
X108942930Y-137260598D01*
X108926561Y-137144571D01*
X108836784Y-136455143D01*
X109037155Y-136257321D01*
X109184797Y-136130954D01*
X109307471Y-136098575D01*
X109455193Y-136135379D01*
X109653045Y-136278288D01*
X109811270Y-136544509D01*
X109927263Y-136917013D01*
X109998418Y-137378770D01*
X110022130Y-137912751D01*
X109995792Y-138501926D01*
X109916799Y-139129266D01*
X109914965Y-139140286D01*
X109848524Y-139463289D01*
X109772103Y-139722350D01*
X109694468Y-139903253D01*
X109624384Y-139991783D01*
X109624384Y-143225356D01*
X109628083Y-143222428D01*
X109797409Y-143079032D01*
X109946787Y-142986571D01*
X110091064Y-142898225D01*
X110269455Y-142760984D01*
X110443836Y-142608229D01*
X110576077Y-142473344D01*
X110628057Y-142390074D01*
X110672128Y-142306794D01*
X110784312Y-142157949D01*
X110863914Y-142063482D01*
X111108946Y-141776556D01*
X111264058Y-141578214D01*
X111340644Y-141453113D01*
X111353714Y-141403907D01*
X111391500Y-141311194D01*
X111488459Y-141143788D01*
X111571429Y-141015886D01*
X111693144Y-140827621D01*
X111772162Y-140690206D01*
X111789143Y-140647274D01*
X111817627Y-140559152D01*
X111889464Y-140390649D01*
X111928470Y-140306198D01*
X112042371Y-140017454D01*
X112165607Y-139623750D01*
X112286890Y-139163798D01*
X112374239Y-138777428D01*
X112395825Y-138595173D01*
X112411168Y-138305792D01*
X112418985Y-137947218D01*
X112417994Y-137557384D01*
X112417994Y-137557384D01*
G37*
X112417994Y-137557384D02*
X112417170Y-137507428D01*
X112404699Y-137066683D01*
X112383443Y-136741791D01*
X112349918Y-136503560D01*
X112300640Y-136322795D01*
X112265624Y-136237428D01*
X112163192Y-136009596D01*
X112075398Y-135805367D01*
X112059195Y-135765714D01*
X111838968Y-135291063D01*
X111590898Y-134911004D01*
X111535143Y-134841559D01*
X111243693Y-134514038D01*
X110954973Y-134231974D01*
X110699617Y-134023936D01*
X110576038Y-133946984D01*
X110423124Y-133862969D01*
X110337917Y-133806603D01*
X110337714Y-133806401D01*
X110124172Y-133674297D01*
X109804004Y-133578476D01*
X109411944Y-133522294D01*
X108982727Y-133509109D01*
X108551085Y-133542279D01*
X108233143Y-133602975D01*
X108048038Y-133685444D01*
X107808465Y-133839728D01*
X107561653Y-134034087D01*
X107475509Y-134112116D01*
X107329698Y-134239583D01*
X107227606Y-134309637D01*
X107212019Y-134314286D01*
X107157319Y-134375653D01*
X107062895Y-134537871D01*
X106945560Y-134768110D01*
X106822129Y-135033542D01*
X106719544Y-135275836D01*
X106655958Y-135529330D01*
X106616605Y-135889869D01*
X106603102Y-136321131D01*
X106617060Y-136786792D01*
X106639728Y-137072000D01*
X106683168Y-137420719D01*
X106740980Y-137772256D01*
X106801624Y-138057590D01*
X106809595Y-138088000D01*
X106887790Y-138379001D01*
X106964865Y-138669901D01*
X106996828Y-138792305D01*
X107066042Y-139004358D01*
X107142796Y-139162728D01*
X107164632Y-139191448D01*
X107232210Y-139308074D01*
X107317558Y-139515502D01*
X107386935Y-139720857D01*
X107474891Y-139993844D01*
X107562455Y-140243595D01*
X107613312Y-140374000D01*
X107714255Y-140667293D01*
X107814151Y-141054730D01*
X107902078Y-141485647D01*
X107967116Y-141909381D01*
X107988738Y-142115714D01*
X108010439Y-142372349D01*
X108027639Y-142566716D01*
X108036785Y-142658714D01*
X108036982Y-142660000D01*
X108023220Y-142789673D01*
X107967994Y-143003609D01*
X107886207Y-143252319D01*
X107792759Y-143486314D01*
X107779396Y-143515505D01*
X107703114Y-143707553D01*
X107674115Y-143842759D01*
X107681713Y-143874474D01*
X107767599Y-143874938D01*
X107956165Y-143835346D01*
X108124286Y-143788350D01*
X108124286Y-140555428D01*
X108088000Y-140519143D01*
X108124286Y-140482857D01*
X108124286Y-137870286D01*
X108088000Y-137834000D01*
X108124286Y-137797714D01*
X108160572Y-137834000D01*
X108124286Y-137870286D01*
X108124286Y-140482857D01*
X108160572Y-140519143D01*
X108124286Y-140555428D01*
X108124286Y-143788350D01*
X108213074Y-143763530D01*
X108330338Y-143726540D01*
X108623410Y-143636888D01*
X108879693Y-143568844D01*
X109056227Y-143533474D01*
X109090179Y-143530857D01*
X109140286Y-143519653D01*
X109140286Y-142006857D01*
X109104000Y-141970571D01*
X109140286Y-141934286D01*
X109176571Y-141970571D01*
X109140286Y-142006857D01*
X109140286Y-143519653D01*
X109215415Y-143502852D01*
X109249143Y-143458286D01*
X109307923Y-143393902D01*
X109358000Y-143385714D01*
X109482879Y-143337362D01*
X109587810Y-143254306D01*
X109587810Y-140531238D01*
X109544666Y-140521276D01*
X109539429Y-140482857D01*
X109565981Y-140423122D01*
X109575714Y-140428184D01*
X109575714Y-140192571D01*
X109539429Y-140156285D01*
X109575714Y-140120000D01*
X109612000Y-140156285D01*
X109575714Y-140192571D01*
X109575714Y-140428184D01*
X109587810Y-140434476D01*
X109596495Y-140520601D01*
X109587810Y-140531238D01*
X109587810Y-143254306D01*
X109624384Y-143225356D01*
X109624384Y-139991783D01*
X109570616Y-139973724D01*
X109541931Y-139834861D01*
X109539429Y-139749330D01*
X109519221Y-139588777D01*
X109477089Y-139509466D01*
X109434343Y-139421156D01*
X109391581Y-139235820D01*
X109369297Y-139084212D01*
X109316833Y-138791004D01*
X109231443Y-138457250D01*
X109170092Y-138265743D01*
X109089445Y-137990185D01*
X109009107Y-137633883D01*
X108942930Y-137260598D01*
X108926561Y-137144571D01*
X108836784Y-136455143D01*
X109037155Y-136257321D01*
X109184797Y-136130954D01*
X109307471Y-136098575D01*
X109455193Y-136135379D01*
X109653045Y-136278288D01*
X109811270Y-136544509D01*
X109927263Y-136917013D01*
X109998418Y-137378770D01*
X110022130Y-137912751D01*
X109995792Y-138501926D01*
X109916799Y-139129266D01*
X109914965Y-139140286D01*
X109848524Y-139463289D01*
X109772103Y-139722350D01*
X109694468Y-139903253D01*
X109624384Y-139991783D01*
X109624384Y-143225356D01*
X109628083Y-143222428D01*
X109797409Y-143079032D01*
X109946787Y-142986571D01*
X110091064Y-142898225D01*
X110269455Y-142760984D01*
X110443836Y-142608229D01*
X110576077Y-142473344D01*
X110628057Y-142390074D01*
X110672128Y-142306794D01*
X110784312Y-142157949D01*
X110863914Y-142063482D01*
X111108946Y-141776556D01*
X111264058Y-141578214D01*
X111340644Y-141453113D01*
X111353714Y-141403907D01*
X111391500Y-141311194D01*
X111488459Y-141143788D01*
X111571429Y-141015886D01*
X111693144Y-140827621D01*
X111772162Y-140690206D01*
X111789143Y-140647274D01*
X111817627Y-140559152D01*
X111889464Y-140390649D01*
X111928470Y-140306198D01*
X112042371Y-140017454D01*
X112165607Y-139623750D01*
X112286890Y-139163798D01*
X112374239Y-138777428D01*
X112395825Y-138595173D01*
X112411168Y-138305792D01*
X112418985Y-137947218D01*
X112417994Y-137557384D01*
G36*
X108124286Y-133298286D02*
X108088000Y-133334571D01*
X108124286Y-133370857D01*
X108160572Y-133334571D01*
X108124286Y-133298286D01*
X108124286Y-133298286D01*
G37*
X108124286Y-133298286D02*
X108088000Y-133334571D01*
X108124286Y-133370857D01*
X108160572Y-133334571D01*
X108124286Y-133298286D01*
G04 #@! TO.C,REF\002A\002A\002A*
G36*
X133138097Y-137728100D02*
X133082478Y-137616550D01*
X132980069Y-137518092D01*
X132942136Y-137490977D01*
X132892500Y-137461438D01*
X132838588Y-137442272D01*
X132766636Y-137431307D01*
X132662878Y-137426371D01*
X132525899Y-137425287D01*
X132338185Y-137430182D01*
X132197242Y-137447196D01*
X132092092Y-137479823D01*
X132011757Y-137531558D01*
X131945259Y-137605896D01*
X131941322Y-137611358D01*
X131901047Y-137684620D01*
X131881120Y-137772840D01*
X131876207Y-137885038D01*
X131876207Y-138067433D01*
X131699143Y-138067509D01*
X131600530Y-138069207D01*
X131542686Y-138079550D01*
X131507994Y-138106578D01*
X131478836Y-138158332D01*
X131472879Y-138170761D01*
X131444961Y-138228923D01*
X131427328Y-138273956D01*
X131425806Y-138307441D01*
X131446219Y-138330962D01*
X131494393Y-138346100D01*
X131576154Y-138354437D01*
X131697328Y-138357556D01*
X131863740Y-138357040D01*
X132081215Y-138354471D01*
X132146264Y-138353668D01*
X132370498Y-138350778D01*
X132517179Y-138348188D01*
X132517179Y-138067586D01*
X132392674Y-138066009D01*
X132311213Y-138059000D01*
X132257485Y-138043142D01*
X132216177Y-138015019D01*
X132196029Y-137995925D01*
X132137079Y-137917865D01*
X132132280Y-137848753D01*
X132180962Y-137777440D01*
X132182759Y-137775632D01*
X132220382Y-137746617D01*
X132271516Y-137728967D01*
X132350262Y-137720064D01*
X132470724Y-137717291D01*
X132497412Y-137717241D01*
X132663417Y-137723942D01*
X132778495Y-137745752D01*
X132848746Y-137785235D01*
X132880271Y-137844956D01*
X132883448Y-137879472D01*
X132868540Y-137961389D01*
X132819452Y-138017579D01*
X132729638Y-138051402D01*
X132592555Y-138066220D01*
X132517179Y-138067586D01*
X132517179Y-138348188D01*
X132544048Y-138347713D01*
X132674618Y-138343753D01*
X132769913Y-138338174D01*
X132837636Y-138330254D01*
X132885493Y-138319269D01*
X132921187Y-138304499D01*
X132952422Y-138285218D01*
X132964176Y-138276951D01*
X133075203Y-138167288D01*
X133138153Y-138028635D01*
X133155703Y-137868246D01*
X133138097Y-137728100D01*
X133138097Y-137728100D01*
G37*
X133138097Y-137728100D02*
X133082478Y-137616550D01*
X132980069Y-137518092D01*
X132942136Y-137490977D01*
X132892500Y-137461438D01*
X132838588Y-137442272D01*
X132766636Y-137431307D01*
X132662878Y-137426371D01*
X132525899Y-137425287D01*
X132338185Y-137430182D01*
X132197242Y-137447196D01*
X132092092Y-137479823D01*
X132011757Y-137531558D01*
X131945259Y-137605896D01*
X131941322Y-137611358D01*
X131901047Y-137684620D01*
X131881120Y-137772840D01*
X131876207Y-137885038D01*
X131876207Y-138067433D01*
X131699143Y-138067509D01*
X131600530Y-138069207D01*
X131542686Y-138079550D01*
X131507994Y-138106578D01*
X131478836Y-138158332D01*
X131472879Y-138170761D01*
X131444961Y-138228923D01*
X131427328Y-138273956D01*
X131425806Y-138307441D01*
X131446219Y-138330962D01*
X131494393Y-138346100D01*
X131576154Y-138354437D01*
X131697328Y-138357556D01*
X131863740Y-138357040D01*
X132081215Y-138354471D01*
X132146264Y-138353668D01*
X132370498Y-138350778D01*
X132517179Y-138348188D01*
X132517179Y-138067586D01*
X132392674Y-138066009D01*
X132311213Y-138059000D01*
X132257485Y-138043142D01*
X132216177Y-138015019D01*
X132196029Y-137995925D01*
X132137079Y-137917865D01*
X132132280Y-137848753D01*
X132180962Y-137777440D01*
X132182759Y-137775632D01*
X132220382Y-137746617D01*
X132271516Y-137728967D01*
X132350262Y-137720064D01*
X132470724Y-137717291D01*
X132497412Y-137717241D01*
X132663417Y-137723942D01*
X132778495Y-137745752D01*
X132848746Y-137785235D01*
X132880271Y-137844956D01*
X132883448Y-137879472D01*
X132868540Y-137961389D01*
X132819452Y-138017579D01*
X132729638Y-138051402D01*
X132592555Y-138066220D01*
X132517179Y-138067586D01*
X132517179Y-138348188D01*
X132544048Y-138347713D01*
X132674618Y-138343753D01*
X132769913Y-138338174D01*
X132837636Y-138330254D01*
X132885493Y-138319269D01*
X132921187Y-138304499D01*
X132952422Y-138285218D01*
X132964176Y-138276951D01*
X133075203Y-138167288D01*
X133138153Y-138028635D01*
X133155703Y-137868246D01*
X133138097Y-137728100D01*
G36*
X133122281Y-135482571D02*
X133068086Y-135388877D01*
X133014293Y-135323736D01*
X132957934Y-135276093D01*
X132889013Y-135243272D01*
X132797532Y-135222594D01*
X132673494Y-135211380D01*
X132506902Y-135206951D01*
X132387149Y-135206437D01*
X131946341Y-135206437D01*
X131890717Y-135330517D01*
X131835093Y-135454598D01*
X132317905Y-135469195D01*
X132498221Y-135475227D01*
X132629099Y-135481555D01*
X132719489Y-135489394D01*
X132778336Y-135499963D01*
X132814587Y-135514477D01*
X132837190Y-135534152D01*
X132842083Y-135540465D01*
X132880294Y-135636112D01*
X132865173Y-135732793D01*
X132825057Y-135790345D01*
X132796630Y-135813755D01*
X132759328Y-135829961D01*
X132702777Y-135840259D01*
X132616606Y-135845951D01*
X132490442Y-135848336D01*
X132358958Y-135848736D01*
X132194001Y-135848814D01*
X132077239Y-135851639D01*
X131998490Y-135861093D01*
X131947569Y-135881060D01*
X131914294Y-135915424D01*
X131888480Y-135968068D01*
X131861656Y-136038383D01*
X131832458Y-136115180D01*
X132350654Y-136106038D01*
X132537461Y-136102357D01*
X132675510Y-136098050D01*
X132774432Y-136091877D01*
X132843855Y-136082598D01*
X132893410Y-136068973D01*
X132932727Y-136049761D01*
X132967416Y-136026598D01*
X133078230Y-135914848D01*
X133142311Y-135778487D01*
X133157661Y-135630175D01*
X133122281Y-135482571D01*
X133122281Y-135482571D01*
G37*
X133122281Y-135482571D02*
X133068086Y-135388877D01*
X133014293Y-135323736D01*
X132957934Y-135276093D01*
X132889013Y-135243272D01*
X132797532Y-135222594D01*
X132673494Y-135211380D01*
X132506902Y-135206951D01*
X132387149Y-135206437D01*
X131946341Y-135206437D01*
X131890717Y-135330517D01*
X131835093Y-135454598D01*
X132317905Y-135469195D01*
X132498221Y-135475227D01*
X132629099Y-135481555D01*
X132719489Y-135489394D01*
X132778336Y-135499963D01*
X132814587Y-135514477D01*
X132837190Y-135534152D01*
X132842083Y-135540465D01*
X132880294Y-135636112D01*
X132865173Y-135732793D01*
X132825057Y-135790345D01*
X132796630Y-135813755D01*
X132759328Y-135829961D01*
X132702777Y-135840259D01*
X132616606Y-135845951D01*
X132490442Y-135848336D01*
X132358958Y-135848736D01*
X132194001Y-135848814D01*
X132077239Y-135851639D01*
X131998490Y-135861093D01*
X131947569Y-135881060D01*
X131914294Y-135915424D01*
X131888480Y-135968068D01*
X131861656Y-136038383D01*
X131832458Y-136115180D01*
X132350654Y-136106038D01*
X132537461Y-136102357D01*
X132675510Y-136098050D01*
X132774432Y-136091877D01*
X132843855Y-136082598D01*
X132893410Y-136068973D01*
X132932727Y-136049761D01*
X132967416Y-136026598D01*
X133078230Y-135914848D01*
X133142311Y-135778487D01*
X133157661Y-135630175D01*
X133122281Y-135482571D01*
G36*
X133133985Y-138851779D02*
X133062032Y-138714939D01*
X132946234Y-138613949D01*
X132871787Y-138578075D01*
X132760008Y-138550161D01*
X132618773Y-138535871D01*
X132464629Y-138534516D01*
X132314121Y-138545405D01*
X132183795Y-138567847D01*
X132090197Y-138601150D01*
X132074078Y-138611385D01*
X131953751Y-138732618D01*
X131881683Y-138876613D01*
X131860592Y-139032861D01*
X131893198Y-139190852D01*
X131912747Y-139234820D01*
X131972988Y-139320444D01*
X132052865Y-139395592D01*
X132062996Y-139402694D01*
X132111819Y-139431561D01*
X132164010Y-139450643D01*
X132232715Y-139461916D01*
X132331082Y-139467355D01*
X132472256Y-139468938D01*
X132503908Y-139468965D01*
X132513981Y-139468893D01*
X132513981Y-139177011D01*
X132380744Y-139175313D01*
X132292326Y-139168628D01*
X132235215Y-139154575D01*
X132195898Y-139130771D01*
X132182759Y-139118621D01*
X132132828Y-139048764D01*
X132135105Y-138980941D01*
X132178416Y-138912365D01*
X132224654Y-138871465D01*
X132292143Y-138847242D01*
X132398567Y-138833639D01*
X132410980Y-138832706D01*
X132603853Y-138830384D01*
X132747100Y-138854650D01*
X132839840Y-138905176D01*
X132881193Y-138981632D01*
X132883448Y-139008924D01*
X132872107Y-139080589D01*
X132832816Y-139129610D01*
X132757674Y-139159582D01*
X132638778Y-139174101D01*
X132513981Y-139177011D01*
X132513981Y-139468893D01*
X132654341Y-139467878D01*
X132759451Y-139463312D01*
X132832286Y-139453312D01*
X132885892Y-139435921D01*
X132933319Y-139409184D01*
X132942136Y-139403276D01*
X133060993Y-139303968D01*
X133129992Y-139195758D01*
X133157381Y-139064019D01*
X133158719Y-139019283D01*
X133133985Y-138851779D01*
X133133985Y-138851779D01*
G37*
X133133985Y-138851779D02*
X133062032Y-138714939D01*
X132946234Y-138613949D01*
X132871787Y-138578075D01*
X132760008Y-138550161D01*
X132618773Y-138535871D01*
X132464629Y-138534516D01*
X132314121Y-138545405D01*
X132183795Y-138567847D01*
X132090197Y-138601150D01*
X132074078Y-138611385D01*
X131953751Y-138732618D01*
X131881683Y-138876613D01*
X131860592Y-139032861D01*
X131893198Y-139190852D01*
X131912747Y-139234820D01*
X131972988Y-139320444D01*
X132052865Y-139395592D01*
X132062996Y-139402694D01*
X132111819Y-139431561D01*
X132164010Y-139450643D01*
X132232715Y-139461916D01*
X132331082Y-139467355D01*
X132472256Y-139468938D01*
X132503908Y-139468965D01*
X132513981Y-139468893D01*
X132513981Y-139177011D01*
X132380744Y-139175313D01*
X132292326Y-139168628D01*
X132235215Y-139154575D01*
X132195898Y-139130771D01*
X132182759Y-139118621D01*
X132132828Y-139048764D01*
X132135105Y-138980941D01*
X132178416Y-138912365D01*
X132224654Y-138871465D01*
X132292143Y-138847242D01*
X132398567Y-138833639D01*
X132410980Y-138832706D01*
X132603853Y-138830384D01*
X132747100Y-138854650D01*
X132839840Y-138905176D01*
X132881193Y-138981632D01*
X132883448Y-139008924D01*
X132872107Y-139080589D01*
X132832816Y-139129610D01*
X132757674Y-139159582D01*
X132638778Y-139174101D01*
X132513981Y-139177011D01*
X132513981Y-139468893D01*
X132654341Y-139467878D01*
X132759451Y-139463312D01*
X132832286Y-139453312D01*
X132885892Y-139435921D01*
X132933319Y-139409184D01*
X132942136Y-139403276D01*
X133060993Y-139303968D01*
X133129992Y-139195758D01*
X133157381Y-139064019D01*
X133158719Y-139019283D01*
X133133985Y-138851779D01*
G36*
X133115324Y-136584448D02*
X133037889Y-136469342D01*
X132926051Y-136380389D01*
X132783735Y-136327251D01*
X132678985Y-136316503D01*
X132635274Y-136317724D01*
X132601806Y-136327944D01*
X132571821Y-136356039D01*
X132538560Y-136410884D01*
X132495262Y-136501355D01*
X132435167Y-136636328D01*
X132434866Y-136637011D01*
X132377963Y-136761249D01*
X132327435Y-136863127D01*
X132288720Y-136932233D01*
X132267260Y-136958154D01*
X132267087Y-136958161D01*
X132220356Y-136935315D01*
X132168846Y-136881891D01*
X132131739Y-136820558D01*
X132124368Y-136789485D01*
X132149862Y-136704711D01*
X132213709Y-136631707D01*
X132283906Y-136596087D01*
X132335657Y-136561820D01*
X132394591Y-136494697D01*
X132445504Y-136415792D01*
X132473191Y-136346179D01*
X132474713Y-136331623D01*
X132449679Y-136315237D01*
X132385689Y-136314250D01*
X132299407Y-136326292D01*
X132207499Y-136348993D01*
X132126631Y-136379986D01*
X132123491Y-136381552D01*
X131993266Y-136474819D01*
X131904689Y-136595696D01*
X131861214Y-136732973D01*
X131866294Y-136875440D01*
X131923384Y-137011888D01*
X131927398Y-137017955D01*
X132024674Y-137125290D01*
X132151591Y-137195868D01*
X132318474Y-137234926D01*
X132365361Y-137240168D01*
X132586671Y-137249452D01*
X132689876Y-137238322D01*
X132689876Y-136958161D01*
X132625497Y-136954521D01*
X132606709Y-136934611D01*
X132620765Y-136884974D01*
X132653991Y-136806733D01*
X132695641Y-136719274D01*
X132696744Y-136717101D01*
X132735735Y-136642970D01*
X132761756Y-136613219D01*
X132789035Y-136620555D01*
X132824879Y-136651447D01*
X132876749Y-136730040D01*
X132880561Y-136814677D01*
X132842811Y-136890597D01*
X132769999Y-136943035D01*
X132689876Y-136958161D01*
X132689876Y-137238322D01*
X132763739Y-137230356D01*
X132904171Y-137181366D01*
X133002553Y-137113164D01*
X133101970Y-136990065D01*
X133151289Y-136854472D01*
X133154432Y-136716045D01*
X133115324Y-136584448D01*
X133115324Y-136584448D01*
G37*
X133115324Y-136584448D02*
X133037889Y-136469342D01*
X132926051Y-136380389D01*
X132783735Y-136327251D01*
X132678985Y-136316503D01*
X132635274Y-136317724D01*
X132601806Y-136327944D01*
X132571821Y-136356039D01*
X132538560Y-136410884D01*
X132495262Y-136501355D01*
X132435167Y-136636328D01*
X132434866Y-136637011D01*
X132377963Y-136761249D01*
X132327435Y-136863127D01*
X132288720Y-136932233D01*
X132267260Y-136958154D01*
X132267087Y-136958161D01*
X132220356Y-136935315D01*
X132168846Y-136881891D01*
X132131739Y-136820558D01*
X132124368Y-136789485D01*
X132149862Y-136704711D01*
X132213709Y-136631707D01*
X132283906Y-136596087D01*
X132335657Y-136561820D01*
X132394591Y-136494697D01*
X132445504Y-136415792D01*
X132473191Y-136346179D01*
X132474713Y-136331623D01*
X132449679Y-136315237D01*
X132385689Y-136314250D01*
X132299407Y-136326292D01*
X132207499Y-136348993D01*
X132126631Y-136379986D01*
X132123491Y-136381552D01*
X131993266Y-136474819D01*
X131904689Y-136595696D01*
X131861214Y-136732973D01*
X131866294Y-136875440D01*
X131923384Y-137011888D01*
X131927398Y-137017955D01*
X132024674Y-137125290D01*
X132151591Y-137195868D01*
X132318474Y-137234926D01*
X132365361Y-137240168D01*
X132586671Y-137249452D01*
X132689876Y-137238322D01*
X132689876Y-136958161D01*
X132625497Y-136954521D01*
X132606709Y-136934611D01*
X132620765Y-136884974D01*
X132653991Y-136806733D01*
X132695641Y-136719274D01*
X132696744Y-136717101D01*
X132735735Y-136642970D01*
X132761756Y-136613219D01*
X132789035Y-136620555D01*
X132824879Y-136651447D01*
X132876749Y-136730040D01*
X132880561Y-136814677D01*
X132842811Y-136890597D01*
X132769999Y-136943035D01*
X132689876Y-136958161D01*
X132689876Y-137238322D01*
X132763739Y-137230356D01*
X132904171Y-137181366D01*
X133002553Y-137113164D01*
X133101970Y-136990065D01*
X133151289Y-136854472D01*
X133154432Y-136716045D01*
X133115324Y-136584448D01*
G36*
X133276143Y-134155402D02*
X133156812Y-134146846D01*
X133086494Y-134137019D01*
X133055821Y-134123401D01*
X133055429Y-134103473D01*
X133059090Y-134097011D01*
X133085602Y-134011060D01*
X133084054Y-133899255D01*
X133056801Y-133785586D01*
X133021545Y-133714490D01*
X132965222Y-133641595D01*
X132901481Y-133588307D01*
X132820490Y-133551725D01*
X132712414Y-133528950D01*
X132567420Y-133517081D01*
X132375674Y-133513218D01*
X132338891Y-133513149D01*
X131925712Y-133513103D01*
X131893661Y-133605046D01*
X131871856Y-133670348D01*
X131861703Y-133706176D01*
X131861609Y-133707230D01*
X131889140Y-133710758D01*
X131965077Y-133713761D01*
X132079435Y-133716010D01*
X132222231Y-133717276D01*
X132309049Y-133717471D01*
X132480227Y-133717877D01*
X132602912Y-133719968D01*
X132687000Y-133725053D01*
X132742386Y-133734440D01*
X132778968Y-133749439D01*
X132806641Y-133771358D01*
X132819968Y-133785043D01*
X132873672Y-133879051D01*
X132877693Y-133981636D01*
X132832275Y-134074710D01*
X132815877Y-134091922D01*
X132785043Y-134117168D01*
X132748469Y-134134680D01*
X132695585Y-134145858D01*
X132615823Y-134152104D01*
X132498615Y-134154818D01*
X132337009Y-134155402D01*
X131925712Y-134155402D01*
X131893661Y-134247345D01*
X131871856Y-134312647D01*
X131861703Y-134348475D01*
X131861609Y-134349529D01*
X131889552Y-134352225D01*
X131968370Y-134354655D01*
X132090547Y-134356722D01*
X132248568Y-134358329D01*
X132434917Y-134359377D01*
X132642080Y-134359769D01*
X132651294Y-134359770D01*
X133440980Y-134359770D01*
X133481003Y-134264885D01*
X133521027Y-134170000D01*
X133276143Y-134155402D01*
X133276143Y-134155402D01*
G37*
X133276143Y-134155402D02*
X133156812Y-134146846D01*
X133086494Y-134137019D01*
X133055821Y-134123401D01*
X133055429Y-134103473D01*
X133059090Y-134097011D01*
X133085602Y-134011060D01*
X133084054Y-133899255D01*
X133056801Y-133785586D01*
X133021545Y-133714490D01*
X132965222Y-133641595D01*
X132901481Y-133588307D01*
X132820490Y-133551725D01*
X132712414Y-133528950D01*
X132567420Y-133517081D01*
X132375674Y-133513218D01*
X132338891Y-133513149D01*
X131925712Y-133513103D01*
X131893661Y-133605046D01*
X131871856Y-133670348D01*
X131861703Y-133706176D01*
X131861609Y-133707230D01*
X131889140Y-133710758D01*
X131965077Y-133713761D01*
X132079435Y-133716010D01*
X132222231Y-133717276D01*
X132309049Y-133717471D01*
X132480227Y-133717877D01*
X132602912Y-133719968D01*
X132687000Y-133725053D01*
X132742386Y-133734440D01*
X132778968Y-133749439D01*
X132806641Y-133771358D01*
X132819968Y-133785043D01*
X132873672Y-133879051D01*
X132877693Y-133981636D01*
X132832275Y-134074710D01*
X132815877Y-134091922D01*
X132785043Y-134117168D01*
X132748469Y-134134680D01*
X132695585Y-134145858D01*
X132615823Y-134152104D01*
X132498615Y-134154818D01*
X132337009Y-134155402D01*
X131925712Y-134155402D01*
X131893661Y-134247345D01*
X131871856Y-134312647D01*
X131861703Y-134348475D01*
X131861609Y-134349529D01*
X131889552Y-134352225D01*
X131968370Y-134354655D01*
X132090547Y-134356722D01*
X132248568Y-134358329D01*
X132434917Y-134359377D01*
X132642080Y-134359769D01*
X132651294Y-134359770D01*
X133440980Y-134359770D01*
X133481003Y-134264885D01*
X133521027Y-134170000D01*
X133276143Y-134155402D01*
G36*
X133075640Y-132820056D02*
X133033158Y-132705657D01*
X133032342Y-132704348D01*
X132980270Y-132633597D01*
X132919416Y-132581364D01*
X132840113Y-132544629D01*
X132732691Y-132520366D01*
X132587483Y-132505555D01*
X132394821Y-132497171D01*
X132367372Y-132496436D01*
X131953479Y-132485880D01*
X131907544Y-132574709D01*
X131876502Y-132638982D01*
X131861794Y-132677790D01*
X131861609Y-132679585D01*
X131888750Y-132686300D01*
X131961959Y-132691635D01*
X132068919Y-132694917D01*
X132155531Y-132695632D01*
X132295838Y-132695649D01*
X132383949Y-132702063D01*
X132425975Y-132724420D01*
X132428025Y-132772268D01*
X132396210Y-132855151D01*
X132337728Y-132980287D01*
X132289155Y-133072303D01*
X132247014Y-133119629D01*
X132201084Y-133133542D01*
X132198811Y-133133563D01*
X132119689Y-133110605D01*
X132076945Y-133042630D01*
X132070754Y-132938602D01*
X132071828Y-132863670D01*
X132050247Y-132824161D01*
X131998409Y-132799522D01*
X131932368Y-132785341D01*
X131894896Y-132805777D01*
X131889533Y-132813472D01*
X131867994Y-132885917D01*
X131864945Y-132987367D01*
X131879222Y-133091843D01*
X131905312Y-133165875D01*
X131992215Y-133268228D01*
X132113184Y-133326409D01*
X132207692Y-133337931D01*
X132292938Y-133329138D01*
X132362524Y-133297320D01*
X132424328Y-133234316D01*
X132486228Y-133131969D01*
X132556103Y-132982118D01*
X132560052Y-132972988D01*
X132622412Y-132838003D01*
X132673554Y-132754706D01*
X132719512Y-132719003D01*
X132766317Y-132726797D01*
X132820002Y-132773993D01*
X132832356Y-132788106D01*
X132880259Y-132882641D01*
X132878242Y-132980594D01*
X132831276Y-133065903D01*
X132744331Y-133122504D01*
X132727266Y-133127763D01*
X132644496Y-133178977D01*
X132604628Y-133243963D01*
X132565118Y-133337931D01*
X132667342Y-133337931D01*
X132815928Y-133309347D01*
X132952216Y-133224505D01*
X132997809Y-133180355D01*
X133056326Y-133079995D01*
X133082816Y-132952365D01*
X133075640Y-132820056D01*
X133075640Y-132820056D01*
G37*
X133075640Y-132820056D02*
X133033158Y-132705657D01*
X133032342Y-132704348D01*
X132980270Y-132633597D01*
X132919416Y-132581364D01*
X132840113Y-132544629D01*
X132732691Y-132520366D01*
X132587483Y-132505555D01*
X132394821Y-132497171D01*
X132367372Y-132496436D01*
X131953479Y-132485880D01*
X131907544Y-132574709D01*
X131876502Y-132638982D01*
X131861794Y-132677790D01*
X131861609Y-132679585D01*
X131888750Y-132686300D01*
X131961959Y-132691635D01*
X132068919Y-132694917D01*
X132155531Y-132695632D01*
X132295838Y-132695649D01*
X132383949Y-132702063D01*
X132425975Y-132724420D01*
X132428025Y-132772268D01*
X132396210Y-132855151D01*
X132337728Y-132980287D01*
X132289155Y-133072303D01*
X132247014Y-133119629D01*
X132201084Y-133133542D01*
X132198811Y-133133563D01*
X132119689Y-133110605D01*
X132076945Y-133042630D01*
X132070754Y-132938602D01*
X132071828Y-132863670D01*
X132050247Y-132824161D01*
X131998409Y-132799522D01*
X131932368Y-132785341D01*
X131894896Y-132805777D01*
X131889533Y-132813472D01*
X131867994Y-132885917D01*
X131864945Y-132987367D01*
X131879222Y-133091843D01*
X131905312Y-133165875D01*
X131992215Y-133268228D01*
X132113184Y-133326409D01*
X132207692Y-133337931D01*
X132292938Y-133329138D01*
X132362524Y-133297320D01*
X132424328Y-133234316D01*
X132486228Y-133131969D01*
X132556103Y-132982118D01*
X132560052Y-132972988D01*
X132622412Y-132838003D01*
X132673554Y-132754706D01*
X132719512Y-132719003D01*
X132766317Y-132726797D01*
X132820002Y-132773993D01*
X132832356Y-132788106D01*
X132880259Y-132882641D01*
X132878242Y-132980594D01*
X132831276Y-133065903D01*
X132744331Y-133122504D01*
X132727266Y-133127763D01*
X132644496Y-133178977D01*
X132604628Y-133243963D01*
X132565118Y-133337931D01*
X132667342Y-133337931D01*
X132815928Y-133309347D01*
X132952216Y-133224505D01*
X132997809Y-133180355D01*
X133056326Y-133079995D01*
X133082816Y-132952365D01*
X133075640Y-132820056D01*
G36*
X133078080Y-131834057D02*
X133029141Y-131701435D01*
X132942581Y-131593990D01*
X132881648Y-131551968D01*
X132769839Y-131506157D01*
X132688994Y-131507109D01*
X132634622Y-131555192D01*
X132625376Y-131572983D01*
X132596550Y-131649796D01*
X132603935Y-131689024D01*
X132652342Y-131702311D01*
X132679080Y-131702988D01*
X132777452Y-131727314D01*
X132846266Y-131790719D01*
X132879502Y-131878846D01*
X132871139Y-131977337D01*
X132827704Y-132057398D01*
X132802928Y-132084439D01*
X132772871Y-132103606D01*
X132727435Y-132116554D01*
X132656524Y-132124936D01*
X132550040Y-132130407D01*
X132397888Y-132134622D01*
X132349713Y-132135713D01*
X132184905Y-132139693D01*
X132068912Y-132144219D01*
X131992167Y-132151005D01*
X131945107Y-132161769D01*
X131918165Y-132178227D01*
X131901777Y-132202094D01*
X131894537Y-132217374D01*
X131869780Y-132282267D01*
X131861609Y-132320466D01*
X131888897Y-132333088D01*
X131971397Y-132340792D01*
X132110059Y-132343620D01*
X132305838Y-132341614D01*
X132336035Y-132340989D01*
X132514651Y-132336579D01*
X132645077Y-132331365D01*
X132737508Y-132323945D01*
X132802142Y-132312918D01*
X132849175Y-132296883D01*
X132888804Y-132274439D01*
X132905785Y-132262698D01*
X132980920Y-132195381D01*
X133039362Y-132120090D01*
X133044464Y-132110872D01*
X133084740Y-131975867D01*
X133078080Y-131834057D01*
X133078080Y-131834057D01*
G37*
X133078080Y-131834057D02*
X133029141Y-131701435D01*
X132942581Y-131593990D01*
X132881648Y-131551968D01*
X132769839Y-131506157D01*
X132688994Y-131507109D01*
X132634622Y-131555192D01*
X132625376Y-131572983D01*
X132596550Y-131649796D01*
X132603935Y-131689024D01*
X132652342Y-131702311D01*
X132679080Y-131702988D01*
X132777452Y-131727314D01*
X132846266Y-131790719D01*
X132879502Y-131878846D01*
X132871139Y-131977337D01*
X132827704Y-132057398D01*
X132802928Y-132084439D01*
X132772871Y-132103606D01*
X132727435Y-132116554D01*
X132656524Y-132124936D01*
X132550040Y-132130407D01*
X132397888Y-132134622D01*
X132349713Y-132135713D01*
X132184905Y-132139693D01*
X132068912Y-132144219D01*
X131992167Y-132151005D01*
X131945107Y-132161769D01*
X131918165Y-132178227D01*
X131901777Y-132202094D01*
X131894537Y-132217374D01*
X131869780Y-132282267D01*
X131861609Y-132320466D01*
X131888897Y-132333088D01*
X131971397Y-132340792D01*
X132110059Y-132343620D01*
X132305838Y-132341614D01*
X132336035Y-132340989D01*
X132514651Y-132336579D01*
X132645077Y-132331365D01*
X132737508Y-132323945D01*
X132802142Y-132312918D01*
X132849175Y-132296883D01*
X132888804Y-132274439D01*
X132905785Y-132262698D01*
X132980920Y-132195381D01*
X133039362Y-132120090D01*
X133044464Y-132110872D01*
X133084740Y-131975867D01*
X133078080Y-131834057D01*
G36*
X132845545Y-130506086D02*
X132627339Y-130506457D01*
X132459481Y-130507892D01*
X132333930Y-130510998D01*
X132242645Y-130516378D01*
X132177585Y-130524638D01*
X132130709Y-130536384D01*
X132093976Y-130552219D01*
X132073009Y-130564210D01*
X131959306Y-130663510D01*
X131888035Y-130789412D01*
X131862462Y-130928709D01*
X131885850Y-131068195D01*
X131927881Y-131151257D01*
X132000589Y-131238455D01*
X132089388Y-131297883D01*
X132205680Y-131333739D01*
X132360865Y-131350219D01*
X132474713Y-131352553D01*
X132482894Y-131352239D01*
X132482894Y-131148276D01*
X132352343Y-131147030D01*
X132265920Y-131141322D01*
X132209382Y-131128196D01*
X132168486Y-131104694D01*
X132137638Y-131076614D01*
X132078095Y-130982312D01*
X132073008Y-130881060D01*
X132122721Y-130785364D01*
X132129457Y-130777916D01*
X132164498Y-130746126D01*
X132206189Y-130726192D01*
X132268238Y-130715400D01*
X132364356Y-130711035D01*
X132470621Y-130710345D01*
X132604120Y-130711841D01*
X132693178Y-130718036D01*
X132751707Y-130731486D01*
X132793618Y-130754749D01*
X132815877Y-130773825D01*
X132872015Y-130862437D01*
X132878765Y-130964492D01*
X132835886Y-131061905D01*
X132819968Y-131080704D01*
X132784618Y-131112707D01*
X132742498Y-131132682D01*
X132679749Y-131143407D01*
X132582513Y-131147661D01*
X132482894Y-131148276D01*
X132482894Y-131352239D01*
X132658053Y-131345496D01*
X132795805Y-131321528D01*
X132899368Y-131276452D01*
X132980144Y-131206072D01*
X133021545Y-131151257D01*
X133066272Y-131051624D01*
X133087033Y-130936145D01*
X133081475Y-130828801D01*
X133059057Y-130768736D01*
X133052677Y-130745165D01*
X133076465Y-130729523D01*
X133140212Y-130718605D01*
X133237313Y-130710345D01*
X133345459Y-130701301D01*
X133410525Y-130688739D01*
X133447732Y-130665881D01*
X133472301Y-130625949D01*
X133483181Y-130600862D01*
X133522928Y-130505977D01*
X132845545Y-130506086D01*
X132845545Y-130506086D01*
G37*
X132845545Y-130506086D02*
X132627339Y-130506457D01*
X132459481Y-130507892D01*
X132333930Y-130510998D01*
X132242645Y-130516378D01*
X132177585Y-130524638D01*
X132130709Y-130536384D01*
X132093976Y-130552219D01*
X132073009Y-130564210D01*
X131959306Y-130663510D01*
X131888035Y-130789412D01*
X131862462Y-130928709D01*
X131885850Y-131068195D01*
X131927881Y-131151257D01*
X132000589Y-131238455D01*
X132089388Y-131297883D01*
X132205680Y-131333739D01*
X132360865Y-131350219D01*
X132474713Y-131352553D01*
X132482894Y-131352239D01*
X132482894Y-131148276D01*
X132352343Y-131147030D01*
X132265920Y-131141322D01*
X132209382Y-131128196D01*
X132168486Y-131104694D01*
X132137638Y-131076614D01*
X132078095Y-130982312D01*
X132073008Y-130881060D01*
X132122721Y-130785364D01*
X132129457Y-130777916D01*
X132164498Y-130746126D01*
X132206189Y-130726192D01*
X132268238Y-130715400D01*
X132364356Y-130711035D01*
X132470621Y-130710345D01*
X132604120Y-130711841D01*
X132693178Y-130718036D01*
X132751707Y-130731486D01*
X132793618Y-130754749D01*
X132815877Y-130773825D01*
X132872015Y-130862437D01*
X132878765Y-130964492D01*
X132835886Y-131061905D01*
X132819968Y-131080704D01*
X132784618Y-131112707D01*
X132742498Y-131132682D01*
X132679749Y-131143407D01*
X132582513Y-131147661D01*
X132482894Y-131148276D01*
X132482894Y-131352239D01*
X132658053Y-131345496D01*
X132795805Y-131321528D01*
X132899368Y-131276452D01*
X132980144Y-131206072D01*
X133021545Y-131151257D01*
X133066272Y-131051624D01*
X133087033Y-130936145D01*
X133081475Y-130828801D01*
X133059057Y-130768736D01*
X133052677Y-130745165D01*
X133076465Y-130729523D01*
X133140212Y-130718605D01*
X133237313Y-130710345D01*
X133345459Y-130701301D01*
X133410525Y-130688739D01*
X133447732Y-130665881D01*
X133472301Y-130625949D01*
X133483181Y-130600862D01*
X133522928Y-130505977D01*
X132845545Y-130506086D01*
G36*
X133060160Y-129319876D02*
X132983347Y-129315421D01*
X132866609Y-129311929D01*
X132719179Y-129309685D01*
X132564545Y-129308965D01*
X132041273Y-129308965D01*
X131948883Y-129401355D01*
X131891953Y-129465022D01*
X131868893Y-129520911D01*
X131870353Y-129597298D01*
X131874066Y-129627620D01*
X131884874Y-129722390D01*
X131891067Y-129800778D01*
X131891639Y-129819885D01*
X131887898Y-129884301D01*
X131878506Y-129976429D01*
X131874066Y-130012150D01*
X131867199Y-130099886D01*
X131882115Y-130158847D01*
X131928165Y-130217310D01*
X131948883Y-130238415D01*
X132041273Y-130330805D01*
X133020053Y-130330805D01*
X133053934Y-130256442D01*
X133079030Y-130192410D01*
X133087816Y-130154948D01*
X133060050Y-130145343D01*
X132982470Y-130136365D01*
X132863652Y-130128614D01*
X132712172Y-130122686D01*
X132584195Y-130119827D01*
X132080575Y-130111839D01*
X132070722Y-130042152D01*
X132077611Y-129978771D01*
X132099917Y-129947714D01*
X132141621Y-129939033D01*
X132230456Y-129931622D01*
X132355166Y-129926069D01*
X132504493Y-129922964D01*
X132581339Y-129922516D01*
X133023713Y-129922069D01*
X133055765Y-129830126D01*
X133077557Y-129765051D01*
X133087719Y-129729653D01*
X133087816Y-129728632D01*
X133060191Y-129725080D01*
X132983589Y-129721177D01*
X132867421Y-129717249D01*
X132721096Y-129713624D01*
X132584195Y-129711092D01*
X132080575Y-129703103D01*
X132080575Y-129527931D01*
X132540035Y-129519893D01*
X132999495Y-129511854D01*
X133043656Y-129426457D01*
X133073981Y-129363407D01*
X133087742Y-129326090D01*
X133087816Y-129325013D01*
X133060160Y-129319876D01*
X133060160Y-129319876D01*
G37*
X133060160Y-129319876D02*
X132983347Y-129315421D01*
X132866609Y-129311929D01*
X132719179Y-129309685D01*
X132564545Y-129308965D01*
X132041273Y-129308965D01*
X131948883Y-129401355D01*
X131891953Y-129465022D01*
X131868893Y-129520911D01*
X131870353Y-129597298D01*
X131874066Y-129627620D01*
X131884874Y-129722390D01*
X131891067Y-129800778D01*
X131891639Y-129819885D01*
X131887898Y-129884301D01*
X131878506Y-129976429D01*
X131874066Y-130012150D01*
X131867199Y-130099886D01*
X131882115Y-130158847D01*
X131928165Y-130217310D01*
X131948883Y-130238415D01*
X132041273Y-130330805D01*
X133020053Y-130330805D01*
X133053934Y-130256442D01*
X133079030Y-130192410D01*
X133087816Y-130154948D01*
X133060050Y-130145343D01*
X132982470Y-130136365D01*
X132863652Y-130128614D01*
X132712172Y-130122686D01*
X132584195Y-130119827D01*
X132080575Y-130111839D01*
X132070722Y-130042152D01*
X132077611Y-129978771D01*
X132099917Y-129947714D01*
X132141621Y-129939033D01*
X132230456Y-129931622D01*
X132355166Y-129926069D01*
X132504493Y-129922964D01*
X132581339Y-129922516D01*
X133023713Y-129922069D01*
X133055765Y-129830126D01*
X133077557Y-129765051D01*
X133087719Y-129729653D01*
X133087816Y-129728632D01*
X133060191Y-129725080D01*
X132983589Y-129721177D01*
X132867421Y-129717249D01*
X132721096Y-129713624D01*
X132584195Y-129711092D01*
X132080575Y-129703103D01*
X132080575Y-129527931D01*
X132540035Y-129519893D01*
X132999495Y-129511854D01*
X133043656Y-129426457D01*
X133073981Y-129363407D01*
X133087742Y-129326090D01*
X133087816Y-129325013D01*
X133060160Y-129319876D01*
G36*
X133064844Y-128585594D02*
X133026607Y-128501531D01*
X132980274Y-128435550D01*
X132928468Y-128387206D01*
X132861637Y-128353828D01*
X132770231Y-128332747D01*
X132644699Y-128321293D01*
X132475492Y-128316797D01*
X132364067Y-128316322D01*
X131929373Y-128316322D01*
X131895491Y-128390684D01*
X131870728Y-128449254D01*
X131861609Y-128478270D01*
X131888743Y-128483821D01*
X131961906Y-128488225D01*
X132068737Y-128490922D01*
X132153563Y-128491494D01*
X132276113Y-128493954D01*
X132373332Y-128500588D01*
X132432866Y-128510274D01*
X132445517Y-128517968D01*
X132432598Y-128569689D01*
X132399461Y-128650883D01*
X132354539Y-128744898D01*
X132306265Y-128835083D01*
X132263072Y-128904785D01*
X132233392Y-128937352D01*
X132233071Y-128937481D01*
X132178143Y-128934680D01*
X132125708Y-128909561D01*
X132083119Y-128865459D01*
X132068874Y-128801091D01*
X132070534Y-128746079D01*
X132071755Y-128668165D01*
X132053502Y-128627268D01*
X132005274Y-128602705D01*
X131996180Y-128599608D01*
X131927402Y-128588960D01*
X131885640Y-128617435D01*
X131865737Y-128691656D01*
X131862056Y-128771832D01*
X131889342Y-128916110D01*
X131928310Y-128990797D01*
X132019852Y-129083037D01*
X132132218Y-129131957D01*
X132250949Y-129136346D01*
X132361589Y-129094999D01*
X132430920Y-129032803D01*
X132469735Y-128970706D01*
X132518875Y-128873105D01*
X132568708Y-128759368D01*
X132576323Y-128740410D01*
X132631455Y-128615479D01*
X132680046Y-128543461D01*
X132728353Y-128520300D01*
X132782630Y-128541936D01*
X132825057Y-128579080D01*
X132877298Y-128666873D01*
X132881216Y-128763470D01*
X132840959Y-128852056D01*
X132760674Y-128915814D01*
X132739960Y-128924183D01*
X132663775Y-128972904D01*
X132607215Y-129044035D01*
X132560799Y-129133793D01*
X132692416Y-129133793D01*
X132772832Y-129128510D01*
X132836214Y-129105858D01*
X132903837Y-129055633D01*
X132955924Y-129007418D01*
X133029678Y-128932446D01*
X133069298Y-128874194D01*
X133085190Y-128811628D01*
X133087816Y-128740807D01*
X133064844Y-128585594D01*
X133064844Y-128585594D01*
G37*
X133064844Y-128585594D02*
X133026607Y-128501531D01*
X132980274Y-128435550D01*
X132928468Y-128387206D01*
X132861637Y-128353828D01*
X132770231Y-128332747D01*
X132644699Y-128321293D01*
X132475492Y-128316797D01*
X132364067Y-128316322D01*
X131929373Y-128316322D01*
X131895491Y-128390684D01*
X131870728Y-128449254D01*
X131861609Y-128478270D01*
X131888743Y-128483821D01*
X131961906Y-128488225D01*
X132068737Y-128490922D01*
X132153563Y-128491494D01*
X132276113Y-128493954D01*
X132373332Y-128500588D01*
X132432866Y-128510274D01*
X132445517Y-128517968D01*
X132432598Y-128569689D01*
X132399461Y-128650883D01*
X132354539Y-128744898D01*
X132306265Y-128835083D01*
X132263072Y-128904785D01*
X132233392Y-128937352D01*
X132233071Y-128937481D01*
X132178143Y-128934680D01*
X132125708Y-128909561D01*
X132083119Y-128865459D01*
X132068874Y-128801091D01*
X132070534Y-128746079D01*
X132071755Y-128668165D01*
X132053502Y-128627268D01*
X132005274Y-128602705D01*
X131996180Y-128599608D01*
X131927402Y-128588960D01*
X131885640Y-128617435D01*
X131865737Y-128691656D01*
X131862056Y-128771832D01*
X131889342Y-128916110D01*
X131928310Y-128990797D01*
X132019852Y-129083037D01*
X132132218Y-129131957D01*
X132250949Y-129136346D01*
X132361589Y-129094999D01*
X132430920Y-129032803D01*
X132469735Y-128970706D01*
X132518875Y-128873105D01*
X132568708Y-128759368D01*
X132576323Y-128740410D01*
X132631455Y-128615479D01*
X132680046Y-128543461D01*
X132728353Y-128520300D01*
X132782630Y-128541936D01*
X132825057Y-128579080D01*
X132877298Y-128666873D01*
X132881216Y-128763470D01*
X132840959Y-128852056D01*
X132760674Y-128915814D01*
X132739960Y-128924183D01*
X132663775Y-128972904D01*
X132607215Y-129044035D01*
X132560799Y-129133793D01*
X132692416Y-129133793D01*
X132772832Y-129128510D01*
X132836214Y-129105858D01*
X132903837Y-129055633D01*
X132955924Y-129007418D01*
X133029678Y-128932446D01*
X133069298Y-128874194D01*
X133085190Y-128811628D01*
X133087816Y-128740807D01*
X133064844Y-128585594D01*
G36*
X133059982Y-127564310D02*
X133044731Y-127529415D01*
X132978765Y-127446123D01*
X132883382Y-127374897D01*
X132781594Y-127330847D01*
X132731413Y-127323678D01*
X132661353Y-127347715D01*
X132624283Y-127400439D01*
X132601836Y-127456969D01*
X132597700Y-127482854D01*
X132627717Y-127495458D01*
X132693039Y-127520346D01*
X132722555Y-127531265D01*
X132824652Y-127592492D01*
X132875577Y-127681139D01*
X132874011Y-127794807D01*
X132872006Y-127803226D01*
X132843233Y-127863912D01*
X132787141Y-127908526D01*
X132696837Y-127938998D01*
X132565429Y-127957256D01*
X132386026Y-127965229D01*
X132290567Y-127965977D01*
X132140087Y-127966348D01*
X132037505Y-127968777D01*
X131972328Y-127975240D01*
X131934062Y-127987712D01*
X131912215Y-128008167D01*
X131896293Y-128038581D01*
X131895491Y-128040339D01*
X131870728Y-128098909D01*
X131861609Y-128127925D01*
X131889178Y-128132384D01*
X131965380Y-128136201D01*
X132080459Y-128139101D01*
X132224659Y-128140809D01*
X132330186Y-128141149D01*
X132534387Y-128139412D01*
X132689303Y-128132618D01*
X132803976Y-128118393D01*
X132887449Y-128094362D01*
X132948764Y-128058152D01*
X132996966Y-128007388D01*
X133030607Y-127957261D01*
X133075381Y-127836725D01*
X133085479Y-127696443D01*
X133059982Y-127564310D01*
X133059982Y-127564310D01*
G37*
X133059982Y-127564310D02*
X133044731Y-127529415D01*
X132978765Y-127446123D01*
X132883382Y-127374897D01*
X132781594Y-127330847D01*
X132731413Y-127323678D01*
X132661353Y-127347715D01*
X132624283Y-127400439D01*
X132601836Y-127456969D01*
X132597700Y-127482854D01*
X132627717Y-127495458D01*
X132693039Y-127520346D01*
X132722555Y-127531265D01*
X132824652Y-127592492D01*
X132875577Y-127681139D01*
X132874011Y-127794807D01*
X132872006Y-127803226D01*
X132843233Y-127863912D01*
X132787141Y-127908526D01*
X132696837Y-127938998D01*
X132565429Y-127957256D01*
X132386026Y-127965229D01*
X132290567Y-127965977D01*
X132140087Y-127966348D01*
X132037505Y-127968777D01*
X131972328Y-127975240D01*
X131934062Y-127987712D01*
X131912215Y-128008167D01*
X131896293Y-128038581D01*
X131895491Y-128040339D01*
X131870728Y-128098909D01*
X131861609Y-128127925D01*
X131889178Y-128132384D01*
X131965380Y-128136201D01*
X132080459Y-128139101D01*
X132224659Y-128140809D01*
X132330186Y-128141149D01*
X132534387Y-128139412D01*
X132689303Y-128132618D01*
X132803976Y-128118393D01*
X132887449Y-128094362D01*
X132948764Y-128058152D01*
X132996966Y-128007388D01*
X133030607Y-127957261D01*
X133075381Y-127836725D01*
X133085479Y-127696443D01*
X133059982Y-127564310D01*
G36*
X133043460Y-126556561D02*
X132967966Y-126441050D01*
X132900383Y-126385336D01*
X132777745Y-126341196D01*
X132680702Y-126337691D01*
X132550944Y-126345632D01*
X132419961Y-126644885D01*
X132353042Y-126790389D01*
X132299210Y-126885463D01*
X132252584Y-126934899D01*
X132207280Y-126943489D01*
X132157418Y-126916028D01*
X132124368Y-126885747D01*
X132071367Y-126797637D01*
X132067653Y-126701804D01*
X132108959Y-126613788D01*
X132191017Y-126549131D01*
X132219992Y-126537567D01*
X132310491Y-126482175D01*
X132349060Y-126418447D01*
X132382054Y-126331034D01*
X132256966Y-126331034D01*
X132171844Y-126338762D01*
X132100062Y-126369034D01*
X132017644Y-126432482D01*
X132006934Y-126441912D01*
X131933609Y-126512487D01*
X131894258Y-126573153D01*
X131876155Y-126649050D01*
X131870226Y-126711970D01*
X131868749Y-126824513D01*
X131887465Y-126904630D01*
X131915253Y-126954610D01*
X131976359Y-127033162D01*
X132042446Y-127087537D01*
X132125559Y-127121948D01*
X132237746Y-127140612D01*
X132391054Y-127147744D01*
X132468864Y-127148313D01*
X132562147Y-127146378D01*
X132562147Y-126970101D01*
X132512104Y-126968056D01*
X132503908Y-126962961D01*
X132515042Y-126929334D01*
X132544507Y-126856970D01*
X132586399Y-126760253D01*
X132595403Y-126740027D01*
X132657558Y-126617797D01*
X132712185Y-126550453D01*
X132763351Y-126535652D01*
X132815124Y-126571053D01*
X132838000Y-126600289D01*
X132883750Y-126705784D01*
X132876192Y-126804524D01*
X132820349Y-126887188D01*
X132721247Y-126944452D01*
X132642586Y-126962812D01*
X132562147Y-126970101D01*
X132562147Y-127146378D01*
X132650649Y-127144541D01*
X132785147Y-127130641D01*
X132883084Y-127103106D01*
X132955189Y-127058428D01*
X133012187Y-126993099D01*
X133030607Y-126964617D01*
X133078578Y-126835237D01*
X133081597Y-126693588D01*
X133043460Y-126556561D01*
X133043460Y-126556561D01*
G37*
X133043460Y-126556561D02*
X132967966Y-126441050D01*
X132900383Y-126385336D01*
X132777745Y-126341196D01*
X132680702Y-126337691D01*
X132550944Y-126345632D01*
X132419961Y-126644885D01*
X132353042Y-126790389D01*
X132299210Y-126885463D01*
X132252584Y-126934899D01*
X132207280Y-126943489D01*
X132157418Y-126916028D01*
X132124368Y-126885747D01*
X132071367Y-126797637D01*
X132067653Y-126701804D01*
X132108959Y-126613788D01*
X132191017Y-126549131D01*
X132219992Y-126537567D01*
X132310491Y-126482175D01*
X132349060Y-126418447D01*
X132382054Y-126331034D01*
X132256966Y-126331034D01*
X132171844Y-126338762D01*
X132100062Y-126369034D01*
X132017644Y-126432482D01*
X132006934Y-126441912D01*
X131933609Y-126512487D01*
X131894258Y-126573153D01*
X131876155Y-126649050D01*
X131870226Y-126711970D01*
X131868749Y-126824513D01*
X131887465Y-126904630D01*
X131915253Y-126954610D01*
X131976359Y-127033162D01*
X132042446Y-127087537D01*
X132125559Y-127121948D01*
X132237746Y-127140612D01*
X132391054Y-127147744D01*
X132468864Y-127148313D01*
X132562147Y-127146378D01*
X132562147Y-126970101D01*
X132512104Y-126968056D01*
X132503908Y-126962961D01*
X132515042Y-126929334D01*
X132544507Y-126856970D01*
X132586399Y-126760253D01*
X132595403Y-126740027D01*
X132657558Y-126617797D01*
X132712185Y-126550453D01*
X132763351Y-126535652D01*
X132815124Y-126571053D01*
X132838000Y-126600289D01*
X132883750Y-126705784D01*
X132876192Y-126804524D01*
X132820349Y-126887188D01*
X132721247Y-126944452D01*
X132642586Y-126962812D01*
X132562147Y-126970101D01*
X132562147Y-127146378D01*
X132650649Y-127144541D01*
X132785147Y-127130641D01*
X132883084Y-127103106D01*
X132955189Y-127058428D01*
X133012187Y-126993099D01*
X133030607Y-126964617D01*
X133078578Y-126835237D01*
X133081597Y-126693588D01*
X133043460Y-126556561D01*
G36*
X142547002Y-132690986D02*
X142546137Y-132532994D01*
X142543795Y-132418653D01*
X142539238Y-132340593D01*
X142531730Y-132291446D01*
X142520534Y-132263841D01*
X142504912Y-132250408D01*
X142484127Y-132243779D01*
X142481437Y-132243135D01*
X142432887Y-132233065D01*
X142337095Y-132214425D01*
X142204257Y-132189155D01*
X142044569Y-132159193D01*
X141868226Y-132126478D01*
X141862033Y-132125336D01*
X141689218Y-132092567D01*
X141536531Y-132061907D01*
X141413129Y-132035336D01*
X141328169Y-132014833D01*
X141290810Y-132002374D01*
X141290148Y-132001780D01*
X141271905Y-131965081D01*
X141241503Y-131889414D01*
X141205507Y-131791122D01*
X141205315Y-131790575D01*
X141158778Y-131666767D01*
X141099496Y-131520804D01*
X141039891Y-131383219D01*
X141036944Y-131376707D01*
X140935235Y-131152610D01*
X141274103Y-130656381D01*
X141377408Y-130504154D01*
X141469763Y-130366259D01*
X141545916Y-130250685D01*
X141600615Y-130165421D01*
X141628607Y-130118456D01*
X141630683Y-130113996D01*
X141621440Y-130079866D01*
X141576844Y-130016119D01*
X141494791Y-129920269D01*
X141373179Y-129789831D01*
X141243795Y-129656672D01*
X141116298Y-129528306D01*
X140999954Y-129413419D01*
X140901948Y-129318927D01*
X140829464Y-129251747D01*
X140789687Y-129218794D01*
X140787639Y-129217568D01*
X140760344Y-129213926D01*
X140715766Y-129227650D01*
X140647888Y-129262131D01*
X140550689Y-129320761D01*
X140418149Y-129406930D01*
X140247524Y-129521800D01*
X140097345Y-129623746D01*
X139962650Y-129714877D01*
X139851260Y-129789927D01*
X139770995Y-129843631D01*
X139729675Y-129870720D01*
X139726870Y-129872426D01*
X139687279Y-129869118D01*
X139610331Y-129844047D01*
X139510568Y-129802202D01*
X139478709Y-129787288D01*
X139336774Y-129722214D01*
X139175727Y-129652788D01*
X139036379Y-129596391D01*
X138932956Y-129555753D01*
X138854358Y-129523474D01*
X138813280Y-129504822D01*
X138810115Y-129502503D01*
X138804872Y-129468197D01*
X138790506Y-129387331D01*
X138769063Y-129270657D01*
X138742587Y-129128925D01*
X138713123Y-128972890D01*
X138682717Y-128813302D01*
X138653412Y-128660915D01*
X138627255Y-128526479D01*
X138606290Y-128420748D01*
X138592561Y-128354474D01*
X138588680Y-128338218D01*
X138579100Y-128321427D01*
X138557464Y-128308751D01*
X138516469Y-128299622D01*
X138448811Y-128293469D01*
X138347188Y-128289720D01*
X138204297Y-128287808D01*
X138012835Y-128287160D01*
X137934355Y-128287126D01*
X137296094Y-128287126D01*
X137265840Y-128440402D01*
X137249436Y-128525678D01*
X137225491Y-128652930D01*
X137196893Y-128806685D01*
X137166533Y-128971466D01*
X137158194Y-129017011D01*
X137128630Y-129169068D01*
X137099558Y-129301532D01*
X137073671Y-129403286D01*
X137053663Y-129463212D01*
X137047699Y-129473195D01*
X137005466Y-129497707D01*
X136923630Y-129532852D01*
X136818317Y-129571827D01*
X136795632Y-129579558D01*
X136654982Y-129630640D01*
X136496286Y-129694046D01*
X136353775Y-129756096D01*
X136353114Y-129756402D01*
X136129560Y-129859733D01*
X135129768Y-129180039D01*
X134692700Y-129616379D01*
X134562619Y-129748351D01*
X134447952Y-129868721D01*
X134354819Y-129970727D01*
X134289342Y-130047609D01*
X134257643Y-130092607D01*
X134255632Y-130099062D01*
X134271471Y-130136960D01*
X134315504Y-130214292D01*
X134382510Y-130322611D01*
X134467266Y-130453468D01*
X134562184Y-130594948D01*
X134659002Y-130738539D01*
X134743249Y-130866565D01*
X134809742Y-130970895D01*
X134853298Y-131043400D01*
X134868736Y-131075842D01*
X134855672Y-131115424D01*
X134821250Y-131190481D01*
X134772620Y-131285532D01*
X134767215Y-131295608D01*
X134703020Y-131423609D01*
X134671537Y-131511382D01*
X134671202Y-131565972D01*
X134700452Y-131594425D01*
X134700862Y-131594590D01*
X134735502Y-131608812D01*
X134817731Y-131642731D01*
X134941186Y-131693716D01*
X135099502Y-131759138D01*
X135286314Y-131836366D01*
X135495258Y-131922771D01*
X135697554Y-132006449D01*
X135920800Y-132098412D01*
X136127608Y-132182850D01*
X136311638Y-132257231D01*
X136466549Y-132319026D01*
X136586004Y-132365703D01*
X136663661Y-132394732D01*
X136692644Y-132403678D01*
X136725890Y-132381244D01*
X136778877Y-132322561D01*
X136837296Y-132244311D01*
X137022048Y-132021466D01*
X137233818Y-131847282D01*
X137468144Y-131723846D01*
X137720566Y-131653246D01*
X137986623Y-131637569D01*
X138109425Y-131648964D01*
X138364207Y-131711050D01*
X138589199Y-131817977D01*
X138782183Y-131963111D01*
X138940939Y-132139822D01*
X139063250Y-132341478D01*
X139146895Y-132561446D01*
X139189656Y-132793094D01*
X139189313Y-133029791D01*
X139143648Y-133264905D01*
X139050441Y-133491804D01*
X138907473Y-133703856D01*
X138826617Y-133792364D01*
X138618993Y-133962111D01*
X138392105Y-134080301D01*
X138152567Y-134147722D01*
X137906993Y-134165160D01*
X137661997Y-134133402D01*
X137424192Y-134053235D01*
X137200193Y-133925445D01*
X136996613Y-133750820D01*
X136837296Y-133555688D01*
X136776398Y-133474409D01*
X136723985Y-133416991D01*
X136692594Y-133396322D01*
X136658361Y-133407144D01*
X136576581Y-133437923D01*
X136453593Y-133486126D01*
X136295737Y-133549222D01*
X136109351Y-133624678D01*
X135900774Y-133709962D01*
X135697504Y-133793781D01*
X135474067Y-133886255D01*
X135267016Y-133971911D01*
X135082714Y-134048118D01*
X134927525Y-134112247D01*
X134807812Y-134161668D01*
X134729939Y-134193752D01*
X134700862Y-134205641D01*
X134671323Y-134233726D01*
X134671409Y-134288051D01*
X134702674Y-134375605D01*
X134766671Y-134503381D01*
X134767215Y-134504392D01*
X134816879Y-134600598D01*
X134853055Y-134678369D01*
X134868592Y-134722223D01*
X134868736Y-134724158D01*
X134852976Y-134757171D01*
X134809150Y-134830054D01*
X134742443Y-134934678D01*
X134658036Y-135062910D01*
X134562184Y-135205052D01*
X134465133Y-135349767D01*
X134380730Y-135480196D01*
X134314199Y-135587890D01*
X134270762Y-135664402D01*
X134255632Y-135700938D01*
X134275518Y-135734582D01*
X134331097Y-135802224D01*
X134416246Y-135897107D01*
X134524847Y-136012470D01*
X134650779Y-136141555D01*
X134692851Y-136183771D01*
X135130069Y-136620261D01*
X135617660Y-136288023D01*
X135767395Y-136187054D01*
X135901780Y-136098438D01*
X136013031Y-136027146D01*
X136093361Y-135978150D01*
X136134986Y-135956422D01*
X136137947Y-135955785D01*
X136177182Y-135967240D01*
X136256105Y-135998051D01*
X136361491Y-136042884D01*
X136432046Y-136074353D01*
X136567124Y-136133192D01*
X136703591Y-136188604D01*
X136818897Y-136231564D01*
X136854023Y-136243234D01*
X136947826Y-136276389D01*
X137020306Y-136308799D01*
X137047699Y-136326601D01*
X137064464Y-136365886D01*
X137088230Y-136451626D01*
X137116303Y-136572697D01*
X137145991Y-136717973D01*
X137158194Y-136782988D01*
X137188532Y-136948087D01*
X137217907Y-137106448D01*
X137243431Y-137242596D01*
X137262215Y-137341057D01*
X137265840Y-137359598D01*
X137296094Y-137512873D01*
X137934355Y-137512873D01*
X138144230Y-137512529D01*
X138303020Y-137511116D01*
X138418027Y-137508064D01*
X138496554Y-137502803D01*
X138545904Y-137494763D01*
X138573381Y-137483373D01*
X138586287Y-137468063D01*
X138588680Y-137461782D01*
X138597167Y-137423896D01*
X138614100Y-137340195D01*
X138637434Y-137221433D01*
X138665125Y-137078361D01*
X138695127Y-136921732D01*
X138725396Y-136762297D01*
X138753885Y-136610809D01*
X138778551Y-136478019D01*
X138797349Y-136374681D01*
X138808233Y-136311545D01*
X138810115Y-136297497D01*
X138835296Y-136284770D01*
X138902378Y-136256600D01*
X138998667Y-136218252D01*
X139036379Y-136203609D01*
X139182079Y-136144548D01*
X139343049Y-136075000D01*
X139478709Y-136012712D01*
X139582439Y-135966879D01*
X139667674Y-135936387D01*
X139719874Y-135926208D01*
X139726870Y-135927831D01*
X139759898Y-135949343D01*
X139833357Y-135998465D01*
X139939423Y-136069923D01*
X140070274Y-136158445D01*
X140218088Y-136258759D01*
X140247266Y-136278594D01*
X140420137Y-136394988D01*
X140551774Y-136480548D01*
X140648239Y-136538684D01*
X140715592Y-136572808D01*
X140759894Y-136586331D01*
X140787206Y-136582664D01*
X140787380Y-136582570D01*
X140823254Y-136553707D01*
X140892609Y-136489867D01*
X140988255Y-136397969D01*
X141103001Y-136284933D01*
X141229659Y-136157679D01*
X141243795Y-136143328D01*
X141399097Y-135982957D01*
X141513130Y-135859195D01*
X141587998Y-135769555D01*
X141625804Y-135711552D01*
X141630683Y-135686004D01*
X141609397Y-135648718D01*
X141560227Y-135571343D01*
X141488425Y-135461867D01*
X141399245Y-135328280D01*
X141297937Y-135178570D01*
X141274103Y-135143618D01*
X140935235Y-134647390D01*
X141036944Y-134423293D01*
X141096217Y-134287011D01*
X141155830Y-134140724D01*
X141203360Y-134014965D01*
X141205315Y-134009425D01*
X141241323Y-133911057D01*
X141271771Y-133835229D01*
X141290095Y-133798282D01*
X141290148Y-133798220D01*
X141323271Y-133786496D01*
X141404733Y-133766568D01*
X141525375Y-133740413D01*
X141676041Y-133710010D01*
X141847572Y-133677337D01*
X141862033Y-133674664D01*
X142038765Y-133641890D01*
X142199190Y-133611802D01*
X142333112Y-133586339D01*
X142430337Y-133567441D01*
X142480668Y-133557047D01*
X142481437Y-133556865D01*
X142502847Y-133550539D01*
X142519012Y-133538239D01*
X142530669Y-133512594D01*
X142538555Y-133466235D01*
X142543407Y-133391792D01*
X142545961Y-133281895D01*
X142546955Y-133129175D01*
X142547126Y-132926262D01*
X142547126Y-132900000D01*
X142547002Y-132690986D01*
X142547002Y-132690986D01*
G37*
X142547002Y-132690986D02*
X142546137Y-132532994D01*
X142543795Y-132418653D01*
X142539238Y-132340593D01*
X142531730Y-132291446D01*
X142520534Y-132263841D01*
X142504912Y-132250408D01*
X142484127Y-132243779D01*
X142481437Y-132243135D01*
X142432887Y-132233065D01*
X142337095Y-132214425D01*
X142204257Y-132189155D01*
X142044569Y-132159193D01*
X141868226Y-132126478D01*
X141862033Y-132125336D01*
X141689218Y-132092567D01*
X141536531Y-132061907D01*
X141413129Y-132035336D01*
X141328169Y-132014833D01*
X141290810Y-132002374D01*
X141290148Y-132001780D01*
X141271905Y-131965081D01*
X141241503Y-131889414D01*
X141205507Y-131791122D01*
X141205315Y-131790575D01*
X141158778Y-131666767D01*
X141099496Y-131520804D01*
X141039891Y-131383219D01*
X141036944Y-131376707D01*
X140935235Y-131152610D01*
X141274103Y-130656381D01*
X141377408Y-130504154D01*
X141469763Y-130366259D01*
X141545916Y-130250685D01*
X141600615Y-130165421D01*
X141628607Y-130118456D01*
X141630683Y-130113996D01*
X141621440Y-130079866D01*
X141576844Y-130016119D01*
X141494791Y-129920269D01*
X141373179Y-129789831D01*
X141243795Y-129656672D01*
X141116298Y-129528306D01*
X140999954Y-129413419D01*
X140901948Y-129318927D01*
X140829464Y-129251747D01*
X140789687Y-129218794D01*
X140787639Y-129217568D01*
X140760344Y-129213926D01*
X140715766Y-129227650D01*
X140647888Y-129262131D01*
X140550689Y-129320761D01*
X140418149Y-129406930D01*
X140247524Y-129521800D01*
X140097345Y-129623746D01*
X139962650Y-129714877D01*
X139851260Y-129789927D01*
X139770995Y-129843631D01*
X139729675Y-129870720D01*
X139726870Y-129872426D01*
X139687279Y-129869118D01*
X139610331Y-129844047D01*
X139510568Y-129802202D01*
X139478709Y-129787288D01*
X139336774Y-129722214D01*
X139175727Y-129652788D01*
X139036379Y-129596391D01*
X138932956Y-129555753D01*
X138854358Y-129523474D01*
X138813280Y-129504822D01*
X138810115Y-129502503D01*
X138804872Y-129468197D01*
X138790506Y-129387331D01*
X138769063Y-129270657D01*
X138742587Y-129128925D01*
X138713123Y-128972890D01*
X138682717Y-128813302D01*
X138653412Y-128660915D01*
X138627255Y-128526479D01*
X138606290Y-128420748D01*
X138592561Y-128354474D01*
X138588680Y-128338218D01*
X138579100Y-128321427D01*
X138557464Y-128308751D01*
X138516469Y-128299622D01*
X138448811Y-128293469D01*
X138347188Y-128289720D01*
X138204297Y-128287808D01*
X138012835Y-128287160D01*
X137934355Y-128287126D01*
X137296094Y-128287126D01*
X137265840Y-128440402D01*
X137249436Y-128525678D01*
X137225491Y-128652930D01*
X137196893Y-128806685D01*
X137166533Y-128971466D01*
X137158194Y-129017011D01*
X137128630Y-129169068D01*
X137099558Y-129301532D01*
X137073671Y-129403286D01*
X137053663Y-129463212D01*
X137047699Y-129473195D01*
X137005466Y-129497707D01*
X136923630Y-129532852D01*
X136818317Y-129571827D01*
X136795632Y-129579558D01*
X136654982Y-129630640D01*
X136496286Y-129694046D01*
X136353775Y-129756096D01*
X136353114Y-129756402D01*
X136129560Y-129859733D01*
X135129768Y-129180039D01*
X134692700Y-129616379D01*
X134562619Y-129748351D01*
X134447952Y-129868721D01*
X134354819Y-129970727D01*
X134289342Y-130047609D01*
X134257643Y-130092607D01*
X134255632Y-130099062D01*
X134271471Y-130136960D01*
X134315504Y-130214292D01*
X134382510Y-130322611D01*
X134467266Y-130453468D01*
X134562184Y-130594948D01*
X134659002Y-130738539D01*
X134743249Y-130866565D01*
X134809742Y-130970895D01*
X134853298Y-131043400D01*
X134868736Y-131075842D01*
X134855672Y-131115424D01*
X134821250Y-131190481D01*
X134772620Y-131285532D01*
X134767215Y-131295608D01*
X134703020Y-131423609D01*
X134671537Y-131511382D01*
X134671202Y-131565972D01*
X134700452Y-131594425D01*
X134700862Y-131594590D01*
X134735502Y-131608812D01*
X134817731Y-131642731D01*
X134941186Y-131693716D01*
X135099502Y-131759138D01*
X135286314Y-131836366D01*
X135495258Y-131922771D01*
X135697554Y-132006449D01*
X135920800Y-132098412D01*
X136127608Y-132182850D01*
X136311638Y-132257231D01*
X136466549Y-132319026D01*
X136586004Y-132365703D01*
X136663661Y-132394732D01*
X136692644Y-132403678D01*
X136725890Y-132381244D01*
X136778877Y-132322561D01*
X136837296Y-132244311D01*
X137022048Y-132021466D01*
X137233818Y-131847282D01*
X137468144Y-131723846D01*
X137720566Y-131653246D01*
X137986623Y-131637569D01*
X138109425Y-131648964D01*
X138364207Y-131711050D01*
X138589199Y-131817977D01*
X138782183Y-131963111D01*
X138940939Y-132139822D01*
X139063250Y-132341478D01*
X139146895Y-132561446D01*
X139189656Y-132793094D01*
X139189313Y-133029791D01*
X139143648Y-133264905D01*
X139050441Y-133491804D01*
X138907473Y-133703856D01*
X138826617Y-133792364D01*
X138618993Y-133962111D01*
X138392105Y-134080301D01*
X138152567Y-134147722D01*
X137906993Y-134165160D01*
X137661997Y-134133402D01*
X137424192Y-134053235D01*
X137200193Y-133925445D01*
X136996613Y-133750820D01*
X136837296Y-133555688D01*
X136776398Y-133474409D01*
X136723985Y-133416991D01*
X136692594Y-133396322D01*
X136658361Y-133407144D01*
X136576581Y-133437923D01*
X136453593Y-133486126D01*
X136295737Y-133549222D01*
X136109351Y-133624678D01*
X135900774Y-133709962D01*
X135697504Y-133793781D01*
X135474067Y-133886255D01*
X135267016Y-133971911D01*
X135082714Y-134048118D01*
X134927525Y-134112247D01*
X134807812Y-134161668D01*
X134729939Y-134193752D01*
X134700862Y-134205641D01*
X134671323Y-134233726D01*
X134671409Y-134288051D01*
X134702674Y-134375605D01*
X134766671Y-134503381D01*
X134767215Y-134504392D01*
X134816879Y-134600598D01*
X134853055Y-134678369D01*
X134868592Y-134722223D01*
X134868736Y-134724158D01*
X134852976Y-134757171D01*
X134809150Y-134830054D01*
X134742443Y-134934678D01*
X134658036Y-135062910D01*
X134562184Y-135205052D01*
X134465133Y-135349767D01*
X134380730Y-135480196D01*
X134314199Y-135587890D01*
X134270762Y-135664402D01*
X134255632Y-135700938D01*
X134275518Y-135734582D01*
X134331097Y-135802224D01*
X134416246Y-135897107D01*
X134524847Y-136012470D01*
X134650779Y-136141555D01*
X134692851Y-136183771D01*
X135130069Y-136620261D01*
X135617660Y-136288023D01*
X135767395Y-136187054D01*
X135901780Y-136098438D01*
X136013031Y-136027146D01*
X136093361Y-135978150D01*
X136134986Y-135956422D01*
X136137947Y-135955785D01*
X136177182Y-135967240D01*
X136256105Y-135998051D01*
X136361491Y-136042884D01*
X136432046Y-136074353D01*
X136567124Y-136133192D01*
X136703591Y-136188604D01*
X136818897Y-136231564D01*
X136854023Y-136243234D01*
X136947826Y-136276389D01*
X137020306Y-136308799D01*
X137047699Y-136326601D01*
X137064464Y-136365886D01*
X137088230Y-136451626D01*
X137116303Y-136572697D01*
X137145991Y-136717973D01*
X137158194Y-136782988D01*
X137188532Y-136948087D01*
X137217907Y-137106448D01*
X137243431Y-137242596D01*
X137262215Y-137341057D01*
X137265840Y-137359598D01*
X137296094Y-137512873D01*
X137934355Y-137512873D01*
X138144230Y-137512529D01*
X138303020Y-137511116D01*
X138418027Y-137508064D01*
X138496554Y-137502803D01*
X138545904Y-137494763D01*
X138573381Y-137483373D01*
X138586287Y-137468063D01*
X138588680Y-137461782D01*
X138597167Y-137423896D01*
X138614100Y-137340195D01*
X138637434Y-137221433D01*
X138665125Y-137078361D01*
X138695127Y-136921732D01*
X138725396Y-136762297D01*
X138753885Y-136610809D01*
X138778551Y-136478019D01*
X138797349Y-136374681D01*
X138808233Y-136311545D01*
X138810115Y-136297497D01*
X138835296Y-136284770D01*
X138902378Y-136256600D01*
X138998667Y-136218252D01*
X139036379Y-136203609D01*
X139182079Y-136144548D01*
X139343049Y-136075000D01*
X139478709Y-136012712D01*
X139582439Y-135966879D01*
X139667674Y-135936387D01*
X139719874Y-135926208D01*
X139726870Y-135927831D01*
X139759898Y-135949343D01*
X139833357Y-135998465D01*
X139939423Y-136069923D01*
X140070274Y-136158445D01*
X140218088Y-136258759D01*
X140247266Y-136278594D01*
X140420137Y-136394988D01*
X140551774Y-136480548D01*
X140648239Y-136538684D01*
X140715592Y-136572808D01*
X140759894Y-136586331D01*
X140787206Y-136582664D01*
X140787380Y-136582570D01*
X140823254Y-136553707D01*
X140892609Y-136489867D01*
X140988255Y-136397969D01*
X141103001Y-136284933D01*
X141229659Y-136157679D01*
X141243795Y-136143328D01*
X141399097Y-135982957D01*
X141513130Y-135859195D01*
X141587998Y-135769555D01*
X141625804Y-135711552D01*
X141630683Y-135686004D01*
X141609397Y-135648718D01*
X141560227Y-135571343D01*
X141488425Y-135461867D01*
X141399245Y-135328280D01*
X141297937Y-135178570D01*
X141274103Y-135143618D01*
X140935235Y-134647390D01*
X141036944Y-134423293D01*
X141096217Y-134287011D01*
X141155830Y-134140724D01*
X141203360Y-134014965D01*
X141205315Y-134009425D01*
X141241323Y-133911057D01*
X141271771Y-133835229D01*
X141290095Y-133798282D01*
X141290148Y-133798220D01*
X141323271Y-133786496D01*
X141404733Y-133766568D01*
X141525375Y-133740413D01*
X141676041Y-133710010D01*
X141847572Y-133677337D01*
X141862033Y-133674664D01*
X142038765Y-133641890D01*
X142199190Y-133611802D01*
X142333112Y-133586339D01*
X142430337Y-133567441D01*
X142480668Y-133557047D01*
X142481437Y-133556865D01*
X142502847Y-133550539D01*
X142519012Y-133538239D01*
X142530669Y-133512594D01*
X142538555Y-133466235D01*
X142543407Y-133391792D01*
X142545961Y-133281895D01*
X142546955Y-133129175D01*
X142547126Y-132926262D01*
X142547126Y-132900000D01*
X142547002Y-132690986D01*
G04 #@! TO.C,REF\002A\002A*
G36*
X134457301Y-113148637D02*
X134450024Y-113126845D01*
X134433580Y-113108414D01*
X134404803Y-113093065D01*
X134360526Y-113080519D01*
X134297582Y-113070495D01*
X134212806Y-113062717D01*
X134103029Y-113056904D01*
X133965086Y-113052777D01*
X133795809Y-113050057D01*
X133592032Y-113048465D01*
X133350589Y-113047723D01*
X133068313Y-113047550D01*
X132742036Y-113047668D01*
X132368593Y-113047797D01*
X132309500Y-113047800D01*
X131934116Y-113047878D01*
X131606289Y-113048151D01*
X131322779Y-113048682D01*
X131080342Y-113049531D01*
X130875739Y-113050760D01*
X130705726Y-113052431D01*
X130567061Y-113054605D01*
X130456504Y-113057343D01*
X130370812Y-113060708D01*
X130306743Y-113064759D01*
X130261056Y-113069559D01*
X130230508Y-113075169D01*
X130211859Y-113081651D01*
X130203115Y-113087715D01*
X130196008Y-113098791D01*
X130189787Y-113118999D01*
X130184394Y-113151510D01*
X130179771Y-113199497D01*
X130175860Y-113266133D01*
X130172604Y-113354590D01*
X130169944Y-113468040D01*
X130167825Y-113609656D01*
X130166187Y-113782610D01*
X130164972Y-113990076D01*
X130164124Y-114235224D01*
X130163585Y-114521229D01*
X130163297Y-114851261D01*
X130163202Y-115228495D01*
X130163200Y-115283001D01*
X130163274Y-115666824D01*
X130163533Y-116003020D01*
X130164035Y-116294761D01*
X130164838Y-116545219D01*
X130166000Y-116757568D01*
X130167578Y-116934979D01*
X130169629Y-117080625D01*
X130172213Y-117197678D01*
X130175385Y-117289312D01*
X130179205Y-117358697D01*
X130183729Y-117409008D01*
X130189015Y-117443416D01*
X130195121Y-117465093D01*
X130202105Y-117477213D01*
X130203115Y-117478286D01*
X130214373Y-117485535D01*
X130234848Y-117491862D01*
X130267781Y-117497328D01*
X130316414Y-117501994D01*
X130383989Y-117505922D01*
X130473748Y-117509174D01*
X130588932Y-117511810D01*
X130732783Y-117513893D01*
X130908544Y-117515483D01*
X131119456Y-117516642D01*
X131368761Y-117517432D01*
X131659700Y-117517914D01*
X131995516Y-117518149D01*
X132309500Y-117518200D01*
X132684885Y-117518123D01*
X133012712Y-117517850D01*
X133296222Y-117517319D01*
X133538659Y-117516470D01*
X133743262Y-117515241D01*
X133864271Y-117514052D01*
X133864271Y-117238801D01*
X133839362Y-117228363D01*
X133785156Y-117202056D01*
X133757301Y-117188001D01*
X133734226Y-117177068D01*
X133708580Y-117167826D01*
X133676141Y-117160133D01*
X133632692Y-117153848D01*
X133574012Y-117148828D01*
X133495883Y-117144932D01*
X133394083Y-117142017D01*
X133264395Y-117139943D01*
X133102599Y-117138566D01*
X132904475Y-117137746D01*
X132665803Y-117137341D01*
X132382365Y-117137209D01*
X132245710Y-117137201D01*
X131982274Y-117137561D01*
X131733963Y-117138598D01*
X131505444Y-117140244D01*
X131301382Y-117142432D01*
X131126442Y-117145097D01*
X130985289Y-117148170D01*
X130882590Y-117151585D01*
X130823009Y-117155276D01*
X130809630Y-117157776D01*
X130769864Y-117182200D01*
X130715650Y-117208032D01*
X130645800Y-117237711D01*
X130646189Y-116711206D01*
X130647151Y-116556033D01*
X130649619Y-116421650D01*
X130653326Y-116315001D01*
X130658008Y-116243030D01*
X130663400Y-116212681D01*
X130665239Y-116212906D01*
X130699174Y-116242855D01*
X130757374Y-116278668D01*
X130765189Y-116282756D01*
X130802479Y-116297682D01*
X130852733Y-116308693D01*
X130923444Y-116316331D01*
X131022102Y-116321134D01*
X131156200Y-116323644D01*
X131333228Y-116324399D01*
X131343039Y-116324400D01*
X131520653Y-116323167D01*
X131663124Y-116319604D01*
X131766273Y-116313922D01*
X131825922Y-116306328D01*
X131839600Y-116299586D01*
X131820230Y-116270086D01*
X131773256Y-116232359D01*
X131769750Y-116230085D01*
X131712732Y-116189507D01*
X131674500Y-116155301D01*
X131637368Y-116124853D01*
X131575034Y-116084917D01*
X131551167Y-116071329D01*
X131484070Y-116029180D01*
X131395280Y-115966473D01*
X131301936Y-115895408D01*
X131284467Y-115881458D01*
X131141656Y-115773339D01*
X131005033Y-115682862D01*
X130882651Y-115614611D01*
X130782560Y-115573169D01*
X130724077Y-115562400D01*
X130645800Y-115562400D01*
X130645800Y-114435945D01*
X130659512Y-114448071D01*
X130659512Y-114292400D01*
X130655243Y-114268301D01*
X130651515Y-114201204D01*
X130648552Y-114098911D01*
X130646574Y-113969222D01*
X130645804Y-113819939D01*
X130645800Y-113809800D01*
X130646592Y-113633033D01*
X130649194Y-113501899D01*
X130653944Y-113411253D01*
X130661182Y-113355950D01*
X130671248Y-113330844D01*
X130677550Y-113328008D01*
X130721446Y-113342962D01*
X130758605Y-113366108D01*
X130777308Y-113375302D01*
X130809805Y-113382898D01*
X130860502Y-113389041D01*
X130933804Y-113393873D01*
X131034117Y-113397536D01*
X131165846Y-113400174D01*
X131333396Y-113401930D01*
X131541173Y-113402947D01*
X131793582Y-113403367D01*
X131907955Y-113403400D01*
X133008000Y-113403400D01*
X133008000Y-114268305D01*
X132933062Y-114229553D01*
X132907185Y-114219522D01*
X132868908Y-114211333D01*
X132813393Y-114204808D01*
X132735803Y-114199774D01*
X132631300Y-114196053D01*
X132495046Y-114193471D01*
X132322203Y-114191852D01*
X132107933Y-114191021D01*
X131865250Y-114190800D01*
X131613560Y-114190914D01*
X131407489Y-114191415D01*
X131241853Y-114192545D01*
X131111473Y-114194545D01*
X131011165Y-114197655D01*
X130935749Y-114202117D01*
X130880043Y-114208171D01*
X130838865Y-114216059D01*
X130807033Y-114226021D01*
X130779365Y-114238299D01*
X130772800Y-114241600D01*
X130709364Y-114272510D01*
X130666890Y-114290520D01*
X130659512Y-114292400D01*
X130659512Y-114448071D01*
X130715430Y-114497523D01*
X130764734Y-114541445D01*
X130795710Y-114569627D01*
X130797980Y-114571800D01*
X130861095Y-114629555D01*
X130945311Y-114701037D01*
X131037935Y-114776103D01*
X131126275Y-114844609D01*
X131197639Y-114896412D01*
X131229453Y-114916624D01*
X131293416Y-114956845D01*
X131384701Y-115020338D01*
X131491320Y-115098196D01*
X131601285Y-115181513D01*
X131702610Y-115261383D01*
X131777393Y-115323727D01*
X131854452Y-115384171D01*
X131938057Y-115440841D01*
X131944950Y-115445022D01*
X132143064Y-115572363D01*
X132273644Y-115668006D01*
X132364788Y-115737964D01*
X132452240Y-115656532D01*
X132531339Y-115586340D01*
X132638108Y-115496285D01*
X132759549Y-115396943D01*
X132882661Y-115298893D01*
X132994445Y-115212711D01*
X133033185Y-115183849D01*
X133413108Y-114879059D01*
X133670213Y-114639721D01*
X133871600Y-114440941D01*
X133871600Y-114986253D01*
X133871477Y-115171450D01*
X133870139Y-115312002D01*
X133866133Y-115414063D01*
X133858007Y-115483788D01*
X133844309Y-115527331D01*
X133823584Y-115550847D01*
X133794382Y-115560489D01*
X133755249Y-115562414D01*
X133735610Y-115562400D01*
X133682158Y-115577988D01*
X133614879Y-115617059D01*
X133591638Y-115634701D01*
X133514332Y-115693348D01*
X133423414Y-115756110D01*
X133389000Y-115778198D01*
X133322236Y-115821448D01*
X133275069Y-115855088D01*
X133262000Y-115866761D01*
X133232661Y-115896555D01*
X133176982Y-115945755D01*
X133105892Y-116005478D01*
X133030319Y-116066838D01*
X132961192Y-116120953D01*
X132909439Y-116158937D01*
X132886517Y-116172000D01*
X132857026Y-116188818D01*
X132809283Y-116230854D01*
X132792100Y-116248201D01*
X132719096Y-116324401D01*
X133138912Y-116324400D01*
X133321698Y-116322807D01*
X133464524Y-116317105D01*
X133578160Y-116305907D01*
X133673371Y-116287828D01*
X133760925Y-116261482D01*
X133827150Y-116235836D01*
X133842229Y-116232606D01*
X133853462Y-116241351D01*
X133861409Y-116268295D01*
X133866633Y-116319662D01*
X133869697Y-116401676D01*
X133871162Y-116520561D01*
X133871590Y-116682540D01*
X133871600Y-116728083D01*
X133871254Y-116882917D01*
X133870288Y-117018878D01*
X133868810Y-117128383D01*
X133866929Y-117203849D01*
X133864755Y-117237692D01*
X133864271Y-117238801D01*
X133864271Y-117514052D01*
X133913275Y-117513570D01*
X134051940Y-117511396D01*
X134162497Y-117508658D01*
X134248189Y-117505293D01*
X134312258Y-117501242D01*
X134357945Y-117496442D01*
X134388493Y-117490832D01*
X134407142Y-117484350D01*
X134415886Y-117478286D01*
X134424066Y-117465822D01*
X134431062Y-117443563D01*
X134436966Y-117407809D01*
X134441867Y-117354859D01*
X134445856Y-117281012D01*
X134449022Y-117182569D01*
X134451456Y-117055827D01*
X134453248Y-116897087D01*
X134454489Y-116702647D01*
X134455267Y-116468807D01*
X134455674Y-116191865D01*
X134455800Y-115868122D01*
X134455800Y-114241600D01*
X134359582Y-114241600D01*
X134243665Y-114221521D01*
X134125000Y-114168475D01*
X134024009Y-114093246D01*
X133979756Y-114040994D01*
X133932630Y-113927454D01*
X133922364Y-113796500D01*
X133946082Y-113662372D01*
X134000911Y-113539310D01*
X134083977Y-113441552D01*
X134103853Y-113426200D01*
X134204572Y-113379194D01*
X134320123Y-113357561D01*
X134455801Y-113346310D01*
X134455800Y-113236970D01*
X134457023Y-113203420D01*
X134458579Y-113174069D01*
X134457301Y-113148637D01*
X134457301Y-113148637D01*
G37*
X134457301Y-113148637D02*
X134450024Y-113126845D01*
X134433580Y-113108414D01*
X134404803Y-113093065D01*
X134360526Y-113080519D01*
X134297582Y-113070495D01*
X134212806Y-113062717D01*
X134103029Y-113056904D01*
X133965086Y-113052777D01*
X133795809Y-113050057D01*
X133592032Y-113048465D01*
X133350589Y-113047723D01*
X133068313Y-113047550D01*
X132742036Y-113047668D01*
X132368593Y-113047797D01*
X132309500Y-113047800D01*
X131934116Y-113047878D01*
X131606289Y-113048151D01*
X131322779Y-113048682D01*
X131080342Y-113049531D01*
X130875739Y-113050760D01*
X130705726Y-113052431D01*
X130567061Y-113054605D01*
X130456504Y-113057343D01*
X130370812Y-113060708D01*
X130306743Y-113064759D01*
X130261056Y-113069559D01*
X130230508Y-113075169D01*
X130211859Y-113081651D01*
X130203115Y-113087715D01*
X130196008Y-113098791D01*
X130189787Y-113118999D01*
X130184394Y-113151510D01*
X130179771Y-113199497D01*
X130175860Y-113266133D01*
X130172604Y-113354590D01*
X130169944Y-113468040D01*
X130167825Y-113609656D01*
X130166187Y-113782610D01*
X130164972Y-113990076D01*
X130164124Y-114235224D01*
X130163585Y-114521229D01*
X130163297Y-114851261D01*
X130163202Y-115228495D01*
X130163200Y-115283001D01*
X130163274Y-115666824D01*
X130163533Y-116003020D01*
X130164035Y-116294761D01*
X130164838Y-116545219D01*
X130166000Y-116757568D01*
X130167578Y-116934979D01*
X130169629Y-117080625D01*
X130172213Y-117197678D01*
X130175385Y-117289312D01*
X130179205Y-117358697D01*
X130183729Y-117409008D01*
X130189015Y-117443416D01*
X130195121Y-117465093D01*
X130202105Y-117477213D01*
X130203115Y-117478286D01*
X130214373Y-117485535D01*
X130234848Y-117491862D01*
X130267781Y-117497328D01*
X130316414Y-117501994D01*
X130383989Y-117505922D01*
X130473748Y-117509174D01*
X130588932Y-117511810D01*
X130732783Y-117513893D01*
X130908544Y-117515483D01*
X131119456Y-117516642D01*
X131368761Y-117517432D01*
X131659700Y-117517914D01*
X131995516Y-117518149D01*
X132309500Y-117518200D01*
X132684885Y-117518123D01*
X133012712Y-117517850D01*
X133296222Y-117517319D01*
X133538659Y-117516470D01*
X133743262Y-117515241D01*
X133864271Y-117514052D01*
X133864271Y-117238801D01*
X133839362Y-117228363D01*
X133785156Y-117202056D01*
X133757301Y-117188001D01*
X133734226Y-117177068D01*
X133708580Y-117167826D01*
X133676141Y-117160133D01*
X133632692Y-117153848D01*
X133574012Y-117148828D01*
X133495883Y-117144932D01*
X133394083Y-117142017D01*
X133264395Y-117139943D01*
X133102599Y-117138566D01*
X132904475Y-117137746D01*
X132665803Y-117137341D01*
X132382365Y-117137209D01*
X132245710Y-117137201D01*
X131982274Y-117137561D01*
X131733963Y-117138598D01*
X131505444Y-117140244D01*
X131301382Y-117142432D01*
X131126442Y-117145097D01*
X130985289Y-117148170D01*
X130882590Y-117151585D01*
X130823009Y-117155276D01*
X130809630Y-117157776D01*
X130769864Y-117182200D01*
X130715650Y-117208032D01*
X130645800Y-117237711D01*
X130646189Y-116711206D01*
X130647151Y-116556033D01*
X130649619Y-116421650D01*
X130653326Y-116315001D01*
X130658008Y-116243030D01*
X130663400Y-116212681D01*
X130665239Y-116212906D01*
X130699174Y-116242855D01*
X130757374Y-116278668D01*
X130765189Y-116282756D01*
X130802479Y-116297682D01*
X130852733Y-116308693D01*
X130923444Y-116316331D01*
X131022102Y-116321134D01*
X131156200Y-116323644D01*
X131333228Y-116324399D01*
X131343039Y-116324400D01*
X131520653Y-116323167D01*
X131663124Y-116319604D01*
X131766273Y-116313922D01*
X131825922Y-116306328D01*
X131839600Y-116299586D01*
X131820230Y-116270086D01*
X131773256Y-116232359D01*
X131769750Y-116230085D01*
X131712732Y-116189507D01*
X131674500Y-116155301D01*
X131637368Y-116124853D01*
X131575034Y-116084917D01*
X131551167Y-116071329D01*
X131484070Y-116029180D01*
X131395280Y-115966473D01*
X131301936Y-115895408D01*
X131284467Y-115881458D01*
X131141656Y-115773339D01*
X131005033Y-115682862D01*
X130882651Y-115614611D01*
X130782560Y-115573169D01*
X130724077Y-115562400D01*
X130645800Y-115562400D01*
X130645800Y-114435945D01*
X130659512Y-114448071D01*
X130659512Y-114292400D01*
X130655243Y-114268301D01*
X130651515Y-114201204D01*
X130648552Y-114098911D01*
X130646574Y-113969222D01*
X130645804Y-113819939D01*
X130645800Y-113809800D01*
X130646592Y-113633033D01*
X130649194Y-113501899D01*
X130653944Y-113411253D01*
X130661182Y-113355950D01*
X130671248Y-113330844D01*
X130677550Y-113328008D01*
X130721446Y-113342962D01*
X130758605Y-113366108D01*
X130777308Y-113375302D01*
X130809805Y-113382898D01*
X130860502Y-113389041D01*
X130933804Y-113393873D01*
X131034117Y-113397536D01*
X131165846Y-113400174D01*
X131333396Y-113401930D01*
X131541173Y-113402947D01*
X131793582Y-113403367D01*
X131907955Y-113403400D01*
X133008000Y-113403400D01*
X133008000Y-114268305D01*
X132933062Y-114229553D01*
X132907185Y-114219522D01*
X132868908Y-114211333D01*
X132813393Y-114204808D01*
X132735803Y-114199774D01*
X132631300Y-114196053D01*
X132495046Y-114193471D01*
X132322203Y-114191852D01*
X132107933Y-114191021D01*
X131865250Y-114190800D01*
X131613560Y-114190914D01*
X131407489Y-114191415D01*
X131241853Y-114192545D01*
X131111473Y-114194545D01*
X131011165Y-114197655D01*
X130935749Y-114202117D01*
X130880043Y-114208171D01*
X130838865Y-114216059D01*
X130807033Y-114226021D01*
X130779365Y-114238299D01*
X130772800Y-114241600D01*
X130709364Y-114272510D01*
X130666890Y-114290520D01*
X130659512Y-114292400D01*
X130659512Y-114448071D01*
X130715430Y-114497523D01*
X130764734Y-114541445D01*
X130795710Y-114569627D01*
X130797980Y-114571800D01*
X130861095Y-114629555D01*
X130945311Y-114701037D01*
X131037935Y-114776103D01*
X131126275Y-114844609D01*
X131197639Y-114896412D01*
X131229453Y-114916624D01*
X131293416Y-114956845D01*
X131384701Y-115020338D01*
X131491320Y-115098196D01*
X131601285Y-115181513D01*
X131702610Y-115261383D01*
X131777393Y-115323727D01*
X131854452Y-115384171D01*
X131938057Y-115440841D01*
X131944950Y-115445022D01*
X132143064Y-115572363D01*
X132273644Y-115668006D01*
X132364788Y-115737964D01*
X132452240Y-115656532D01*
X132531339Y-115586340D01*
X132638108Y-115496285D01*
X132759549Y-115396943D01*
X132882661Y-115298893D01*
X132994445Y-115212711D01*
X133033185Y-115183849D01*
X133413108Y-114879059D01*
X133670213Y-114639721D01*
X133871600Y-114440941D01*
X133871600Y-114986253D01*
X133871477Y-115171450D01*
X133870139Y-115312002D01*
X133866133Y-115414063D01*
X133858007Y-115483788D01*
X133844309Y-115527331D01*
X133823584Y-115550847D01*
X133794382Y-115560489D01*
X133755249Y-115562414D01*
X133735610Y-115562400D01*
X133682158Y-115577988D01*
X133614879Y-115617059D01*
X133591638Y-115634701D01*
X133514332Y-115693348D01*
X133423414Y-115756110D01*
X133389000Y-115778198D01*
X133322236Y-115821448D01*
X133275069Y-115855088D01*
X133262000Y-115866761D01*
X133232661Y-115896555D01*
X133176982Y-115945755D01*
X133105892Y-116005478D01*
X133030319Y-116066838D01*
X132961192Y-116120953D01*
X132909439Y-116158937D01*
X132886517Y-116172000D01*
X132857026Y-116188818D01*
X132809283Y-116230854D01*
X132792100Y-116248201D01*
X132719096Y-116324401D01*
X133138912Y-116324400D01*
X133321698Y-116322807D01*
X133464524Y-116317105D01*
X133578160Y-116305907D01*
X133673371Y-116287828D01*
X133760925Y-116261482D01*
X133827150Y-116235836D01*
X133842229Y-116232606D01*
X133853462Y-116241351D01*
X133861409Y-116268295D01*
X133866633Y-116319662D01*
X133869697Y-116401676D01*
X133871162Y-116520561D01*
X133871590Y-116682540D01*
X133871600Y-116728083D01*
X133871254Y-116882917D01*
X133870288Y-117018878D01*
X133868810Y-117128383D01*
X133866929Y-117203849D01*
X133864755Y-117237692D01*
X133864271Y-117238801D01*
X133864271Y-117514052D01*
X133913275Y-117513570D01*
X134051940Y-117511396D01*
X134162497Y-117508658D01*
X134248189Y-117505293D01*
X134312258Y-117501242D01*
X134357945Y-117496442D01*
X134388493Y-117490832D01*
X134407142Y-117484350D01*
X134415886Y-117478286D01*
X134424066Y-117465822D01*
X134431062Y-117443563D01*
X134436966Y-117407809D01*
X134441867Y-117354859D01*
X134445856Y-117281012D01*
X134449022Y-117182569D01*
X134451456Y-117055827D01*
X134453248Y-116897087D01*
X134454489Y-116702647D01*
X134455267Y-116468807D01*
X134455674Y-116191865D01*
X134455800Y-115868122D01*
X134455800Y-114241600D01*
X134359582Y-114241600D01*
X134243665Y-114221521D01*
X134125000Y-114168475D01*
X134024009Y-114093246D01*
X133979756Y-114040994D01*
X133932630Y-113927454D01*
X133922364Y-113796500D01*
X133946082Y-113662372D01*
X134000911Y-113539310D01*
X134083977Y-113441552D01*
X134103853Y-113426200D01*
X134204572Y-113379194D01*
X134320123Y-113357561D01*
X134455801Y-113346310D01*
X134455800Y-113236970D01*
X134457023Y-113203420D01*
X134458579Y-113174069D01*
X134457301Y-113148637D01*
G36*
X133893659Y-111055324D02*
X133883857Y-111014089D01*
X133861171Y-110943121D01*
X133825037Y-110847827D01*
X133780813Y-110740479D01*
X133733853Y-110633347D01*
X133689513Y-110538702D01*
X133653149Y-110468815D01*
X133632402Y-110437936D01*
X133609418Y-110447626D01*
X133554492Y-110479964D01*
X133477349Y-110528536D01*
X133387712Y-110586926D01*
X133295305Y-110648719D01*
X133209849Y-110707498D01*
X133141070Y-110756848D01*
X133099841Y-110789323D01*
X133102376Y-110817764D01*
X133132665Y-110869919D01*
X133166688Y-110913593D01*
X133258774Y-111058702D01*
X133304441Y-111223513D01*
X133305716Y-111381902D01*
X133265098Y-111552602D01*
X133181873Y-111696741D01*
X133057075Y-111813755D01*
X132891740Y-111903081D01*
X132686903Y-111964157D01*
X132443599Y-111996419D01*
X132169800Y-111999574D01*
X131922174Y-111978133D01*
X131716259Y-111933016D01*
X131547895Y-111862370D01*
X131412920Y-111764343D01*
X131307174Y-111637083D01*
X131288849Y-111607421D01*
X131248585Y-111530227D01*
X131227124Y-111458762D01*
X131219324Y-111370973D01*
X131218991Y-111307900D01*
X131234646Y-111148183D01*
X131282608Y-111009453D01*
X131369387Y-110875375D01*
X131411337Y-110825154D01*
X131455838Y-110770908D01*
X131479775Y-110734586D01*
X131481031Y-110726945D01*
X131447712Y-110704784D01*
X131383667Y-110665502D01*
X131298652Y-110614770D01*
X131202425Y-110558257D01*
X131104743Y-110501634D01*
X131015364Y-110450569D01*
X130944044Y-110410735D01*
X130900540Y-110387799D01*
X130891820Y-110384547D01*
X130878446Y-110409782D01*
X130847747Y-110467656D01*
X130806214Y-110545938D01*
X130803770Y-110550543D01*
X130723388Y-110712853D01*
X130668072Y-110855788D01*
X130633014Y-110997728D01*
X130613407Y-111157053D01*
X130605660Y-111307900D01*
X130604431Y-111500715D01*
X130613887Y-111652750D01*
X130629435Y-111743564D01*
X130714282Y-111975799D01*
X130843282Y-112188841D01*
X131012094Y-112378634D01*
X131216377Y-112541122D01*
X131451791Y-112672248D01*
X131713995Y-112767956D01*
X131730368Y-112772452D01*
X131916974Y-112808750D01*
X132131080Y-112827655D01*
X132354743Y-112829177D01*
X132570018Y-112813331D01*
X132758960Y-112780128D01*
X132790956Y-112771703D01*
X133064565Y-112669939D01*
X133310532Y-112527268D01*
X133525347Y-112346196D01*
X133705505Y-112129230D01*
X133719918Y-112108000D01*
X133812496Y-111930356D01*
X133878252Y-111722302D01*
X133915093Y-111497802D01*
X133920927Y-111270822D01*
X133893659Y-111055324D01*
X133893659Y-111055324D01*
G37*
X133893659Y-111055324D02*
X133883857Y-111014089D01*
X133861171Y-110943121D01*
X133825037Y-110847827D01*
X133780813Y-110740479D01*
X133733853Y-110633347D01*
X133689513Y-110538702D01*
X133653149Y-110468815D01*
X133632402Y-110437936D01*
X133609418Y-110447626D01*
X133554492Y-110479964D01*
X133477349Y-110528536D01*
X133387712Y-110586926D01*
X133295305Y-110648719D01*
X133209849Y-110707498D01*
X133141070Y-110756848D01*
X133099841Y-110789323D01*
X133102376Y-110817764D01*
X133132665Y-110869919D01*
X133166688Y-110913593D01*
X133258774Y-111058702D01*
X133304441Y-111223513D01*
X133305716Y-111381902D01*
X133265098Y-111552602D01*
X133181873Y-111696741D01*
X133057075Y-111813755D01*
X132891740Y-111903081D01*
X132686903Y-111964157D01*
X132443599Y-111996419D01*
X132169800Y-111999574D01*
X131922174Y-111978133D01*
X131716259Y-111933016D01*
X131547895Y-111862370D01*
X131412920Y-111764343D01*
X131307174Y-111637083D01*
X131288849Y-111607421D01*
X131248585Y-111530227D01*
X131227124Y-111458762D01*
X131219324Y-111370973D01*
X131218991Y-111307900D01*
X131234646Y-111148183D01*
X131282608Y-111009453D01*
X131369387Y-110875375D01*
X131411337Y-110825154D01*
X131455838Y-110770908D01*
X131479775Y-110734586D01*
X131481031Y-110726945D01*
X131447712Y-110704784D01*
X131383667Y-110665502D01*
X131298652Y-110614770D01*
X131202425Y-110558257D01*
X131104743Y-110501634D01*
X131015364Y-110450569D01*
X130944044Y-110410735D01*
X130900540Y-110387799D01*
X130891820Y-110384547D01*
X130878446Y-110409782D01*
X130847747Y-110467656D01*
X130806214Y-110545938D01*
X130803770Y-110550543D01*
X130723388Y-110712853D01*
X130668072Y-110855788D01*
X130633014Y-110997728D01*
X130613407Y-111157053D01*
X130605660Y-111307900D01*
X130604431Y-111500715D01*
X130613887Y-111652750D01*
X130629435Y-111743564D01*
X130714282Y-111975799D01*
X130843282Y-112188841D01*
X131012094Y-112378634D01*
X131216377Y-112541122D01*
X131451791Y-112672248D01*
X131713995Y-112767956D01*
X131730368Y-112772452D01*
X131916974Y-112808750D01*
X132131080Y-112827655D01*
X132354743Y-112829177D01*
X132570018Y-112813331D01*
X132758960Y-112780128D01*
X132790956Y-112771703D01*
X133064565Y-112669939D01*
X133310532Y-112527268D01*
X133525347Y-112346196D01*
X133705505Y-112129230D01*
X133719918Y-112108000D01*
X133812496Y-111930356D01*
X133878252Y-111722302D01*
X133915093Y-111497802D01*
X133920927Y-111270822D01*
X133893659Y-111055324D01*
G36*
X133047641Y-108972380D02*
X133007736Y-108796424D01*
X132963105Y-108677487D01*
X132907222Y-108584902D01*
X132833640Y-108502221D01*
X132778812Y-108449083D01*
X132727171Y-108405604D01*
X132673008Y-108370709D01*
X132610613Y-108343324D01*
X132534277Y-108322376D01*
X132438290Y-108306791D01*
X132316942Y-108295496D01*
X132164525Y-108287415D01*
X131975330Y-108281477D01*
X131743645Y-108276606D01*
X131622523Y-108274451D01*
X131390566Y-108270193D01*
X131203949Y-108266070D01*
X131057215Y-108261724D01*
X130944905Y-108256797D01*
X130861563Y-108250932D01*
X130801731Y-108243769D01*
X130759951Y-108234951D01*
X130730766Y-108224120D01*
X130714473Y-108214865D01*
X130645800Y-108169829D01*
X130645800Y-108980582D01*
X130799302Y-108996500D01*
X130731517Y-109095898D01*
X130652746Y-109252054D01*
X130606822Y-109432908D01*
X130595863Y-109622705D01*
X130621989Y-109805691D01*
X130631564Y-109839166D01*
X130713888Y-110025571D01*
X130831415Y-110176480D01*
X130980679Y-110289348D01*
X131158214Y-110361625D01*
X131360557Y-110390765D01*
X131382400Y-110391212D01*
X131411455Y-110390548D01*
X131411455Y-109662293D01*
X131322116Y-109658037D01*
X131291498Y-109647910D01*
X131210911Y-109585221D01*
X131156519Y-109490277D01*
X131132648Y-109376673D01*
X131143622Y-109258004D01*
X131155492Y-109220404D01*
X131197032Y-109133217D01*
X131249634Y-109077576D01*
X131324720Y-109047106D01*
X131433711Y-109035434D01*
X131488428Y-109034600D01*
X131687200Y-109034600D01*
X131687200Y-109200516D01*
X131672176Y-109364253D01*
X131629267Y-109502872D01*
X131568445Y-109598324D01*
X131501702Y-109640931D01*
X131411455Y-109662293D01*
X131411455Y-110390548D01*
X131496727Y-110388597D01*
X131584026Y-110374949D01*
X131667689Y-110345450D01*
X131717785Y-110322118D01*
X131874364Y-110217777D01*
X132000242Y-110073396D01*
X132095122Y-109889631D01*
X132158709Y-109667138D01*
X132190705Y-109406574D01*
X132194759Y-109266206D01*
X132195200Y-109027912D01*
X132298772Y-109041804D01*
X132412040Y-109077738D01*
X132490493Y-109149656D01*
X132533837Y-109256276D01*
X132541777Y-109396313D01*
X132514020Y-109568484D01*
X132459856Y-109745491D01*
X132432587Y-109829949D01*
X132417627Y-109894942D01*
X132418092Y-109926805D01*
X132418411Y-109927138D01*
X132450128Y-109944724D01*
X132516088Y-109974820D01*
X132603255Y-110012098D01*
X132698596Y-110051227D01*
X132789075Y-110086878D01*
X132861660Y-110113720D01*
X132903315Y-110126425D01*
X132906698Y-110126800D01*
X132925383Y-110105010D01*
X132931800Y-110061553D01*
X132937963Y-110009969D01*
X132954576Y-109923150D01*
X132978825Y-109814897D01*
X132997827Y-109737703D01*
X133048640Y-109471904D01*
X133065282Y-109213224D01*
X133047641Y-108972380D01*
X133047641Y-108972380D01*
G37*
X133047641Y-108972380D02*
X133007736Y-108796424D01*
X132963105Y-108677487D01*
X132907222Y-108584902D01*
X132833640Y-108502221D01*
X132778812Y-108449083D01*
X132727171Y-108405604D01*
X132673008Y-108370709D01*
X132610613Y-108343324D01*
X132534277Y-108322376D01*
X132438290Y-108306791D01*
X132316942Y-108295496D01*
X132164525Y-108287415D01*
X131975330Y-108281477D01*
X131743645Y-108276606D01*
X131622523Y-108274451D01*
X131390566Y-108270193D01*
X131203949Y-108266070D01*
X131057215Y-108261724D01*
X130944905Y-108256797D01*
X130861563Y-108250932D01*
X130801731Y-108243769D01*
X130759951Y-108234951D01*
X130730766Y-108224120D01*
X130714473Y-108214865D01*
X130645800Y-108169829D01*
X130645800Y-108980582D01*
X130799302Y-108996500D01*
X130731517Y-109095898D01*
X130652746Y-109252054D01*
X130606822Y-109432908D01*
X130595863Y-109622705D01*
X130621989Y-109805691D01*
X130631564Y-109839166D01*
X130713888Y-110025571D01*
X130831415Y-110176480D01*
X130980679Y-110289348D01*
X131158214Y-110361625D01*
X131360557Y-110390765D01*
X131382400Y-110391212D01*
X131411455Y-110390548D01*
X131411455Y-109662293D01*
X131322116Y-109658037D01*
X131291498Y-109647910D01*
X131210911Y-109585221D01*
X131156519Y-109490277D01*
X131132648Y-109376673D01*
X131143622Y-109258004D01*
X131155492Y-109220404D01*
X131197032Y-109133217D01*
X131249634Y-109077576D01*
X131324720Y-109047106D01*
X131433711Y-109035434D01*
X131488428Y-109034600D01*
X131687200Y-109034600D01*
X131687200Y-109200516D01*
X131672176Y-109364253D01*
X131629267Y-109502872D01*
X131568445Y-109598324D01*
X131501702Y-109640931D01*
X131411455Y-109662293D01*
X131411455Y-110390548D01*
X131496727Y-110388597D01*
X131584026Y-110374949D01*
X131667689Y-110345450D01*
X131717785Y-110322118D01*
X131874364Y-110217777D01*
X132000242Y-110073396D01*
X132095122Y-109889631D01*
X132158709Y-109667138D01*
X132190705Y-109406574D01*
X132194759Y-109266206D01*
X132195200Y-109027912D01*
X132298772Y-109041804D01*
X132412040Y-109077738D01*
X132490493Y-109149656D01*
X132533837Y-109256276D01*
X132541777Y-109396313D01*
X132514020Y-109568484D01*
X132459856Y-109745491D01*
X132432587Y-109829949D01*
X132417627Y-109894942D01*
X132418092Y-109926805D01*
X132418411Y-109927138D01*
X132450128Y-109944724D01*
X132516088Y-109974820D01*
X132603255Y-110012098D01*
X132698596Y-110051227D01*
X132789075Y-110086878D01*
X132861660Y-110113720D01*
X132903315Y-110126425D01*
X132906698Y-110126800D01*
X132925383Y-110105010D01*
X132931800Y-110061553D01*
X132937963Y-110009969D01*
X132954576Y-109923150D01*
X132978825Y-109814897D01*
X132997827Y-109737703D01*
X133048640Y-109471904D01*
X133065282Y-109213224D01*
X133047641Y-108972380D01*
G36*
X132442850Y-105752536D02*
X132112948Y-105750994D01*
X131830019Y-105749434D01*
X131590239Y-105747739D01*
X131389781Y-105745792D01*
X131224819Y-105743477D01*
X131091528Y-105740678D01*
X130986082Y-105737276D01*
X130904655Y-105733156D01*
X130843420Y-105728201D01*
X130798553Y-105722293D01*
X130766226Y-105715317D01*
X130742615Y-105707155D01*
X130728350Y-105700198D01*
X130645800Y-105655096D01*
X130645800Y-106469200D01*
X130722000Y-106469200D01*
X130775548Y-106472559D01*
X130798196Y-106480649D01*
X130798200Y-106480773D01*
X130785216Y-106506891D01*
X130752463Y-106559274D01*
X130734579Y-106586097D01*
X130667353Y-106718397D01*
X130620411Y-106878063D01*
X130596662Y-107046978D01*
X130599016Y-107207023D01*
X130618753Y-107307400D01*
X130700061Y-107491462D01*
X130821800Y-107656590D01*
X130974490Y-107791483D01*
X131076306Y-107852845D01*
X131233971Y-107920269D01*
X131400049Y-107964145D01*
X131588597Y-107987286D01*
X131775087Y-107992759D01*
X131788800Y-107991998D01*
X131788800Y-107191864D01*
X131613105Y-107187366D01*
X131479586Y-107173751D01*
X131380051Y-107148523D01*
X131306309Y-107109188D01*
X131250169Y-107053249D01*
X131227830Y-107020984D01*
X131189836Y-106914579D01*
X131192824Y-106788856D01*
X131236272Y-106653797D01*
X131248227Y-106629501D01*
X131298443Y-106532700D01*
X131847513Y-106525858D01*
X132396584Y-106519015D01*
X132440546Y-106586109D01*
X132467293Y-106649640D01*
X132487956Y-106739332D01*
X132494935Y-106797367D01*
X132498030Y-106885745D01*
X132487905Y-106944709D01*
X132459317Y-106995015D01*
X132438432Y-107021073D01*
X132364833Y-107088417D01*
X132269263Y-107137336D01*
X132144766Y-107169659D01*
X131984389Y-107187213D01*
X131788800Y-107191864D01*
X131788800Y-107991998D01*
X132071035Y-107976325D01*
X132330866Y-107928458D01*
X132553491Y-107849829D01*
X132737820Y-107741111D01*
X132882763Y-107602975D01*
X132987232Y-107436094D01*
X133050136Y-107241140D01*
X133057165Y-107201830D01*
X133065425Y-107086297D01*
X133058571Y-106958937D01*
X133039148Y-106832339D01*
X133009701Y-106719088D01*
X132972775Y-106631772D01*
X132932185Y-106583738D01*
X132907718Y-106562873D01*
X132912808Y-106546830D01*
X132951343Y-106535075D01*
X133027212Y-106527076D01*
X133144299Y-106522298D01*
X133306494Y-106520207D01*
X133396330Y-106520000D01*
X133570427Y-106520523D01*
X133701783Y-106522531D01*
X133798450Y-106526689D01*
X133868481Y-106533657D01*
X133919927Y-106544099D01*
X133960842Y-106558678D01*
X133980530Y-106568062D01*
X134074800Y-106616124D01*
X134074800Y-105759772D01*
X132442850Y-105752536D01*
X132442850Y-105752536D01*
G37*
X132442850Y-105752536D02*
X132112948Y-105750994D01*
X131830019Y-105749434D01*
X131590239Y-105747739D01*
X131389781Y-105745792D01*
X131224819Y-105743477D01*
X131091528Y-105740678D01*
X130986082Y-105737276D01*
X130904655Y-105733156D01*
X130843420Y-105728201D01*
X130798553Y-105722293D01*
X130766226Y-105715317D01*
X130742615Y-105707155D01*
X130728350Y-105700198D01*
X130645800Y-105655096D01*
X130645800Y-106469200D01*
X130722000Y-106469200D01*
X130775548Y-106472559D01*
X130798196Y-106480649D01*
X130798200Y-106480773D01*
X130785216Y-106506891D01*
X130752463Y-106559274D01*
X130734579Y-106586097D01*
X130667353Y-106718397D01*
X130620411Y-106878063D01*
X130596662Y-107046978D01*
X130599016Y-107207023D01*
X130618753Y-107307400D01*
X130700061Y-107491462D01*
X130821800Y-107656590D01*
X130974490Y-107791483D01*
X131076306Y-107852845D01*
X131233971Y-107920269D01*
X131400049Y-107964145D01*
X131588597Y-107987286D01*
X131775087Y-107992759D01*
X131788800Y-107991998D01*
X131788800Y-107191864D01*
X131613105Y-107187366D01*
X131479586Y-107173751D01*
X131380051Y-107148523D01*
X131306309Y-107109188D01*
X131250169Y-107053249D01*
X131227830Y-107020984D01*
X131189836Y-106914579D01*
X131192824Y-106788856D01*
X131236272Y-106653797D01*
X131248227Y-106629501D01*
X131298443Y-106532700D01*
X131847513Y-106525858D01*
X132396584Y-106519015D01*
X132440546Y-106586109D01*
X132467293Y-106649640D01*
X132487956Y-106739332D01*
X132494935Y-106797367D01*
X132498030Y-106885745D01*
X132487905Y-106944709D01*
X132459317Y-106995015D01*
X132438432Y-107021073D01*
X132364833Y-107088417D01*
X132269263Y-107137336D01*
X132144766Y-107169659D01*
X131984389Y-107187213D01*
X131788800Y-107191864D01*
X131788800Y-107991998D01*
X132071035Y-107976325D01*
X132330866Y-107928458D01*
X132553491Y-107849829D01*
X132737820Y-107741111D01*
X132882763Y-107602975D01*
X132987232Y-107436094D01*
X133050136Y-107241140D01*
X133057165Y-107201830D01*
X133065425Y-107086297D01*
X133058571Y-106958937D01*
X133039148Y-106832339D01*
X133009701Y-106719088D01*
X132972775Y-106631772D01*
X132932185Y-106583738D01*
X132907718Y-106562873D01*
X132912808Y-106546830D01*
X132951343Y-106535075D01*
X133027212Y-106527076D01*
X133144299Y-106522298D01*
X133306494Y-106520207D01*
X133396330Y-106520000D01*
X133570427Y-106520523D01*
X133701783Y-106522531D01*
X133798450Y-106526689D01*
X133868481Y-106533657D01*
X133919927Y-106544099D01*
X133960842Y-106558678D01*
X133980530Y-106568062D01*
X134074800Y-106616124D01*
X134074800Y-105759772D01*
X132442850Y-105752536D01*
G04 #@! TO.C,G\002A\002A\002A*
G36*
X98206958Y-147220799D02*
X98187926Y-146869049D01*
X98155250Y-146502010D01*
X98111775Y-146149908D01*
X98060346Y-145842969D01*
X98003809Y-145611419D01*
X97945010Y-145485485D01*
X97926915Y-145472666D01*
X97872435Y-145390426D01*
X97855429Y-145268406D01*
X97824846Y-145086344D01*
X97747047Y-144841943D01*
X97642955Y-144586837D01*
X97533494Y-144372661D01*
X97444826Y-144255142D01*
X97361630Y-144118367D01*
X97347429Y-144033493D01*
X97308635Y-143898076D01*
X97208569Y-143696862D01*
X97111571Y-143538933D01*
X96967499Y-143320594D01*
X96846926Y-143133674D01*
X96795043Y-143050188D01*
X96629555Y-142812800D01*
X96397837Y-142534192D01*
X96121136Y-142234458D01*
X95820699Y-141933697D01*
X95517773Y-141652006D01*
X95233604Y-141409482D01*
X94989440Y-141226221D01*
X94806527Y-141122322D01*
X94739924Y-141106286D01*
X94665345Y-141059625D01*
X94662286Y-141041706D01*
X94601683Y-140975520D01*
X94451379Y-140883899D01*
X94258632Y-140789458D01*
X94070701Y-140714813D01*
X93934844Y-140682577D01*
X93914413Y-140683824D01*
X93788339Y-140664793D01*
X93668844Y-140613321D01*
X93523887Y-140555396D01*
X93304448Y-140491491D01*
X93052855Y-140430889D01*
X92811433Y-140382871D01*
X92622512Y-140356717D01*
X92528418Y-140361709D01*
X92526966Y-140362938D01*
X92544750Y-140436978D01*
X92628311Y-140590593D01*
X92721691Y-140734516D01*
X92843315Y-140916204D01*
X92918395Y-141038033D01*
X92931439Y-141070000D01*
X92938452Y-141128330D01*
X92982511Y-141259751D01*
X93049307Y-141516372D01*
X93100318Y-141866316D01*
X93131435Y-142258235D01*
X93138550Y-142640779D01*
X93118305Y-142956857D01*
X93066577Y-143288133D01*
X92990436Y-143691194D01*
X92899820Y-144120554D01*
X92804669Y-144530722D01*
X92714918Y-144876211D01*
X92658525Y-145061428D01*
X92564419Y-145430824D01*
X92492395Y-145896638D01*
X92446277Y-146411299D01*
X92429889Y-146927237D01*
X92447055Y-147396879D01*
X92460169Y-147528857D01*
X92522968Y-147956140D01*
X92603834Y-148357876D01*
X92693093Y-148690837D01*
X92760653Y-148871428D01*
X93101343Y-149444919D01*
X93543979Y-149932150D01*
X94069338Y-150316251D01*
X94480857Y-150500816D01*
X94480857Y-141904571D01*
X94444571Y-141868286D01*
X94480857Y-141832000D01*
X94517143Y-141868286D01*
X94480857Y-141904571D01*
X94480857Y-150500816D01*
X94658195Y-150580352D01*
X94734857Y-150603954D01*
X95025611Y-150653071D01*
X95281309Y-150656534D01*
X95281309Y-148057636D01*
X95160663Y-148031448D01*
X95041798Y-147952206D01*
X94876251Y-147798940D01*
X94761121Y-147642183D01*
X94719218Y-147467367D01*
X94702345Y-147175936D01*
X94709916Y-146794139D01*
X94741347Y-146348226D01*
X94796054Y-145864447D01*
X94801620Y-145823428D01*
X94867880Y-145260650D01*
X94922285Y-144641840D01*
X94947747Y-144245000D01*
X94978400Y-144155040D01*
X95044878Y-144178201D01*
X95133576Y-144291136D01*
X95230890Y-144470497D01*
X95323215Y-144692938D01*
X95396948Y-144935112D01*
X95423483Y-145061428D01*
X95468040Y-145263755D01*
X95516401Y-145405090D01*
X95527647Y-145424285D01*
X95583218Y-145555714D01*
X95645671Y-145789739D01*
X95706661Y-146084618D01*
X95757844Y-146398604D01*
X95790876Y-146689953D01*
X95796007Y-146766857D01*
X95785556Y-147154697D01*
X95719682Y-147507991D01*
X95608526Y-147793053D01*
X95462230Y-147976197D01*
X95424619Y-148000393D01*
X95281309Y-148057636D01*
X95281309Y-150656534D01*
X95370507Y-150657743D01*
X95714571Y-150625098D01*
X95714571Y-149161714D01*
X95678286Y-149125428D01*
X95714571Y-149089143D01*
X95750857Y-149125428D01*
X95714571Y-149161714D01*
X95714571Y-150625098D01*
X95729298Y-150623700D01*
X96061736Y-150556678D01*
X96327574Y-150462407D01*
X96479652Y-150355430D01*
X96614056Y-150264795D01*
X96686555Y-150250286D01*
X96805810Y-150197143D01*
X96975937Y-150061175D01*
X97163316Y-149877574D01*
X97334331Y-149681532D01*
X97455362Y-149508239D01*
X97493825Y-149405238D01*
X97542625Y-149316597D01*
X97658840Y-149187989D01*
X97663983Y-149183088D01*
X97754615Y-149056561D01*
X97859496Y-148851824D01*
X97963587Y-148607993D01*
X98051853Y-148364183D01*
X98109257Y-148159508D01*
X98120762Y-148033083D01*
X98112671Y-148015909D01*
X98118461Y-147936610D01*
X98153732Y-147882053D01*
X98192706Y-147757527D01*
X98209500Y-147527033D01*
X98206958Y-147220799D01*
X98206958Y-147220799D01*
G37*
X98206958Y-147220799D02*
X98187926Y-146869049D01*
X98155250Y-146502010D01*
X98111775Y-146149908D01*
X98060346Y-145842969D01*
X98003809Y-145611419D01*
X97945010Y-145485485D01*
X97926915Y-145472666D01*
X97872435Y-145390426D01*
X97855429Y-145268406D01*
X97824846Y-145086344D01*
X97747047Y-144841943D01*
X97642955Y-144586837D01*
X97533494Y-144372661D01*
X97444826Y-144255142D01*
X97361630Y-144118367D01*
X97347429Y-144033493D01*
X97308635Y-143898076D01*
X97208569Y-143696862D01*
X97111571Y-143538933D01*
X96967499Y-143320594D01*
X96846926Y-143133674D01*
X96795043Y-143050188D01*
X96629555Y-142812800D01*
X96397837Y-142534192D01*
X96121136Y-142234458D01*
X95820699Y-141933697D01*
X95517773Y-141652006D01*
X95233604Y-141409482D01*
X94989440Y-141226221D01*
X94806527Y-141122322D01*
X94739924Y-141106286D01*
X94665345Y-141059625D01*
X94662286Y-141041706D01*
X94601683Y-140975520D01*
X94451379Y-140883899D01*
X94258632Y-140789458D01*
X94070701Y-140714813D01*
X93934844Y-140682577D01*
X93914413Y-140683824D01*
X93788339Y-140664793D01*
X93668844Y-140613321D01*
X93523887Y-140555396D01*
X93304448Y-140491491D01*
X93052855Y-140430889D01*
X92811433Y-140382871D01*
X92622512Y-140356717D01*
X92528418Y-140361709D01*
X92526966Y-140362938D01*
X92544750Y-140436978D01*
X92628311Y-140590593D01*
X92721691Y-140734516D01*
X92843315Y-140916204D01*
X92918395Y-141038033D01*
X92931439Y-141070000D01*
X92938452Y-141128330D01*
X92982511Y-141259751D01*
X93049307Y-141516372D01*
X93100318Y-141866316D01*
X93131435Y-142258235D01*
X93138550Y-142640779D01*
X93118305Y-142956857D01*
X93066577Y-143288133D01*
X92990436Y-143691194D01*
X92899820Y-144120554D01*
X92804669Y-144530722D01*
X92714918Y-144876211D01*
X92658525Y-145061428D01*
X92564419Y-145430824D01*
X92492395Y-145896638D01*
X92446277Y-146411299D01*
X92429889Y-146927237D01*
X92447055Y-147396879D01*
X92460169Y-147528857D01*
X92522968Y-147956140D01*
X92603834Y-148357876D01*
X92693093Y-148690837D01*
X92760653Y-148871428D01*
X93101343Y-149444919D01*
X93543979Y-149932150D01*
X94069338Y-150316251D01*
X94480857Y-150500816D01*
X94480857Y-141904571D01*
X94444571Y-141868286D01*
X94480857Y-141832000D01*
X94517143Y-141868286D01*
X94480857Y-141904571D01*
X94480857Y-150500816D01*
X94658195Y-150580352D01*
X94734857Y-150603954D01*
X95025611Y-150653071D01*
X95281309Y-150656534D01*
X95281309Y-148057636D01*
X95160663Y-148031448D01*
X95041798Y-147952206D01*
X94876251Y-147798940D01*
X94761121Y-147642183D01*
X94719218Y-147467367D01*
X94702345Y-147175936D01*
X94709916Y-146794139D01*
X94741347Y-146348226D01*
X94796054Y-145864447D01*
X94801620Y-145823428D01*
X94867880Y-145260650D01*
X94922285Y-144641840D01*
X94947747Y-144245000D01*
X94978400Y-144155040D01*
X95044878Y-144178201D01*
X95133576Y-144291136D01*
X95230890Y-144470497D01*
X95323215Y-144692938D01*
X95396948Y-144935112D01*
X95423483Y-145061428D01*
X95468040Y-145263755D01*
X95516401Y-145405090D01*
X95527647Y-145424285D01*
X95583218Y-145555714D01*
X95645671Y-145789739D01*
X95706661Y-146084618D01*
X95757844Y-146398604D01*
X95790876Y-146689953D01*
X95796007Y-146766857D01*
X95785556Y-147154697D01*
X95719682Y-147507991D01*
X95608526Y-147793053D01*
X95462230Y-147976197D01*
X95424619Y-148000393D01*
X95281309Y-148057636D01*
X95281309Y-150656534D01*
X95370507Y-150657743D01*
X95714571Y-150625098D01*
X95714571Y-149161714D01*
X95678286Y-149125428D01*
X95714571Y-149089143D01*
X95750857Y-149125428D01*
X95714571Y-149161714D01*
X95714571Y-150625098D01*
X95729298Y-150623700D01*
X96061736Y-150556678D01*
X96327574Y-150462407D01*
X96479652Y-150355430D01*
X96614056Y-150264795D01*
X96686555Y-150250286D01*
X96805810Y-150197143D01*
X96975937Y-150061175D01*
X97163316Y-149877574D01*
X97334331Y-149681532D01*
X97455362Y-149508239D01*
X97493825Y-149405238D01*
X97542625Y-149316597D01*
X97658840Y-149187989D01*
X97663983Y-149183088D01*
X97754615Y-149056561D01*
X97859496Y-148851824D01*
X97963587Y-148607993D01*
X98051853Y-148364183D01*
X98109257Y-148159508D01*
X98120762Y-148033083D01*
X98112671Y-148015909D01*
X98118461Y-147936610D01*
X98153732Y-147882053D01*
X98192706Y-147757527D01*
X98209500Y-147527033D01*
X98206958Y-147220799D01*
G36*
X112417994Y-157557384D02*
X112417170Y-157507428D01*
X112404699Y-157066683D01*
X112383443Y-156741791D01*
X112349918Y-156503560D01*
X112300640Y-156322795D01*
X112265624Y-156237428D01*
X112163192Y-156009596D01*
X112075398Y-155805367D01*
X112059195Y-155765714D01*
X111838968Y-155291063D01*
X111590898Y-154911004D01*
X111535143Y-154841559D01*
X111243693Y-154514038D01*
X110954973Y-154231974D01*
X110699617Y-154023936D01*
X110576038Y-153946984D01*
X110423124Y-153862969D01*
X110337917Y-153806603D01*
X110337714Y-153806401D01*
X110124172Y-153674297D01*
X109804004Y-153578476D01*
X109411944Y-153522294D01*
X108982727Y-153509109D01*
X108551085Y-153542279D01*
X108233143Y-153602975D01*
X108048038Y-153685444D01*
X107808465Y-153839728D01*
X107561653Y-154034087D01*
X107475509Y-154112116D01*
X107329698Y-154239583D01*
X107227606Y-154309637D01*
X107212019Y-154314286D01*
X107157319Y-154375653D01*
X107062895Y-154537871D01*
X106945560Y-154768110D01*
X106822129Y-155033542D01*
X106719544Y-155275836D01*
X106655958Y-155529330D01*
X106616605Y-155889869D01*
X106603102Y-156321131D01*
X106617060Y-156786792D01*
X106639728Y-157072000D01*
X106683168Y-157420719D01*
X106740980Y-157772256D01*
X106801624Y-158057590D01*
X106809595Y-158088000D01*
X106887790Y-158379001D01*
X106964865Y-158669901D01*
X106996828Y-158792305D01*
X107066042Y-159004358D01*
X107142796Y-159162728D01*
X107164632Y-159191448D01*
X107232210Y-159308074D01*
X107317558Y-159515502D01*
X107386935Y-159720857D01*
X107474891Y-159993844D01*
X107562455Y-160243595D01*
X107613312Y-160374000D01*
X107714255Y-160667293D01*
X107814151Y-161054730D01*
X107902078Y-161485647D01*
X107967116Y-161909381D01*
X107988738Y-162115714D01*
X108010439Y-162372349D01*
X108027639Y-162566716D01*
X108036785Y-162658714D01*
X108036982Y-162660000D01*
X108023220Y-162789673D01*
X107967994Y-163003609D01*
X107886207Y-163252319D01*
X107792759Y-163486314D01*
X107779396Y-163515505D01*
X107703114Y-163707553D01*
X107674115Y-163842759D01*
X107681713Y-163874474D01*
X107767599Y-163874938D01*
X107956165Y-163835346D01*
X108124286Y-163788350D01*
X108124286Y-160555428D01*
X108088000Y-160519143D01*
X108124286Y-160482857D01*
X108124286Y-157870286D01*
X108088000Y-157834000D01*
X108124286Y-157797714D01*
X108160572Y-157834000D01*
X108124286Y-157870286D01*
X108124286Y-160482857D01*
X108160572Y-160519143D01*
X108124286Y-160555428D01*
X108124286Y-163788350D01*
X108213074Y-163763530D01*
X108330338Y-163726540D01*
X108623410Y-163636888D01*
X108879693Y-163568844D01*
X109056227Y-163533474D01*
X109090179Y-163530857D01*
X109140286Y-163519653D01*
X109140286Y-162006857D01*
X109104000Y-161970571D01*
X109140286Y-161934286D01*
X109176571Y-161970571D01*
X109140286Y-162006857D01*
X109140286Y-163519653D01*
X109215415Y-163502852D01*
X109249143Y-163458286D01*
X109307923Y-163393902D01*
X109358000Y-163385714D01*
X109482879Y-163337362D01*
X109587810Y-163254306D01*
X109587810Y-160531238D01*
X109544666Y-160521276D01*
X109539429Y-160482857D01*
X109565981Y-160423122D01*
X109575714Y-160428184D01*
X109575714Y-160192571D01*
X109539429Y-160156285D01*
X109575714Y-160120000D01*
X109612000Y-160156285D01*
X109575714Y-160192571D01*
X109575714Y-160428184D01*
X109587810Y-160434476D01*
X109596495Y-160520601D01*
X109587810Y-160531238D01*
X109587810Y-163254306D01*
X109624384Y-163225356D01*
X109624384Y-159991783D01*
X109570616Y-159973724D01*
X109541931Y-159834861D01*
X109539429Y-159749330D01*
X109519221Y-159588777D01*
X109477089Y-159509466D01*
X109434343Y-159421156D01*
X109391581Y-159235820D01*
X109369297Y-159084212D01*
X109316833Y-158791004D01*
X109231443Y-158457250D01*
X109170092Y-158265743D01*
X109089445Y-157990185D01*
X109009107Y-157633883D01*
X108942930Y-157260598D01*
X108926561Y-157144571D01*
X108836784Y-156455143D01*
X109037155Y-156257321D01*
X109184797Y-156130954D01*
X109307471Y-156098575D01*
X109455193Y-156135379D01*
X109653045Y-156278288D01*
X109811270Y-156544509D01*
X109927263Y-156917013D01*
X109998418Y-157378770D01*
X110022130Y-157912751D01*
X109995792Y-158501926D01*
X109916799Y-159129266D01*
X109914965Y-159140286D01*
X109848524Y-159463289D01*
X109772103Y-159722350D01*
X109694468Y-159903253D01*
X109624384Y-159991783D01*
X109624384Y-163225356D01*
X109628083Y-163222428D01*
X109797409Y-163079032D01*
X109946787Y-162986571D01*
X110091064Y-162898225D01*
X110269455Y-162760984D01*
X110443836Y-162608229D01*
X110576077Y-162473344D01*
X110628057Y-162390074D01*
X110672128Y-162306794D01*
X110784312Y-162157949D01*
X110863914Y-162063482D01*
X111108946Y-161776556D01*
X111264058Y-161578214D01*
X111340644Y-161453113D01*
X111353714Y-161403907D01*
X111391500Y-161311194D01*
X111488459Y-161143788D01*
X111571429Y-161015886D01*
X111693144Y-160827621D01*
X111772162Y-160690206D01*
X111789143Y-160647274D01*
X111817627Y-160559152D01*
X111889464Y-160390649D01*
X111928470Y-160306198D01*
X112042371Y-160017454D01*
X112165607Y-159623750D01*
X112286890Y-159163798D01*
X112374239Y-158777428D01*
X112395825Y-158595173D01*
X112411168Y-158305792D01*
X112418985Y-157947218D01*
X112417994Y-157557384D01*
X112417994Y-157557384D01*
G37*
X112417994Y-157557384D02*
X112417170Y-157507428D01*
X112404699Y-157066683D01*
X112383443Y-156741791D01*
X112349918Y-156503560D01*
X112300640Y-156322795D01*
X112265624Y-156237428D01*
X112163192Y-156009596D01*
X112075398Y-155805367D01*
X112059195Y-155765714D01*
X111838968Y-155291063D01*
X111590898Y-154911004D01*
X111535143Y-154841559D01*
X111243693Y-154514038D01*
X110954973Y-154231974D01*
X110699617Y-154023936D01*
X110576038Y-153946984D01*
X110423124Y-153862969D01*
X110337917Y-153806603D01*
X110337714Y-153806401D01*
X110124172Y-153674297D01*
X109804004Y-153578476D01*
X109411944Y-153522294D01*
X108982727Y-153509109D01*
X108551085Y-153542279D01*
X108233143Y-153602975D01*
X108048038Y-153685444D01*
X107808465Y-153839728D01*
X107561653Y-154034087D01*
X107475509Y-154112116D01*
X107329698Y-154239583D01*
X107227606Y-154309637D01*
X107212019Y-154314286D01*
X107157319Y-154375653D01*
X107062895Y-154537871D01*
X106945560Y-154768110D01*
X106822129Y-155033542D01*
X106719544Y-155275836D01*
X106655958Y-155529330D01*
X106616605Y-155889869D01*
X106603102Y-156321131D01*
X106617060Y-156786792D01*
X106639728Y-157072000D01*
X106683168Y-157420719D01*
X106740980Y-157772256D01*
X106801624Y-158057590D01*
X106809595Y-158088000D01*
X106887790Y-158379001D01*
X106964865Y-158669901D01*
X106996828Y-158792305D01*
X107066042Y-159004358D01*
X107142796Y-159162728D01*
X107164632Y-159191448D01*
X107232210Y-159308074D01*
X107317558Y-159515502D01*
X107386935Y-159720857D01*
X107474891Y-159993844D01*
X107562455Y-160243595D01*
X107613312Y-160374000D01*
X107714255Y-160667293D01*
X107814151Y-161054730D01*
X107902078Y-161485647D01*
X107967116Y-161909381D01*
X107988738Y-162115714D01*
X108010439Y-162372349D01*
X108027639Y-162566716D01*
X108036785Y-162658714D01*
X108036982Y-162660000D01*
X108023220Y-162789673D01*
X107967994Y-163003609D01*
X107886207Y-163252319D01*
X107792759Y-163486314D01*
X107779396Y-163515505D01*
X107703114Y-163707553D01*
X107674115Y-163842759D01*
X107681713Y-163874474D01*
X107767599Y-163874938D01*
X107956165Y-163835346D01*
X108124286Y-163788350D01*
X108124286Y-160555428D01*
X108088000Y-160519143D01*
X108124286Y-160482857D01*
X108124286Y-157870286D01*
X108088000Y-157834000D01*
X108124286Y-157797714D01*
X108160572Y-157834000D01*
X108124286Y-157870286D01*
X108124286Y-160482857D01*
X108160572Y-160519143D01*
X108124286Y-160555428D01*
X108124286Y-163788350D01*
X108213074Y-163763530D01*
X108330338Y-163726540D01*
X108623410Y-163636888D01*
X108879693Y-163568844D01*
X109056227Y-163533474D01*
X109090179Y-163530857D01*
X109140286Y-163519653D01*
X109140286Y-162006857D01*
X109104000Y-161970571D01*
X109140286Y-161934286D01*
X109176571Y-161970571D01*
X109140286Y-162006857D01*
X109140286Y-163519653D01*
X109215415Y-163502852D01*
X109249143Y-163458286D01*
X109307923Y-163393902D01*
X109358000Y-163385714D01*
X109482879Y-163337362D01*
X109587810Y-163254306D01*
X109587810Y-160531238D01*
X109544666Y-160521276D01*
X109539429Y-160482857D01*
X109565981Y-160423122D01*
X109575714Y-160428184D01*
X109575714Y-160192571D01*
X109539429Y-160156285D01*
X109575714Y-160120000D01*
X109612000Y-160156285D01*
X109575714Y-160192571D01*
X109575714Y-160428184D01*
X109587810Y-160434476D01*
X109596495Y-160520601D01*
X109587810Y-160531238D01*
X109587810Y-163254306D01*
X109624384Y-163225356D01*
X109624384Y-159991783D01*
X109570616Y-159973724D01*
X109541931Y-159834861D01*
X109539429Y-159749330D01*
X109519221Y-159588777D01*
X109477089Y-159509466D01*
X109434343Y-159421156D01*
X109391581Y-159235820D01*
X109369297Y-159084212D01*
X109316833Y-158791004D01*
X109231443Y-158457250D01*
X109170092Y-158265743D01*
X109089445Y-157990185D01*
X109009107Y-157633883D01*
X108942930Y-157260598D01*
X108926561Y-157144571D01*
X108836784Y-156455143D01*
X109037155Y-156257321D01*
X109184797Y-156130954D01*
X109307471Y-156098575D01*
X109455193Y-156135379D01*
X109653045Y-156278288D01*
X109811270Y-156544509D01*
X109927263Y-156917013D01*
X109998418Y-157378770D01*
X110022130Y-157912751D01*
X109995792Y-158501926D01*
X109916799Y-159129266D01*
X109914965Y-159140286D01*
X109848524Y-159463289D01*
X109772103Y-159722350D01*
X109694468Y-159903253D01*
X109624384Y-159991783D01*
X109624384Y-163225356D01*
X109628083Y-163222428D01*
X109797409Y-163079032D01*
X109946787Y-162986571D01*
X110091064Y-162898225D01*
X110269455Y-162760984D01*
X110443836Y-162608229D01*
X110576077Y-162473344D01*
X110628057Y-162390074D01*
X110672128Y-162306794D01*
X110784312Y-162157949D01*
X110863914Y-162063482D01*
X111108946Y-161776556D01*
X111264058Y-161578214D01*
X111340644Y-161453113D01*
X111353714Y-161403907D01*
X111391500Y-161311194D01*
X111488459Y-161143788D01*
X111571429Y-161015886D01*
X111693144Y-160827621D01*
X111772162Y-160690206D01*
X111789143Y-160647274D01*
X111817627Y-160559152D01*
X111889464Y-160390649D01*
X111928470Y-160306198D01*
X112042371Y-160017454D01*
X112165607Y-159623750D01*
X112286890Y-159163798D01*
X112374239Y-158777428D01*
X112395825Y-158595173D01*
X112411168Y-158305792D01*
X112418985Y-157947218D01*
X112417994Y-157557384D01*
G36*
X108124286Y-153298286D02*
X108088000Y-153334571D01*
X108124286Y-153370857D01*
X108160572Y-153334571D01*
X108124286Y-153298286D01*
X108124286Y-153298286D01*
G37*
X108124286Y-153298286D02*
X108088000Y-153334571D01*
X108124286Y-153370857D01*
X108160572Y-153334571D01*
X108124286Y-153298286D01*
G04 #@! TD*
M02*
