G04 #@! TF.GenerationSoftware,KiCad,Pcbnew,5.0.0*
G04 #@! TF.CreationDate,2018-07-16T21:17:55+02:00*
G04 #@! TF.ProjectId,Heltec_Node,48656C7465635F4E6F64652E6B696361,rev?*
G04 #@! TF.SameCoordinates,Original*
G04 #@! TF.FileFunction,Profile,NP*
%FSLAX46Y46*%
G04 Gerber Fmt 4.6, Leading zero omitted, Abs format (unit mm)*
G04 Created by KiCad (PCBNEW 5.0.0) date Mon Jul 16 21:17:55 2018*
%MOMM*%
%LPD*%
G01*
G04 APERTURE LIST*
%ADD10C,0.200000*%
G04 APERTURE END LIST*
D10*
X90950000Y-104000000D02*
G75*
G02X90950000Y-103000000I0J500000D01*
G01*
X91500000Y-118000000D02*
G75*
G02X91500000Y-117000000I0J500000D01*
G01*
X124000000Y-76000000D02*
G75*
G03X140000000Y-76000000I8000000J0D01*
G01*
X89000000Y-104000000D02*
X89000000Y-81000000D01*
X148000000Y-76000000D02*
X140000000Y-76000000D01*
X148000000Y-133000000D02*
X148000000Y-76000000D01*
X160000000Y-145000000D02*
X148000000Y-133000000D01*
X160000000Y-155000000D02*
X160000000Y-145000000D01*
X150000000Y-165000000D02*
X160000000Y-155000000D01*
X95000000Y-165000000D02*
X150000000Y-165000000D01*
X89000000Y-159000000D02*
X95000000Y-165000000D01*
X89000000Y-117000000D02*
X89000000Y-159000000D01*
X94000000Y-76000000D02*
X89000000Y-81000000D01*
X124000000Y-76000000D02*
X94000000Y-76000000D01*
X98600000Y-110000000D02*
G75*
G03X98600000Y-110000000I-3600000J0D01*
G01*
X155000000Y-149500000D02*
X155000000Y-150200000D01*
X155000000Y-150200000D02*
G75*
G03X155500000Y-150700000I500000J0D01*
G01*
X155500000Y-149000000D02*
G75*
G03X155000000Y-149500000I0J-500000D01*
G01*
X149000000Y-149500000D02*
X149000000Y-150200000D01*
X148500000Y-150700000D02*
G75*
G03X149000000Y-150200000I0J500000D01*
G01*
X149000000Y-149500000D02*
G75*
G03X148500000Y-149000000I-500000J0D01*
G01*
X145000000Y-149500000D02*
X145000000Y-150200000D01*
X145000000Y-150200000D02*
G75*
G03X145500000Y-150700000I500000J0D01*
G01*
X145500000Y-149000000D02*
G75*
G03X145000000Y-149500000I0J-500000D01*
G01*
X159000000Y-149500000D02*
X159000000Y-150200000D01*
X158500000Y-150700000D02*
G75*
G03X159000000Y-150200000I0J500000D01*
G01*
X159000000Y-149500000D02*
G75*
G03X158500000Y-149000000I-500000J0D01*
G01*
X145500000Y-150700000D02*
X148500000Y-150700000D01*
X145500000Y-149000000D02*
X148500000Y-149000000D01*
X155500000Y-150700000D02*
X158500000Y-150700000D01*
X155500000Y-149000000D02*
X158500000Y-149000000D01*
X110373969Y-105991801D02*
X108373969Y-105991801D01*
X110373969Y-114991801D02*
X108373969Y-114991801D01*
X111373967Y-106990056D02*
G75*
G03X110373969Y-105991801I-999998J-1745D01*
G01*
X108373969Y-105991801D02*
G75*
G03X107373969Y-106991801I0J-1000000D01*
G01*
X107373969Y-113991801D02*
G75*
G03X108373969Y-114991801I1000000J0D01*
G01*
X110373969Y-114991801D02*
G75*
G03X111373969Y-113991801I0J1000000D01*
G01*
X89000000Y-104000000D02*
X89000000Y-117000000D01*
X107373969Y-113991801D02*
X107373969Y-106991801D01*
X111373969Y-106991801D02*
X111373969Y-113991801D01*
X111373969Y-116999801D02*
G75*
G03X110373969Y-116999801I-500000J0D01*
G01*
X110373969Y-103991801D02*
G75*
G03X111373969Y-103991801I500000J0D01*
G01*
X91450000Y-117000000D02*
X110373969Y-116991801D01*
X110373969Y-103991801D02*
X90950000Y-104000000D01*
X111373967Y-103990056D02*
G75*
G03X110373969Y-102991801I-999998J-1745D01*
G01*
X110373969Y-117991801D02*
G75*
G03X111373969Y-116991801I0J1000000D01*
G01*
X91550000Y-118000000D02*
X110373969Y-117991801D01*
X90950000Y-103000000D02*
X110373969Y-102991801D01*
M02*
